<?xml version="1.0" encoding="UTF-8" standalone="no"?>
<!DOCTYPE svg PUBLIC "-//W3C//DTD SVG 1.1//EN"
 "http://www.w3.org/Graphics/SVG/1.1/DTD/svg11.dtd">
<!-- Generated by graphviz version 6.0.1 (20220911.1526)
 -->
<!-- Title: /github/workspace/include/PID/PID.h Pages: 1 -->
<svg width="282pt" height="258pt"
 viewBox="0.00 0.00 282.18 258.00" xmlns="http://www.w3.org/2000/svg" xmlns:xlink="http://www.w3.org/1999/xlink">
<g id="graph0" class="graph" transform="scale(1 1) rotate(0) translate(4 254)">
<title>/github/workspace/include/PID/PID.h</title>
<!-- Node1 -->
<g id="node1" class="node">
<title>Node1</title>
<g id="a_node1"><a xlink:title=" ">
<polygon fill="#999999" stroke="#666666" points="236.5,-250 106.5,-250 106.5,-220 236.5,-220 236.5,-250"/>
<text text-anchor="start" x="114.5" y="-238" font-family="Helvetica,sans-Serif" font-size="10.00">/github/workspace/include</text>
<text text-anchor="middle" x="171.5" y="-227" font-family="Helvetica,sans-Serif" font-size="10.00">/PID/PID.h</text>
</a>
</g>
</g>
<!-- Node2 -->
<g id="node2" class="node">
<title>Node2</title>
<g id="a_node2"><a xlink:href="debug1_8h.html" target="_top" xlink:title=" ">
<polygon fill="white" stroke="#666666" points="100.5,-184 44.5,-184 44.5,-165 100.5,-165 100.5,-184"/>
<text text-anchor="middle" x="72.5" y="-172" font-family="Helvetica,sans-Serif" font-size="10.00">debug1.h</text>
</a>
</g>
</g>
<!-- Node1&#45;&gt;Node2 -->
<g id="edge1" class="edge">
<title>Node1&#45;&gt;Node2</title>
<path fill="none" stroke="#63b8ff" d="M147.79,-219.99C132.15,-210.75 111.76,-198.7 96.14,-189.47"/>
<polygon fill="#63b8ff" stroke="#63b8ff" points="97.51,-186.21 87.12,-184.14 93.95,-192.24 97.51,-186.21"/>
</g>
<!-- Node4 -->
<g id="node4" class="node">
<title>Node4</title>
<g id="a_node4"><a xlink:href="helper_8h.html" target="_top" xlink:title=" ">
<polygon fill="white" stroke="#666666" points="196.5,-184 146.5,-184 146.5,-165 196.5,-165 196.5,-184"/>
<text text-anchor="middle" x="171.5" y="-172" font-family="Helvetica,sans-Serif" font-size="10.00">helper.h</text>
</a>
</g>
</g>
<!-- Node1&#45;&gt;Node4 -->
<g id="edge3" class="edge">
<title>Node1&#45;&gt;Node4</title>
<path fill="none" stroke="#63b8ff" d="M171.5,-219.84C171.5,-212.21 171.5,-202.7 171.5,-194.45"/>
<polygon fill="#63b8ff" stroke="#63b8ff" points="175,-194.27 171.5,-184.27 168,-194.27 175,-194.27"/>
</g>
<!-- Node7 -->
<g id="node7" class="node">
<title>Node7</title>
<g id="a_node7"><a xlink:title=" ">
<polygon fill="#e0e0e0" stroke="#999999" points="144.5,-19 96.5,-19 96.5,0 144.5,0 144.5,-19"/>
<text text-anchor="middle" x="120.5" y="-7" font-family="Helvetica,sans-Serif" font-size="10.00">mbed.h</text>
</a>
</g>
</g>
<!-- Node1&#45;&gt;Node7 -->
<g id="edge11" class="edge">
<title>Node1&#45;&gt;Node7</title>
<path fill="none" stroke="#63b8ff" d="M196.99,-219.91C232.99,-198.06 291.89,-153.9 268.5,-110 244.48,-64.91 189.95,-36.61 154.21,-22.19"/>
<polygon fill="#63b8ff" stroke="#63b8ff" points="155.26,-18.84 144.67,-18.49 152.73,-25.37 155.26,-18.84"/>
</g>
<!-- Node3 -->
<g id="node3" class="node">
<title>Node3</title>
<g id="a_node3"><a xlink:title=" ">
<polygon fill="#e0e0e0" stroke="#999999" points="66,-129 23,-129 23,-110 66,-110 66,-129"/>
<text text-anchor="middle" x="44.5" y="-117" font-family="Helvetica,sans-Serif" font-size="10.00">cstdio</text>
</a>
</g>
</g>
<!-- Node2&#45;&gt;Node3 -->
<g id="edge2" class="edge">
<title>Node2&#45;&gt;Node3</title>
<path fill="none" stroke="#63b8ff" d="M67.88,-164.75C64.04,-157.49 58.48,-146.95 53.74,-137.98"/>
<polygon fill="#63b8ff" stroke="#63b8ff" points="56.8,-136.3 49.04,-129.09 50.61,-139.57 56.8,-136.3"/>
</g>
<!-- Node5 -->
<g id="node5" class="node">
<title>Node5</title>
<g id="a_node5"><a xlink:href="encoder_8h.html" target="_top" xlink:title=" ">
<polygon fill="white" stroke="#666666" points="143,-129 84,-129 84,-110 143,-110 143,-129"/>
<text text-anchor="middle" x="113.5" y="-117" font-family="Helvetica,sans-Serif" font-size="10.00">encoder.h</text>
</a>
</g>
</g>
<!-- Node4&#45;&gt;Node5 -->
<g id="edge4" class="edge">
<title>Node4&#45;&gt;Node5</title>
<path fill="none" stroke="#63b8ff" d="M162.18,-164.98C153.69,-157.23 140.94,-145.58 130.62,-136.14"/>
<polygon fill="#63b8ff" stroke="#63b8ff" points="132.73,-133.33 122.99,-129.17 128.01,-138.5 132.73,-133.33"/>
</g>
<!-- Node4&#45;&gt;Node7 -->
<g id="edge9" class="edge">
<title>Node4&#45;&gt;Node7</title>
<path fill="none" stroke="#63b8ff" d="M171.46,-164.8C171.07,-144.69 168.47,-93.72 152.5,-55 148.34,-44.92 141.5,-34.95 135.2,-27.01"/>
<polygon fill="#63b8ff" stroke="#63b8ff" points="137.84,-24.71 128.74,-19.28 132.47,-29.2 137.84,-24.71"/>
</g>
<!-- Node9 -->
<g id="node9" class="node">
<title>Node9</title>
<g id="a_node9"><a xlink:title=" ">
<polygon fill="#e0e0e0" stroke="#999999" points="259,-129 200,-129 200,-110 259,-110 259,-129"/>
<text text-anchor="middle" x="229.5" y="-117" font-family="Helvetica,sans-Serif" font-size="10.00">functional</text>
</a>
</g>
</g>
<!-- Node4&#45;&gt;Node9 -->
<g id="edge10" class="edge">
<title>Node4&#45;&gt;Node9</title>
<path fill="none" stroke="#63b8ff" d="M180.82,-164.98C189.31,-157.23 202.06,-145.58 212.38,-136.14"/>
<polygon fill="#63b8ff" stroke="#63b8ff" points="214.99,-138.5 220.01,-129.17 210.27,-133.33 214.99,-138.5"/>
</g>
<!-- Node6 -->
<g id="node6" class="node">
<title>Node6</title>
<g id="a_node6"><a xlink:href="_q_e_i_8h.html" target="_top" xlink:title=" ">
<polygon fill="white" stroke="#666666" points="41,-74 0,-74 0,-55 41,-55 41,-74"/>
<text text-anchor="middle" x="20.5" y="-62" font-family="Helvetica,sans-Serif" font-size="10.00">QEI.h</text>
</a>
</g>
</g>
<!-- Node5&#45;&gt;Node6 -->
<g id="edge5" class="edge">
<title>Node5&#45;&gt;Node6</title>
<path fill="none" stroke="#63b8ff" d="M98.56,-109.98C84,-101.69 61.63,-88.94 44.57,-79.22"/>
<polygon fill="#63b8ff" stroke="#63b8ff" points="46.14,-76.08 35.71,-74.17 42.67,-82.16 46.14,-76.08"/>
</g>
<!-- Node5&#45;&gt;Node7 -->
<g id="edge7" class="edge">
<title>Node5&#45;&gt;Node7</title>
<path fill="none" stroke="#63b8ff" d="M106.15,-110C96.65,-97.93 82.03,-75.07 88.5,-55 91.84,-44.62 98.6,-34.62 105.05,-26.74"/>
<polygon fill="#63b8ff" stroke="#63b8ff" points="107.79,-28.92 111.75,-19.1 102.53,-24.31 107.79,-28.92"/>
</g>
<!-- Node8 -->
<g id="node8" class="node">
<title>Node8</title>
<g id="a_node8"><a xlink:title=" ">
<polygon fill="#e0e0e0" stroke="#999999" points="143.5,-74 97.5,-74 97.5,-55 143.5,-55 143.5,-74"/>
<text text-anchor="middle" x="120.5" y="-62" font-family="Helvetica,sans-Serif" font-size="10.00">chrono</text>
</a>
</g>
</g>
<!-- Node5&#45;&gt;Node8 -->
<g id="edge8" class="edge">
<title>Node5&#45;&gt;Node8</title>
<path fill="none" stroke="#63b8ff" d="M114.66,-109.75C115.57,-102.8 116.89,-92.85 118.04,-84.13"/>
<polygon fill="#63b8ff" stroke="#63b8ff" points="121.53,-84.46 119.37,-74.09 114.59,-83.54 121.53,-84.46"/>
</g>
<!-- Node6&#45;&gt;Node7 -->
<g id="edge6" class="edge">
<title>Node6&#45;&gt;Node7</title>
<path fill="none" stroke="#63b8ff" d="M36.57,-54.98C52.36,-46.61 76.72,-33.7 95.13,-23.95"/>
<polygon fill="#63b8ff" stroke="#63b8ff" points="96.94,-26.95 104.14,-19.17 93.67,-20.76 96.94,-26.95"/>
</g>
</g>
</svg>
