<?xml version="1.0" encoding="UTF-8" standalone="no"?>
<!DOCTYPE svg PUBLIC "-//W3C//DTD SVG 1.1//EN"
 "http://www.w3.org/Graphics/SVG/1.1/DTD/svg11.dtd">
<!-- Generated by graphviz version 5.0.0 (20220708.1001)
 -->
<!-- Title: /github/workspace/include/PID/PID.h Pages: 1 -->
<svg width="282pt" height="263pt"
 viewBox="0.00 0.00 282.23 263.00" xmlns="http://www.w3.org/2000/svg" xmlns:xlink="http://www.w3.org/1999/xlink">
<g id="graph0" class="graph" transform="scale(1 1) rotate(0) translate(4 259)">
<title>/github/workspace/include/PID/PID.h</title>
<!-- Node1 -->
<g id="node1" class="node">
<title>Node1</title>
<g id="a_node1"><a xlink:title=" ">
<polygon fill="#bfbfbf" stroke="black" points="106.5,-224.5 106.5,-254.5 236.5,-254.5 236.5,-224.5 106.5,-224.5"/>
<text text-anchor="start" x="114.5" y="-242.5" font-family="Helvetica,sans-Serif" font-size="10.00">/github/workspace/include</text>
<text text-anchor="middle" x="171.5" y="-231.5" font-family="Helvetica,sans-Serif" font-size="10.00">/PID/PID.h</text>
</a>
</g>
</g>
<!-- Node2 -->
<g id="node2" class="node">
<title>Node2</title>
<g id="a_node2"><a xlink:href="debug1_8h.html" target="_top" xlink:title=" ">
<polygon fill="none" stroke="black" points="44.5,-168.5 44.5,-187.5 100.5,-187.5 100.5,-168.5 44.5,-168.5"/>
<text text-anchor="middle" x="72.5" y="-175.5" font-family="Helvetica,sans-Serif" font-size="10.00">debug1.h</text>
</a>
</g>
</g>
<!-- Node1&#45;&gt;Node2 -->
<g id="edge1" class="edge">
<title>Node1&#45;&gt;Node2</title>
<path fill="none" stroke="midnightblue" d="M148.04,-224.4C132.17,-214.86 111.31,-202.32 95.53,-192.84"/>
<polygon fill="midnightblue" stroke="midnightblue" points="97.28,-189.81 86.91,-187.66 93.67,-195.81 97.28,-189.81"/>
</g>
<!-- Node4 -->
<g id="node4" class="node">
<title>Node4</title>
<g id="a_node4"><a xlink:href="helper_8h.html" target="_top" xlink:title=" ">
<polygon fill="none" stroke="black" points="146.5,-168.5 146.5,-187.5 196.5,-187.5 196.5,-168.5 146.5,-168.5"/>
<text text-anchor="middle" x="171.5" y="-175.5" font-family="Helvetica,sans-Serif" font-size="10.00">helper.h</text>
</a>
</g>
</g>
<!-- Node1&#45;&gt;Node4 -->
<g id="edge3" class="edge">
<title>Node1&#45;&gt;Node4</title>
<path fill="none" stroke="midnightblue" d="M171.5,-224.4C171.5,-216.47 171.5,-206.46 171.5,-197.86"/>
<polygon fill="midnightblue" stroke="midnightblue" points="175,-197.66 171.5,-187.66 168,-197.66 175,-197.66"/>
</g>
<!-- Node7 -->
<g id="node7" class="node">
<title>Node7</title>
<g id="a_node7"><a xlink:title=" ">
<polygon fill="none" stroke="#bfbfbf" points="96.5,-0.5 96.5,-19.5 144.5,-19.5 144.5,-0.5 96.5,-0.5"/>
<text text-anchor="middle" x="120.5" y="-7.5" font-family="Helvetica,sans-Serif" font-size="10.00">mbed.h</text>
</a>
</g>
</g>
<!-- Node1&#45;&gt;Node7 -->
<g id="edge11" class="edge">
<title>Node1&#45;&gt;Node7</title>
<path fill="none" stroke="midnightblue" d="M196.43,-224.43C232.42,-202.18 292.16,-156.78 268.5,-112 244.53,-66.62 189.98,-37.78 154.23,-23.01"/>
<polygon fill="midnightblue" stroke="midnightblue" points="155.27,-19.66 144.68,-19.22 152.68,-26.16 155.27,-19.66"/>
</g>
<!-- Node3 -->
<g id="node3" class="node">
<title>Node3</title>
<g id="a_node3"><a xlink:title=" ">
<polygon fill="none" stroke="#bfbfbf" points="23,-112.5 23,-131.5 66,-131.5 66,-112.5 23,-112.5"/>
<text text-anchor="middle" x="44.5" y="-119.5" font-family="Helvetica,sans-Serif" font-size="10.00">cstdio</text>
</a>
</g>
</g>
<!-- Node2&#45;&gt;Node3 -->
<g id="edge2" class="edge">
<title>Node2&#45;&gt;Node3</title>
<path fill="none" stroke="midnightblue" d="M67.88,-168.08C64.04,-160.69 58.48,-149.95 53.74,-140.81"/>
<polygon fill="midnightblue" stroke="midnightblue" points="56.75,-139.02 49.04,-131.75 50.53,-142.24 56.75,-139.02"/>
</g>
<!-- Node5 -->
<g id="node5" class="node">
<title>Node5</title>
<g id="a_node5"><a xlink:href="encoder_8h.html" target="_top" xlink:title=" ">
<polygon fill="none" stroke="black" points="84,-112.5 84,-131.5 143,-131.5 143,-112.5 84,-112.5"/>
<text text-anchor="middle" x="113.5" y="-119.5" font-family="Helvetica,sans-Serif" font-size="10.00">encoder.h</text>
</a>
</g>
</g>
<!-- Node4&#45;&gt;Node5 -->
<g id="edge4" class="edge">
<title>Node4&#45;&gt;Node5</title>
<path fill="none" stroke="midnightblue" d="M162.18,-168.32C153.61,-160.34 140.69,-148.31 130.31,-138.65"/>
<polygon fill="midnightblue" stroke="midnightblue" points="132.69,-136.09 122.99,-131.83 127.92,-141.21 132.69,-136.09"/>
</g>
<!-- Node4&#45;&gt;Node7 -->
<g id="edge9" class="edge">
<title>Node4&#45;&gt;Node7</title>
<path fill="none" stroke="midnightblue" d="M171.48,-168.43C171.17,-148.12 168.71,-95.78 152.5,-56 148.3,-45.7 141.34,-35.49 134.97,-27.41"/>
<polygon fill="midnightblue" stroke="midnightblue" points="137.55,-25.03 128.47,-19.57 132.16,-29.5 137.55,-25.03"/>
</g>
<!-- Node9 -->
<g id="node9" class="node">
<title>Node9</title>
<g id="a_node9"><a xlink:title=" ">
<polygon fill="none" stroke="#bfbfbf" points="200,-112.5 200,-131.5 259,-131.5 259,-112.5 200,-112.5"/>
<text text-anchor="middle" x="229.5" y="-119.5" font-family="Helvetica,sans-Serif" font-size="10.00">functional</text>
</a>
</g>
</g>
<!-- Node4&#45;&gt;Node9 -->
<g id="edge10" class="edge">
<title>Node4&#45;&gt;Node9</title>
<path fill="none" stroke="midnightblue" d="M180.82,-168.32C189.39,-160.34 202.31,-148.31 212.69,-138.65"/>
<polygon fill="midnightblue" stroke="midnightblue" points="215.08,-141.21 220.01,-131.83 210.31,-136.09 215.08,-141.21"/>
</g>
<!-- Node6 -->
<g id="node6" class="node">
<title>Node6</title>
<g id="a_node6"><a xlink:href="_q_e_i_8h.html" target="_top" xlink:title=" ">
<polygon fill="none" stroke="black" points="0,-56.5 0,-75.5 41,-75.5 41,-56.5 0,-56.5"/>
<text text-anchor="middle" x="20.5" y="-63.5" font-family="Helvetica,sans-Serif" font-size="10.00">QEI.h</text>
</a>
</g>
</g>
<!-- Node5&#45;&gt;Node6 -->
<g id="edge5" class="edge">
<title>Node5&#45;&gt;Node6</title>
<path fill="none" stroke="midnightblue" d="M98.56,-112.32C83.91,-103.82 61.37,-90.73 44.26,-80.8"/>
<polygon fill="midnightblue" stroke="midnightblue" points="45.81,-77.65 35.4,-75.65 42.3,-83.7 45.81,-77.65"/>
</g>
<!-- Node5&#45;&gt;Node7 -->
<g id="edge7" class="edge">
<title>Node5&#45;&gt;Node7</title>
<path fill="none" stroke="midnightblue" d="M106.13,-112.28C96.6,-99.92 81.95,-76.5 88.5,-56 91.84,-45.54 98.6,-35.43 105.05,-27.45"/>
<polygon fill="midnightblue" stroke="midnightblue" points="107.85,-29.56 111.75,-19.71 102.56,-24.98 107.85,-29.56"/>
</g>
<!-- Node8 -->
<g id="node8" class="node">
<title>Node8</title>
<g id="a_node8"><a xlink:title=" ">
<polygon fill="none" stroke="#bfbfbf" points="97.5,-56.5 97.5,-75.5 143.5,-75.5 143.5,-56.5 97.5,-56.5"/>
<text text-anchor="middle" x="120.5" y="-63.5" font-family="Helvetica,sans-Serif" font-size="10.00">chrono</text>
</a>
</g>
</g>
<!-- Node5&#45;&gt;Node8 -->
<g id="edge8" class="edge">
<title>Node5&#45;&gt;Node8</title>
<path fill="none" stroke="midnightblue" d="M114.66,-112.08C115.58,-104.93 116.92,-94.64 118.08,-85.69"/>
<polygon fill="midnightblue" stroke="midnightblue" points="121.55,-86.12 119.37,-75.75 114.61,-85.22 121.55,-86.12"/>
</g>
<!-- Node6&#45;&gt;Node7 -->
<g id="edge6" class="edge">
<title>Node6&#45;&gt;Node7</title>
<path fill="none" stroke="midnightblue" d="M36.57,-56.32C52.46,-47.74 77.01,-34.49 95.46,-24.52"/>
<polygon fill="midnightblue" stroke="midnightblue" points="97.34,-27.49 104.47,-19.65 94.01,-21.33 97.34,-27.49"/>
</g>
</g>
</svg>
