<?xml version="1.0" encoding="UTF-8" standalone="no"?>
<!DOCTYPE svg PUBLIC "-//W3C//DTD SVG 1.1//EN"
 "http://www.w3.org/Graphics/SVG/1.1/DTD/svg11.dtd">
<!-- Generated by graphviz version 3.0.0 (20220413.0106)
 -->
<!-- Title: /github/workspace/include/PID/PID.h Pages: 1 -->
<svg width="362pt" height="263pt"
 viewBox="0.00 0.00 361.50 263.00" xmlns="http://www.w3.org/2000/svg" xmlns:xlink="http://www.w3.org/1999/xlink">
<g id="graph0" class="graph" transform="scale(1 1) rotate(0) translate(4 259)">
<title>/github/workspace/include/PID/PID.h</title>
<!-- Node1 -->
<g id="node1" class="node">
<title>Node1</title>
<g id="a_node1"><a xlink:title=" ">
<polygon fill="#bfbfbf" stroke="black" points="223.5,-224.5 223.5,-254.5 353.5,-254.5 353.5,-224.5 223.5,-224.5"/>
<text text-anchor="start" x="231.5" y="-242.5" font-family="Helvetica,sans-Serif" font-size="10.00">/github/workspace/include</text>
<text text-anchor="middle" x="288.5" y="-231.5" font-family="Helvetica,sans-Serif" font-size="10.00">/PID/PID.h</text>
</a>
</g>
</g>
<!-- Node2 -->
<g id="node2" class="node">
<title>Node2</title>
<g id="a_node2"><a xlink:href="helper_8h.html" target="_top" xlink:title=" ">
<polygon fill="none" stroke="black" points="204.5,-168.5 204.5,-187.5 254.5,-187.5 254.5,-168.5 204.5,-168.5"/>
<text text-anchor="middle" x="229.5" y="-175.5" font-family="Helvetica,sans-Serif" font-size="10.00">helper.h</text>
</a>
</g>
</g>
<!-- Node1&#45;&gt;Node2 -->
<g id="edge1" class="edge">
<title>Node1&#45;&gt;Node2</title>
<path fill="none" stroke="midnightblue" d="M274.52,-224.4C265.77,-215.58 254.47,-204.18 245.38,-195.02"/>
<polygon fill="midnightblue" stroke="midnightblue" points="247.61,-192.29 238.09,-187.66 242.64,-197.22 247.61,-192.29"/>
</g>
<!-- Node5 -->
<g id="node5" class="node">
<title>Node5</title>
<g id="a_node5"><a xlink:title=" ">
<polygon fill="none" stroke="#bfbfbf" points="96.5,-0.5 96.5,-19.5 144.5,-19.5 144.5,-0.5 96.5,-0.5"/>
<text text-anchor="middle" x="120.5" y="-7.5" font-family="Helvetica,sans-Serif" font-size="10.00">mbed.h</text>
</a>
</g>
</g>
<!-- Node1&#45;&gt;Node5 -->
<g id="edge10" class="edge">
<title>Node1&#45;&gt;Node5</title>
<path fill="none" stroke="midnightblue" d="M300.52,-224.25C319.64,-199.75 352.57,-148.77 329.5,-112 290.99,-50.62 203.47,-25.64 154.79,-16.2"/>
<polygon fill="midnightblue" stroke="midnightblue" points="155.2,-12.72 144.73,-14.37 153.94,-19.61 155.2,-12.72"/>
</g>
<!-- Node3 -->
<g id="node3" class="node">
<title>Node3</title>
<g id="a_node3"><a xlink:href="encoder_8h.html" target="_top" xlink:title=" ">
<polygon fill="none" stroke="black" points="62,-112.5 62,-131.5 121,-131.5 121,-112.5 62,-112.5"/>
<text text-anchor="middle" x="91.5" y="-119.5" font-family="Helvetica,sans-Serif" font-size="10.00">encoder.h</text>
</a>
</g>
</g>
<!-- Node2&#45;&gt;Node3 -->
<g id="edge2" class="edge">
<title>Node2&#45;&gt;Node3</title>
<path fill="none" stroke="midnightblue" d="M207.63,-168.44C184.72,-159.48 148.52,-145.31 122.63,-135.18"/>
<polygon fill="midnightblue" stroke="midnightblue" points="123.85,-131.9 113.26,-131.52 121.3,-138.42 123.85,-131.9"/>
</g>
<!-- Node2&#45;&gt;Node5 -->
<g id="edge7" class="edge">
<title>Node2&#45;&gt;Node5</title>
<path fill="none" stroke="midnightblue" d="M221,-168.18C212.83,-159.44 200.46,-145.45 191.5,-132 170.45,-100.4 172.22,-88.44 152.5,-56 146.65,-46.37 139.43,-36.1 133.33,-27.81"/>
<polygon fill="midnightblue" stroke="midnightblue" points="136.06,-25.62 127.26,-19.71 130.45,-29.81 136.06,-25.62"/>
</g>
<!-- Node7 -->
<g id="node7" class="node">
<title>Node7</title>
<g id="a_node7"><a xlink:title=" ">
<polygon fill="none" stroke="#bfbfbf" points="200,-112.5 200,-131.5 259,-131.5 259,-112.5 200,-112.5"/>
<text text-anchor="middle" x="229.5" y="-119.5" font-family="Helvetica,sans-Serif" font-size="10.00">functional</text>
</a>
</g>
</g>
<!-- Node2&#45;&gt;Node7 -->
<g id="edge8" class="edge">
<title>Node2&#45;&gt;Node7</title>
<path fill="none" stroke="midnightblue" d="M229.5,-168.08C229.5,-161.01 229.5,-150.86 229.5,-141.99"/>
<polygon fill="midnightblue" stroke="midnightblue" points="233,-141.75 229.5,-131.75 226,-141.75 233,-141.75"/>
</g>
<!-- Node8 -->
<g id="node8" class="node">
<title>Node8</title>
<g id="a_node8"><a xlink:title=" ">
<polygon fill="none" stroke="#bfbfbf" points="277,-112.5 277,-131.5 320,-131.5 320,-112.5 277,-112.5"/>
<text text-anchor="middle" x="298.5" y="-119.5" font-family="Helvetica,sans-Serif" font-size="10.00">cstdio</text>
</a>
</g>
</g>
<!-- Node2&#45;&gt;Node8 -->
<g id="edge9" class="edge">
<title>Node2&#45;&gt;Node8</title>
<path fill="none" stroke="midnightblue" d="M240.59,-168.32C250.99,-160.18 266.76,-147.84 279.22,-138.09"/>
<polygon fill="midnightblue" stroke="midnightblue" points="281.49,-140.75 287.21,-131.83 277.18,-135.24 281.49,-140.75"/>
</g>
<!-- Node4 -->
<g id="node4" class="node">
<title>Node4</title>
<g id="a_node4"><a xlink:href="_q_e_i_8h.html" target="_top" xlink:title=" ">
<polygon fill="none" stroke="black" points="0,-56.5 0,-75.5 41,-75.5 41,-56.5 0,-56.5"/>
<text text-anchor="middle" x="20.5" y="-63.5" font-family="Helvetica,sans-Serif" font-size="10.00">QEI.h</text>
</a>
</g>
</g>
<!-- Node3&#45;&gt;Node4 -->
<g id="edge3" class="edge">
<title>Node3&#45;&gt;Node4</title>
<path fill="none" stroke="midnightblue" d="M80.09,-112.32C69.39,-104.18 53.16,-91.84 40.34,-82.09"/>
<polygon fill="midnightblue" stroke="midnightblue" points="42.19,-79.1 32.11,-75.83 37.96,-84.67 42.19,-79.1"/>
</g>
<!-- Node3&#45;&gt;Node5 -->
<g id="edge5" class="edge">
<title>Node3&#45;&gt;Node5</title>
<path fill="none" stroke="midnightblue" d="M89.23,-112.34C86.31,-99.64 82.31,-75.37 88.5,-56 91.84,-45.54 98.6,-35.43 105.05,-27.45"/>
<polygon fill="midnightblue" stroke="midnightblue" points="107.85,-29.56 111.75,-19.71 102.56,-24.98 107.85,-29.56"/>
</g>
<!-- Node6 -->
<g id="node6" class="node">
<title>Node6</title>
<g id="a_node6"><a xlink:title=" ">
<polygon fill="none" stroke="#bfbfbf" points="97.5,-56.5 97.5,-75.5 143.5,-75.5 143.5,-56.5 97.5,-56.5"/>
<text text-anchor="middle" x="120.5" y="-63.5" font-family="Helvetica,sans-Serif" font-size="10.00">chrono</text>
</a>
</g>
</g>
<!-- Node3&#45;&gt;Node6 -->
<g id="edge6" class="edge">
<title>Node3&#45;&gt;Node6</title>
<path fill="none" stroke="midnightblue" d="M96.29,-112.08C100.26,-104.69 106.03,-93.95 110.93,-84.81"/>
<polygon fill="midnightblue" stroke="midnightblue" points="114.15,-86.22 115.8,-75.75 107.99,-82.91 114.15,-86.22"/>
</g>
<!-- Node4&#45;&gt;Node5 -->
<g id="edge4" class="edge">
<title>Node4&#45;&gt;Node5</title>
<path fill="none" stroke="midnightblue" d="M36.57,-56.32C52.46,-47.74 77.01,-34.49 95.46,-24.52"/>
<polygon fill="midnightblue" stroke="midnightblue" points="97.34,-27.49 104.47,-19.65 94.01,-21.33 97.34,-27.49"/>
</g>
</g>
</svg>
