<?xml version="1.0" encoding="UTF-8" standalone="no"?>
<!DOCTYPE svg PUBLIC "-//W3C//DTD SVG 1.1//EN"
 "http://www.w3.org/Graphics/SVG/1.1/DTD/svg11.dtd">
<!-- Generated by graphviz version 3.0.0 (20220413.0106)
 -->
<!-- Title: /github/workspace/include/PID/PID.h Pages: 1 -->
<svg width="303pt" height="263pt"
 viewBox="0.00 0.00 302.50 263.00" xmlns="http://www.w3.org/2000/svg" xmlns:xlink="http://www.w3.org/1999/xlink">
<g id="graph0" class="graph" transform="scale(1 1) rotate(0) translate(4 259)">
<title>/github/workspace/include/PID/PID.h</title>
<!-- Node1 -->
<g id="node1" class="node">
<title>Node1</title>
<g id="a_node1"><a xlink:title=" ">
<polygon fill="#bfbfbf" stroke="black" points="164.5,-224.5 164.5,-254.5 294.5,-254.5 294.5,-224.5 164.5,-224.5"/>
<text text-anchor="start" x="172.5" y="-242.5" font-family="Helvetica,sans-Serif" font-size="10.00">/github/workspace/include</text>
<text text-anchor="middle" x="229.5" y="-231.5" font-family="Helvetica,sans-Serif" font-size="10.00">/PID/PID.h</text>
</a>
</g>
</g>
<!-- Node2 -->
<g id="node2" class="node">
<title>Node2</title>
<g id="a_node2"><a xlink:href="helper_8h.html" target="_top" xlink:title=" ">
<polygon fill="none" stroke="black" points="175.5,-168.5 175.5,-187.5 225.5,-187.5 225.5,-168.5 175.5,-168.5"/>
<text text-anchor="middle" x="200.5" y="-175.5" font-family="Helvetica,sans-Serif" font-size="10.00">helper.h</text>
</a>
</g>
</g>
<!-- Node1&#45;&gt;Node2 -->
<g id="edge1" class="edge">
<title>Node1&#45;&gt;Node2</title>
<path fill="none" stroke="midnightblue" d="M222.63,-224.4C218.59,-216.11 213.44,-205.55 209.13,-196.71"/>
<polygon fill="midnightblue" stroke="midnightblue" points="212.25,-195.11 204.72,-187.66 205.95,-198.18 212.25,-195.11"/>
</g>
<!-- Node5 -->
<g id="node5" class="node">
<title>Node5</title>
<g id="a_node5"><a xlink:title=" ">
<polygon fill="none" stroke="#bfbfbf" points="96.5,-0.5 96.5,-19.5 144.5,-19.5 144.5,-0.5 96.5,-0.5"/>
<text text-anchor="middle" x="120.5" y="-7.5" font-family="Helvetica,sans-Serif" font-size="10.00">mbed.h</text>
</a>
</g>
</g>
<!-- Node1&#45;&gt;Node5 -->
<g id="edge9" class="edge">
<title>Node1&#45;&gt;Node5</title>
<path fill="none" stroke="midnightblue" d="M240.85,-224.17C258.51,-199.98 288.57,-150 268.5,-112 244.53,-66.62 189.98,-37.78 154.23,-23.01"/>
<polygon fill="midnightblue" stroke="midnightblue" points="155.27,-19.66 144.68,-19.22 152.68,-26.16 155.27,-19.66"/>
</g>
<!-- Node3 -->
<g id="node3" class="node">
<title>Node3</title>
<g id="a_node3"><a xlink:href="encoder_8h.html" target="_top" xlink:title=" ">
<polygon fill="none" stroke="black" points="62,-112.5 62,-131.5 121,-131.5 121,-112.5 62,-112.5"/>
<text text-anchor="middle" x="91.5" y="-119.5" font-family="Helvetica,sans-Serif" font-size="10.00">encoder.h</text>
</a>
</g>
</g>
<!-- Node2&#45;&gt;Node3 -->
<g id="edge2" class="edge">
<title>Node2&#45;&gt;Node3</title>
<path fill="none" stroke="midnightblue" d="M182.99,-168.32C165.43,-159.62 138.17,-146.12 117.97,-136.11"/>
<polygon fill="midnightblue" stroke="midnightblue" points="119.48,-132.96 108.97,-131.65 116.38,-139.23 119.48,-132.96"/>
</g>
<!-- Node2&#45;&gt;Node5 -->
<g id="edge7" class="edge">
<title>Node2&#45;&gt;Node5</title>
<path fill="none" stroke="midnightblue" d="M197.9,-168.47C191.58,-148.26 174.3,-96.11 152.5,-56 147.12,-46.1 139.94,-35.81 133.74,-27.57"/>
<polygon fill="midnightblue" stroke="midnightblue" points="136.42,-25.32 127.53,-19.55 130.89,-29.6 136.42,-25.32"/>
</g>
<!-- Node7 -->
<g id="node7" class="node">
<title>Node7</title>
<g id="a_node7"><a xlink:title=" ">
<polygon fill="none" stroke="#bfbfbf" points="200,-112.5 200,-131.5 259,-131.5 259,-112.5 200,-112.5"/>
<text text-anchor="middle" x="229.5" y="-119.5" font-family="Helvetica,sans-Serif" font-size="10.00">functional</text>
</a>
</g>
</g>
<!-- Node2&#45;&gt;Node7 -->
<g id="edge8" class="edge">
<title>Node2&#45;&gt;Node7</title>
<path fill="none" stroke="midnightblue" d="M205.29,-168.08C209.26,-160.69 215.03,-149.95 219.93,-140.81"/>
<polygon fill="midnightblue" stroke="midnightblue" points="223.15,-142.22 224.8,-131.75 216.99,-138.91 223.15,-142.22"/>
</g>
<!-- Node4 -->
<g id="node4" class="node">
<title>Node4</title>
<g id="a_node4"><a xlink:href="_q_e_i_8h.html" target="_top" xlink:title=" ">
<polygon fill="none" stroke="black" points="0,-56.5 0,-75.5 41,-75.5 41,-56.5 0,-56.5"/>
<text text-anchor="middle" x="20.5" y="-63.5" font-family="Helvetica,sans-Serif" font-size="10.00">QEI.h</text>
</a>
</g>
</g>
<!-- Node3&#45;&gt;Node4 -->
<g id="edge3" class="edge">
<title>Node3&#45;&gt;Node4</title>
<path fill="none" stroke="midnightblue" d="M80.09,-112.32C69.39,-104.18 53.16,-91.84 40.34,-82.09"/>
<polygon fill="midnightblue" stroke="midnightblue" points="42.19,-79.1 32.11,-75.83 37.96,-84.67 42.19,-79.1"/>
</g>
<!-- Node3&#45;&gt;Node5 -->
<g id="edge5" class="edge">
<title>Node3&#45;&gt;Node5</title>
<path fill="none" stroke="midnightblue" d="M89.23,-112.34C86.31,-99.64 82.31,-75.37 88.5,-56 91.84,-45.54 98.6,-35.43 105.05,-27.45"/>
<polygon fill="midnightblue" stroke="midnightblue" points="107.85,-29.56 111.75,-19.71 102.56,-24.98 107.85,-29.56"/>
</g>
<!-- Node6 -->
<g id="node6" class="node">
<title>Node6</title>
<g id="a_node6"><a xlink:title=" ">
<polygon fill="none" stroke="#bfbfbf" points="97.5,-56.5 97.5,-75.5 143.5,-75.5 143.5,-56.5 97.5,-56.5"/>
<text text-anchor="middle" x="120.5" y="-63.5" font-family="Helvetica,sans-Serif" font-size="10.00">chrono</text>
</a>
</g>
</g>
<!-- Node3&#45;&gt;Node6 -->
<g id="edge6" class="edge">
<title>Node3&#45;&gt;Node6</title>
<path fill="none" stroke="midnightblue" d="M96.29,-112.08C100.26,-104.69 106.03,-93.95 110.93,-84.81"/>
<polygon fill="midnightblue" stroke="midnightblue" points="114.15,-86.22 115.8,-75.75 107.99,-82.91 114.15,-86.22"/>
</g>
<!-- Node4&#45;&gt;Node5 -->
<g id="edge4" class="edge">
<title>Node4&#45;&gt;Node5</title>
<path fill="none" stroke="midnightblue" d="M36.57,-56.32C52.46,-47.74 77.01,-34.49 95.46,-24.52"/>
<polygon fill="midnightblue" stroke="midnightblue" points="97.34,-27.49 104.47,-19.65 94.01,-21.33 97.34,-27.49"/>
</g>
</g>
</svg>
