<?xml version="1.0" encoding="UTF-8" standalone="no"?>
<!DOCTYPE svg PUBLIC "-//W3C//DTD SVG 1.1//EN"
 "http://www.w3.org/Graphics/SVG/1.1/DTD/svg11.dtd">
<!-- Generated by graphviz version 5.0.0 (20220708.1001)
 -->
<!-- Title: /github/workspace/include/QEI/QEI.h Pages: 1 -->
<svg width="439pt" height="307pt"
 viewBox="0.00 0.00 439.00 307.00" xmlns="http://www.w3.org/2000/svg" xmlns:xlink="http://www.w3.org/1999/xlink">
<g id="graph0" class="graph" transform="scale(1 1) rotate(0) translate(4 303)">
<title>/github/workspace/include/QEI/QEI.h</title>
<!-- Node1 -->
<g id="node1" class="node">
<title>Node1</title>
<g id="a_node1"><a xlink:title=" ">
<polygon fill="#bfbfbf" stroke="black" points="227,-268.5 227,-298.5 357,-298.5 357,-268.5 227,-268.5"/>
<text text-anchor="start" x="235" y="-286.5" font-family="Helvetica,sans-Serif" font-size="10.00">/github/workspace/include</text>
<text text-anchor="middle" x="292" y="-275.5" font-family="Helvetica,sans-Serif" font-size="10.00">/QEI/QEI.h</text>
</a>
</g>
</g>
<!-- Node2 -->
<g id="node2" class="node">
<title>Node2</title>
<g id="a_node2"><a xlink:href="encoder_8h.html" target="_top" xlink:title=" ">
<polygon fill="none" stroke="black" points="227,-201.5 227,-231.5 357,-231.5 357,-201.5 227,-201.5"/>
<text text-anchor="start" x="235" y="-219.5" font-family="Helvetica,sans-Serif" font-size="10.00">/github/workspace/include</text>
<text text-anchor="middle" x="292" y="-208.5" font-family="Helvetica,sans-Serif" font-size="10.00">/QEI/encoder/encoder.h</text>
</a>
</g>
</g>
<!-- Node1&#45;&gt;Node2 -->
<g id="edge1" class="edge">
<title>Node1&#45;&gt;Node2</title>
<path fill="none" stroke="midnightblue" d="M292,-258.11C292,-249.15 292,-239.32 292,-231.58"/>
<polygon fill="midnightblue" stroke="midnightblue" points="288.5,-258.4 292,-268.4 295.5,-258.4 288.5,-258.4"/>
</g>
<!-- Node3 -->
<g id="node3" class="node">
<title>Node3</title>
<g id="a_node3"><a xlink:href="helper_8h.html" target="_top" xlink:title=" ">
<polygon fill="none" stroke="black" points="167,-134.5 167,-164.5 297,-164.5 297,-134.5 167,-134.5"/>
<text text-anchor="start" x="175" y="-152.5" font-family="Helvetica,sans-Serif" font-size="10.00">/github/workspace/include</text>
<text text-anchor="middle" x="232" y="-141.5" font-family="Helvetica,sans-Serif" font-size="10.00">/helper.h</text>
</a>
</g>
</g>
<!-- Node2&#45;&gt;Node3 -->
<g id="edge2" class="edge">
<title>Node2&#45;&gt;Node3</title>
<path fill="none" stroke="midnightblue" d="M272.18,-194.02C263.24,-184.34 252.93,-173.17 244.99,-164.58"/>
<polygon fill="midnightblue" stroke="midnightblue" points="269.63,-196.42 278.98,-201.4 274.77,-191.67 269.63,-196.42"/>
</g>
<!-- Node6 -->
<g id="node6" class="node">
<title>Node6</title>
<g id="a_node6"><a xlink:href="motor_8h.html" target="_top" xlink:title=" ">
<polygon fill="none" stroke="black" points="301,-67.5 301,-97.5 431,-97.5 431,-67.5 301,-67.5"/>
<text text-anchor="start" x="309" y="-85.5" font-family="Helvetica,sans-Serif" font-size="10.00">/github/workspace/include</text>
<text text-anchor="middle" x="366" y="-74.5" font-family="Helvetica,sans-Serif" font-size="10.00">/motor/motor.h</text>
</a>
</g>
</g>
<!-- Node2&#45;&gt;Node6 -->
<g id="edge7" class="edge">
<title>Node2&#45;&gt;Node6</title>
<path fill="none" stroke="midnightblue" d="M304.91,-192.48C320.27,-165.07 345.43,-120.19 358.14,-97.52"/>
<polygon fill="midnightblue" stroke="midnightblue" points="301.76,-190.94 299.92,-201.37 307.86,-194.36 301.76,-190.94"/>
</g>
<!-- Node4 -->
<g id="node4" class="node">
<title>Node4</title>
<g id="a_node4"><a xlink:href="_p_i_d_8h.html" target="_top" xlink:title=" ">
<polygon fill="none" stroke="black" points="5,-67.5 5,-97.5 135,-97.5 135,-67.5 5,-67.5"/>
<text text-anchor="start" x="13" y="-85.5" font-family="Helvetica,sans-Serif" font-size="10.00">/github/workspace/include</text>
<text text-anchor="middle" x="70" y="-74.5" font-family="Helvetica,sans-Serif" font-size="10.00">/PID/PID.h</text>
</a>
</g>
</g>
<!-- Node3&#45;&gt;Node4 -->
<g id="edge3" class="edge">
<title>Node3&#45;&gt;Node4</title>
<path fill="none" stroke="midnightblue" d="M187.25,-130.54C161.33,-120.14 129.16,-107.24 105.08,-97.58"/>
<polygon fill="midnightblue" stroke="midnightblue" points="186.26,-133.92 196.85,-134.4 188.87,-127.42 186.26,-133.92"/>
</g>
<!-- Node3&#45;&gt;Node6 -->
<g id="edge5" class="edge">
<title>Node3&#45;&gt;Node6</title>
<path fill="none" stroke="midnightblue" d="M270.15,-129.99C291.39,-119.69 317.41,-107.07 336.98,-97.58"/>
<polygon fill="midnightblue" stroke="midnightblue" points="268.55,-126.88 261.08,-134.4 271.6,-133.18 268.55,-126.88"/>
</g>
<!-- Node7 -->
<g id="node7" class="node">
<title>Node7</title>
<g id="a_node7"><a xlink:href="sensor_8h.html" target="_top" xlink:title=" ">
<polygon fill="none" stroke="black" points="153,-67.5 153,-97.5 283,-97.5 283,-67.5 153,-67.5"/>
<text text-anchor="start" x="161" y="-85.5" font-family="Helvetica,sans-Serif" font-size="10.00">/github/workspace/include</text>
<text text-anchor="middle" x="218" y="-74.5" font-family="Helvetica,sans-Serif" font-size="10.00">/sensor/sensor.h</text>
</a>
</g>
</g>
<!-- Node3&#45;&gt;Node7 -->
<g id="edge6" class="edge">
<title>Node3&#45;&gt;Node7</title>
<path fill="none" stroke="midnightblue" d="M226.81,-124.4C224.86,-115.37 222.72,-105.41 221.03,-97.58"/>
<polygon fill="midnightblue" stroke="midnightblue" points="223.44,-125.36 228.96,-134.4 230.28,-123.88 223.44,-125.36"/>
</g>
<!-- Node5 -->
<g id="node5" class="node">
<title>Node5</title>
<g id="a_node5"><a xlink:href="wheelcontrol_8h.html" target="_top" xlink:title=" ">
<polygon fill="none" stroke="black" points="0,-0.5 0,-30.5 140,-30.5 140,-0.5 0,-0.5"/>
<text text-anchor="start" x="8" y="-18.5" font-family="Helvetica,sans-Serif" font-size="10.00">/github/workspace/include</text>
<text text-anchor="middle" x="70" y="-7.5" font-family="Helvetica,sans-Serif" font-size="10.00">/wheelcontrol/wheelcontrol.h</text>
</a>
</g>
</g>
<!-- Node4&#45;&gt;Node5 -->
<g id="edge4" class="edge">
<title>Node4&#45;&gt;Node5</title>
<path fill="none" stroke="midnightblue" d="M70,-57.11C70,-48.15 70,-38.32 70,-30.58"/>
<polygon fill="midnightblue" stroke="midnightblue" points="66.5,-57.4 70,-67.4 73.5,-57.4 66.5,-57.4"/>
</g>
</g>
</svg>
