<?xml version="1.0" encoding="UTF-8" standalone="no"?>
<!DOCTYPE svg PUBLIC "-//W3C//DTD SVG 1.1//EN"
 "http://www.w3.org/Graphics/SVG/1.1/DTD/svg11.dtd">
<!-- Generated by graphviz version 6.0.1 (20220911.1526)
 -->
<!-- Title: /github/workspace/include/QEI/QEI.h Pages: 1 -->
<svg width="439pt" height="302pt"
 viewBox="0.00 0.00 439.00 302.00" xmlns="http://www.w3.org/2000/svg" xmlns:xlink="http://www.w3.org/1999/xlink">
<g id="graph0" class="graph" transform="scale(1 1) rotate(0) translate(4 298)">
<title>/github/workspace/include/QEI/QEI.h</title>
<!-- Node1 -->
<g id="node1" class="node">
<title>Node1</title>
<g id="a_node1"><a xlink:title=" ">
<polygon fill="#999999" stroke="#666666" points="357,-294 227,-294 227,-264 357,-264 357,-294"/>
<text text-anchor="start" x="235" y="-282" font-family="Helvetica,sans-Serif" font-size="10.00">/github/workspace/include</text>
<text text-anchor="middle" x="292" y="-271" font-family="Helvetica,sans-Serif" font-size="10.00">/QEI/QEI.h</text>
</a>
</g>
</g>
<!-- Node2 -->
<g id="node2" class="node">
<title>Node2</title>
<g id="a_node2"><a xlink:href="encoder_8h.html" target="_top" xlink:title=" ">
<polygon fill="white" stroke="#666666" points="357,-228 227,-228 227,-198 357,-198 357,-228"/>
<text text-anchor="start" x="235" y="-216" font-family="Helvetica,sans-Serif" font-size="10.00">/github/workspace/include</text>
<text text-anchor="middle" x="292" y="-205" font-family="Helvetica,sans-Serif" font-size="10.00">/QEI/encoder/encoder.h</text>
</a>
</g>
</g>
<!-- Node1&#45;&gt;Node2 -->
<g id="edge1" class="edge">
<title>Node1&#45;&gt;Node2</title>
<path fill="none" stroke="#63b8ff" d="M292,-253.54C292,-244.96 292,-235.61 292,-228.16"/>
<polygon fill="#63b8ff" stroke="#63b8ff" points="288.5,-253.8 292,-263.8 295.5,-253.8 288.5,-253.8"/>
</g>
<!-- Node3 -->
<g id="node3" class="node">
<title>Node3</title>
<g id="a_node3"><a xlink:href="helper_8h.html" target="_top" xlink:title=" ">
<polygon fill="white" stroke="#666666" points="297,-162 167,-162 167,-132 297,-132 297,-162"/>
<text text-anchor="start" x="175" y="-150" font-family="Helvetica,sans-Serif" font-size="10.00">/github/workspace/include</text>
<text text-anchor="middle" x="232" y="-139" font-family="Helvetica,sans-Serif" font-size="10.00">/helper.h</text>
</a>
</g>
</g>
<!-- Node2&#45;&gt;Node3 -->
<g id="edge2" class="edge">
<title>Node2&#45;&gt;Node3</title>
<path fill="none" stroke="#63b8ff" d="M271.72,-190.37C262.99,-181.06 253.04,-170.44 245.28,-162.16"/>
<polygon fill="#63b8ff" stroke="#63b8ff" points="269.29,-192.89 278.68,-197.8 274.4,-188.11 269.29,-192.89"/>
</g>
<!-- Node6 -->
<g id="node6" class="node">
<title>Node6</title>
<g id="a_node6"><a xlink:href="motor_8h.html" target="_top" xlink:title=" ">
<polygon fill="white" stroke="#666666" points="431,-96 301,-96 301,-66 431,-66 431,-96"/>
<text text-anchor="start" x="309" y="-84" font-family="Helvetica,sans-Serif" font-size="10.00">/github/workspace/include</text>
<text text-anchor="middle" x="366" y="-73" font-family="Helvetica,sans-Serif" font-size="10.00">/motor/motor.h</text>
</a>
</g>
</g>
<!-- Node2&#45;&gt;Node6 -->
<g id="edge7" class="edge">
<title>Node2&#45;&gt;Node6</title>
<path fill="none" stroke="#63b8ff" d="M305.04,-189.1C320.33,-162.23 345.22,-118.5 357.95,-96.14"/>
<polygon fill="#63b8ff" stroke="#63b8ff" points="301.97,-187.42 300.06,-197.84 308.05,-190.88 301.97,-187.42"/>
</g>
<!-- Node4 -->
<g id="node4" class="node">
<title>Node4</title>
<g id="a_node4"><a xlink:href="_p_i_d_8h.html" target="_top" xlink:title=" ">
<polygon fill="white" stroke="#666666" points="135,-96 5,-96 5,-66 135,-66 135,-96"/>
<text text-anchor="start" x="13" y="-84" font-family="Helvetica,sans-Serif" font-size="10.00">/github/workspace/include</text>
<text text-anchor="middle" x="70" y="-73" font-family="Helvetica,sans-Serif" font-size="10.00">/PID/PID.h</text>
</a>
</g>
</g>
<!-- Node3&#45;&gt;Node4 -->
<g id="edge3" class="edge">
<title>Node3&#45;&gt;Node4</title>
<path fill="none" stroke="#63b8ff" d="M186.91,-128.19C161.19,-118.02 129.4,-105.47 105.47,-96.01"/>
<polygon fill="#63b8ff" stroke="#63b8ff" points="185.86,-131.54 196.45,-131.95 188.43,-125.03 185.86,-131.54"/>
</g>
<!-- Node3&#45;&gt;Node6 -->
<g id="edge5" class="edge">
<title>Node3&#45;&gt;Node6</title>
<path fill="none" stroke="#63b8ff" d="M270.71,-127.51C291.73,-117.47 317.3,-105.26 336.66,-96.01"/>
<polygon fill="#63b8ff" stroke="#63b8ff" points="268.92,-124.49 261.41,-131.95 271.94,-130.8 268.92,-124.49"/>
</g>
<!-- Node7 -->
<g id="node7" class="node">
<title>Node7</title>
<g id="a_node7"><a xlink:href="sensor_8h.html" target="_top" xlink:title=" ">
<polygon fill="white" stroke="#666666" points="283,-96 153,-96 153,-66 283,-66 283,-96"/>
<text text-anchor="start" x="161" y="-84" font-family="Helvetica,sans-Serif" font-size="10.00">/github/workspace/include</text>
<text text-anchor="middle" x="218" y="-73" font-family="Helvetica,sans-Serif" font-size="10.00">/sensor/sensor.h</text>
</a>
</g>
</g>
<!-- Node3&#45;&gt;Node7 -->
<g id="edge6" class="edge">
<title>Node3&#45;&gt;Node7</title>
<path fill="none" stroke="#63b8ff" d="M226.71,-121.83C224.82,-113.17 222.75,-103.7 221.1,-96.16"/>
<polygon fill="#63b8ff" stroke="#63b8ff" points="223.34,-122.78 228.89,-131.8 230.18,-121.28 223.34,-122.78"/>
</g>
<!-- Node5 -->
<g id="node5" class="node">
<title>Node5</title>
<g id="a_node5"><a xlink:href="wheelcontrol_8h.html" target="_top" xlink:title=" ">
<polygon fill="white" stroke="#666666" points="140,-30 0,-30 0,0 140,0 140,-30"/>
<text text-anchor="start" x="8" y="-18" font-family="Helvetica,sans-Serif" font-size="10.00">/github/workspace/include</text>
<text text-anchor="middle" x="70" y="-7" font-family="Helvetica,sans-Serif" font-size="10.00">/wheelcontrol/wheelcontrol.h</text>
</a>
</g>
</g>
<!-- Node4&#45;&gt;Node5 -->
<g id="edge4" class="edge">
<title>Node4&#45;&gt;Node5</title>
<path fill="none" stroke="#63b8ff" d="M70,-55.54C70,-46.96 70,-37.61 70,-30.16"/>
<polygon fill="#63b8ff" stroke="#63b8ff" points="66.5,-55.8 70,-65.8 73.5,-55.8 66.5,-55.8"/>
</g>
</g>
</svg>
