<?xml version="1.0" encoding="UTF-8" standalone="no"?>
<!DOCTYPE svg PUBLIC "-//W3C//DTD SVG 1.1//EN"
 "http://www.w3.org/Graphics/SVG/1.1/DTD/svg11.dtd">
<!-- Generated by graphviz version 2.50.0 (20220203.2022)
 -->
<!-- Title: /github/workspace/include/QEI/QEI.h Pages: 1 -->
<svg width="184pt" height="240pt"
 viewBox="0.00 0.00 184.00 240.00" xmlns="http://www.w3.org/2000/svg" xmlns:xlink="http://www.w3.org/1999/xlink">
<g id="graph0" class="graph" transform="scale(1 1) rotate(0) translate(4 236)">
<title>/github/workspace/include/QEI/QEI.h</title>
<!-- Node1 -->
<g id="node1" class="node">
<title>Node1</title>
<g id="a_node1"><a xlink:title=" ">
<polygon fill="#bfbfbf" stroke="black" points="46,-201.5 46,-231.5 176,-231.5 176,-201.5 46,-201.5"/>
<text text-anchor="start" x="54" y="-219.5" font-family="Helvetica,sans-Serif" font-size="10.00">/github/workspace/include</text>
<text text-anchor="middle" x="111" y="-208.5" font-family="Helvetica,sans-Serif" font-size="10.00">/QEI/QEI.h</text>
</a>
</g>
</g>
<!-- Node2 -->
<g id="node2" class="node">
<title>Node2</title>
<g id="a_node2"><a xlink:href="encoder_8h.html" target="_top" xlink:title=" ">
<polygon fill="none" stroke="black" points="46,-134.5 46,-164.5 176,-164.5 176,-134.5 46,-134.5"/>
<text text-anchor="start" x="54" y="-152.5" font-family="Helvetica,sans-Serif" font-size="10.00">/github/workspace/include</text>
<text text-anchor="middle" x="111" y="-141.5" font-family="Helvetica,sans-Serif" font-size="10.00">/QEI/encoder/encoder.h</text>
</a>
</g>
</g>
<!-- Node1&#45;&gt;Node2 -->
<g id="edge1" class="edge">
<title>Node1&#45;&gt;Node2</title>
<path fill="none" stroke="midnightblue" d="M111,-191.11C111,-182.15 111,-172.32 111,-164.58"/>
<polygon fill="midnightblue" stroke="midnightblue" points="107.5,-191.4 111,-201.4 114.5,-191.4 107.5,-191.4"/>
</g>
<!-- Node3 -->
<g id="node3" class="node">
<title>Node3</title>
<g id="a_node3"><a xlink:href="helper_8h.html" target="_top" xlink:title=" ">
<polygon fill="none" stroke="black" points="0,-67.5 0,-97.5 130,-97.5 130,-67.5 0,-67.5"/>
<text text-anchor="start" x="8" y="-85.5" font-family="Helvetica,sans-Serif" font-size="10.00">/github/workspace/include</text>
<text text-anchor="middle" x="65" y="-74.5" font-family="Helvetica,sans-Serif" font-size="10.00">/helper.h</text>
</a>
</g>
</g>
<!-- Node2&#45;&gt;Node3 -->
<g id="edge2" class="edge">
<title>Node2&#45;&gt;Node3</title>
<path fill="none" stroke="midnightblue" d="M95.19,-126.16C88.48,-116.68 80.87,-105.92 74.96,-97.58"/>
<polygon fill="midnightblue" stroke="midnightblue" points="92.38,-128.26 101.02,-134.4 98.1,-124.21 92.38,-128.26"/>
</g>
<!-- Node4 -->
<g id="node4" class="node">
<title>Node4</title>
<g id="a_node4"><a xlink:href="motor_8h.html" target="_top" xlink:title=" ">
<polygon fill="none" stroke="black" points="46,-0.5 46,-30.5 176,-30.5 176,-0.5 46,-0.5"/>
<text text-anchor="start" x="54" y="-18.5" font-family="Helvetica,sans-Serif" font-size="10.00">/github/workspace/include</text>
<text text-anchor="middle" x="111" y="-7.5" font-family="Helvetica,sans-Serif" font-size="10.00">/motor/motor.h</text>
</a>
</g>
</g>
<!-- Node2&#45;&gt;Node4 -->
<g id="edge4" class="edge">
<title>Node2&#45;&gt;Node4</title>
<path fill="none" stroke="midnightblue" d="M126.9,-125.61C131.78,-117.3 136.52,-107.59 139,-98 142.45,-84.66 142.45,-80.34 139,-67 135.59,-53.8 127.9,-40.37 121.44,-30.69"/>
<polygon fill="midnightblue" stroke="midnightblue" points="123.79,-123.98 121.44,-134.31 129.72,-127.7 123.79,-123.98"/>
</g>
<!-- Node3&#45;&gt;Node4 -->
<g id="edge3" class="edge">
<title>Node3&#45;&gt;Node4</title>
<path fill="none" stroke="midnightblue" d="M80.81,-59.16C87.52,-49.68 95.13,-38.92 101.04,-30.58"/>
<polygon fill="midnightblue" stroke="midnightblue" points="77.9,-57.21 74.98,-67.4 83.62,-61.26 77.9,-57.21"/>
</g>
</g>
</svg>
