<?xml version="1.0" encoding="UTF-8" standalone="no"?>
<!DOCTYPE svg PUBLIC "-//W3C//DTD SVG 1.1//EN"
 "http://www.w3.org/Graphics/SVG/1.1/DTD/svg11.dtd">
<!-- Generated by graphviz version 4.0.0 (20220602.1335)
 -->
<!-- Title: /github/workspace/include/debug1.h Pages: 1 -->
<svg width="324pt" height="173pt"
 viewBox="0.00 0.00 324.00 173.00" xmlns="http://www.w3.org/2000/svg" xmlns:xlink="http://www.w3.org/1999/xlink">
<g id="graph0" class="graph" transform="scale(1 1) rotate(0) translate(4 169)">
<title>/github/workspace/include/debug1.h</title>
<!-- Node1 -->
<g id="node1" class="node">
<title>Node1</title>
<g id="a_node1"><a xlink:title=" ">
<polygon fill="#bfbfbf" stroke="black" points="93,-134.5 93,-164.5 223,-164.5 223,-134.5 93,-134.5"/>
<text text-anchor="start" x="101" y="-152.5" font-family="Helvetica,sans-Serif" font-size="10.00">/github/workspace/include</text>
<text text-anchor="middle" x="158" y="-141.5" font-family="Helvetica,sans-Serif" font-size="10.00">/debug1.h</text>
</a>
</g>
</g>
<!-- Node2 -->
<g id="node2" class="node">
<title>Node2</title>
<g id="a_node2"><a xlink:href="_p_i_d_8h.html" target="_top" xlink:title=" ">
<polygon fill="none" stroke="black" points="0,-67.5 0,-97.5 130,-97.5 130,-67.5 0,-67.5"/>
<text text-anchor="start" x="8" y="-85.5" font-family="Helvetica,sans-Serif" font-size="10.00">/github/workspace/include</text>
<text text-anchor="middle" x="65" y="-74.5" font-family="Helvetica,sans-Serif" font-size="10.00">/PID/PID.h</text>
</a>
</g>
</g>
<!-- Node1&#45;&gt;Node2 -->
<g id="edge1" class="edge">
<title>Node1&#45;&gt;Node2</title>
<path fill="none" stroke="midnightblue" d="M129.31,-128.45C115.01,-118.45 98.05,-106.6 85.14,-97.58"/>
<polygon fill="midnightblue" stroke="midnightblue" points="127.62,-131.54 137.82,-134.4 131.63,-125.8 127.62,-131.54"/>
</g>
<!-- Node3 -->
<g id="node3" class="node">
<title>Node3</title>
<g id="a_node3"><a xlink:href="wheelcontrol_8h.html" target="_top" xlink:title=" ">
<polygon fill="none" stroke="black" points="41,-0.5 41,-30.5 181,-30.5 181,-0.5 41,-0.5"/>
<text text-anchor="start" x="49" y="-18.5" font-family="Helvetica,sans-Serif" font-size="10.00">/github/workspace/include</text>
<text text-anchor="middle" x="111" y="-7.5" font-family="Helvetica,sans-Serif" font-size="10.00">/wheelcontrol/wheelcontrol.h</text>
</a>
</g>
</g>
<!-- Node1&#45;&gt;Node3 -->
<g id="edge4" class="edge">
<title>Node1&#45;&gt;Node3</title>
<path fill="none" stroke="midnightblue" d="M154.19,-124.37C151.15,-107.87 146.2,-85.68 139,-67 134.03,-54.09 126.28,-40.42 120.19,-30.57"/>
<polygon fill="midnightblue" stroke="midnightblue" points="150.76,-125.05 155.92,-134.3 157.65,-123.85 150.76,-125.05"/>
</g>
<!-- Node4 -->
<g id="node4" class="node">
<title>Node4</title>
<g id="a_node4"><a xlink:href="sensor_8h.html" target="_top" xlink:title=" ">
<polygon fill="none" stroke="black" points="186,-67.5 186,-97.5 316,-97.5 316,-67.5 186,-67.5"/>
<text text-anchor="start" x="194" y="-85.5" font-family="Helvetica,sans-Serif" font-size="10.00">/github/workspace/include</text>
<text text-anchor="middle" x="251" y="-74.5" font-family="Helvetica,sans-Serif" font-size="10.00">/sensor/sensor.h</text>
</a>
</g>
</g>
<!-- Node1&#45;&gt;Node4 -->
<g id="edge3" class="edge">
<title>Node1&#45;&gt;Node4</title>
<path fill="none" stroke="midnightblue" d="M186.69,-128.45C200.99,-118.45 217.95,-106.6 230.86,-97.58"/>
<polygon fill="midnightblue" stroke="midnightblue" points="184.37,-125.8 178.18,-134.4 188.38,-131.54 184.37,-125.8"/>
</g>
<!-- Node2&#45;&gt;Node3 -->
<g id="edge2" class="edge">
<title>Node2&#45;&gt;Node3</title>
<path fill="none" stroke="midnightblue" d="M80.81,-59.16C87.52,-49.68 95.13,-38.92 101.04,-30.58"/>
<polygon fill="midnightblue" stroke="midnightblue" points="77.9,-57.21 74.98,-67.4 83.62,-61.26 77.9,-57.21"/>
</g>
</g>
</svg>
