<?xml version="1.0" encoding="UTF-8" standalone="no"?>
<!DOCTYPE svg PUBLIC "-//W3C//DTD SVG 1.1//EN"
 "http://www.w3.org/Graphics/SVG/1.1/DTD/svg11.dtd">
<!-- Generated by graphviz version 6.0.1 (20220911.1526)
 -->
<!-- Title: /github/workspace/include/debug1.h Pages: 1 -->
<svg width="324pt" height="170pt"
 viewBox="0.00 0.00 324.00 170.00" xmlns="http://www.w3.org/2000/svg" xmlns:xlink="http://www.w3.org/1999/xlink">
<g id="graph0" class="graph" transform="scale(1 1) rotate(0) translate(4 166)">
<title>/github/workspace/include/debug1.h</title>
<!-- Node1 -->
<g id="node1" class="node">
<title>Node1</title>
<g id="a_node1"><a xlink:title=" ">
<polygon fill="#999999" stroke="#666666" points="223,-162 93,-162 93,-132 223,-132 223,-162"/>
<text text-anchor="start" x="101" y="-150" font-family="Helvetica,sans-Serif" font-size="10.00">/github/workspace/include</text>
<text text-anchor="middle" x="158" y="-139" font-family="Helvetica,sans-Serif" font-size="10.00">/debug1.h</text>
</a>
</g>
</g>
<!-- Node2 -->
<g id="node2" class="node">
<title>Node2</title>
<g id="a_node2"><a xlink:href="_p_i_d_8h.html" target="_top" xlink:title=" ">
<polygon fill="white" stroke="#666666" points="130,-96 0,-96 0,-66 130,-66 130,-96"/>
<text text-anchor="start" x="8" y="-84" font-family="Helvetica,sans-Serif" font-size="10.00">/github/workspace/include</text>
<text text-anchor="middle" x="65" y="-73" font-family="Helvetica,sans-Serif" font-size="10.00">/PID/PID.h</text>
</a>
</g>
</g>
<!-- Node1&#45;&gt;Node2 -->
<g id="edge1" class="edge">
<title>Node1&#45;&gt;Node2</title>
<path fill="none" stroke="#63b8ff" d="M128.98,-126.03C114.91,-116.34 98.33,-104.94 85.58,-96.16"/>
<polygon fill="#63b8ff" stroke="#63b8ff" points="127.14,-129.01 137.36,-131.8 131.11,-123.24 127.14,-129.01"/>
</g>
<!-- Node3 -->
<g id="node3" class="node">
<title>Node3</title>
<g id="a_node3"><a xlink:href="wheelcontrol_8h.html" target="_top" xlink:title=" ">
<polygon fill="white" stroke="#666666" points="181,-30 41,-30 41,0 181,0 181,-30"/>
<text text-anchor="start" x="49" y="-18" font-family="Helvetica,sans-Serif" font-size="10.00">/github/workspace/include</text>
<text text-anchor="middle" x="111" y="-7" font-family="Helvetica,sans-Serif" font-size="10.00">/wheelcontrol/wheelcontrol.h</text>
</a>
</g>
</g>
<!-- Node1&#45;&gt;Node3 -->
<g id="edge4" class="edge">
<title>Node1&#45;&gt;Node3</title>
<path fill="none" stroke="#63b8ff" d="M154.02,-121.56C150.95,-105.44 146.04,-84.05 139,-66 134.08,-53.39 126.49,-40.07 120.45,-30.35"/>
<polygon fill="#63b8ff" stroke="#63b8ff" points="150.64,-122.54 155.85,-131.77 157.53,-121.31 150.64,-122.54"/>
</g>
<!-- Node4 -->
<g id="node4" class="node">
<title>Node4</title>
<g id="a_node4"><a xlink:href="sensor_8h.html" target="_top" xlink:title=" ">
<polygon fill="white" stroke="#666666" points="316,-96 186,-96 186,-66 316,-66 316,-96"/>
<text text-anchor="start" x="194" y="-84" font-family="Helvetica,sans-Serif" font-size="10.00">/github/workspace/include</text>
<text text-anchor="middle" x="251" y="-73" font-family="Helvetica,sans-Serif" font-size="10.00">/sensor/sensor.h</text>
</a>
</g>
</g>
<!-- Node1&#45;&gt;Node4 -->
<g id="edge3" class="edge">
<title>Node1&#45;&gt;Node4</title>
<path fill="none" stroke="#63b8ff" d="M187.02,-126.03C201.09,-116.34 217.67,-104.94 230.42,-96.16"/>
<polygon fill="#63b8ff" stroke="#63b8ff" points="184.89,-123.24 178.64,-131.8 188.86,-129.01 184.89,-123.24"/>
</g>
<!-- Node2&#45;&gt;Node3 -->
<g id="edge2" class="edge">
<title>Node2&#45;&gt;Node3</title>
<path fill="none" stroke="#63b8ff" d="M81.15,-57.53C87.69,-48.43 95.05,-38.19 100.82,-30.16"/>
<polygon fill="#63b8ff" stroke="#63b8ff" points="78.2,-55.63 75.21,-65.8 83.89,-59.72 78.2,-55.63"/>
</g>
</g>
</svg>
