<?xml version="1.0" encoding="UTF-8" standalone="no"?>
<!DOCTYPE svg PUBLIC "-//W3C//DTD SVG 1.1//EN"
 "http://www.w3.org/Graphics/SVG/1.1/DTD/svg11.dtd">
<!-- Generated by graphviz version 3.0.0 (20220413.0106)
 -->
<!-- Title: /github/workspace/include Pages: 1 -->
<svg width="328pt" height="148pt"
 viewBox="0.00 0.00 328.00 148.00" xmlns="http://www.w3.org/2000/svg" xmlns:xlink="http://www.w3.org/1999/xlink">
<g id="graph0" class="graph" transform="scale(1 1) rotate(0) translate(4 144)">
<title>/github/workspace/include</title>
<g id="clust1" class="cluster">
<title>clusterdir_d44c64559bbebec7f509842c48db8b23</title>
<g id="a_clust1"><a xlink:href="dir_d44c64559bbebec7f509842c48db8b23.html" target="_top">
<polygon fill="#edf0f7" stroke="#404040" stroke-width="2" points="8,-8 8,-132 312,-132 312,-8 8,-8"/>
</a>
</g>
</g>
<!-- dir_d44c64559bbebec7f509842c48db8b23 -->
<g id="node1" class="node">
<title>dir_d44c64559bbebec7f509842c48db8b23</title>
<text text-anchor="middle" x="277" y="-103.5" font-family="Helvetica,sans-Serif" font-size="10.00">include</text>
</g>
<!-- dir_dd2636afb4c44689fad9db63b016be9a -->
<g id="node4" class="node">
<title>dir_dd2636afb4c44689fad9db63b016be9a</title>
<g id="a_node4"><a xlink:href="dir_dd2636afb4c44689fad9db63b016be9a.html" target="_top" xlink:title="QEI">
<polygon fill="#a2b4d6" stroke="#404040" points="268,-52 214,-52 214,-16 268,-16 268,-52"/>
<text text-anchor="middle" x="241" y="-31.5" font-family="Helvetica,sans-Serif" font-size="10.00">QEI</text>
</a>
</g>
</g>
<!-- dir_d44c64559bbebec7f509842c48db8b23&#45;&gt;dir_dd2636afb4c44689fad9db63b016be9a -->
<g id="edge1" class="edge">
<title>dir_d44c64559bbebec7f509842c48db8b23&#45;&gt;dir_dd2636afb4c44689fad9db63b016be9a</title>
<path fill="none" stroke="black" d="M268.1,-87.7C264,-79.73 259.05,-70.1 254.51,-61.26"/>
<polygon fill="black" stroke="black" points="257.48,-59.4 249.8,-52.1 251.26,-62.6 257.48,-59.4"/>
<g id="a_edge1&#45;headlabel"><a xlink:href="dir_000001_000004.html" target="_top" xlink:title="2">
<text text-anchor="middle" x="261.65" y="-58.79" font-family="Helvetica,sans-Serif" font-size="10.00">2</text>
</a>
</g>
</g>
<!-- dir_701317e477332ba3a7632d6dcc6d415f -->
<g id="node2" class="node">
<title>dir_701317e477332ba3a7632d6dcc6d415f</title>
<g id="a_node2"><a xlink:href="dir_701317e477332ba3a7632d6dcc6d415f.html" target="_top" xlink:title="motor">
<polygon fill="#a2b4d6" stroke="#404040" points="232,-124 178,-124 178,-88 232,-88 232,-124"/>
<text text-anchor="middle" x="205" y="-103.5" font-family="Helvetica,sans-Serif" font-size="10.00">motor</text>
</a>
</g>
</g>
<!-- dir_701317e477332ba3a7632d6dcc6d415f&#45;&gt;dir_dd2636afb4c44689fad9db63b016be9a -->
<g id="edge2" class="edge">
<title>dir_701317e477332ba3a7632d6dcc6d415f&#45;&gt;dir_dd2636afb4c44689fad9db63b016be9a</title>
<path fill="none" stroke="black" d="M213.9,-87.7C218,-79.73 222.95,-70.1 227.49,-61.26"/>
<polygon fill="black" stroke="black" points="230.74,-62.6 232.2,-52.1 224.52,-59.4 230.74,-62.6"/>
<g id="a_edge2&#45;headlabel"><a xlink:href="dir_000002_000004.html" target="_top" xlink:title="1">
<text text-anchor="middle" x="231.62" y="-64.59" font-family="Helvetica,sans-Serif" font-size="10.00">1</text>
</a>
</g>
</g>
<!-- dir_6dc35642395ce35a556c64234054d9ce -->
<g id="node3" class="node">
<title>dir_6dc35642395ce35a556c64234054d9ce</title>
<g id="a_node3"><a xlink:href="dir_6dc35642395ce35a556c64234054d9ce.html" target="_top" xlink:title="PID">
<polygon fill="#a2b4d6" stroke="#404040" points="79,-52 25,-52 25,-16 79,-16 79,-52"/>
<text text-anchor="middle" x="52" y="-31.5" font-family="Helvetica,sans-Serif" font-size="10.00">PID</text>
</a>
</g>
</g>
<!-- dir_7b271abf9afd8594ceaf3484d66fcdf7 -->
<g id="node5" class="node">
<title>dir_7b271abf9afd8594ceaf3484d66fcdf7</title>
<g id="a_node5"><a xlink:href="dir_7b271abf9afd8594ceaf3484d66fcdf7.html" target="_top" xlink:title="sensor">
<polygon fill="#a2b4d6" stroke="#404040" points="160,-124 106,-124 106,-88 160,-88 160,-124"/>
<text text-anchor="middle" x="133" y="-103.5" font-family="Helvetica,sans-Serif" font-size="10.00">sensor</text>
</a>
</g>
</g>
<!-- dir_ccab51939989d7fb4157139565b82ab9 -->
<g id="node6" class="node">
<title>dir_ccab51939989d7fb4157139565b82ab9</title>
<g id="a_node6"><a xlink:href="dir_ccab51939989d7fb4157139565b82ab9.html" target="_top" xlink:title="wheelcontrol">
<polygon fill="#a2b4d6" stroke="#404040" points="87.5,-124 16.5,-124 16.5,-88 87.5,-88 87.5,-124"/>
<text text-anchor="middle" x="52" y="-103.5" font-family="Helvetica,sans-Serif" font-size="10.00">wheelcontrol</text>
</a>
</g>
</g>
<!-- dir_ccab51939989d7fb4157139565b82ab9&#45;&gt;dir_6dc35642395ce35a556c64234054d9ce -->
<g id="edge3" class="edge">
<title>dir_ccab51939989d7fb4157139565b82ab9&#45;&gt;dir_6dc35642395ce35a556c64234054d9ce</title>
<path fill="none" stroke="black" d="M52,-87.7C52,-79.98 52,-70.71 52,-62.11"/>
<polygon fill="black" stroke="black" points="55.5,-62.1 52,-52.1 48.5,-62.1 55.5,-62.1"/>
<g id="a_edge3&#45;headlabel"><a xlink:href="dir_000006_000003.html" target="_top" xlink:title="1">
<text text-anchor="middle" x="58.34" y="-63.2" font-family="Helvetica,sans-Serif" font-size="10.00">1</text>
</a>
</g>
</g>
</g>
</svg>
