<?xml version="1.0" encoding="UTF-8" standalone="no"?>
<!DOCTYPE svg PUBLIC "-//W3C//DTD SVG 1.1//EN"
 "http://www.w3.org/Graphics/SVG/1.1/DTD/svg11.dtd">
<!-- Generated by graphviz version 2.50.0 (20220203.2022)
 -->
<!-- Title: lib Pages: 1 -->
<svg width="238pt" height="220pt"
 viewBox="0.00 0.00 238.00 220.00" xmlns="http://www.w3.org/2000/svg" xmlns:xlink="http://www.w3.org/1999/xlink">
<g id="graph0" class="graph" transform="scale(1 1) rotate(0) translate(4 216)">
<title>lib</title>
<g id="clust1" class="cluster">
<title>clusterdir_97aefd0d527b934f1d99a682da8fe6a9</title>
<g id="a_clust1"><a xlink:href="dir_97aefd0d527b934f1d99a682da8fe6a9.html" target="_top">
<polygon fill="#edf0f7" stroke="#404040" stroke-width="2" points="8,-8 8,-204 222,-204 222,-8 8,-8"/>
</a>
</g>
</g>
<!-- dir_97aefd0d527b934f1d99a682da8fe6a9 -->
<g id="node1" class="node">
<title>dir_97aefd0d527b934f1d99a682da8fe6a9</title>
<text text-anchor="middle" x="187" y="-175.5" font-family="Helvetica,sans-Serif" font-size="10.00">lib</text>
</g>
<!-- dir_346d63a2cfbaa01f6a009f32f6baf3e8 -->
<g id="node2" class="node">
<title>dir_346d63a2cfbaa01f6a009f32f6baf3e8</title>
<g id="a_node2"><a xlink:href="dir_346d63a2cfbaa01f6a009f32f6baf3e8.html" target="_top" xlink:title="encoder">
<polygon fill="#a2b4d6" stroke="#404040" points="142,-124 88,-124 88,-88 142,-88 142,-124"/>
<text text-anchor="middle" x="115" y="-103.5" font-family="Helvetica,sans-Serif" font-size="10.00">encoder</text>
</a>
</g>
</g>
<!-- dir_2d6f86d09db08a1d93eb42b996e864dd -->
<g id="node4" class="node">
<title>dir_2d6f86d09db08a1d93eb42b996e864dd</title>
<g id="a_node4"><a xlink:href="dir_2d6f86d09db08a1d93eb42b996e864dd.html" target="_top" xlink:title="QEI">
<polygon fill="#a2b4d6" stroke="#404040" points="142,-52 88,-52 88,-16 142,-16 142,-52"/>
<text text-anchor="middle" x="115" y="-31.5" font-family="Helvetica,sans-Serif" font-size="10.00">QEI</text>
</a>
</g>
</g>
<!-- dir_346d63a2cfbaa01f6a009f32f6baf3e8&#45;&gt;dir_2d6f86d09db08a1d93eb42b996e864dd -->
<g id="edge1" class="edge">
<title>dir_346d63a2cfbaa01f6a009f32f6baf3e8&#45;&gt;dir_2d6f86d09db08a1d93eb42b996e864dd</title>
<path fill="none" stroke="black" d="M115,-87.7C115,-79.98 115,-70.71 115,-62.11"/>
<polygon fill="black" stroke="black" points="118.5,-62.1 115,-52.1 111.5,-62.1 118.5,-62.1"/>
<g id="a_edge1&#45;headlabel"><a xlink:href="dir_000000_000003.html" target="_top" xlink:title="1">
<text text-anchor="middle" x="121.34" y="-63.2" font-family="Helvetica,sans-Serif" font-size="10.00">1</text>
</a>
</g>
</g>
<!-- dir_e30b726e80d15493cbe23de456ec842d -->
<g id="node3" class="node">
<title>dir_e30b726e80d15493cbe23de456ec842d</title>
<g id="a_node3"><a xlink:href="dir_e30b726e80d15493cbe23de456ec842d.html" target="_top" xlink:title="motor">
<polygon fill="#a2b4d6" stroke="#404040" points="142,-196 88,-196 88,-160 142,-160 142,-196"/>
<text text-anchor="middle" x="115" y="-175.5" font-family="Helvetica,sans-Serif" font-size="10.00">motor</text>
</a>
</g>
</g>
<!-- dir_e30b726e80d15493cbe23de456ec842d&#45;&gt;dir_346d63a2cfbaa01f6a009f32f6baf3e8 -->
<g id="edge2" class="edge">
<title>dir_e30b726e80d15493cbe23de456ec842d&#45;&gt;dir_346d63a2cfbaa01f6a009f32f6baf3e8</title>
<path fill="none" stroke="black" d="M115,-159.7C115,-151.98 115,-142.71 115,-134.11"/>
<polygon fill="black" stroke="black" points="118.5,-134.1 115,-124.1 111.5,-134.1 118.5,-134.1"/>
<g id="a_edge2&#45;headlabel"><a xlink:href="dir_000002_000000.html" target="_top" xlink:title="1">
<text text-anchor="middle" x="121.34" y="-135.2" font-family="Helvetica,sans-Serif" font-size="10.00">1</text>
</a>
</g>
</g>
<!-- dir_32093826b9a59ad74b33274b578b865a -->
<g id="node5" class="node">
<title>dir_32093826b9a59ad74b33274b578b865a</title>
<g id="a_node5"><a xlink:href="dir_32093826b9a59ad74b33274b578b865a.html" target="_top" xlink:title="sensor">
<polygon fill="#a2b4d6" stroke="#404040" points="70,-196 16,-196 16,-160 70,-160 70,-196"/>
<text text-anchor="middle" x="43" y="-175.5" font-family="Helvetica,sans-Serif" font-size="10.00">sensor</text>
</a>
</g>
</g>
</g>
</svg>
