<?xml version="1.0" encoding="UTF-8" standalone="no"?>
<!DOCTYPE svg PUBLIC "-//W3C//DTD SVG 1.1//EN"
 "http://www.w3.org/Graphics/SVG/1.1/DTD/svg11.dtd">
<!-- Generated by graphviz version 5.0.0 (20220708.1001)
 -->
<!-- Title: Weight Pages: 1 -->
<svg width="323pt" height="101pt"
 viewBox="0.00 0.00 323.00 101.00" xmlns="http://www.w3.org/2000/svg" xmlns:xlink="http://www.w3.org/1999/xlink">
<g id="graph0" class="graph" transform="scale(1 1) rotate(0) translate(4 97)">
<title>Weight</title>
<polygon fill="white" stroke="transparent" points="-4,4 -4,-97 319,-97 319,4 -4,4"/>
<g id="clust1" class="cluster">
<title>cluster_weight</title>
<polygon fill="none" stroke="blue" points="8,-8 8,-85 307,-85 307,-8 8,-8"/>
<text text-anchor="middle" x="157.5" y="-69.8" font-family="Arial" font-size="14.00">Weight of each sensor</text>
</g>
<!-- weight -->
<g id="node1" class="node">
<title>weight</title>
<polygon fill="lightblue" stroke="black" points="16,-17 16,-53 299,-53 299,-17 16,-17"/>
<text text-anchor="start" x="24" y="-32.2" font-family="Arial" font-size="11.00">&#45;30</text>
<polyline fill="none" stroke="black" points="48,-17 48,-53 "/>
<text text-anchor="start" x="56" y="-32.2" font-family="Arial" font-size="11.00"> </text>
<polyline fill="none" stroke="black" points="68,-17 68,-53 "/>
<text text-anchor="start" x="76" y="-32.2" font-family="Arial" font-size="11.00">&#45;20</text>
<polyline fill="none" stroke="black" points="100,-17 100,-53 "/>
<text text-anchor="start" x="108" y="-32.2" font-family="Arial" font-size="11.00"> </text>
<polyline fill="none" stroke="black" points="120,-17 120,-53 "/>
<text text-anchor="start" x="128" y="-32.2" font-family="Arial" font-size="11.00">&#45;10</text>
<polyline fill="none" stroke="black" points="152,-17 152,-53 "/>
<text text-anchor="start" x="160" y="-32.2" font-family="Arial" font-size="11.00"> </text>
<polyline fill="none" stroke="black" points="172,-17 172,-53 "/>
<text text-anchor="start" x="180" y="-32.2" font-family="Arial" font-size="11.00">10</text>
<polyline fill="none" stroke="black" points="201,-17 201,-53 "/>
<text text-anchor="start" x="209" y="-32.2" font-family="Arial" font-size="11.00"> </text>
<polyline fill="none" stroke="black" points="221,-17 221,-53 "/>
<text text-anchor="start" x="229" y="-32.2" font-family="Arial" font-size="11.00">20</text>
<polyline fill="none" stroke="black" points="250,-17 250,-53 "/>
<text text-anchor="start" x="258" y="-32.2" font-family="Arial" font-size="11.00"> </text>
<polyline fill="none" stroke="black" points="270,-17 270,-53 "/>
<text text-anchor="start" x="278" y="-32.2" font-family="Arial" font-size="11.00">30</text>
</g>
</g>
</svg>
