<?xml version="1.0" encoding="UTF-8" standalone="no"?>
<!DOCTYPE svg PUBLIC "-//W3C//DTD SVG 1.1//EN"
 "http://www.w3.org/Graphics/SVG/1.1/DTD/svg11.dtd">
<!-- Generated by graphviz version 6.0.1 (20220911.1526)
 -->
<!-- Title: System Pages: 1 -->
<svg width="250pt" height="183pt"
 viewBox="0.00 0.00 250.00 183.00" xmlns="http://www.w3.org/2000/svg" xmlns:xlink="http://www.w3.org/1999/xlink">
<g id="graph0" class="graph" transform="scale(1 1) rotate(0) translate(4 179)">
<title>System</title>
<polygon fill="white" stroke="none" points="-4,4 -4,-179 246,-179 246,4 -4,4"/>
<g id="clust1" class="cluster">
<title>cluster_nucleo</title>
<polygon fill="none" stroke="blue" points="8,-8 8,-167 234,-167 234,-8 8,-8"/>
<text text-anchor="middle" x="121" y="-151.8" font-family="Arial" font-size="14.00">NUCLEO F401RE</text>
</g>
<g id="clust2" class="cluster">
<title>cluster_ble</title>
<polygon fill="none" stroke="red" points="112,-36 112,-136 226,-136 226,-36 112,-36"/>
<text text-anchor="middle" x="169" y="-120.8" font-family="Arial" font-size="14.00">HM10</text>
</g>
<!-- sensor -->
<g id="node1" class="node">
<title>sensor</title>
<polygon fill="#f2f2f2" stroke="black" points="16,-16.5 16,-132.5 102,-132.5 102,-16.5 16,-16.5"/>
<text text-anchor="start" x="40.5" y="-120.7" font-family="Arial" font-weight="bold" font-size="11.00">sensor</text>
<polyline fill="none" stroke="black" points="16,-112.5 102,-112.5"/>
<text text-anchor="start" x="24" y="-99.7" font-family="Arial" font-size="11.00">AnalogIn in[6]</text>
<text text-anchor="start" x="24" y="-87.7" font-family="Arial" font-size="11.00">BusOut pins</text>
<text text-anchor="start" x="24" y="-75.7" font-family="Arial" font-size="11.00">scale_factor[6]</text>
<text text-anchor="start" x="24" y="-63.7" font-family="Arial" font-size="11.00">treshold[6]</text>
<polyline fill="none" stroke="black" points="16,-56.5 102,-56.5"/>
<text text-anchor="start" x="44" y="-43.7" font-family="Arial" font-size="11.00">read()</text>
<polyline fill="none" stroke="black" points="16,-36.5 102,-36.5"/>
<text text-anchor="start" x="34.5" y="-23.7" font-family="Arial" font-size="11.00">calibrate()</text>
</g>
<!-- ble -->
<g id="node2" class="node">
<title>ble</title>
<polygon fill="#f2f2f2" stroke="black" points="120,-44.5 120,-104.5 218,-104.5 218,-44.5 120,-44.5"/>
<text text-anchor="start" x="128" y="-92.7" font-family="Arial" font-weight="bold" font-size="11.00">BufferredSerial</text>
<polyline fill="none" stroke="black" points="120,-84.5 218,-84.5"/>
<text text-anchor="start" x="144" y="-71.7" font-family="Arial" font-size="11.00">readable()</text>
<polyline fill="none" stroke="black" points="120,-64.5 218,-64.5"/>
<text text-anchor="start" x="154" y="-51.7" font-family="Arial" font-size="11.00">read()</text>
</g>
</g>
</svg>
