<?xml version="1.0" encoding="UTF-8" standalone="no"?>
<!DOCTYPE svg PUBLIC "-//W3C//DTD SVG 1.1//EN"
 "http://www.w3.org/Graphics/SVG/1.1/DTD/svg11.dtd">
<!-- Generated by graphviz version 2.50.0 (20220203.2022)
 -->
<!-- Title: Sensor Pages: 1 -->
<svg width="346pt" height="99pt"
 viewBox="0.00 0.00 346.00 99.00" xmlns="http://www.w3.org/2000/svg" xmlns:xlink="http://www.w3.org/1999/xlink">
<g id="graph0" class="graph" transform="scale(1 1) rotate(0) translate(4 95)">
<title>Sensor</title>
<polygon fill="white" stroke="transparent" points="-4,4 -4,-95 342,-95 342,4 -4,4"/>
<g id="clust1" class="cluster">
<title>cluster_sensors</title>
<polygon fill="none" stroke="blue" points="8,-8 8,-83 330,-83 330,-8 8,-8"/>
<text text-anchor="middle" x="169" y="-67.8" font-family="Arial" font-size="14.00">Sensor location</text>
</g>
<!-- sensor6 -->
<g id="node1" class="node">
<title>sensor6</title>
<ellipse fill="lightblue" stroke="black" cx="304" cy="-34" rx="18" ry="18"/>
<text text-anchor="middle" x="304" y="-31.2" font-family="Arial" font-size="11.00">6</text>
</g>
<!-- sensor5 -->
<g id="node2" class="node">
<title>sensor5</title>
<ellipse fill="lightblue" stroke="black" cx="250" cy="-34" rx="18" ry="18"/>
<text text-anchor="middle" x="250" y="-31.2" font-family="Arial" font-size="11.00">5</text>
</g>
<!-- sensor4 -->
<g id="node3" class="node">
<title>sensor4</title>
<ellipse fill="lightblue" stroke="black" cx="196" cy="-34" rx="18" ry="18"/>
<text text-anchor="middle" x="196" y="-31.2" font-family="Arial" font-size="11.00">4</text>
</g>
<!-- sensor3 -->
<g id="node4" class="node">
<title>sensor3</title>
<ellipse fill="lightblue" stroke="black" cx="142" cy="-34" rx="18" ry="18"/>
<text text-anchor="middle" x="142" y="-31.2" font-family="Arial" font-size="11.00">3</text>
</g>
<!-- sensor2 -->
<g id="node5" class="node">
<title>sensor2</title>
<ellipse fill="lightblue" stroke="black" cx="88" cy="-34" rx="18" ry="18"/>
<text text-anchor="middle" x="88" y="-31.2" font-family="Arial" font-size="11.00">2</text>
</g>
<!-- sensor1 -->
<g id="node6" class="node">
<title>sensor1</title>
<ellipse fill="lightblue" stroke="black" cx="34" cy="-34" rx="18" ry="18"/>
<text text-anchor="middle" x="34" y="-31.2" font-family="Arial" font-size="11.00">1</text>
</g>
</g>
</svg>
