<?xml version="1.0" encoding="UTF-8" standalone="no"?>
<!DOCTYPE svg PUBLIC "-//W3C//DTD SVG 1.1//EN"
 "http://www.w3.org/Graphics/SVG/1.1/DTD/svg11.dtd">
<!-- Generated by graphviz version 6.0.1 (20220911.1526)
 -->
<!-- Title: System Pages: 1 -->
<svg width="343pt" height="309pt"
 viewBox="0.00 0.00 343.00 309.00" xmlns="http://www.w3.org/2000/svg" xmlns:xlink="http://www.w3.org/1999/xlink">
<g id="graph0" class="graph" transform="scale(1 1) rotate(0) translate(4 305)">
<title>System</title>
<polygon fill="white" stroke="none" points="-4,4 -4,-305 339,-305 339,4 -4,4"/>
<g id="clust1" class="cluster">
<title>cluster_nucleo</title>
<polygon fill="none" stroke="blue" points="8,-8 8,-293 327,-293 327,-8 8,-8"/>
<text text-anchor="middle" x="167.5" y="-277.8" font-family="Arial" font-size="14.00">NUCLEO F401RE</text>
</g>
<!-- motor -->
<g id="node1" class="node">
<title>motor</title>
<polygon fill="#f2f2f2" stroke="black" points="237.5,-16.5 237.5,-184.5 318.5,-184.5 318.5,-16.5 237.5,-16.5"/>
<text text-anchor="start" x="262" y="-172.7" font-family="Arial" font-weight="bold" font-size="11.00">motor</text>
<polyline fill="none" stroke="black" points="237.5,-164.5 318.5,-164.5"/>
<text text-anchor="start" x="245.5" y="-151.7" font-family="Arial" font-size="11.00">Left PWM</text>
<text text-anchor="start" x="245.5" y="-139.7" font-family="Arial" font-size="11.00">Right PWM</text>
<text text-anchor="start" x="245.5" y="-127.7" font-family="Arial" font-size="11.00">enable</text>
<text text-anchor="start" x="245.5" y="-115.7" font-family="Arial" font-size="11.00">left direction</text>
<text text-anchor="start" x="245.5" y="-103.7" font-family="Arial" font-size="11.00">right direction</text>
<polyline fill="none" stroke="black" points="237.5,-96.5 318.5,-96.5"/>
<text text-anchor="start" x="255.5" y="-83.7" font-family="Arial" font-size="11.00">forward()</text>
<polyline fill="none" stroke="black" points="237.5,-76.5 318.5,-76.5"/>
<text text-anchor="start" x="256" y="-63.7" font-family="Arial" font-size="11.00">reverse()</text>
<polyline fill="none" stroke="black" points="237.5,-56.5 318.5,-56.5"/>
<text text-anchor="start" x="254" y="-43.7" font-family="Arial" font-size="11.00">turnright()</text>
<polyline fill="none" stroke="black" points="237.5,-36.5 318.5,-36.5"/>
<text text-anchor="start" x="257.5" y="-23.7" font-family="Arial" font-size="11.00">turnleft()</text>
</g>
<!-- left_encoder -->
<g id="node2" class="node">
<title>left_encoder</title>
<polygon fill="#f2f2f2" stroke="black" points="16,-54.5 16,-146.5 108,-146.5 108,-54.5 16,-54.5"/>
<text text-anchor="start" x="27" y="-134.7" font-family="Arial" font-weight="bold" font-size="11.00">Left Encoder</text>
<polyline fill="none" stroke="black" points="16,-126.5 108,-126.5"/>
<text text-anchor="start" x="42" y="-113.7" font-family="Arial" font-size="11.00">velocity</text>
<text text-anchor="start" x="42" y="-101.7" font-family="Arial" font-size="11.00">distance</text>
<polyline fill="none" stroke="black" points="16,-94.5 108,-94.5"/>
<text text-anchor="start" x="26.5" y="-81.7" font-family="Arial" font-size="11.00">read_velocity()</text>
<polyline fill="none" stroke="black" points="16,-74.5 108,-74.5"/>
<text text-anchor="start" x="24" y="-61.7" font-family="Arial" font-size="11.00">read_distance()</text>
</g>
<!-- right_encoder -->
<g id="node3" class="node">
<title>right_encoder</title>
<polygon fill="#f2f2f2" stroke="black" points="126.5,-54.5 126.5,-146.5 219.5,-146.5 219.5,-54.5 126.5,-54.5"/>
<text text-anchor="start" x="134.5" y="-134.7" font-family="Arial" font-weight="bold" font-size="11.00">Right Encoder</text>
<polyline fill="none" stroke="black" points="126.5,-126.5 219.5,-126.5"/>
<text text-anchor="start" x="153" y="-113.7" font-family="Arial" font-size="11.00">velocity</text>
<text text-anchor="start" x="153" y="-101.7" font-family="Arial" font-size="11.00">distance</text>
<polyline fill="none" stroke="black" points="126.5,-94.5 219.5,-94.5"/>
<text text-anchor="start" x="137.5" y="-81.7" font-family="Arial" font-size="11.00">read_velocity()</text>
<polyline fill="none" stroke="black" points="126.5,-74.5 219.5,-74.5"/>
<text text-anchor="start" x="135" y="-61.7" font-family="Arial" font-size="11.00">read_distance()</text>
</g>
<!-- qei -->
<g id="node4" class="node">
<title>qei</title>
<polygon fill="#f2f2f2" stroke="black" points="81.5,-221.5 81.5,-261.5 152.5,-261.5 152.5,-221.5 81.5,-221.5"/>
<text text-anchor="start" x="107" y="-249.7" font-family="Arial" font-weight="bold" font-size="11.00">QEI</text>
<polyline fill="none" stroke="black" points="81.5,-241.5 152.5,-241.5"/>
<text text-anchor="start" x="89.5" y="-228.7" font-family="Arial" font-size="11.00">getPulses()</text>
</g>
<!-- qei&#45;&gt;left_encoder -->
<g id="edge2" class="edge">
<title>qei&#45;&gt;left_encoder</title>
<path fill="none" stroke="black" d="M105.71,-211.98C98.27,-193.16 88.36,-168.11 79.85,-146.62"/>
<polygon fill="none" stroke="black" points="102.53,-213.45 109.47,-221.46 109.04,-210.88 102.53,-213.45"/>
</g>
<!-- qei&#45;&gt;right_encoder -->
<g id="edge1" class="edge">
<title>qei&#45;&gt;right_encoder</title>
<path fill="none" stroke="black" d="M128.49,-211.98C136.07,-193.16 146.17,-168.11 154.82,-146.62"/>
<polygon fill="none" stroke="black" points="125.16,-210.88 124.67,-221.46 131.65,-213.5 125.16,-210.88"/>
</g>
</g>
</svg>
