<?xml version="1.0" encoding="UTF-8" standalone="no"?>
<!DOCTYPE svg PUBLIC "-//W3C//DTD SVG 1.1//EN"
 "http://www.w3.org/Graphics/SVG/1.1/DTD/svg11.dtd">
<!-- Generated by graphviz version 3.0.0 (20220413.0106)
 -->
<!-- Title: System Pages: 1 -->
<svg width="321pt" height="423pt"
 viewBox="0.00 0.00 321.00 423.00" xmlns="http://www.w3.org/2000/svg" xmlns:xlink="http://www.w3.org/1999/xlink">
<g id="graph0" class="graph" transform="scale(1 1) rotate(0) translate(4 419)">
<title>System</title>
<polygon fill="white" stroke="transparent" points="-4,4 -4,-419 317,-419 317,4 -4,4"/>
<g id="clust1" class="cluster">
<title>cluster_nucleo</title>
<polygon fill="none" stroke="blue" points="8,-8 8,-407 305,-407 305,-8 8,-8"/>
<text text-anchor="middle" x="156.5" y="-391.8" font-family="Arial" font-size="14.00">Control Algorithm</text>
</g>
<!-- line_controller -->
<g id="node1" class="node">
<title>line_controller</title>
<polygon fill="#f2f2f2" stroke="black" points="102.5,-303.5 102.5,-375.5 209.5,-375.5 209.5,-303.5 102.5,-303.5"/>
<text text-anchor="start" x="115.5" y="-363.7" font-family="Arial" font-weight="bold" font-size="11.00">Line Controller</text>
<polyline fill="none" stroke="black" points="102.5,-355.5 209.5,-355.5 "/>
<text text-anchor="start" x="138.5" y="-342.7" font-family="Arial" font-size="11.00">Kp: 1.2</text>
<polyline fill="none" stroke="black" points="102.5,-335.5 209.5,-335.5 "/>
<text text-anchor="start" x="110.5" y="-322.7" font-family="Arial" font-size="11.00">PV: sensors.read()</text>
<text text-anchor="start" x="110.5" y="-310.7" font-family="Arial" font-size="11.00"> SP: 0</text>
</g>
<!-- line_output -->
<g id="node2" class="node">
<title>line_output</title>
<polygon fill="#f2f2f2" stroke="black" points="93.5,-226.5 93.5,-266.5 218.5,-266.5 218.5,-226.5 93.5,-226.5"/>
<text text-anchor="start" x="137.5" y="-254.7" font-family="Arial" font-weight="bold" font-size="11.00">Output</text>
<polyline fill="none" stroke="black" points="93.5,-246.5 218.5,-246.5 "/>
<text text-anchor="start" x="101.5" y="-233.7" font-family="Arial" font-size="11.00">CO: delta [&#45;max,+max]</text>
</g>
<!-- line_controller&#45;&gt;line_output -->
<g id="edge1" class="edge">
<title>line_controller&#45;&gt;line_output</title>
<path fill="none" stroke="black" d="M156,-303.32C156,-294.53 156,-285.19 156,-276.72"/>
<polygon fill="black" stroke="black" points="159.5,-276.57 156,-266.57 152.5,-276.57 159.5,-276.57"/>
</g>
<!-- left_controller -->
<g id="node3" class="node">
<title>left_controller</title>
<polygon fill="#f2f2f2" stroke="black" points="16.5,-93.5 16.5,-189.5 147.5,-189.5 147.5,-93.5 16.5,-93.5"/>
<text text-anchor="start" x="42.5" y="-177.7" font-family="Arial" font-weight="bold" font-size="11.00">Left Controller</text>
<polyline fill="none" stroke="black" points="16.5,-169.5 147.5,-169.5 "/>
<text text-anchor="start" x="55.5" y="-156.7" font-family="Arial" font-size="11.00">Kp: 0.75</text>
<text text-anchor="start" x="55.5" y="-144.7" font-family="Arial" font-size="11.00">Ki: 0</text>
<text text-anchor="start" x="55.5" y="-132.7" font-family="Arial" font-size="11.00">Kd: 0.0004</text>
<polyline fill="none" stroke="black" points="16.5,-125.5 147.5,-125.5 "/>
<text text-anchor="start" x="24.5" y="-112.7" font-family="Arial" font-size="11.00">PV: encoder.read_pps()</text>
<text text-anchor="start" x="24.5" y="-100.7" font-family="Arial" font-size="11.00"> SP: target &#45; delta </text>
</g>
<!-- line_output&#45;&gt;left_controller -->
<g id="edge2" class="edge">
<title>line_output&#45;&gt;left_controller</title>
<path fill="none" stroke="black" d="M142.08,-226.13C136.2,-217.94 129.03,-207.95 121.71,-197.77"/>
<polygon fill="black" stroke="black" points="124.51,-195.67 115.83,-189.59 118.82,-199.75 124.51,-195.67"/>
</g>
<!-- right_controller -->
<g id="node5" class="node">
<title>right_controller</title>
<polygon fill="#f2f2f2" stroke="black" points="165.5,-93.5 165.5,-189.5 296.5,-189.5 296.5,-93.5 165.5,-93.5"/>
<text text-anchor="start" x="188" y="-177.7" font-family="Arial" font-weight="bold" font-size="11.00">Right Controller</text>
<polyline fill="none" stroke="black" points="165.5,-169.5 296.5,-169.5 "/>
<text text-anchor="start" x="204.5" y="-156.7" font-family="Arial" font-size="11.00">Kp: 0.75</text>
<text text-anchor="start" x="204.5" y="-144.7" font-family="Arial" font-size="11.00">Ki: 0</text>
<text text-anchor="start" x="204.5" y="-132.7" font-family="Arial" font-size="11.00">Kd: 0.0004</text>
<polyline fill="none" stroke="black" points="165.5,-125.5 296.5,-125.5 "/>
<text text-anchor="start" x="173.5" y="-112.7" font-family="Arial" font-size="11.00">PV: encoder.read_pps()</text>
<text text-anchor="start" x="173.5" y="-100.7" font-family="Arial" font-size="11.00"> SP: target + delta </text>
</g>
<!-- line_output&#45;&gt;right_controller -->
<g id="edge4" class="edge">
<title>line_output&#45;&gt;right_controller</title>
<path fill="none" stroke="black" d="M170.11,-226.13C176.07,-217.94 183.34,-207.95 190.76,-197.77"/>
<polygon fill="black" stroke="black" points="193.65,-199.73 196.71,-189.59 188,-195.61 193.65,-199.73"/>
</g>
<!-- left_output -->
<g id="node4" class="node">
<title>left_output</title>
<polygon fill="#f2f2f2" stroke="black" points="37.5,-16.5 37.5,-56.5 126.5,-56.5 126.5,-16.5 37.5,-16.5"/>
<text text-anchor="start" x="63.5" y="-44.7" font-family="Arial" font-weight="bold" font-size="11.00">Output</text>
<polyline fill="none" stroke="black" points="37.5,-36.5 126.5,-36.5 "/>
<text text-anchor="start" x="45.5" y="-23.7" font-family="Arial" font-size="11.00">CO: PWM [0,1]</text>
</g>
<!-- left_controller&#45;&gt;left_output -->
<g id="edge3" class="edge">
<title>left_controller&#45;&gt;left_output</title>
<path fill="none" stroke="black" d="M82,-93.22C82,-84.25 82,-75.1 82,-66.89"/>
<polygon fill="black" stroke="black" points="85.5,-66.71 82,-56.71 78.5,-66.71 85.5,-66.71"/>
</g>
<!-- right_output -->
<g id="node6" class="node">
<title>right_output</title>
<polygon fill="#f2f2f2" stroke="black" points="186.5,-16.5 186.5,-56.5 275.5,-56.5 275.5,-16.5 186.5,-16.5"/>
<text text-anchor="start" x="212.5" y="-44.7" font-family="Arial" font-weight="bold" font-size="11.00">Output</text>
<polyline fill="none" stroke="black" points="186.5,-36.5 275.5,-36.5 "/>
<text text-anchor="start" x="194.5" y="-23.7" font-family="Arial" font-size="11.00">CO: PWM [0,1]</text>
</g>
<!-- right_controller&#45;&gt;right_output -->
<g id="edge5" class="edge">
<title>right_controller&#45;&gt;right_output</title>
<path fill="none" stroke="black" d="M231,-93.22C231,-84.25 231,-75.1 231,-66.89"/>
<polygon fill="black" stroke="black" points="234.5,-66.71 231,-56.71 227.5,-66.71 234.5,-66.71"/>
</g>
</g>
</svg>
