<?xml version="1.0" encoding="UTF-8" standalone="no"?>
<!DOCTYPE svg PUBLIC "-//W3C//DTD SVG 1.1//EN"
 "http://www.w3.org/Graphics/SVG/1.1/DTD/svg11.dtd">
<!-- Generated by graphviz version 2.50.0 (20220203.2022)
 -->
<!-- Title: NUCLEO Pages: 1 -->
<svg width="244pt" height="329pt"
 viewBox="0.00 0.00 244.00 329.00" xmlns="http://www.w3.org/2000/svg" xmlns:xlink="http://www.w3.org/1999/xlink">
<g id="graph0" class="graph" transform="scale(1 1) rotate(0) translate(4 325)">
<title>NUCLEO</title>
<polygon fill="white" stroke="transparent" points="-4,4 -4,-325 240,-325 240,4 -4,4"/>
<text text-anchor="middle" x="118" y="-7.8" font-family="Arial" font-size="14.00">NUCLEO F401RE</text>
<!-- motor -->
<g id="node1" class="node">
<title>motor</title>
<polygon fill="#f2f2f2" stroke="black" points="0,-152.5 0,-320.5 81,-320.5 81,-152.5 0,-152.5"/>
<text text-anchor="start" x="24.5" y="-308.7" font-family="Arial" font-weight="bold" font-size="11.00">motor</text>
<polyline fill="none" stroke="black" points="0,-300.5 81,-300.5 "/>
<text text-anchor="start" x="8" y="-287.7" font-family="Arial" font-size="11.00">Left PWM</text>
<text text-anchor="start" x="8" y="-275.7" font-family="Arial" font-size="11.00">Right PWM</text>
<text text-anchor="start" x="8" y="-263.7" font-family="Arial" font-size="11.00">enable</text>
<text text-anchor="start" x="8" y="-251.7" font-family="Arial" font-size="11.00">left direction</text>
<text text-anchor="start" x="8" y="-239.7" font-family="Arial" font-size="11.00">right direction</text>
<polyline fill="none" stroke="black" points="0,-232.5 81,-232.5 "/>
<text text-anchor="start" x="18" y="-219.7" font-family="Arial" font-size="11.00">forward()</text>
<polyline fill="none" stroke="black" points="0,-212.5 81,-212.5 "/>
<text text-anchor="start" x="18.5" y="-199.7" font-family="Arial" font-size="11.00">reverse()</text>
<polyline fill="none" stroke="black" points="0,-192.5 81,-192.5 "/>
<text text-anchor="start" x="16.5" y="-179.7" font-family="Arial" font-size="11.00">turnright()</text>
<polyline fill="none" stroke="black" points="0,-172.5 81,-172.5 "/>
<text text-anchor="start" x="20" y="-159.7" font-family="Arial" font-size="11.00">turnleft()</text>
</g>
<!-- qei -->
<g id="node2" class="node">
<title>qei</title>
<polygon fill="#f2f2f2" stroke="black" points="99,-216.5 99,-256.5 170,-256.5 170,-216.5 99,-216.5"/>
<text text-anchor="start" x="124.5" y="-244.7" font-family="Arial" font-weight="bold" font-size="11.00">QEI</text>
<polyline fill="none" stroke="black" points="99,-236.5 170,-236.5 "/>
<text text-anchor="start" x="107" y="-223.7" font-family="Arial" font-size="11.00">getPulses()</text>
</g>
<!-- left_encoder -->
<g id="node3" class="node">
<title>left_encoder</title>
<polygon fill="#f2f2f2" stroke="black" points="32.5,-23.5 32.5,-115.5 124.5,-115.5 124.5,-23.5 32.5,-23.5"/>
<text text-anchor="start" x="43.5" y="-103.7" font-family="Arial" font-weight="bold" font-size="11.00">Left Encoder</text>
<polyline fill="none" stroke="black" points="32.5,-95.5 124.5,-95.5 "/>
<text text-anchor="start" x="58.5" y="-82.7" font-family="Arial" font-size="11.00">velocity</text>
<text text-anchor="start" x="58.5" y="-70.7" font-family="Arial" font-size="11.00">distance</text>
<polyline fill="none" stroke="black" points="32.5,-63.5 124.5,-63.5 "/>
<text text-anchor="start" x="43" y="-50.7" font-family="Arial" font-size="11.00">read_velocity()</text>
<polyline fill="none" stroke="black" points="32.5,-43.5 124.5,-43.5 "/>
<text text-anchor="start" x="40.5" y="-30.7" font-family="Arial" font-size="11.00">read_distance()</text>
</g>
<!-- qei&#45;&gt;left_encoder -->
<g id="edge2" class="edge">
<title>qei&#45;&gt;left_encoder</title>
<path fill="none" stroke="black" d="M124.69,-206.59C116.17,-181.49 103.69,-144.72 93.85,-115.72"/>
<polygon fill="none" stroke="black" points="121.44,-207.9 127.97,-216.25 128.07,-205.66 121.44,-207.9"/>
</g>
<!-- right_encoder -->
<g id="node4" class="node">
<title>right_encoder</title>
<polygon fill="#f2f2f2" stroke="black" points="143,-23.5 143,-115.5 236,-115.5 236,-23.5 143,-23.5"/>
<text text-anchor="start" x="151" y="-103.7" font-family="Arial" font-weight="bold" font-size="11.00">Right Encoder</text>
<polyline fill="none" stroke="black" points="143,-95.5 236,-95.5 "/>
<text text-anchor="start" x="169.5" y="-82.7" font-family="Arial" font-size="11.00">velocity</text>
<text text-anchor="start" x="169.5" y="-70.7" font-family="Arial" font-size="11.00">distance</text>
<polyline fill="none" stroke="black" points="143,-63.5 236,-63.5 "/>
<text text-anchor="start" x="154" y="-50.7" font-family="Arial" font-size="11.00">read_velocity()</text>
<polyline fill="none" stroke="black" points="143,-43.5 236,-43.5 "/>
<text text-anchor="start" x="151.5" y="-30.7" font-family="Arial" font-size="11.00">read_distance()</text>
</g>
<!-- qei&#45;&gt;right_encoder -->
<g id="edge1" class="edge">
<title>qei&#45;&gt;right_encoder</title>
<path fill="none" stroke="black" d="M144.14,-206.59C152.5,-181.49 164.76,-144.72 174.43,-115.72"/>
<polygon fill="none" stroke="black" points="140.76,-205.66 140.92,-216.25 147.4,-207.87 140.76,-205.66"/>
</g>
</g>
</svg>
