<?xml version="1.0" encoding="UTF-8" standalone="no"?>
<!DOCTYPE svg PUBLIC "-//W3C//DTD SVG 1.1//EN"
 "http://www.w3.org/Graphics/SVG/1.1/DTD/svg11.dtd">
<!-- Generated by graphviz version 2.50.0 (20220203.2022)
 -->
<!-- Title: /github/workspace/include/QEI/encoder/encoder.h Pages: 1 -->
<svg width="291pt" height="240pt"
 viewBox="0.00 0.00 291.00 240.00" xmlns="http://www.w3.org/2000/svg" xmlns:xlink="http://www.w3.org/1999/xlink">
<g id="graph0" class="graph" transform="scale(1 1) rotate(0) translate(4 236)">
<title>/github/workspace/include/QEI/encoder/encoder.h</title>
<!-- Node1 -->
<g id="node1" class="node">
<title>Node1</title>
<g id="a_node1"><a xlink:title=" ">
<polygon fill="#bfbfbf" stroke="black" points="106,-201.5 106,-231.5 236,-231.5 236,-201.5 106,-201.5"/>
<text text-anchor="start" x="114" y="-219.5" font-family="Helvetica,sans-Serif" font-size="10.00">/github/workspace/include</text>
<text text-anchor="middle" x="171" y="-208.5" font-family="Helvetica,sans-Serif" font-size="10.00">/QEI/encoder/encoder.h</text>
</a>
</g>
</g>
<!-- Node2 -->
<g id="node2" class="node">
<title>Node2</title>
<g id="a_node2"><a xlink:href="helper_8h.html" target="_top" xlink:title=" ">
<polygon fill="none" stroke="black" points="60,-134.5 60,-164.5 190,-164.5 190,-134.5 60,-134.5"/>
<text text-anchor="start" x="68" y="-152.5" font-family="Helvetica,sans-Serif" font-size="10.00">/github/workspace/include</text>
<text text-anchor="middle" x="125" y="-141.5" font-family="Helvetica,sans-Serif" font-size="10.00">/helper.h</text>
</a>
</g>
</g>
<!-- Node1&#45;&gt;Node2 -->
<g id="edge1" class="edge">
<title>Node1&#45;&gt;Node2</title>
<path fill="none" stroke="midnightblue" d="M155.19,-193.16C148.48,-183.68 140.87,-172.92 134.96,-164.58"/>
<polygon fill="midnightblue" stroke="midnightblue" points="152.38,-195.26 161.02,-201.4 158.1,-191.21 152.38,-195.26"/>
</g>
<!-- Node5 -->
<g id="node5" class="node">
<title>Node5</title>
<g id="a_node5"><a xlink:href="motor_8h.html" target="_top" xlink:title=" ">
<polygon fill="none" stroke="black" points="153,-67.5 153,-97.5 283,-97.5 283,-67.5 153,-67.5"/>
<text text-anchor="start" x="161" y="-85.5" font-family="Helvetica,sans-Serif" font-size="10.00">/github/workspace/include</text>
<text text-anchor="middle" x="218" y="-74.5" font-family="Helvetica,sans-Serif" font-size="10.00">/motor/motor.h</text>
</a>
</g>
</g>
<!-- Node1&#45;&gt;Node5 -->
<g id="edge5" class="edge">
<title>Node1&#45;&gt;Node5</title>
<path fill="none" stroke="midnightblue" d="M185.47,-192.59C190.31,-184.16 195.39,-174.38 199,-165 207.77,-142.22 213.21,-114.24 215.92,-97.7"/>
<polygon fill="midnightblue" stroke="midnightblue" points="182.31,-191.05 180.19,-201.43 188.32,-194.64 182.31,-191.05"/>
</g>
<!-- Node3 -->
<g id="node3" class="node">
<title>Node3</title>
<g id="a_node3"><a xlink:href="_p_i_d_8h.html" target="_top" xlink:title=" ">
<polygon fill="none" stroke="black" points="5,-67.5 5,-97.5 135,-97.5 135,-67.5 5,-67.5"/>
<text text-anchor="start" x="13" y="-85.5" font-family="Helvetica,sans-Serif" font-size="10.00">/github/workspace/include</text>
<text text-anchor="middle" x="70" y="-74.5" font-family="Helvetica,sans-Serif" font-size="10.00">/PID/PID.h</text>
</a>
</g>
</g>
<!-- Node2&#45;&gt;Node3 -->
<g id="edge2" class="edge">
<title>Node2&#45;&gt;Node3</title>
<path fill="none" stroke="midnightblue" d="M106.58,-126.74C98.45,-117.12 89.11,-106.09 81.91,-97.58"/>
<polygon fill="midnightblue" stroke="midnightblue" points="103.93,-129.02 113.07,-134.4 109.28,-124.5 103.93,-129.02"/>
</g>
<!-- Node2&#45;&gt;Node5 -->
<g id="edge4" class="edge">
<title>Node2&#45;&gt;Node5</title>
<path fill="none" stroke="midnightblue" d="M153.69,-128.45C167.99,-118.45 184.95,-106.6 197.86,-97.58"/>
<polygon fill="midnightblue" stroke="midnightblue" points="151.37,-125.8 145.18,-134.4 155.38,-131.54 151.37,-125.8"/>
</g>
<!-- Node4 -->
<g id="node4" class="node">
<title>Node4</title>
<g id="a_node4"><a xlink:href="wheelcontrol_8h.html" target="_top" xlink:title=" ">
<polygon fill="none" stroke="black" points="0,-0.5 0,-30.5 140,-30.5 140,-0.5 0,-0.5"/>
<text text-anchor="start" x="8" y="-18.5" font-family="Helvetica,sans-Serif" font-size="10.00">/github/workspace/include</text>
<text text-anchor="middle" x="70" y="-7.5" font-family="Helvetica,sans-Serif" font-size="10.00">/wheelcontrol/wheelcontrol.h</text>
</a>
</g>
</g>
<!-- Node3&#45;&gt;Node4 -->
<g id="edge3" class="edge">
<title>Node3&#45;&gt;Node4</title>
<path fill="none" stroke="midnightblue" d="M70,-57.11C70,-48.15 70,-38.32 70,-30.58"/>
<polygon fill="midnightblue" stroke="midnightblue" points="66.5,-57.4 70,-67.4 73.5,-57.4 66.5,-57.4"/>
</g>
</g>
</svg>
