<?xml version="1.0" encoding="UTF-8" standalone="no"?>
<!DOCTYPE svg PUBLIC "-//W3C//DTD SVG 1.1//EN"
 "http://www.w3.org/Graphics/SVG/1.1/DTD/svg11.dtd">
<!-- Generated by graphviz version 2.50.0 (20220203.2022)
 -->
<!-- Title: /github/workspace/include/QEI/encoder/encoder.h Pages: 1 -->
<svg width="158pt" height="151pt"
 viewBox="0.00 0.00 158.00 151.00" xmlns="http://www.w3.org/2000/svg" xmlns:xlink="http://www.w3.org/1999/xlink">
<g id="graph0" class="graph" transform="scale(1 1) rotate(0) translate(4 147)">
<title>/github/workspace/include/QEI/encoder/encoder.h</title>
<!-- Node1 -->
<g id="node1" class="node">
<title>Node1</title>
<g id="a_node1"><a xlink:title=" ">
<polygon fill="#bfbfbf" stroke="black" points="0,-112.5 0,-142.5 130,-142.5 130,-112.5 0,-112.5"/>
<text text-anchor="start" x="8" y="-130.5" font-family="Helvetica,sans-Serif" font-size="10.00">/github/workspace/include</text>
<text text-anchor="middle" x="65" y="-119.5" font-family="Helvetica,sans-Serif" font-size="10.00">/QEI/encoder/encoder.h</text>
</a>
</g>
</g>
<!-- Node2 -->
<g id="node2" class="node">
<title>Node2</title>
<g id="a_node2"><a xlink:title=" ">
<polygon fill="none" stroke="#bfbfbf" points="16,-0.5 16,-19.5 64,-19.5 64,-0.5 16,-0.5"/>
<text text-anchor="middle" x="40" y="-7.5" font-family="Helvetica,sans-Serif" font-size="10.00">mbed.h</text>
</a>
</g>
</g>
<!-- Node1&#45;&gt;Node2 -->
<g id="edge1" class="edge">
<title>Node1&#45;&gt;Node2</title>
<path fill="none" stroke="midnightblue" d="M53.83,-112.43C46.91,-102.79 38.67,-89.37 35,-76 30.79,-60.65 32.71,-42.55 35.3,-29.36"/>
<polygon fill="midnightblue" stroke="midnightblue" points="38.72,-30.12 37.51,-19.59 31.89,-28.57 38.72,-30.12"/>
</g>
<!-- Node3 -->
<g id="node3" class="node">
<title>Node3</title>
<g id="a_node3"><a xlink:href="_q_e_i_8h.html" target="_top" xlink:title=" ">
<polygon fill="none" stroke="black" points="44.5,-56.5 44.5,-75.5 85.5,-75.5 85.5,-56.5 44.5,-56.5"/>
<text text-anchor="middle" x="65" y="-63.5" font-family="Helvetica,sans-Serif" font-size="10.00">QEI.h</text>
</a>
</g>
</g>
<!-- Node1&#45;&gt;Node3 -->
<g id="edge2" class="edge">
<title>Node1&#45;&gt;Node3</title>
<path fill="none" stroke="midnightblue" d="M65,-112.4C65,-104.47 65,-94.46 65,-85.86"/>
<polygon fill="midnightblue" stroke="midnightblue" points="68.5,-85.66 65,-75.66 61.5,-85.66 68.5,-85.66"/>
</g>
<!-- Node4 -->
<g id="node4" class="node">
<title>Node4</title>
<g id="a_node4"><a xlink:title=" ">
<polygon fill="none" stroke="#bfbfbf" points="104,-56.5 104,-75.5 150,-75.5 150,-56.5 104,-56.5"/>
<text text-anchor="middle" x="127" y="-63.5" font-family="Helvetica,sans-Serif" font-size="10.00">chrono</text>
</a>
</g>
</g>
<!-- Node1&#45;&gt;Node4 -->
<g id="edge4" class="edge">
<title>Node1&#45;&gt;Node4</title>
<path fill="none" stroke="midnightblue" d="M79.69,-112.4C88.98,-103.49 101,-91.95 110.6,-82.74"/>
<polygon fill="midnightblue" stroke="midnightblue" points="113.19,-85.11 117.98,-75.66 108.34,-80.06 113.19,-85.11"/>
</g>
<!-- Node3&#45;&gt;Node2 -->
<g id="edge3" class="edge">
<title>Node3&#45;&gt;Node2</title>
<path fill="none" stroke="midnightblue" d="M60.87,-56.08C57.49,-48.77 52.58,-38.18 48.38,-29.1"/>
<polygon fill="midnightblue" stroke="midnightblue" points="51.43,-27.36 44.05,-19.75 45.08,-30.3 51.43,-27.36"/>
</g>
</g>
</svg>
