<svg width="5428" height="2394" xmlns="http://www.w3.org/2000/svg" xmlns:xlink="http://www.w3.org/1999/xlink" overflow="hidden"><defs><clipPath id="clip0"><rect x="1879" y="729" width="5428" height="2394"/></clipPath><clipPath id="clip1"><rect x="1880" y="730" width="5424" height="2391"/></clipPath><clipPath id="clip2"><rect x="1880" y="730" width="5424" height="2391"/></clipPath><clipPath id="clip3"><rect x="2034" y="780" width="5223" height="2189"/></clipPath><clipPath id="clip4"><rect x="2034" y="780" width="5223" height="2189"/></clipPath><clipPath id="clip5"><rect x="2034" y="780" width="5223" height="2189"/></clipPath><clipPath id="clip6"><rect x="1880" y="730" width="5424" height="2391"/></clipPath><clipPath id="clip7"><rect x="1880" y="730" width="5424" height="2391"/></clipPath><clipPath id="clip8"><rect x="1880" y="730" width="5424" height="2391"/></clipPath><clipPath id="clip9"><rect x="1880" y="730" width="5424" height="2391"/></clipPath><clipPath id="clip10"><rect x="1880" y="730" width="5424" height="2391"/></clipPath><clipPath id="clip11"><rect x="1880" y="730" width="5424" height="2391"/></clipPath><clipPath id="clip12"><rect x="1880" y="730" width="5424" height="2391"/></clipPath><clipPath id="clip13"><rect x="1880" y="730" width="5424" height="2391"/></clipPath><clipPath id="clip14"><rect x="1880" y="730" width="5424" height="2391"/></clipPath><clipPath id="clip15"><rect x="1880" y="730" width="5424" height="2391"/></clipPath><clipPath id="clip16"><rect x="1880" y="730" width="5424" height="2391"/></clipPath><clipPath id="clip17"><rect x="1880" y="730" width="5424" height="2391"/></clipPath><clipPath id="clip18"><rect x="1880" y="730" width="5424" height="2391"/></clipPath><clipPath id="clip19"><rect x="1880" y="730" width="5424" height="2391"/></clipPath><clipPath id="clip20"><rect x="1880" y="730" width="5424" height="2391"/></clipPath><clipPath id="clip21"><rect x="1880" y="730" width="5424" height="2391"/></clipPath><clipPath id="clip22"><rect x="1880" y="730" width="5424" height="2391"/></clipPath><clipPath id="clip23"><rect x="1880" y="730" width="5424" height="2391"/></clipPath><clipPath id="clip24"><rect x="1880" y="730" width="5424" height="2391"/></clipPath></defs><g clip-path="url(#clip0)" transform="translate(-1879 -729)"><rect x="1880" y="730" width="5425" height="2391" fill="#FFFFFF"/><g clip-path="url(#clip1)"><path d="M2034.5 2926.6 7254.5 2926.6M2034.5 2886.59 7254.5 2886.59M2034.5 2846.59 7254.5 2846.59M2034.5 2806.59 7254.5 2806.59M2034.5 2727.59 7254.5 2727.59M2034.5 2687.59 7254.5 2687.59M2034.5 2648.59 7254.5 2648.59M2034.5 2608.59 7254.5 2608.59M2034.5 2528.58 7254.5 2528.58M2034.5 2489.58 7254.5 2489.58M2034.5 2449.58 7254.5 2449.58M2034.5 2409.58 7254.5 2409.58M2034.5 2330.58 7254.5 2330.58M2034.5 2290.58 7254.5 2290.58M2034.5 2250.57 7254.5 2250.57M2034.5 2211.57 7254.5 2211.57M2034.5 2131.57 7254.5 2131.57M2034.5 2091.57 7254.5 2091.57M2034.5 2052.57 7254.5 2052.57M2034.5 2012.57 7254.5 2012.57M2034.5 1932.56 7254.5 1932.56M2034.5 1893.56 7254.5 1893.56M2034.5 1853.56 7254.5 1853.56M2034.5 1813.56 7254.5 1813.56M2034.5 1734.56 7254.5 1734.56M2034.5 1694.56 7254.5 1694.56M2034.5 1654.55 7254.5 1654.55M2034.5 1615.55 7254.5 1615.55M2034.5 1535.55 7254.5 1535.55M2034.5 1495.55 7254.5 1495.55M2034.5 1456.55 7254.5 1456.55M2034.5 1416.55 7254.5 1416.55M2034.5 1337.54 7254.5 1337.54M2034.5 1297.54 7254.5 1297.54M2034.5 1257.54 7254.5 1257.54M2034.5 1217.54 7254.5 1217.54M2034.5 1138.54 7254.5 1138.54M2034.5 1098.54 7254.5 1098.54M2034.5 1058.53 7254.5 1058.53M2034.5 1019.53 7254.5 1019.53M2034.5 939.531 7254.5 939.531M2034.5 900.53 7254.5 900.53M2034.5 860.528 7254.5 860.528M2034.5 820.527 7254.5 820.527" stroke="#F2F2F2" stroke-width="3.4375" stroke-linejoin="round" stroke-miterlimit="10" fill="none"/></g><g clip-path="url(#clip2)"><path d="M2034.5 2965.5 7254.5 2965.5M2034.5 2767.59 7254.5 2767.59M2034.5 2568.58 7254.5 2568.58M2034.5 2369.58 7254.5 2369.58M2034.5 2171.57 7254.5 2171.57M2034.5 1972.56 7254.5 1972.56M2034.5 1774.56 7254.5 1774.56M2034.5 1575.55 7254.5 1575.55M2034.5 1376.55 7254.5 1376.55M2034.5 1178.54 7254.5 1178.54M2034.5 979.532 7254.5 979.532M2034.5 780.5 7254.5 780.5" stroke="#D9D9D9" stroke-width="3.4375" stroke-linejoin="round" stroke-miterlimit="10" fill="none"/></g><g clip-path="url(#clip3)"><path d="M2062 1958.06 2116.07 2170.07 2171.07 1724.06 2226.07 1749.06 2281.07 2148.07 2336.08 1582.05 2391.08 1430.05 2446.08 1550.05 2501.08 2271.07 2556.08 1531.05 2611.09 1824.06 2666.09 1855.06 2721.09 1431.05 2776.09 1571.05 2831.09 1548.05 2886.09 1568.05 2941.1 1756.06 2996.1 2167.07 3051.1 1770.06 3106.1 1911.06 3160.1 2265.07 3215.11 1458.05 3270.11 1584.05 3325.11 1802.06 3380.11 1641.05 3435.11 1572.05 3490.11 1056.03 3545.12 1867.06 3600.12 1348.04 3655.12 1350.04 3710.12 1337.04 3765.12 1883.06 3820.13 2043.07 3875.13 1986.07 3930.13 2457.08 3985.13 1783.06 4040.13 1144.04 4095.13 1678.06 4150.14 1372.04 4204.14 1984.07 4259.14 2241.07 4314.14 1665.05 4369.14 1958.06 4424.15 1761.06 4479.15 1545.05 4534.15 1489.05 4589.15 1930.06 4644.15 1774.06 4699.15 1794.06 4754.16 1558.05 4809.16 2211.07 4864.16 1609.05 4919.16 1381.05 4974.16 2298.08 5029.17 1447.05 5084.17 1680.06 5139.17 2029.07 5194.17 1675.05 5248.17 2184.07 5303.17 2059.07 5358.18 1761.06 5413.18 1841.06 5468.18 1642.05 5523.18 2035.07 5578.18 1979.06 5633.18 1568.05 5688.19 1922.06 5743.19 1689.06 5798.19 1910.06 5853.19 2256.07 5908.19 2218.07 5963.2 1917.06 6018.2 1839.06 6073.2 2167.07 6128.2 1031 6183.2 2280.07 6238.21 1399.05 6292.21 1388.05 6347.21 2043.07 6402.21 1984.07 6457.21 2824 6512.21 2203.07 6567.22 2526.08 6622.22 2467.08 6677.22 1606.05 6732.22 1192.04 6787.22 2553.08 6842.22 2149.07 6897.23 1120.04 6952.23 1861.06 7007.23 1680.06 7062.23 1635.05 7117.23 2389.08 7172.24 1555.05 7227 1672.05" stroke="#000000" stroke-width="5.72917" stroke-linecap="round" stroke-linejoin="round" stroke-miterlimit="10" fill="none"/></g><g clip-path="url(#clip4)"><path d="M2062 1673.05 2116.07 1873.06 2171.07 2081.07 2226.07 1831.06 2281.07 1773.06 2336.08 2035.07 2391.08 1718.06 2446.08 1516.05 2501.08 1540.05 2556.08 2052.07 2611.09 1687.06 2666.09 1783.06 2721.09 1834.06 2776.09 1552.05 2831.09 1565.05 2886.09 1553.05 2941.1 1564.05 2996.1 1698.06 3051.1 2026.07 3106.1 1847.06 3160.1 1892.06 3215.11 2153.07 3270.11 1666.05 3325.11 1609.05 3380.11 1744.06 3435.11 1672.05 3490.11 1602.05 3545.12 1220 3600.12 1673.05 3655.12 1446.05 3710.12 1378.05 3765.12 1349.04 3820.13 1723.06 3875.13 1947.06 3930.13 1975.06 3985.13 2312.08 4040.13 1942.06 4095.13 1383.05 4150.14 1590.05 4204.14 1437.05 4259.14 1820.06 4314.14 2115.07 4369.14 1800.06 4424.15 1911.06 4479.15 1806.06 4534.15 1624.05 4589.15 1529.05 4644.15 1810.06 4699.15 1785.06 4754.16 1791.06 4809.16 1628.05 4864.16 2036.07 4919.16 1737.06 4974.16 1488.05 5029.17 2055.07 5084.17 1630.05 5139.17 1665.05 5194.17 1920.06 5248.17 1749.06 5303.17 2053.07 5358.18 2057.07 5413.18 1850.06 5468.18 1844.06 5523.18 1703.06 5578.18 1935.06 5633.18 1966.06 5688.19 1687.06 5743.19 1851.06 5798.19 1738.06 5853.19 1858.06 5908.19 2136.07 5963.2 2194.07 6018.2 2000.07 6073.2 1887.06 6128.2 2083.07 6183.2 1347.04 6238.21 2000.07 6292.21 1579.05 6347.21 1445.05 6402.21 1864.06 6457.21 1948.06 6512.21 2561 6567.22 2310.08 6622.22 2461.08 6677.22 2465.08 6732.22 1864.06 6787.22 1394.05 6842.22 2205.07 6897.23 2166.07 6952.23 1434.05 7007.23 1733.06 7062.23 1696.06 7117.23 1653.05 7172.24 2168.07 7227 1739.06" stroke="#FF0000" stroke-width="5.72917" stroke-linecap="round" stroke-linejoin="round" stroke-miterlimit="10" fill="none"/></g><g clip-path="url(#clip5)"><path d="M2062 1859.06 2116.07 1921.06 2171.07 1882.06 2226.07 1855.06 2281.07 1914.06 2336.08 1847.06 2391.08 1764.06 2446.08 1721.06 2501.08 1831.06 2556.08 1771.06 2611.09 1782.06 2666.09 1796.06 2721.09 1723.06 2776.09 1693.06 2831.09 1664.05 2886.09 1645.05 2941.1 1667.05 2996.1 1767.06 3051.1 1768.06 3106.1 1796.06 3160.1 1890.06 3215.11 1804.06 3270.11 1760.06 3325.11 1768.06 3380.11 1743.06 3435.11 1709.06 3490.11 1578.05 3545.12 1636.05 3600.12 1578.05 3655.12 1533.05 3710.12 1493 3765.12 1571.05 3820.13 1666.05 3875.13 1730.06 3930.13 1875.06 3985.13 1857.06 4040.13 1714.06 4095.13 1707.06 4150.14 1640.05 4204.14 1709.06 4259.14 1815.06 4314.14 1785.06 4369.14 1820.06 4424.15 1808.06 4479.15 1756.06 4534.15 1702.06 4589.15 1748.06 4644.15 1753.06 4699.15 1761.06 4754.16 1721.06 4809.16 1819.06 4864.16 1777.06 4919.16 1698.06 4974.16 1818.06 5029.17 1744.06 5084.17 1731.06 5139.17 1790.06 5194.17 1767.06 5248.17 1851.06 5303.17 1892.06 5358.18 1866.06 5413.18 1861.06 5468.18 1817.06 5523.18 1861.06 5578.18 1884.06 5633.18 1821.06 5688.19 1841.06 5743.19 1811.06 5798.19 1831.06 5853.19 1916.06 5908.19 1976.06 5963.2 1964.06 6018.2 1939.06 6073.2 1985.07 6128.2 1794.06 6183.2 1891.06 6238.21 1793.06 6292.21 1712.06 6347.21 1778.06 6402.21 1819.06 6457.21 2020.07 6512.21 2057.07 6567.22 2150.07 6622.22 2214 6677.22 2092.07 6732.22 1912.06 6787.22 2040.07 6842.22 2062.07 6897.23 1874.06 6952.23 1871.06 7007.23 1833.06 7062.23 1793.06 7117.23 1912.06 7172.24 1841.06 7227 1807.06" stroke="#E6AF00" stroke-width="5.72917" stroke-linecap="round" stroke-linejoin="round" stroke-miterlimit="10" fill="none"/></g><g clip-path="url(#clip6)"><text fill="#595959" font-family="Calibri,Calibri_MSFontService,sans-serif" font-weight="400" font-size="41" transform="matrix(1 0 0 1 1910.1 2978)">-1.20</text></g><g clip-path="url(#clip7)"><text fill="#595959" font-family="Calibri,Calibri_MSFontService,sans-serif" font-weight="400" font-size="41" transform="matrix(1 0 0 1 1910.1 2779)">-1.00</text></g><g clip-path="url(#clip8)"><text fill="#595959" font-family="Calibri,Calibri_MSFontService,sans-serif" font-weight="400" font-size="41" transform="matrix(1 0 0 1 1910.1 2580)">-0.80</text></g><g clip-path="url(#clip9)"><text fill="#595959" font-family="Calibri,Calibri_MSFontService,sans-serif" font-weight="400" font-size="41" transform="matrix(1 0 0 1 1910.1 2382)">-0.60</text></g><g clip-path="url(#clip10)"><text fill="#595959" font-family="Calibri,Calibri_MSFontService,sans-serif" font-weight="400" font-size="41" transform="matrix(1 0 0 1 1910.1 2183)">-0.40</text></g><g clip-path="url(#clip11)"><text fill="#595959" font-family="Calibri,Calibri_MSFontService,sans-serif" font-weight="400" font-size="41" transform="matrix(1 0 0 1 1910.1 1984)">-0.20</text></g><g clip-path="url(#clip12)"><text fill="#595959" font-family="Calibri,Calibri_MSFontService,sans-serif" font-weight="400" font-size="41" transform="matrix(1 0 0 1 1922.73 1786)">0.00</text></g><g clip-path="url(#clip13)"><text fill="#595959" font-family="Calibri,Calibri_MSFontService,sans-serif" font-weight="400" font-size="41" transform="matrix(1 0 0 1 1922.73 1587)">0.20</text></g><g clip-path="url(#clip14)"><text fill="#595959" font-family="Calibri,Calibri_MSFontService,sans-serif" font-weight="400" font-size="41" transform="matrix(1 0 0 1 1922.73 1388)">0.40</text></g><g clip-path="url(#clip15)"><text fill="#595959" font-family="Calibri,Calibri_MSFontService,sans-serif" font-weight="400" font-size="41" transform="matrix(1 0 0 1 1922.73 1190)">0.60</text></g><g clip-path="url(#clip16)"><text fill="#595959" font-family="Calibri,Calibri_MSFontService,sans-serif" font-weight="400" font-size="41" transform="matrix(1 0 0 1 1922.73 991)">0.80</text></g><g clip-path="url(#clip17)"><text fill="#595959" font-family="Calibri,Calibri_MSFontService,sans-serif" font-weight="400" font-size="41" transform="matrix(1 0 0 1 1922.73 792)">1.00</text></g><g clip-path="url(#clip18)"><text fill="#595959" font-family="Calibri,Calibri_MSFontService,sans-serif" font-weight="400" font-size="64" transform="matrix(1 0 0 1 4319.95 826)">Unfiltered vs Filtered</text></g><g clip-path="url(#clip19)"><path d="M4277 3055 4365 3055" stroke="#000000" stroke-width="5.72917" stroke-linecap="round" stroke-linejoin="round" stroke-miterlimit="10" fill="none" fill-rule="evenodd"/></g><g clip-path="url(#clip20)"><text fill="#595959" font-family="Calibri,Calibri_MSFontService,sans-serif" font-weight="400" font-size="41" transform="matrix(1 0 0 1 4374.09 3067)">unfiltered</text></g><g clip-path="url(#clip21)"><path d="M4583 3055 4671 3055" stroke="#FF0000" stroke-width="5.72917" stroke-linecap="round" stroke-linejoin="round" stroke-miterlimit="10" fill="none" fill-rule="evenodd"/></g><g clip-path="url(#clip22)"><text fill="#595959" font-family="Calibri,Calibri_MSFontService,sans-serif" font-weight="400" font-size="41" transform="matrix(1 0 0 1 4679.93 3067)">0.7</text></g><g clip-path="url(#clip23)"><path d="M4775 3055 4863 3055" stroke="#E6AF00" stroke-width="5.72917" stroke-linecap="round" stroke-linejoin="round" stroke-miterlimit="10" fill="none" fill-rule="evenodd"/></g><g clip-path="url(#clip24)"><text fill="#595959" font-family="Calibri,Calibri_MSFontService,sans-serif" font-weight="400" font-size="41" transform="matrix(1 0 0 1 4872.14 3067)">0.2</text></g><rect x="1880.5" y="730.5" width="5425" height="2391" stroke="#D9D9D9" stroke-width="3.4375" stroke-linejoin="round" stroke-miterlimit="10" fill="none"/></g></svg>