<?xml version="1.0" encoding="UTF-8" standalone="no"?>
<!DOCTYPE svg PUBLIC "-//W3C//DTD SVG 1.1//EN"
 "http://www.w3.org/Graphics/SVG/1.1/DTD/svg11.dtd">
<!-- Generated by graphviz version 5.0.0 (20220708.1001)
 -->
<!-- Title: /github/workspace/include/helper.h Pages: 1 -->
<svg width="267pt" height="207pt"
 viewBox="0.00 0.00 267.00 207.00" xmlns="http://www.w3.org/2000/svg" xmlns:xlink="http://www.w3.org/1999/xlink">
<g id="graph0" class="graph" transform="scale(1 1) rotate(0) translate(4 203)">
<title>/github/workspace/include/helper.h</title>
<!-- Node1 -->
<g id="node1" class="node">
<title>Node1</title>
<g id="a_node1"><a xlink:title=" ">
<polygon fill="#bfbfbf" stroke="black" points="106.5,-168.5 106.5,-198.5 236.5,-198.5 236.5,-168.5 106.5,-168.5"/>
<text text-anchor="start" x="114.5" y="-186.5" font-family="Helvetica,sans-Serif" font-size="10.00">/github/workspace/include</text>
<text text-anchor="middle" x="171.5" y="-175.5" font-family="Helvetica,sans-Serif" font-size="10.00">/helper.h</text>
</a>
</g>
</g>
<!-- Node2 -->
<g id="node2" class="node">
<title>Node2</title>
<g id="a_node2"><a xlink:href="encoder_8h.html" target="_top" xlink:title=" ">
<polygon fill="none" stroke="black" points="62,-112.5 62,-131.5 121,-131.5 121,-112.5 62,-112.5"/>
<text text-anchor="middle" x="91.5" y="-119.5" font-family="Helvetica,sans-Serif" font-size="10.00">encoder.h</text>
</a>
</g>
</g>
<!-- Node1&#45;&gt;Node2 -->
<g id="edge1" class="edge">
<title>Node1&#45;&gt;Node2</title>
<path fill="none" stroke="midnightblue" d="M152.54,-168.4C140.08,-159.13 123.8,-147.03 111.19,-137.65"/>
<polygon fill="midnightblue" stroke="midnightblue" points="113.25,-134.82 103.14,-131.66 109.08,-140.43 113.25,-134.82"/>
</g>
<!-- Node4 -->
<g id="node4" class="node">
<title>Node4</title>
<g id="a_node4"><a xlink:title=" ">
<polygon fill="none" stroke="#bfbfbf" points="45.5,-0.5 45.5,-19.5 93.5,-19.5 93.5,-0.5 45.5,-0.5"/>
<text text-anchor="middle" x="69.5" y="-7.5" font-family="Helvetica,sans-Serif" font-size="10.00">mbed.h</text>
</a>
</g>
</g>
<!-- Node1&#45;&gt;Node4 -->
<g id="edge6" class="edge">
<title>Node1&#45;&gt;Node4</title>
<path fill="none" stroke="midnightblue" d="M173.23,-168.1C175.47,-142.94 176.6,-90.37 152.5,-56 140.67,-39.13 120.44,-27.97 102.92,-20.99"/>
<polygon fill="midnightblue" stroke="midnightblue" points="104.12,-17.71 93.53,-17.53 101.7,-24.27 104.12,-17.71"/>
</g>
<!-- Node6 -->
<g id="node6" class="node">
<title>Node6</title>
<g id="a_node6"><a xlink:title=" ">
<polygon fill="none" stroke="#bfbfbf" points="200,-112.5 200,-131.5 259,-131.5 259,-112.5 200,-112.5"/>
<text text-anchor="middle" x="229.5" y="-119.5" font-family="Helvetica,sans-Serif" font-size="10.00">functional</text>
</a>
</g>
</g>
<!-- Node1&#45;&gt;Node6 -->
<g id="edge7" class="edge">
<title>Node1&#45;&gt;Node6</title>
<path fill="none" stroke="midnightblue" d="M185.25,-168.4C193.85,-159.58 204.95,-148.18 213.89,-139.02"/>
<polygon fill="midnightblue" stroke="midnightblue" points="216.59,-141.26 221.06,-131.66 211.57,-136.38 216.59,-141.26"/>
</g>
<!-- Node3 -->
<g id="node3" class="node">
<title>Node3</title>
<g id="a_node3"><a xlink:href="_q_e_i_8h.html" target="_top" xlink:title=" ">
<polygon fill="none" stroke="black" points="0,-56.5 0,-75.5 41,-75.5 41,-56.5 0,-56.5"/>
<text text-anchor="middle" x="20.5" y="-63.5" font-family="Helvetica,sans-Serif" font-size="10.00">QEI.h</text>
</a>
</g>
</g>
<!-- Node2&#45;&gt;Node3 -->
<g id="edge2" class="edge">
<title>Node2&#45;&gt;Node3</title>
<path fill="none" stroke="midnightblue" d="M80.09,-112.32C69.39,-104.18 53.16,-91.84 40.34,-82.09"/>
<polygon fill="midnightblue" stroke="midnightblue" points="42.19,-79.1 32.11,-75.83 37.96,-84.67 42.19,-79.1"/>
</g>
<!-- Node2&#45;&gt;Node4 -->
<g id="edge4" class="edge">
<title>Node2&#45;&gt;Node4</title>
<path fill="none" stroke="midnightblue" d="M89.77,-112.37C86.22,-94.62 78.03,-53.67 73.22,-29.6"/>
<polygon fill="midnightblue" stroke="midnightblue" points="76.61,-28.71 71.22,-19.59 69.75,-30.08 76.61,-28.71"/>
</g>
<!-- Node5 -->
<g id="node5" class="node">
<title>Node5</title>
<g id="a_node5"><a xlink:title=" ">
<polygon fill="none" stroke="#bfbfbf" points="97.5,-56.5 97.5,-75.5 143.5,-75.5 143.5,-56.5 97.5,-56.5"/>
<text text-anchor="middle" x="120.5" y="-63.5" font-family="Helvetica,sans-Serif" font-size="10.00">chrono</text>
</a>
</g>
</g>
<!-- Node2&#45;&gt;Node5 -->
<g id="edge5" class="edge">
<title>Node2&#45;&gt;Node5</title>
<path fill="none" stroke="midnightblue" d="M96.29,-112.08C100.26,-104.69 106.03,-93.95 110.93,-84.81"/>
<polygon fill="midnightblue" stroke="midnightblue" points="114.15,-86.22 115.8,-75.75 107.99,-82.91 114.15,-86.22"/>
</g>
<!-- Node3&#45;&gt;Node4 -->
<g id="edge3" class="edge">
<title>Node3&#45;&gt;Node4</title>
<path fill="none" stroke="midnightblue" d="M28.59,-56.08C35.66,-48.3 46.09,-36.8 54.65,-27.37"/>
<polygon fill="midnightblue" stroke="midnightblue" points="57.43,-29.51 61.56,-19.75 52.25,-24.8 57.43,-29.51"/>
</g>
</g>
</svg>
