<?xml version="1.0" encoding="UTF-8" standalone="no"?>
<!DOCTYPE svg PUBLIC "-//W3C//DTD SVG 1.1//EN"
 "http://www.w3.org/Graphics/SVG/1.1/DTD/svg11.dtd">
<!-- Generated by graphviz version 6.0.1 (20220911.1526)
 -->
<!-- Title: /github/workspace/include/helper.h Pages: 1 -->
<svg width="267pt" height="203pt"
 viewBox="0.00 0.00 267.00 203.00" xmlns="http://www.w3.org/2000/svg" xmlns:xlink="http://www.w3.org/1999/xlink">
<g id="graph0" class="graph" transform="scale(1 1) rotate(0) translate(4 199)">
<title>/github/workspace/include/helper.h</title>
<!-- Node1 -->
<g id="node1" class="node">
<title>Node1</title>
<g id="a_node1"><a xlink:title=" ">
<polygon fill="#999999" stroke="#666666" points="236.5,-195 106.5,-195 106.5,-165 236.5,-165 236.5,-195"/>
<text text-anchor="start" x="114.5" y="-183" font-family="Helvetica,sans-Serif" font-size="10.00">/github/workspace/include</text>
<text text-anchor="middle" x="171.5" y="-172" font-family="Helvetica,sans-Serif" font-size="10.00">/helper.h</text>
</a>
</g>
</g>
<!-- Node2 -->
<g id="node2" class="node">
<title>Node2</title>
<g id="a_node2"><a xlink:href="encoder_8h.html" target="_top" xlink:title=" ">
<polygon fill="white" stroke="#666666" points="121,-129 62,-129 62,-110 121,-110 121,-129"/>
<text text-anchor="middle" x="91.5" y="-117" font-family="Helvetica,sans-Serif" font-size="10.00">encoder.h</text>
</a>
</g>
</g>
<!-- Node1&#45;&gt;Node2 -->
<g id="edge1" class="edge">
<title>Node1&#45;&gt;Node2</title>
<path fill="none" stroke="#63b8ff" d="M152.13,-164.84C139.93,-155.91 124.19,-144.41 111.81,-135.35"/>
<polygon fill="#63b8ff" stroke="#63b8ff" points="113.63,-132.34 103.49,-129.27 109.49,-137.99 113.63,-132.34"/>
</g>
<!-- Node4 -->
<g id="node4" class="node">
<title>Node4</title>
<g id="a_node4"><a xlink:title=" ">
<polygon fill="#e0e0e0" stroke="#999999" points="93.5,-19 45.5,-19 45.5,0 93.5,0 93.5,-19"/>
<text text-anchor="middle" x="69.5" y="-7" font-family="Helvetica,sans-Serif" font-size="10.00">mbed.h</text>
</a>
</g>
</g>
<!-- Node1&#45;&gt;Node4 -->
<g id="edge6" class="edge">
<title>Node1&#45;&gt;Node4</title>
<path fill="none" stroke="#63b8ff" d="M173.16,-164.87C175.29,-140.18 176.26,-88.61 152.5,-55 140.74,-38.37 120.78,-27.39 103.38,-20.5"/>
<polygon fill="#63b8ff" stroke="#63b8ff" points="104.1,-17.03 93.51,-16.9 101.7,-23.61 104.1,-17.03"/>
</g>
<!-- Node6 -->
<g id="node6" class="node">
<title>Node6</title>
<g id="a_node6"><a xlink:title=" ">
<polygon fill="#e0e0e0" stroke="#999999" points="259,-129 200,-129 200,-110 259,-110 259,-129"/>
<text text-anchor="middle" x="229.5" y="-117" font-family="Helvetica,sans-Serif" font-size="10.00">functional</text>
</a>
</g>
</g>
<!-- Node1&#45;&gt;Node6 -->
<g id="edge7" class="edge">
<title>Node1&#45;&gt;Node6</title>
<path fill="none" stroke="#63b8ff" d="M185.54,-164.84C194.05,-156.26 204.91,-145.3 213.72,-136.42"/>
<polygon fill="#63b8ff" stroke="#63b8ff" points="216.25,-138.83 220.81,-129.27 211.28,-133.9 216.25,-138.83"/>
</g>
<!-- Node3 -->
<g id="node3" class="node">
<title>Node3</title>
<g id="a_node3"><a xlink:href="_q_e_i_8h.html" target="_top" xlink:title=" ">
<polygon fill="white" stroke="#666666" points="41,-74 0,-74 0,-55 41,-55 41,-74"/>
<text text-anchor="middle" x="20.5" y="-62" font-family="Helvetica,sans-Serif" font-size="10.00">QEI.h</text>
</a>
</g>
</g>
<!-- Node2&#45;&gt;Node3 -->
<g id="edge2" class="edge">
<title>Node2&#45;&gt;Node3</title>
<path fill="none" stroke="#63b8ff" d="M80.09,-109.98C69.39,-102 53.16,-89.88 40.34,-80.31"/>
<polygon fill="#63b8ff" stroke="#63b8ff" points="42.22,-77.35 32.11,-74.17 38.03,-82.96 42.22,-77.35"/>
</g>
<!-- Node2&#45;&gt;Node4 -->
<g id="edge4" class="edge">
<title>Node2&#45;&gt;Node4</title>
<path fill="none" stroke="#63b8ff" d="M89.7,-109.66C86.14,-92.17 78.12,-52.8 73.32,-29.27"/>
<polygon fill="#63b8ff" stroke="#63b8ff" points="76.69,-28.26 71.26,-19.16 69.83,-29.66 76.69,-28.26"/>
</g>
<!-- Node5 -->
<g id="node5" class="node">
<title>Node5</title>
<g id="a_node5"><a xlink:title=" ">
<polygon fill="#e0e0e0" stroke="#999999" points="143.5,-74 97.5,-74 97.5,-55 143.5,-55 143.5,-74"/>
<text text-anchor="middle" x="120.5" y="-62" font-family="Helvetica,sans-Serif" font-size="10.00">chrono</text>
</a>
</g>
</g>
<!-- Node2&#45;&gt;Node5 -->
<g id="edge5" class="edge">
<title>Node2&#45;&gt;Node5</title>
<path fill="none" stroke="#63b8ff" d="M96.29,-109.75C100.26,-102.49 106.03,-91.95 110.93,-82.98"/>
<polygon fill="#63b8ff" stroke="#63b8ff" points="114.07,-84.54 115.8,-74.09 107.93,-81.18 114.07,-84.54"/>
</g>
<!-- Node3&#45;&gt;Node4 -->
<g id="edge3" class="edge">
<title>Node3&#45;&gt;Node4</title>
<path fill="none" stroke="#63b8ff" d="M28.59,-54.75C35.66,-47.11 46.09,-35.82 54.65,-26.56"/>
<polygon fill="#63b8ff" stroke="#63b8ff" points="57.34,-28.81 61.56,-19.09 52.2,-24.06 57.34,-28.81"/>
</g>
</g>
</svg>
