<?xml version="1.0" encoding="UTF-8" standalone="no"?>
<!DOCTYPE svg PUBLIC "-//W3C//DTD SVG 1.1//EN"
 "http://www.w3.org/Graphics/SVG/1.1/DTD/svg11.dtd">
<!-- Generated by graphviz version 6.0.1 (20220911.1526)
 -->
<!-- Title: /github/workspace/include/motor/motor.h Pages: 1 -->
<svg width="258pt" height="258pt"
 viewBox="0.00 0.00 257.50 258.00" xmlns="http://www.w3.org/2000/svg" xmlns:xlink="http://www.w3.org/1999/xlink">
<g id="graph0" class="graph" transform="scale(1 1) rotate(0) translate(4 254)">
<title>/github/workspace/include/motor/motor.h</title>
<!-- Node1 -->
<g id="node1" class="node">
<title>Node1</title>
<g id="a_node1"><a xlink:title=" ">
<polygon fill="#999999" stroke="#666666" points="167,-250 37,-250 37,-220 167,-220 167,-250"/>
<text text-anchor="start" x="45" y="-238" font-family="Helvetica,sans-Serif" font-size="10.00">/github/workspace/include</text>
<text text-anchor="middle" x="102" y="-227" font-family="Helvetica,sans-Serif" font-size="10.00">/motor/motor.h</text>
</a>
</g>
</g>
<!-- Node2 -->
<g id="node2" class="node">
<title>Node2</title>
<g id="a_node2"><a xlink:href="encoder_8h.html" target="_top" xlink:title=" ">
<polygon fill="white" stroke="#666666" points="105.5,-129 46.5,-129 46.5,-110 105.5,-110 105.5,-129"/>
<text text-anchor="middle" x="76" y="-117" font-family="Helvetica,sans-Serif" font-size="10.00">encoder.h</text>
</a>
</g>
</g>
<!-- Node1&#45;&gt;Node2 -->
<g id="edge1" class="edge">
<title>Node1&#45;&gt;Node2</title>
<path fill="none" stroke="#63b8ff" d="M98.71,-219.63C94.03,-199.21 85.46,-161.81 80.29,-139.24"/>
<polygon fill="#63b8ff" stroke="#63b8ff" points="83.64,-138.2 78,-129.23 76.82,-139.76 83.64,-138.2"/>
</g>
<!-- Node4 -->
<g id="node4" class="node">
<title>Node4</title>
<g id="a_node4"><a xlink:title=" ">
<polygon fill="#e0e0e0" stroke="#999999" points="48,-19 0,-19 0,0 48,0 48,-19"/>
<text text-anchor="middle" x="24" y="-7" font-family="Helvetica,sans-Serif" font-size="10.00">mbed.h</text>
</a>
</g>
</g>
<!-- Node1&#45;&gt;Node4 -->
<g id="edge10" class="edge">
<title>Node1&#45;&gt;Node4</title>
<path fill="none" stroke="#63b8ff" d="M89.96,-219.81C68.44,-193.31 24.37,-133.55 11,-74 7.57,-58.73 11.71,-41.31 16.2,-28.59"/>
<polygon fill="#63b8ff" stroke="#63b8ff" points="19.5,-29.74 19.89,-19.15 12.99,-27.18 19.5,-29.74"/>
</g>
<!-- Node6 -->
<g id="node6" class="node">
<title>Node6</title>
<g id="a_node6"><a xlink:href="helper_8h.html" target="_top" xlink:title=" ">
<polygon fill="white" stroke="#666666" points="154,-184 104,-184 104,-165 154,-165 154,-184"/>
<text text-anchor="middle" x="129" y="-172" font-family="Helvetica,sans-Serif" font-size="10.00">helper.h</text>
</a>
</g>
</g>
<!-- Node1&#45;&gt;Node6 -->
<g id="edge6" class="edge">
<title>Node1&#45;&gt;Node6</title>
<path fill="none" stroke="#63b8ff" d="M108.54,-219.84C112.18,-211.95 116.74,-202.05 120.64,-193.61"/>
<polygon fill="#63b8ff" stroke="#63b8ff" points="123.94,-194.81 124.95,-184.27 117.59,-191.88 123.94,-194.81"/>
</g>
<!-- Node8 -->
<g id="node8" class="node">
<title>Node8</title>
<g id="a_node8"><a xlink:title=" ">
<polygon fill="#e0e0e0" stroke="#999999" points="211.5,-184 172.5,-184 172.5,-165 211.5,-165 211.5,-184"/>
<text text-anchor="middle" x="192" y="-172" font-family="Helvetica,sans-Serif" font-size="10.00">utility</text>
</a>
</g>
</g>
<!-- Node1&#45;&gt;Node8 -->
<g id="edge11" class="edge">
<title>Node1&#45;&gt;Node8</title>
<path fill="none" stroke="#63b8ff" d="M123.79,-219.84C137.87,-210.68 156.13,-198.82 170.21,-189.66"/>
<polygon fill="#63b8ff" stroke="#63b8ff" points="172.3,-192.48 178.78,-184.09 168.49,-186.61 172.3,-192.48"/>
</g>
<!-- Node3 -->
<g id="node3" class="node">
<title>Node3</title>
<g id="a_node3"><a xlink:href="_q_e_i_8h.html" target="_top" xlink:title=" ">
<polygon fill="white" stroke="#666666" points="69.5,-74 28.5,-74 28.5,-55 69.5,-55 69.5,-74"/>
<text text-anchor="middle" x="49" y="-62" font-family="Helvetica,sans-Serif" font-size="10.00">QEI.h</text>
</a>
</g>
</g>
<!-- Node2&#45;&gt;Node3 -->
<g id="edge2" class="edge">
<title>Node2&#45;&gt;Node3</title>
<path fill="none" stroke="#63b8ff" d="M71.54,-109.75C67.88,-102.57 62.59,-92.18 58.05,-83.27"/>
<polygon fill="#63b8ff" stroke="#63b8ff" points="61.03,-81.41 53.38,-74.09 54.8,-84.59 61.03,-81.41"/>
</g>
<!-- Node2&#45;&gt;Node4 -->
<g id="edge4" class="edge">
<title>Node2&#45;&gt;Node4</title>
<path fill="none" stroke="#63b8ff" d="M57.65,-109.88C44.21,-102.46 26.98,-90.36 19,-74 12.18,-60.02 14.36,-42.24 17.71,-29.05"/>
<polygon fill="#63b8ff" stroke="#63b8ff" points="21.14,-29.82 20.63,-19.24 14.43,-27.82 21.14,-29.82"/>
</g>
<!-- Node5 -->
<g id="node5" class="node">
<title>Node5</title>
<g id="a_node5"><a xlink:title=" ">
<polygon fill="#e0e0e0" stroke="#999999" points="134,-74 88,-74 88,-55 134,-55 134,-74"/>
<text text-anchor="middle" x="111" y="-62" font-family="Helvetica,sans-Serif" font-size="10.00">chrono</text>
</a>
</g>
</g>
<!-- Node2&#45;&gt;Node5 -->
<g id="edge5" class="edge">
<title>Node2&#45;&gt;Node5</title>
<path fill="none" stroke="#63b8ff" d="M81.78,-109.75C86.62,-102.42 93.68,-91.73 99.64,-82.7"/>
<polygon fill="#63b8ff" stroke="#63b8ff" points="102.74,-84.36 105.33,-74.09 96.9,-80.5 102.74,-84.36"/>
</g>
<!-- Node3&#45;&gt;Node4 -->
<g id="edge3" class="edge">
<title>Node3&#45;&gt;Node4</title>
<path fill="none" stroke="#63b8ff" d="M44.87,-54.75C41.49,-47.57 36.58,-37.18 32.38,-28.27"/>
<polygon fill="#63b8ff" stroke="#63b8ff" points="35.48,-26.64 28.05,-19.09 29.15,-29.63 35.48,-26.64"/>
</g>
<!-- Node6&#45;&gt;Node2 -->
<g id="edge7" class="edge">
<title>Node6&#45;&gt;Node2</title>
<path fill="none" stroke="#63b8ff" d="M120.25,-164.75C112.53,-157.03 101.1,-145.6 91.78,-136.28"/>
<polygon fill="#63b8ff" stroke="#63b8ff" points="94.14,-133.69 84.59,-129.09 89.19,-138.64 94.14,-133.69"/>
</g>
<!-- Node6&#45;&gt;Node4 -->
<g id="edge8" class="edge">
<title>Node6&#45;&gt;Node4</title>
<path fill="none" stroke="#63b8ff" d="M133.63,-164.81C144.12,-143.82 166.97,-89.55 143,-55 124.05,-27.68 86.16,-17.1 58.2,-13.03"/>
<polygon fill="#63b8ff" stroke="#63b8ff" points="58.39,-9.52 48.03,-11.76 57.52,-16.47 58.39,-9.52"/>
</g>
<!-- Node7 -->
<g id="node7" class="node">
<title>Node7</title>
<g id="a_node7"><a xlink:title=" ">
<polygon fill="#e0e0e0" stroke="#999999" points="249.5,-129 190.5,-129 190.5,-110 249.5,-110 249.5,-129"/>
<text text-anchor="middle" x="220" y="-117" font-family="Helvetica,sans-Serif" font-size="10.00">functional</text>
</a>
</g>
</g>
<!-- Node6&#45;&gt;Node7 -->
<g id="edge9" class="edge">
<title>Node6&#45;&gt;Node7</title>
<path fill="none" stroke="#63b8ff" d="M143.62,-164.98C157.86,-156.69 179.75,-143.94 196.45,-134.22"/>
<polygon fill="#63b8ff" stroke="#63b8ff" points="198.23,-137.23 205.11,-129.17 194.71,-131.18 198.23,-137.23"/>
</g>
</g>
</svg>
