<?xml version="1.0" encoding="UTF-8" standalone="no"?>
<!DOCTYPE svg PUBLIC "-//W3C//DTD SVG 1.1//EN"
 "http://www.w3.org/Graphics/SVG/1.1/DTD/svg11.dtd">
<!-- Generated by graphviz version 2.50.0 (20220203.2022)
 -->
<!-- Title: /github/workspace/include/motor/motor.h Pages: 1 -->
<svg width="222pt" height="263pt"
 viewBox="0.00 0.00 222.01 263.00" xmlns="http://www.w3.org/2000/svg" xmlns:xlink="http://www.w3.org/1999/xlink">
<g id="graph0" class="graph" transform="scale(1 1) rotate(0) translate(4 259)">
<title>/github/workspace/include/motor/motor.h</title>
<!-- Node1 -->
<g id="node1" class="node">
<title>Node1</title>
<g id="a_node1"><a xlink:title=" ">
<polygon fill="#bfbfbf" stroke="black" points="39.51,-224.5 39.51,-254.5 169.51,-254.5 169.51,-224.5 39.51,-224.5"/>
<text text-anchor="start" x="47.51" y="-242.5" font-family="Helvetica,sans-Serif" font-size="10.00">/github/workspace/include</text>
<text text-anchor="middle" x="104.51" y="-231.5" font-family="Helvetica,sans-Serif" font-size="10.00">/motor/motor.h</text>
</a>
</g>
</g>
<!-- Node2 -->
<g id="node2" class="node">
<title>Node2</title>
<g id="a_node2"><a xlink:href="encoder_8h.html" target="_top" xlink:title=" ">
<polygon fill="none" stroke="black" points="76.01,-112.5 76.01,-131.5 135.01,-131.5 135.01,-112.5 76.01,-112.5"/>
<text text-anchor="middle" x="105.51" y="-119.5" font-family="Helvetica,sans-Serif" font-size="10.00">encoder.h</text>
</a>
</g>
</g>
<!-- Node1&#45;&gt;Node2 -->
<g id="edge1" class="edge">
<title>Node1&#45;&gt;Node2</title>
<path fill="none" stroke="midnightblue" d="M101.57,-224.46C98.95,-210.24 95.78,-187.6 97.51,-168 98.29,-159.2 99.91,-149.54 101.48,-141.43"/>
<polygon fill="midnightblue" stroke="midnightblue" points="104.92,-142.07 103.53,-131.57 98.07,-140.65 104.92,-142.07"/>
</g>
<!-- Node4 -->
<g id="node4" class="node">
<title>Node4</title>
<g id="a_node4"><a xlink:title=" ">
<polygon fill="none" stroke="#bfbfbf" points="105.51,-0.5 105.51,-19.5 153.51,-19.5 153.51,-0.5 105.51,-0.5"/>
<text text-anchor="middle" x="129.51" y="-7.5" font-family="Helvetica,sans-Serif" font-size="10.00">mbed.h</text>
</a>
</g>
</g>
<!-- Node1&#45;&gt;Node4 -->
<g id="edge9" class="edge">
<title>Node1&#45;&gt;Node4</title>
<path fill="none" stroke="midnightblue" d="M87.04,-224.29C50.23,-192.62 -28.73,-114.42 11.51,-56 30.15,-28.94 67.4,-18.14 95.09,-13.84"/>
<polygon fill="midnightblue" stroke="midnightblue" points="95.73,-17.28 105.18,-12.49 94.8,-10.35 95.73,-17.28"/>
</g>
<!-- Node6 -->
<g id="node6" class="node">
<title>Node6</title>
<g id="a_node6"><a xlink:href="helper_8h.html" target="_top" xlink:title=" ">
<polygon fill="none" stroke="black" points="106.51,-168.5 106.51,-187.5 156.51,-187.5 156.51,-168.5 106.51,-168.5"/>
<text text-anchor="middle" x="131.51" y="-175.5" font-family="Helvetica,sans-Serif" font-size="10.00">helper.h</text>
</a>
</g>
</g>
<!-- Node1&#45;&gt;Node6 -->
<g id="edge6" class="edge">
<title>Node1&#45;&gt;Node6</title>
<path fill="none" stroke="midnightblue" d="M110.91,-224.4C114.63,-216.2 119.36,-205.78 123.35,-196.99"/>
<polygon fill="midnightblue" stroke="midnightblue" points="126.64,-198.21 127.59,-187.66 120.27,-195.32 126.64,-198.21"/>
</g>
<!-- Node7 -->
<g id="node7" class="node">
<title>Node7</title>
<g id="a_node7"><a xlink:title=" ">
<polygon fill="none" stroke="#bfbfbf" points="175.01,-168.5 175.01,-187.5 214.01,-187.5 214.01,-168.5 175.01,-168.5"/>
<text text-anchor="middle" x="194.51" y="-175.5" font-family="Helvetica,sans-Serif" font-size="10.00">utility</text>
</a>
</g>
</g>
<!-- Node1&#45;&gt;Node7 -->
<g id="edge10" class="edge">
<title>Node1&#45;&gt;Node7</title>
<path fill="none" stroke="midnightblue" d="M125.84,-224.4C140,-215.04 158.53,-202.79 172.77,-193.38"/>
<polygon fill="midnightblue" stroke="midnightblue" points="175.01,-196.09 181.42,-187.66 171.15,-190.25 175.01,-196.09"/>
</g>
<!-- Node3 -->
<g id="node3" class="node">
<title>Node3</title>
<g id="a_node3"><a xlink:href="_q_e_i_8h.html" target="_top" xlink:title=" ">
<polygon fill="none" stroke="black" points="85.01,-56.5 85.01,-75.5 126.01,-75.5 126.01,-56.5 85.01,-56.5"/>
<text text-anchor="middle" x="105.51" y="-63.5" font-family="Helvetica,sans-Serif" font-size="10.00">QEI.h</text>
</a>
</g>
</g>
<!-- Node2&#45;&gt;Node3 -->
<g id="edge2" class="edge">
<title>Node2&#45;&gt;Node3</title>
<path fill="none" stroke="midnightblue" d="M105.51,-112.08C105.51,-105.01 105.51,-94.86 105.51,-85.99"/>
<polygon fill="midnightblue" stroke="midnightblue" points="109.01,-85.75 105.51,-75.75 102.01,-85.75 109.01,-85.75"/>
</g>
<!-- Node2&#45;&gt;Node4 -->
<g id="edge4" class="edge">
<title>Node2&#45;&gt;Node4</title>
<path fill="none" stroke="midnightblue" d="M113.73,-112.18C121.06,-103.66 131.27,-90.02 135.51,-76 140.13,-60.75 137.87,-42.64 134.89,-29.41"/>
<polygon fill="midnightblue" stroke="midnightblue" points="138.25,-28.43 132.35,-19.62 131.47,-30.18 138.25,-28.43"/>
</g>
<!-- Node5 -->
<g id="node5" class="node">
<title>Node5</title>
<g id="a_node5"><a xlink:title=" ">
<polygon fill="none" stroke="#bfbfbf" points="20.51,-56.5 20.51,-75.5 66.51,-75.5 66.51,-56.5 20.51,-56.5"/>
<text text-anchor="middle" x="43.51" y="-63.5" font-family="Helvetica,sans-Serif" font-size="10.00">chrono</text>
</a>
</g>
</g>
<!-- Node2&#45;&gt;Node5 -->
<g id="edge5" class="edge">
<title>Node2&#45;&gt;Node5</title>
<path fill="none" stroke="midnightblue" d="M95.55,-112.32C86.39,-104.34 72.58,-92.31 61.49,-82.65"/>
<polygon fill="midnightblue" stroke="midnightblue" points="63.5,-79.76 53.66,-75.83 58.9,-85.04 63.5,-79.76"/>
</g>
<!-- Node3&#45;&gt;Node4 -->
<g id="edge3" class="edge">
<title>Node3&#45;&gt;Node4</title>
<path fill="none" stroke="midnightblue" d="M109.48,-56.08C112.73,-48.77 117.43,-38.18 121.47,-29.1"/>
<polygon fill="midnightblue" stroke="midnightblue" points="124.76,-30.31 125.62,-19.75 118.36,-27.47 124.76,-30.31"/>
</g>
<!-- Node6&#45;&gt;Node2 -->
<g id="edge7" class="edge">
<title>Node6&#45;&gt;Node2</title>
<path fill="none" stroke="midnightblue" d="M127.22,-168.08C123.66,-160.69 118.49,-149.95 114.09,-140.81"/>
<polygon fill="midnightblue" stroke="midnightblue" points="117.22,-139.24 109.73,-131.75 110.91,-142.28 117.22,-139.24"/>
</g>
<!-- Node6&#45;&gt;Node4 -->
<g id="edge8" class="edge">
<title>Node6&#45;&gt;Node4</title>
<path fill="none" stroke="midnightblue" d="M135.05,-168.42C142.78,-148.52 159.77,-97.73 150.51,-56 148.39,-46.43 144.01,-36.48 139.79,-28.37"/>
<polygon fill="midnightblue" stroke="midnightblue" points="142.81,-26.6 134.9,-19.56 136.69,-30 142.81,-26.6"/>
</g>
</g>
</svg>
