<?xml version="1.0" encoding="UTF-8" standalone="no"?>
<!DOCTYPE svg PUBLIC "-//W3C//DTD SVG 1.1//EN"
 "http://www.w3.org/Graphics/SVG/1.1/DTD/svg11.dtd">
<!-- Generated by graphviz version 2.50.0 (20220203.2022)
 -->
<!-- Title: lib/motor/motor.h Pages: 1 -->
<svg width="166pt" height="196pt"
 viewBox="0.00 0.00 166.00 196.00" xmlns="http://www.w3.org/2000/svg" xmlns:xlink="http://www.w3.org/1999/xlink">
<g id="graph0" class="graph" transform="scale(1 1) rotate(0) translate(4 192)">
<title>lib/motor/motor.h</title>
<!-- Node1 -->
<g id="node1" class="node">
<title>Node1</title>
<g id="a_node1"><a xlink:title=" ">
<polygon fill="#bfbfbf" stroke="black" points="13.5,-168.5 13.5,-187.5 102.5,-187.5 102.5,-168.5 13.5,-168.5"/>
<text text-anchor="middle" x="58" y="-175.5" font-family="Helvetica,sans-Serif" font-size="10.00">lib/motor/motor.h</text>
</a>
</g>
</g>
<!-- Node2 -->
<g id="node2" class="node">
<title>Node2</title>
<g id="a_node2"><a xlink:title=" ">
<polygon fill="none" stroke="#bfbfbf" points="0,-0.5 0,-19.5 48,-19.5 48,-0.5 0,-0.5"/>
<text text-anchor="middle" x="24" y="-7.5" font-family="Helvetica,sans-Serif" font-size="10.00">mbed.h</text>
</a>
</g>
</g>
<!-- Node1&#45;&gt;Node2 -->
<g id="edge1" class="edge">
<title>Node1&#45;&gt;Node2</title>
<path fill="none" stroke="midnightblue" d="M47.01,-168.37C37.55,-160.17 24.56,-146.92 19,-132 6.19,-97.65 13.15,-53.95 18.89,-29.58"/>
<polygon fill="midnightblue" stroke="midnightblue" points="22.37,-30.12 21.45,-19.57 15.58,-28.39 22.37,-30.12"/>
</g>
<!-- Node3 -->
<g id="node3" class="node">
<title>Node3</title>
<g id="a_node3"><a xlink:href="encoder_8h.html" target="_top" xlink:title=" ">
<polygon fill="none" stroke="black" points="28.5,-112.5 28.5,-131.5 87.5,-131.5 87.5,-112.5 28.5,-112.5"/>
<text text-anchor="middle" x="58" y="-119.5" font-family="Helvetica,sans-Serif" font-size="10.00">encoder.h</text>
</a>
</g>
</g>
<!-- Node1&#45;&gt;Node3 -->
<g id="edge2" class="edge">
<title>Node1&#45;&gt;Node3</title>
<path fill="none" stroke="midnightblue" d="M58,-168.08C58,-161.01 58,-150.86 58,-141.99"/>
<polygon fill="midnightblue" stroke="midnightblue" points="61.5,-141.75 58,-131.75 54.5,-141.75 61.5,-141.75"/>
</g>
<!-- Node6 -->
<g id="node6" class="node">
<title>Node6</title>
<g id="a_node6"><a xlink:title=" ">
<polygon fill="none" stroke="#bfbfbf" points="105.5,-112.5 105.5,-131.5 144.5,-131.5 144.5,-112.5 105.5,-112.5"/>
<text text-anchor="middle" x="125" y="-119.5" font-family="Helvetica,sans-Serif" font-size="10.00">utility</text>
</a>
</g>
</g>
<!-- Node1&#45;&gt;Node6 -->
<g id="edge7" class="edge">
<title>Node1&#45;&gt;Node6</title>
<path fill="none" stroke="midnightblue" d="M68.76,-168.32C78.77,-160.26 93.89,-148.08 105.93,-138.37"/>
<polygon fill="midnightblue" stroke="midnightblue" points="108.45,-140.83 114.04,-131.83 104.06,-135.38 108.45,-140.83"/>
</g>
<!-- Node3&#45;&gt;Node2 -->
<g id="edge3" class="edge">
<title>Node3&#45;&gt;Node2</title>
<path fill="none" stroke="midnightblue" d="M55.03,-112.4C51.93,-103.37 46.98,-88.73 43,-76 38.12,-60.4 32.94,-42.56 29.22,-29.53"/>
<polygon fill="midnightblue" stroke="midnightblue" points="32.57,-28.53 26.48,-19.86 25.84,-30.44 32.57,-28.53"/>
</g>
<!-- Node4 -->
<g id="node4" class="node">
<title>Node4</title>
<g id="a_node4"><a xlink:href="_q_e_i_8h.html" target="_top" xlink:title=" ">
<polygon fill="none" stroke="black" points="52.5,-56.5 52.5,-75.5 93.5,-75.5 93.5,-56.5 52.5,-56.5"/>
<text text-anchor="middle" x="73" y="-63.5" font-family="Helvetica,sans-Serif" font-size="10.00">QEI.h</text>
</a>
</g>
</g>
<!-- Node3&#45;&gt;Node4 -->
<g id="edge4" class="edge">
<title>Node3&#45;&gt;Node4</title>
<path fill="none" stroke="midnightblue" d="M60.48,-112.08C62.49,-104.85 65.39,-94.41 67.89,-85.4"/>
<polygon fill="midnightblue" stroke="midnightblue" points="71.26,-86.32 70.57,-75.75 64.52,-84.45 71.26,-86.32"/>
</g>
<!-- Node5 -->
<g id="node5" class="node">
<title>Node5</title>
<g id="a_node5"><a xlink:title=" ">
<polygon fill="none" stroke="#bfbfbf" points="112,-56.5 112,-75.5 158,-75.5 158,-56.5 112,-56.5"/>
<text text-anchor="middle" x="135" y="-63.5" font-family="Helvetica,sans-Serif" font-size="10.00">chrono</text>
</a>
</g>
</g>
<!-- Node3&#45;&gt;Node5 -->
<g id="edge6" class="edge">
<title>Node3&#45;&gt;Node5</title>
<path fill="none" stroke="midnightblue" d="M70.37,-112.32C82.16,-104.06 100.13,-91.45 114.14,-81.63"/>
<polygon fill="midnightblue" stroke="midnightblue" points="116.48,-84.26 122.66,-75.65 112.46,-78.53 116.48,-84.26"/>
</g>
<!-- Node4&#45;&gt;Node2 -->
<g id="edge5" class="edge">
<title>Node4&#45;&gt;Node2</title>
<path fill="none" stroke="midnightblue" d="M64.91,-56.08C57.84,-48.3 47.41,-36.8 38.85,-27.37"/>
<polygon fill="midnightblue" stroke="midnightblue" points="41.25,-24.8 31.94,-19.75 36.07,-29.51 41.25,-24.8"/>
</g>
</g>
</svg>
