<?xml version="1.0" encoding="UTF-8" standalone="no"?>
<!DOCTYPE svg PUBLIC "-//W3C//DTD SVG 1.1//EN"
 "http://www.w3.org/Graphics/SVG/1.1/DTD/svg11.dtd">
<!-- Generated by graphviz version 3.0.0 (20220413.0106)
 -->
<!-- Title: /github/workspace/include/motor/motor.h Pages: 1 -->
<svg width="288pt" height="263pt"
 viewBox="0.00 0.00 288.04 263.00" xmlns="http://www.w3.org/2000/svg" xmlns:xlink="http://www.w3.org/1999/xlink">
<g id="graph0" class="graph" transform="scale(1 1) rotate(0) translate(4 259)">
<title>/github/workspace/include/motor/motor.h</title>
<!-- Node1 -->
<g id="node1" class="node">
<title>Node1</title>
<g id="a_node1"><a xlink:title=" ">
<polygon fill="#bfbfbf" stroke="black" points="38.54,-224.5 38.54,-254.5 168.54,-254.5 168.54,-224.5 38.54,-224.5"/>
<text text-anchor="start" x="46.54" y="-242.5" font-family="Helvetica,sans-Serif" font-size="10.00">/github/workspace/include</text>
<text text-anchor="middle" x="103.54" y="-231.5" font-family="Helvetica,sans-Serif" font-size="10.00">/motor/motor.h</text>
</a>
</g>
</g>
<!-- Node2 -->
<g id="node2" class="node">
<title>Node2</title>
<g id="a_node2"><a xlink:href="encoder_8h.html" target="_top" xlink:title=" ">
<polygon fill="none" stroke="black" points="44.04,-112.5 44.04,-131.5 103.04,-131.5 103.04,-112.5 44.04,-112.5"/>
<text text-anchor="middle" x="73.54" y="-119.5" font-family="Helvetica,sans-Serif" font-size="10.00">encoder.h</text>
</a>
</g>
</g>
<!-- Node1&#45;&gt;Node2 -->
<g id="edge1" class="edge">
<title>Node1&#45;&gt;Node2</title>
<path fill="none" stroke="midnightblue" d="M99.86,-224.34C94.46,-203.53 84.36,-164.66 78.37,-141.58"/>
<polygon fill="midnightblue" stroke="midnightblue" points="81.7,-140.47 75.79,-131.67 74.92,-142.23 81.7,-140.47"/>
</g>
<!-- Node4 -->
<g id="node4" class="node">
<title>Node4</title>
<g id="a_node4"><a xlink:title=" ">
<polygon fill="none" stroke="#bfbfbf" points="105.54,-0.5 105.54,-19.5 153.54,-19.5 153.54,-0.5 105.54,-0.5"/>
<text text-anchor="middle" x="129.54" y="-7.5" font-family="Helvetica,sans-Serif" font-size="10.00">mbed.h</text>
</a>
</g>
</g>
<!-- Node1&#45;&gt;Node4 -->
<g id="edge11" class="edge">
<title>Node1&#45;&gt;Node4</title>
<path fill="none" stroke="midnightblue" d="M86.21,-224.27C49.69,-192.56 -28.62,-114.29 11.54,-56 30.18,-28.94 67.43,-18.14 95.12,-13.84"/>
<polygon fill="midnightblue" stroke="midnightblue" points="95.76,-17.28 105.2,-12.49 94.83,-10.35 95.76,-17.28"/>
</g>
<!-- Node6 -->
<g id="node6" class="node">
<title>Node6</title>
<g id="a_node6"><a xlink:href="helper_8h.html" target="_top" xlink:title=" ">
<polygon fill="none" stroke="black" points="113.54,-168.5 113.54,-187.5 163.54,-187.5 163.54,-168.5 113.54,-168.5"/>
<text text-anchor="middle" x="138.54" y="-175.5" font-family="Helvetica,sans-Serif" font-size="10.00">helper.h</text>
</a>
</g>
</g>
<!-- Node1&#45;&gt;Node6 -->
<g id="edge6" class="edge">
<title>Node1&#45;&gt;Node6</title>
<path fill="none" stroke="midnightblue" d="M111.84,-224.4C116.77,-216.02 123.06,-205.33 128.29,-196.42"/>
<polygon fill="midnightblue" stroke="midnightblue" points="131.4,-198.05 133.45,-187.66 125.36,-194.5 131.4,-198.05"/>
</g>
<!-- Node9 -->
<g id="node9" class="node">
<title>Node9</title>
<g id="a_node9"><a xlink:title=" ">
<polygon fill="none" stroke="#bfbfbf" points="182.04,-168.5 182.04,-187.5 221.04,-187.5 221.04,-168.5 182.04,-168.5"/>
<text text-anchor="middle" x="201.54" y="-175.5" font-family="Helvetica,sans-Serif" font-size="10.00">utility</text>
</a>
</g>
</g>
<!-- Node1&#45;&gt;Node9 -->
<g id="edge12" class="edge">
<title>Node1&#45;&gt;Node9</title>
<path fill="none" stroke="midnightblue" d="M126.77,-224.4C142.33,-214.95 162.74,-202.56 178.3,-193.11"/>
<polygon fill="midnightblue" stroke="midnightblue" points="180.55,-195.84 187.28,-187.66 176.92,-189.86 180.55,-195.84"/>
</g>
<!-- Node3 -->
<g id="node3" class="node">
<title>Node3</title>
<g id="a_node3"><a xlink:href="_q_e_i_8h.html" target="_top" xlink:title=" ">
<polygon fill="none" stroke="black" points="85.04,-56.5 85.04,-75.5 126.04,-75.5 126.04,-56.5 85.04,-56.5"/>
<text text-anchor="middle" x="105.54" y="-63.5" font-family="Helvetica,sans-Serif" font-size="10.00">QEI.h</text>
</a>
</g>
</g>
<!-- Node2&#45;&gt;Node3 -->
<g id="edge2" class="edge">
<title>Node2&#45;&gt;Node3</title>
<path fill="none" stroke="midnightblue" d="M78.83,-112.08C83.25,-104.61 89.71,-93.72 95.16,-84.52"/>
<polygon fill="midnightblue" stroke="midnightblue" points="98.27,-86.14 100.36,-75.75 92.25,-82.57 98.27,-86.14"/>
</g>
<!-- Node2&#45;&gt;Node4 -->
<g id="edge4" class="edge">
<title>Node2&#45;&gt;Node4</title>
<path fill="none" stroke="midnightblue" d="M93.45,-112.41C107.77,-105.04 126,-92.92 134.54,-76 141.87,-61.49 139.4,-42.81 135.82,-29.19"/>
<polygon fill="midnightblue" stroke="midnightblue" points="139.15,-28.09 132.88,-19.54 132.45,-30.13 139.15,-28.09"/>
</g>
<!-- Node5 -->
<g id="node5" class="node">
<title>Node5</title>
<g id="a_node5"><a xlink:title=" ">
<polygon fill="none" stroke="#bfbfbf" points="20.54,-56.5 20.54,-75.5 66.54,-75.5 66.54,-56.5 20.54,-56.5"/>
<text text-anchor="middle" x="43.54" y="-63.5" font-family="Helvetica,sans-Serif" font-size="10.00">chrono</text>
</a>
</g>
</g>
<!-- Node2&#45;&gt;Node5 -->
<g id="edge5" class="edge">
<title>Node2&#45;&gt;Node5</title>
<path fill="none" stroke="midnightblue" d="M68.59,-112.08C64.44,-104.61 58.39,-93.72 53.28,-84.52"/>
<polygon fill="midnightblue" stroke="midnightblue" points="56.32,-82.79 48.4,-75.75 50.2,-86.19 56.32,-82.79"/>
</g>
<!-- Node3&#45;&gt;Node4 -->
<g id="edge3" class="edge">
<title>Node3&#45;&gt;Node4</title>
<path fill="none" stroke="midnightblue" d="M109.51,-56.08C112.76,-48.77 117.46,-38.18 121.5,-29.1"/>
<polygon fill="midnightblue" stroke="midnightblue" points="124.79,-30.31 125.65,-19.75 118.39,-27.47 124.79,-30.31"/>
</g>
<!-- Node6&#45;&gt;Node2 -->
<g id="edge7" class="edge">
<title>Node6&#45;&gt;Node2</title>
<path fill="none" stroke="midnightblue" d="M128.1,-168.32C118.4,-160.26 103.73,-148.08 92.04,-138.37"/>
<polygon fill="midnightblue" stroke="midnightblue" points="94.1,-135.53 84.18,-131.83 89.63,-140.92 94.1,-135.53"/>
</g>
<!-- Node6&#45;&gt;Node4 -->
<g id="edge8" class="edge">
<title>Node6&#45;&gt;Node4</title>
<path fill="none" stroke="midnightblue" d="M148.1,-168.45C156.63,-160.12 168.53,-146.6 173.54,-132 176.43,-123.59 175.2,-120.73 173.54,-112 167.67,-80.97 151.07,-47.96 140.02,-28.42"/>
<polygon fill="midnightblue" stroke="midnightblue" points="143.03,-26.63 134.98,-19.75 136.98,-30.15 143.03,-26.63"/>
</g>
<!-- Node7 -->
<g id="node7" class="node">
<title>Node7</title>
<g id="a_node7"><a xlink:title=" ">
<polygon fill="none" stroke="#bfbfbf" points="221.04,-112.5 221.04,-131.5 280.04,-131.5 280.04,-112.5 221.04,-112.5"/>
<text text-anchor="middle" x="250.54" y="-119.5" font-family="Helvetica,sans-Serif" font-size="10.00">functional</text>
</a>
</g>
</g>
<!-- Node6&#45;&gt;Node7 -->
<g id="edge9" class="edge">
<title>Node6&#45;&gt;Node7</title>
<path fill="none" stroke="midnightblue" d="M156.54,-168.32C174.58,-159.62 202.59,-146.12 223.35,-136.11"/>
<polygon fill="midnightblue" stroke="midnightblue" points="225.11,-139.15 232.59,-131.65 222.07,-132.84 225.11,-139.15"/>
</g>
<!-- Node8 -->
<g id="node8" class="node">
<title>Node8</title>
<g id="a_node8"><a xlink:title=" ">
<polygon fill="none" stroke="#bfbfbf" points="121.04,-112.5 121.04,-131.5 164.04,-131.5 164.04,-112.5 121.04,-112.5"/>
<text text-anchor="middle" x="142.54" y="-119.5" font-family="Helvetica,sans-Serif" font-size="10.00">cstdio</text>
</a>
</g>
</g>
<!-- Node6&#45;&gt;Node8 -->
<g id="edge10" class="edge">
<title>Node6&#45;&gt;Node8</title>
<path fill="none" stroke="midnightblue" d="M139.2,-168.08C139.73,-161.01 140.48,-150.86 141.14,-141.99"/>
<polygon fill="midnightblue" stroke="midnightblue" points="144.65,-141.98 141.89,-131.75 137.67,-141.47 144.65,-141.98"/>
</g>
</g>
</svg>
