<?xml version="1.0" encoding="UTF-8" standalone="no"?>
<!DOCTYPE svg PUBLIC "-//W3C//DTD SVG 1.1//EN"
 "http://www.w3.org/Graphics/SVG/1.1/DTD/svg11.dtd">
<!-- Generated by graphviz version 2.50.0 (20220203.2022)
 -->
<!-- Title: /github/workspace/include/motor/motor.h Pages: 1 -->
<svg width="173pt" height="207pt"
 viewBox="0.00 0.00 173.00 207.00" xmlns="http://www.w3.org/2000/svg" xmlns:xlink="http://www.w3.org/1999/xlink">
<g id="graph0" class="graph" transform="scale(1 1) rotate(0) translate(4 203)">
<title>/github/workspace/include/motor/motor.h</title>
<!-- Node1 -->
<g id="node1" class="node">
<title>Node1</title>
<g id="a_node1"><a xlink:title=" ">
<polygon fill="#bfbfbf" stroke="black" points="0,-168.5 0,-198.5 130,-198.5 130,-168.5 0,-168.5"/>
<text text-anchor="start" x="8" y="-186.5" font-family="Helvetica,sans-Serif" font-size="10.00">/github/workspace/include</text>
<text text-anchor="middle" x="65" y="-175.5" font-family="Helvetica,sans-Serif" font-size="10.00">/motor/motor.h</text>
</a>
</g>
</g>
<!-- Node2 -->
<g id="node2" class="node">
<title>Node2</title>
<g id="a_node2"><a xlink:title=" ">
<polygon fill="none" stroke="#bfbfbf" points="7,-0.5 7,-19.5 55,-19.5 55,-0.5 7,-0.5"/>
<text text-anchor="middle" x="31" y="-7.5" font-family="Helvetica,sans-Serif" font-size="10.00">mbed.h</text>
</a>
</g>
</g>
<!-- Node1&#45;&gt;Node2 -->
<g id="edge1" class="edge">
<title>Node1&#45;&gt;Node2</title>
<path fill="none" stroke="midnightblue" d="M49.74,-168.17C40.94,-158.83 30.72,-145.84 26,-132 14.16,-97.3 20.77,-53.73 26.19,-29.47"/>
<polygon fill="midnightblue" stroke="midnightblue" points="29.65,-30.06 28.6,-19.51 22.84,-28.41 29.65,-30.06"/>
</g>
<!-- Node3 -->
<g id="node3" class="node">
<title>Node3</title>
<g id="a_node3"><a xlink:href="encoder_8h.html" target="_top" xlink:title=" ">
<polygon fill="none" stroke="black" points="35.5,-112.5 35.5,-131.5 94.5,-131.5 94.5,-112.5 35.5,-112.5"/>
<text text-anchor="middle" x="65" y="-119.5" font-family="Helvetica,sans-Serif" font-size="10.00">encoder.h</text>
</a>
</g>
</g>
<!-- Node1&#45;&gt;Node3 -->
<g id="edge2" class="edge">
<title>Node1&#45;&gt;Node3</title>
<path fill="none" stroke="midnightblue" d="M65,-168.4C65,-160.47 65,-150.46 65,-141.86"/>
<polygon fill="midnightblue" stroke="midnightblue" points="68.5,-141.66 65,-131.66 61.5,-141.66 68.5,-141.66"/>
</g>
<!-- Node6 -->
<g id="node6" class="node">
<title>Node6</title>
<g id="a_node6"><a xlink:title=" ">
<polygon fill="none" stroke="#bfbfbf" points="112.5,-112.5 112.5,-131.5 151.5,-131.5 151.5,-112.5 112.5,-112.5"/>
<text text-anchor="middle" x="132" y="-119.5" font-family="Helvetica,sans-Serif" font-size="10.00">utility</text>
</a>
</g>
</g>
<!-- Node1&#45;&gt;Node6 -->
<g id="edge7" class="edge">
<title>Node1&#45;&gt;Node6</title>
<path fill="none" stroke="midnightblue" d="M80.88,-168.4C91.02,-159.4 104.16,-147.72 114.59,-138.47"/>
<polygon fill="midnightblue" stroke="midnightblue" points="117.1,-140.92 122.25,-131.66 112.45,-135.68 117.1,-140.92"/>
</g>
<!-- Node3&#45;&gt;Node2 -->
<g id="edge3" class="edge">
<title>Node3&#45;&gt;Node2</title>
<path fill="none" stroke="midnightblue" d="M62.03,-112.4C58.93,-103.37 53.98,-88.73 50,-76 45.12,-60.4 39.94,-42.56 36.22,-29.53"/>
<polygon fill="midnightblue" stroke="midnightblue" points="39.57,-28.53 33.48,-19.86 32.84,-30.44 39.57,-28.53"/>
</g>
<!-- Node4 -->
<g id="node4" class="node">
<title>Node4</title>
<g id="a_node4"><a xlink:href="_q_e_i_8h.html" target="_top" xlink:title=" ">
<polygon fill="none" stroke="black" points="59.5,-56.5 59.5,-75.5 100.5,-75.5 100.5,-56.5 59.5,-56.5"/>
<text text-anchor="middle" x="80" y="-63.5" font-family="Helvetica,sans-Serif" font-size="10.00">QEI.h</text>
</a>
</g>
</g>
<!-- Node3&#45;&gt;Node4 -->
<g id="edge4" class="edge">
<title>Node3&#45;&gt;Node4</title>
<path fill="none" stroke="midnightblue" d="M67.48,-112.08C69.49,-104.85 72.39,-94.41 74.89,-85.4"/>
<polygon fill="midnightblue" stroke="midnightblue" points="78.26,-86.32 77.57,-75.75 71.52,-84.45 78.26,-86.32"/>
</g>
<!-- Node5 -->
<g id="node5" class="node">
<title>Node5</title>
<g id="a_node5"><a xlink:title=" ">
<polygon fill="none" stroke="#bfbfbf" points="119,-56.5 119,-75.5 165,-75.5 165,-56.5 119,-56.5"/>
<text text-anchor="middle" x="142" y="-63.5" font-family="Helvetica,sans-Serif" font-size="10.00">chrono</text>
</a>
</g>
</g>
<!-- Node3&#45;&gt;Node5 -->
<g id="edge6" class="edge">
<title>Node3&#45;&gt;Node5</title>
<path fill="none" stroke="midnightblue" d="M77.37,-112.32C89.16,-104.06 107.13,-91.45 121.14,-81.63"/>
<polygon fill="midnightblue" stroke="midnightblue" points="123.48,-84.26 129.66,-75.65 119.46,-78.53 123.48,-84.26"/>
</g>
<!-- Node4&#45;&gt;Node2 -->
<g id="edge5" class="edge">
<title>Node4&#45;&gt;Node2</title>
<path fill="none" stroke="midnightblue" d="M71.91,-56.08C64.84,-48.3 54.41,-36.8 45.85,-27.37"/>
<polygon fill="midnightblue" stroke="midnightblue" points="48.25,-24.8 38.94,-19.75 43.07,-29.51 48.25,-24.8"/>
</g>
</g>
</svg>
