<?xml version="1.0" encoding="UTF-8" standalone="no"?>
<!DOCTYPE svg PUBLIC "-//W3C//DTD SVG 1.1//EN"
 "http://www.w3.org/Graphics/SVG/1.1/DTD/svg11.dtd">
<!-- Generated by graphviz version 2.50.0 (20220203.2022)
 -->
<!-- Title: /github/workspace/include/motor/motor.h Pages: 1 -->
<svg width="258pt" height="263pt"
 viewBox="0.00 0.00 257.50 263.00" xmlns="http://www.w3.org/2000/svg" xmlns:xlink="http://www.w3.org/1999/xlink">
<g id="graph0" class="graph" transform="scale(1 1) rotate(0) translate(4 259)">
<title>/github/workspace/include/motor/motor.h</title>
<!-- Node1 -->
<g id="node1" class="node">
<title>Node1</title>
<g id="a_node1"><a xlink:title=" ">
<polygon fill="#bfbfbf" stroke="black" points="37,-224.5 37,-254.5 167,-254.5 167,-224.5 37,-224.5"/>
<text text-anchor="start" x="45" y="-242.5" font-family="Helvetica,sans-Serif" font-size="10.00">/github/workspace/include</text>
<text text-anchor="middle" x="102" y="-231.5" font-family="Helvetica,sans-Serif" font-size="10.00">/motor/motor.h</text>
</a>
</g>
</g>
<!-- Node2 -->
<g id="node2" class="node">
<title>Node2</title>
<g id="a_node2"><a xlink:href="encoder_8h.html" target="_top" xlink:title=" ">
<polygon fill="none" stroke="black" points="46.5,-112.5 46.5,-131.5 105.5,-131.5 105.5,-112.5 46.5,-112.5"/>
<text text-anchor="middle" x="76" y="-119.5" font-family="Helvetica,sans-Serif" font-size="10.00">encoder.h</text>
</a>
</g>
</g>
<!-- Node1&#45;&gt;Node2 -->
<g id="edge1" class="edge">
<title>Node1&#45;&gt;Node2</title>
<path fill="none" stroke="midnightblue" d="M98.81,-224.34C94.13,-203.53 85.38,-164.66 80.18,-141.58"/>
<polygon fill="midnightblue" stroke="midnightblue" points="83.56,-140.66 77.95,-131.67 76.73,-142.19 83.56,-140.66"/>
</g>
<!-- Node4 -->
<g id="node4" class="node">
<title>Node4</title>
<g id="a_node4"><a xlink:title=" ">
<polygon fill="none" stroke="#bfbfbf" points="0,-0.5 0,-19.5 48,-19.5 48,-0.5 0,-0.5"/>
<text text-anchor="middle" x="24" y="-7.5" font-family="Helvetica,sans-Serif" font-size="10.00">mbed.h</text>
</a>
</g>
</g>
<!-- Node1&#45;&gt;Node4 -->
<g id="edge10" class="edge">
<title>Node1&#45;&gt;Node4</title>
<path fill="none" stroke="midnightblue" d="M90.29,-224.48C68.88,-197.72 24.39,-136.62 11,-76 7.55,-60.37 11.68,-42.54 16.18,-29.52"/>
<polygon fill="midnightblue" stroke="midnightblue" points="19.57,-30.45 19.88,-19.85 13.04,-27.94 19.57,-30.45"/>
</g>
<!-- Node6 -->
<g id="node6" class="node">
<title>Node6</title>
<g id="a_node6"><a xlink:href="helper_8h.html" target="_top" xlink:title=" ">
<polygon fill="none" stroke="black" points="104,-168.5 104,-187.5 154,-187.5 154,-168.5 104,-168.5"/>
<text text-anchor="middle" x="129" y="-175.5" font-family="Helvetica,sans-Serif" font-size="10.00">helper.h</text>
</a>
</g>
</g>
<!-- Node1&#45;&gt;Node6 -->
<g id="edge6" class="edge">
<title>Node1&#45;&gt;Node6</title>
<path fill="none" stroke="midnightblue" d="M108.4,-224.4C112.12,-216.2 116.85,-205.78 120.83,-196.99"/>
<polygon fill="midnightblue" stroke="midnightblue" points="124.13,-198.21 125.07,-187.66 117.75,-195.32 124.13,-198.21"/>
</g>
<!-- Node8 -->
<g id="node8" class="node">
<title>Node8</title>
<g id="a_node8"><a xlink:title=" ">
<polygon fill="none" stroke="#bfbfbf" points="172.5,-168.5 172.5,-187.5 211.5,-187.5 211.5,-168.5 172.5,-168.5"/>
<text text-anchor="middle" x="192" y="-175.5" font-family="Helvetica,sans-Serif" font-size="10.00">utility</text>
</a>
</g>
</g>
<!-- Node1&#45;&gt;Node8 -->
<g id="edge11" class="edge">
<title>Node1&#45;&gt;Node8</title>
<path fill="none" stroke="midnightblue" d="M123.33,-224.4C137.49,-215.04 156.01,-202.79 170.25,-193.38"/>
<polygon fill="midnightblue" stroke="midnightblue" points="172.49,-196.09 178.9,-187.66 168.63,-190.25 172.49,-196.09"/>
</g>
<!-- Node3 -->
<g id="node3" class="node">
<title>Node3</title>
<g id="a_node3"><a xlink:href="_q_e_i_8h.html" target="_top" xlink:title=" ">
<polygon fill="none" stroke="black" points="28.5,-56.5 28.5,-75.5 69.5,-75.5 69.5,-56.5 28.5,-56.5"/>
<text text-anchor="middle" x="49" y="-63.5" font-family="Helvetica,sans-Serif" font-size="10.00">QEI.h</text>
</a>
</g>
</g>
<!-- Node2&#45;&gt;Node3 -->
<g id="edge2" class="edge">
<title>Node2&#45;&gt;Node3</title>
<path fill="none" stroke="midnightblue" d="M71.54,-112.08C67.85,-104.69 62.48,-93.95 57.91,-84.81"/>
<polygon fill="midnightblue" stroke="midnightblue" points="60.98,-83.13 53.38,-75.75 54.72,-86.26 60.98,-83.13"/>
</g>
<!-- Node2&#45;&gt;Node4 -->
<g id="edge4" class="edge">
<title>Node2&#45;&gt;Node4</title>
<path fill="none" stroke="midnightblue" d="M57.92,-112.39C44.44,-104.87 27.03,-92.57 19,-76 11.91,-61.37 14.35,-42.7 17.86,-29.13"/>
<polygon fill="midnightblue" stroke="midnightblue" points="21.22,-30.09 20.74,-19.51 14.52,-28.08 21.22,-30.09"/>
</g>
<!-- Node5 -->
<g id="node5" class="node">
<title>Node5</title>
<g id="a_node5"><a xlink:title=" ">
<polygon fill="none" stroke="#bfbfbf" points="88,-56.5 88,-75.5 134,-75.5 134,-56.5 88,-56.5"/>
<text text-anchor="middle" x="111" y="-63.5" font-family="Helvetica,sans-Serif" font-size="10.00">chrono</text>
</a>
</g>
</g>
<!-- Node2&#45;&gt;Node5 -->
<g id="edge5" class="edge">
<title>Node2&#45;&gt;Node5</title>
<path fill="none" stroke="midnightblue" d="M81.78,-112.08C86.67,-104.53 93.83,-93.49 99.83,-84.23"/>
<polygon fill="midnightblue" stroke="midnightblue" points="102.83,-86.05 105.33,-75.75 96.95,-82.24 102.83,-86.05"/>
</g>
<!-- Node3&#45;&gt;Node4 -->
<g id="edge3" class="edge">
<title>Node3&#45;&gt;Node4</title>
<path fill="none" stroke="midnightblue" d="M44.87,-56.08C41.49,-48.77 36.58,-38.18 32.38,-29.1"/>
<polygon fill="midnightblue" stroke="midnightblue" points="35.43,-27.36 28.05,-19.75 29.08,-30.3 35.43,-27.36"/>
</g>
<!-- Node6&#45;&gt;Node2 -->
<g id="edge7" class="edge">
<title>Node6&#45;&gt;Node2</title>
<path fill="none" stroke="midnightblue" d="M120.25,-168.08C112.53,-160.22 101.1,-148.57 91.78,-139.08"/>
<polygon fill="midnightblue" stroke="midnightblue" points="94.09,-136.44 84.59,-131.75 89.1,-141.34 94.09,-136.44"/>
</g>
<!-- Node6&#45;&gt;Node4 -->
<g id="edge8" class="edge">
<title>Node6&#45;&gt;Node4</title>
<path fill="none" stroke="midnightblue" d="M133.53,-168.44C144.07,-147.25 167.52,-91.49 143,-56 124.07,-28.61 86.18,-17.87 58.21,-13.67"/>
<polygon fill="midnightblue" stroke="midnightblue" points="58.4,-10.17 48.04,-12.36 57.51,-17.11 58.4,-10.17"/>
</g>
<!-- Node7 -->
<g id="node7" class="node">
<title>Node7</title>
<g id="a_node7"><a xlink:title=" ">
<polygon fill="none" stroke="#bfbfbf" points="190.5,-112.5 190.5,-131.5 249.5,-131.5 249.5,-112.5 190.5,-112.5"/>
<text text-anchor="middle" x="220" y="-119.5" font-family="Helvetica,sans-Serif" font-size="10.00">functional</text>
</a>
</g>
</g>
<!-- Node6&#45;&gt;Node7 -->
<g id="edge9" class="edge">
<title>Node6&#45;&gt;Node7</title>
<path fill="none" stroke="midnightblue" d="M143.62,-168.32C157.95,-159.82 180.01,-146.73 196.75,-136.8"/>
<polygon fill="midnightblue" stroke="midnightblue" points="198.6,-139.77 205.42,-131.65 195.03,-133.75 198.6,-139.77"/>
</g>
</g>
</svg>
