<svg width="3798" height="2072" xmlns="http://www.w3.org/2000/svg" xmlns:xlink="http://www.w3.org/1999/xlink" overflow="hidden"><defs><clipPath id="clip0"><rect x="2316" y="1178" width="3798" height="2072"/></clipPath><clipPath id="clip1"><rect x="2316" y="1179" width="3795" height="2069"/></clipPath><clipPath id="clip2"><rect x="2316" y="1179" width="3795" height="2069"/></clipPath><clipPath id="clip3"><rect x="2316" y="1179" width="3795" height="2069"/></clipPath><clipPath id="clip4"><rect x="2316" y="1179" width="3795" height="2069"/></clipPath><clipPath id="clip5"><rect x="2436" y="1349" width="3607" height="1691"/></clipPath><clipPath id="clip6"><rect x="2436" y="1349" width="3607" height="1691"/></clipPath><clipPath id="clip7"><rect x="2316" y="1179" width="3795" height="2069"/></clipPath><clipPath id="clip8"><rect x="2316" y="1179" width="3795" height="2069"/></clipPath><clipPath id="clip9"><rect x="2316" y="1179" width="3795" height="2069"/></clipPath><clipPath id="clip10"><rect x="2316" y="1179" width="3795" height="2069"/></clipPath><clipPath id="clip11"><rect x="2316" y="1179" width="3795" height="2069"/></clipPath><clipPath id="clip12"><rect x="2316" y="1179" width="3795" height="2069"/></clipPath><clipPath id="clip13"><rect x="2316" y="1179" width="3795" height="2069"/></clipPath><clipPath id="clip14"><rect x="2316" y="1179" width="3795" height="2069"/></clipPath><clipPath id="clip15"><rect x="2316" y="1179" width="3795" height="2069"/></clipPath><clipPath id="clip16"><rect x="2316" y="1179" width="3795" height="2069"/></clipPath><clipPath id="clip17"><rect x="2316" y="1179" width="3795" height="2069"/></clipPath><clipPath id="clip18"><rect x="2316" y="1179" width="3795" height="2069"/></clipPath><clipPath id="clip19"><rect x="2316" y="1179" width="3795" height="2069"/></clipPath><clipPath id="clip20"><rect x="2316" y="1179" width="3795" height="2069"/></clipPath><clipPath id="clip21"><rect x="2316" y="1179" width="3795" height="2069"/></clipPath><clipPath id="clip22"><rect x="2316" y="1179" width="3795" height="2069"/></clipPath><clipPath id="clip23"><rect x="2316" y="1179" width="3795" height="2069"/></clipPath><clipPath id="clip24"><rect x="2316" y="1179" width="3795" height="2069"/></clipPath><clipPath id="clip25"><rect x="2316" y="1179" width="3795" height="2069"/></clipPath><clipPath id="clip26"><rect x="2316" y="1179" width="3795" height="2069"/></clipPath></defs><g clip-path="url(#clip0)" transform="translate(-2316 -1178)"><rect x="2317" y="1179" width="3795" height="2069" fill="#FFFFFF"/><g clip-path="url(#clip1)"><path d="M2436.5 2755.59 6040.5 2755.59M2436.5 2474.58 6040.5 2474.58M2436.5 2193.57 6040.5 2193.57M2436.5 1911.56 6040.5 1911.56M2436.5 1630.55 6040.5 1630.55M2436.5 1349.5 6040.5 1349.5" stroke="#D9D9D9" stroke-width="3.4375" stroke-linejoin="round" stroke-miterlimit="10" fill="none"/></g><g clip-path="url(#clip2)"><path d="M2436.5 1349.5 2436.5 3037.5M3037.6 1349.5 3037.6 3037.5M3638.62 1349.5 3638.62 3037.5M4839.66 1349.5 4839.66 3037.5M5439.68 1349.5 5439.68 3037.5M6040.5 1349.5 6040.5 3037.5" stroke="#D9D9D9" stroke-width="3.4375" stroke-linejoin="round" stroke-miterlimit="10" fill="none"/></g><g clip-path="url(#clip3)"><path d="M0 0 0.000360892 1688" stroke="#BFBFBF" stroke-width="3.4375" stroke-linejoin="round" stroke-miterlimit="10" fill="none" fill-rule="evenodd" transform="matrix(1 0 0 -1 4238.5 3037.5)"/></g><g clip-path="url(#clip4)"><path d="M2436.5 3037.5 6040.5 3037.5" stroke="#BFBFBF" stroke-width="3.4375" stroke-linejoin="round" stroke-miterlimit="10" fill="none" fill-rule="evenodd"/></g><g clip-path="url(#clip5)"><path d="M2617.38 2935.5C2617.38 2933.62 2617.38 2931.75 2617.38 2929.87 2617.38 2928 2617.38 2926.12 2617.38 2924.25 2617.38 2922.37 2617.38 2920.5 2617.38 2918.62 2617.38 2916.74 2617.38 2914.87 2617.38 2912.99 2617.38 2911.12 2617.38 2909.24 2617.38 2907.37 2617.38 2905.49 2617.38 2903.61 2617.38 2901.74 2617.38 2899.86 2617.38 2897.99 2617.38 2896.11 2617.38 2894.24 2617.38 2892.36 2617.38 2890.49 2617.38 2888.61 2617.38 2886.73 2617.38 2884.86 2617.38 2882.98 2617.38 2881.11 2617.38 2879.23 2617.38 2877.36 2617.38 2875.48 2617.38 2873.6 2617.38 2873.4 2614.57 2868.19 2617.38 2867.98 2642.5 2866.1 2768.07 2864.23 2768.07 2862.35 2768.07 2860.48 2614.5 2858.6 2617.38 2856.72 2620.26 2854.85 2732.44 2852.97 2785.35 2851.1 2838.27 2849.22 2900.2 2847.35 2934.89 2845.47 2964.29 2843.88 2974.2 2841.43 2993.51 2839.84 3016.29 2837.97 3047.86 2836.09 3071.59 2834.22 3095.32 2832.34 3118.84 2830.47 3135.88 2828.59 3152.93 2826.71 3156.27 2824.84 3173.87 2822.96 3191.46 2821.09 3212.9 2819.21 3241.45 2817.34 3269.99 2815.46 3313.25 2813.58 3345.16 2811.71 3377.08 2809.83 3409.32 2807.96 3432.93 2806.08 3456.54 2804.21 3472.05 2802.33 3486.83 2800.46 3501.62 2798.58 3508.93 2796.7 3521.64 2794.83 3534.34 2792.95 3550.53 2791.08 3563.08 2789.2 3575.63 2787.33 3587.31 2785.45 3596.92 2783.57 3606.53 2781.7 3616.02 2779.82 3620.74 2777.95 3624.09 2776.62 3623.92 2773.65 3625.24 2772.32 3627.11 2770.45 3629.53 2768.57 3631.95 2766.69 3634.37 2764.82 3637.93 2762.94 3639.77 2761.07 3641.49 2759.32 3645.78 2757.19 3643.04 2755.44 3640.09 2753.56 3612.53 2751.69 3622.08 2749.81 3631.64 2747.94 3668.59 2746.06 3700.37 2744.19 3732.15 2742.31 3790.76 2740.44 3812.76 2738.56 3822.93 2737.69 3825.46 2733.8 3832.39 2732.93 3847.37 2731.06 3888.03 2729.18 3902.63 2727.31 3911.68 2726.14 3913.23 2722.84 3919.99 2721.68 3930.9 2719.8 3948.97 2717.93 3968.07 2716.05 3987.17 2714.18 4010.35 2712.3 4034.57 2710.43 4058.79 2708.55 4084.96 2706.67 4113.37 2704.8 4141.78 2702.92 4170.52 2701.05 4205.02 2699.17 4239.52 2697.3 4286.74 2695.42 4320.38 2693.54 4354.02 2691.67 4379.87 2689.79 4406.85 2687.92 4433.83 2686.04 4465.7 2684.17 4482.26 2682.29 4494.48 2680.91 4498.48 2678.05 4506.2 2676.66 4516.66 2674.79 4532.51 2672.91 4545.01 2671.04 4557.52 2669.16 4570.56 2667.29 4581.22 2665.41 4591.88 2663.53 4599.98 2661.66 4608.99 2659.78 4617.99 2657.91 4629.27 2656.03 4635.25 2654.16 4640.56 2652.49 4645.26 2650.2 4644.85 2648.53 4644.57 2647.37 4625.83 2644.07 4632.51 2642.9 4643.29 2641.03 4685.02 2639.15 4709.53 2637.28 4734.04 2635.4 4758.38 2633.52 4779.59 2631.65 4800.8 2629.77 4825.78 2627.9 4836.77 2626.02 4841.9 2625.15 4843.6 2621.27 4845.53 2620.4 4849.68 2618.52 4854.92 2616.64 4861.65 2614.77 4868.37 2612.89 4877.26 2611.02 4885.9 2609.14 4894.53 2607.27 4902.11 2605.39 4913.44 2603.52 4924.76 2601.64 4941.11 2599.76 4953.85 2597.89 4966.6 2596.01 4972.91 2594.14 4989.91 2592.26 5006.91 2590.39 5033.32 2588.51 5055.86 2586.63 5078.4 2584.76 5107.04 2582.88 5125.16 2581.01 5143.29 2579.13 5149.96 2577.26 5164.59 2575.38 5179.22 2573.51 5199.77 2571.63 5212.96 2569.75 5226.14 2567.88 5234.52 2566 5243.71 2564.13 5252.9 2562.25 5257.47 2560.38 5268.1 2558.5 5278.73 2556.62 5288.32 2554.75 5307.51 2552.87 5326.7 2551 5364.63 2549.12 5383.23 2547.25 5401.27 2545.43 5407.78 2543.44 5419.07 2541.62 5430.69 2539.74 5440.25 2537.87 5452.98 2535.99 5465.7 2534.12 5480.22 2532.24 5495.42 2530.37 5508.48 2528.75 5519.66 2526.35 5544.12 2524.74 5572.56 2522.86 5663.4 2520.99 5666.03 2519.11 5668.66 2517.24 5557.61 2515.36 5559.91 2513.49 5562.21 2511.61 5658.39 2509.73 5679.82 2507.86 5684.97 2507.41 5688.01 2502.68 5688.5 2502.23 5689.98 2500.85 5688.92 2497.98 5691.9 2496.6 5695.96 2494.73 5708.17 2492.85 5712.84 2490.98 5713.7 2490.63 5715.42 2485.69 5719.93 2485.35 5744.57 2483.48 5837.23 2481.6 5860.69 2479.72 5863.5 2479.5 5860.69 2474.32 5860.69 2474.1 5860.69 2472.22 5860.69 2470.35 5860.69 2468.47 5860.69 2466.59 5860.69 2464.72 5860.69 2462.84 5860.69 2460.97 5860.69 2459.09 5860.69 2457.22 5860.69 2455.34 5860.69 2453.47 5860.69 2451.59 5860.69 2449.71 5860.69 2447.84 5860.69 2445.96 5860.69 2444.09 5860.69 2442.21 5860.69 2440.34 5860.69 2438.46 5860.69 2436.58 5860.69 2434.71 5860.69 2432.83 5860.69 2430.96 5860.69 2429.08 5860.69 2427.21 5860.69 2425.33 5860.69 2423.46 5860.69 2421.58 5860.69 2419.7 5860.69 2417.83 5860.69 2415.95 5860.69 2414.08 5860.69 2412.2 5860.69 2410.33 5860.69 2408.45 5860.69 2406.57 5860.69 2404.7 5860.69 2402.82 5860.69 2400.95 5860.69 2399.07 5860.69 2397.2 5860.69 2395.32 5860.69 2395.16 5860.69 2392.51 5860.69 2389.69 5860.69 2355.93 5860.69 2226.51 5860.69 2192.75 5860.69 2189.94 5860.69 2187.28 5860.69 2187.13 5860.69 2185.25 5860.69 2183.38 5860.69 2181.5 5860.69 2179.62 5860.69 2177.75 5860.69 2175.87 5860.69 2174 5860.69 2172.12 5860.69 2170.25 5860.69 2168.37 5860.69 2166.5 5860.69 2164.62 5860.69 2162.74 5860.69 2160.87 5860.69 2158.99 5860.69 2157.12 5860.69 2155.24 5860.69 2153.37 5860.69 2151.49 5860.69 2149.61 5860.69 2147.74 5860.69 2145.86 5860.69 2143.99 5860.69 2142.11 5860.69 2140.24 5860.69 2138.36 5860.69 2136.49 5860.69 2134.61 5860.69 2132.73 5860.69 2130.86 5860.69 2128.98 5860.69 2127.11 5860.69 2125.23 5860.69 2125.01 5863.5 2119.82 5860.69 2119.6 5836.37 2117.73 5740.32 2115.85 5714.76 2113.98 5710.1 2113.64 5707.95 2108.69 5707.31 2108.35 5703.78 2106.48 5699.78 2104.6 5693.59 2102.72 5687.4 2100.85 5671.48 2098.97 5670.18 2097.1 5668.88 2095.22 5681.01 2093.35 5685.79 2091.47 5687.42 2090.83 5705.96 2086.48 5698.87 2085.84 5678.04 2083.97 5585.56 2082.09 5560.82 2080.22 5554.93 2079.77 5552.98 2075.04 5550.44 2074.59 5539.76 2072.71 5518.13 2070.84 5496.79 2068.96 5475.45 2067.09 5443.25 2065.21 5422.4 2063.34 5401.55 2061.46 5392.13 2059.58 5371.7 2057.71 5351.26 2055.83 5320.45 2053.96 5299.79 2052.08 5279.12 2050.21 5259.81 2048.33 5247.7 2046.46 5237.17 2044.82 5232.17 2042.46 5227.14 2040.83 5221.35 2038.95 5218.22 2037.08 5212.97 2035.2 5207.72 2033.33 5201.47 2031.45 5195.62 2029.57 5189.77 2027.7 5184.75 2025.82 5177.88 2023.95 5173.49 2022.75 5166.4 2019.52 5154.38 2018.32 5135.54 2016.45 5087.69 2014.57 5064.85 2012.69 5042.01 2010.82 5029.95 2008.94 5017.31 2007.07 5004.68 2005.19 5000.45 2003.32 4989.05 2001.44 4977.65 1999.56 4960.28 1997.69 4948.9 1995.81 4937.52 1993.94 4929.77 1992.06 4920.76 1990.19 4911.74 1988.31 4901.48 1986.44 4894.8 1984.56 4888.12 1982.68 4886.14 1980.81 4880.67 1978.93 4875.2 1977.06 4865.67 1975.18 4861.98 1973.31 4859.91 1972.26 4861.66 1968.73 4858.53 1967.68 4852.94 1965.8 4841.58 1963.93 4828.42 1962.05 4815.26 1960.18 4799.48 1958.3 4779.59 1956.43 4759.7 1954.55 4709.88 1952.67 4709.11 1950.8 4708.33 1948.92 4775.21 1947.05 4774.92 1945.17 4774.63 1943.3 4727.96 1941.42 4707.37 1939.54 4686.78 1937.67 4661.83 1935.79 4651.38 1933.92 4647.07 1933.14 4645.39 1929.06 4644.67 1928.29 4644.06 1927.65 4637.46 1923.31 4640.81 1922.66 4650.61 1920.79 4705.32 1918.91 4703.51 1917.04 4701.69 1915.16 4644.13 1913.29 4629.9 1911.41 4623.43 1910.56 4620.52 1906.64 4618.13 1905.78 4612.86 1903.91 4604.74 1902.03 4598.32 1900.16 4591.9 1898.28 4588.86 1896.41 4579.6 1894.53 4570.34 1892.65 4557.26 1890.78 4542.74 1888.9 4528.23 1887.03 4513.5 1885.15 4492.5 1883.28 4471.5 1881.4 4441.41 1879.52 4416.74 1877.65 4392.07 1875.77 4364.76 1873.9 4344.46 1872.02 4324.17 1870.15 4309.74 1868.27 4294.95 1866.4 4280.17 1864.52 4266.63 1862.64 4255.77 1860.77 4244.91 1858.89 4239.08 1857.02 4229.8 1855.14 4220.51 1853.27 4212.29 1851.39 4200.06 1849.52 4187.83 1847.64 4177.32 1845.76 4156.42 1843.89 4135.52 1842.01 4097.93 1840.14 4074.64 1838.26 4051.35 1836.39 4036.62 1834.51 4016.68 1832.63 3996.73 1830.76 3970.69 1828.88 3954.97 1827.01 3939.26 1825.13 3934.81 1823.26 3922.38 1821.38 3909.95 1819.51 3889.89 1817.63 3880.4 1815.75 3872.57 1814.2 3868.67 1811.68 3865.45 1810.13 3861.56 1808.25 3861 1806.38 3857.05 1804.5 3853.09 1802.62 3845.37 1800.75 3841.7 1798.87 3840.22 1798.12 3839.34 1794 3835.04 1793.25 3824.42 1791.37 3781.25 1789.49 3777.96 1787.62 3774.98 1785.92 3834.17 1783.69 3815.34 1781.99 3794.59 1780.12 3681.31 1778.24 3653.47 1776.37 3649.66 1776.11 3648.46 1771 3648.32 1770.74 3647.27 1768.93 3649.21 1766.92 3646.95 1765.11 3644.6 1763.24 3637.68 1761.36 3634.22 1759.49 3630.76 1757.61 3628.39 1755.73 3626.17 1753.86 3624.81 1752.72 3624.57 1749.37 3620.88 1748.23 3614.83 1746.36 3595.8 1744.48 3589.83 1742.6 3586.32 1741.5 3587.17 1738.08 3585.07 1736.98 3581.51 1735.1 3573.33 1733.23 3568.48 1731.35 3563.63 1729.47 3560.48 1727.6 3555.97 1725.72 3551.46 1723.85 3546.85 1721.97 3541.4 1720.1 3535.94 1718.22 3531.95 1716.35 3523.23 1714.47 3514.51 1712.59 3502.53 1710.72 3489.08 1708.84 3475.62 1706.97 3457.22 1705.09 3442.52 1703.22 3427.82 1701.34 3412.67 1699.47 3400.89 1697.59 3389.1 1695.71 3382.94 1693.84 3371.8 1691.96 3360.65 1690.09 3350.36 1688.21 3334.01 1686.34 3317.67 1684.46 3294.86 1682.58 3273.75 1680.71 3252.65 1678.83 3228.81 1676.96 3207.4 1675.08 3185.99 1673.21 3161.37 1671.33 3145.31 1669.46 3129.26 1667.58 3122.86 1665.7 3111.06 1663.83 3099.27 1661.95 3083.7 1660.08 3074.54 1658.2 3065.37 1656.33 3056.75 1654.45 3056.08 1652.57 3055.41 1650.7 3070.67 1648.82 3070.51 1646.95 3070.36 1645.15 3063.12 1643.12 3055.13 1641.32 3046.78 1639.45 3035.91 1637.57 3020.45 1635.69 3004.99 1633.82 2980.6 1631.94 2962.36 1630.07 2946.85 1628.47 2936.78 1626.04 2911 1624.44 2880.66 1622.56 2829.31 1620.69 2780.37 1618.81 2731.44 1616.94 2644.55 1615.06 2617.38 1613.19 2614.57 1612.99 2617.38 1607.75 2617.38 1607.56 2617.38 1605.68 2617.38 1603.81 2617.38 1601.93 2617.38 1600.06 2617.38 1598.18 2617.38 1596.31 2617.38 1594.43 2617.38 1592.55 2617.38 1590.68 2617.38 1588.8 2617.38 1586.93 2617.38 1585.05 2617.38 1583.18 2617.38 1581.3 2617.38 1579.43 2617.38 1577.55 2617.38 1575.67 2617.38 1573.8 2617.38 1571.92 2617.38 1570.05 2617.38 1568.17 2617.38 1566.3 2617.38 1564.42 2617.38 1562.54 2617.38 1560.67 2617.38 1558.79 2617.38 1556.92 2617.38 1555.04 2617.38 1553.17 2617.38 1551.29 2617.38 1549.42 2617.38 1547.54 2617.38 1545.66 2617.38 1543.79 2617.38 1541.91 2617.38 1540.04 2617.38 1538.16 2617.38 1536.29 2617.38 1534.41 2617.38 1532.53 2617.38 1530.66 2617.38 1528.78 2617.38 1526.91 2617.38 1525.03 2617.38 1523.16 2617.38 1521.28 2617.38 1519.41 2617.38 1517.53 2617.38 1515.65 2617.38 1513.78 2617.38 1511.9 2617.38 1510.03 2617.38 1508.15 2617.38 1506.28 2617.38 1504.4 2617.38 1502.52 2617.38 1500.65 2617.38 1498.77 2617.38 1496.9 2617.38 1495.02 2617.38 1493.15 2617.38 1491.27 2617.38 1489.4 2617.38 1487.52 2617.38 1485.64 2617.38 1483.77 2617.38 1481.89 2617.38 1480.02 2617.38 1478.14 2617.38 1476.27 2617.38 1474.39 2617.38 1472.51 2617.38 1470.64 2617.38 1468.76 2617.38 1466.89 2617.38 1465.01 2617.38 1463.14 2617.38 1461.26 2617.38 1459.39 2617.38 1457.51 2617.38 1455.63 2617.38 1453.76 2617.38 1451.88 2617.38 1450.01 2617.38 1448.13 2617.38 1446.26 2617.38 1444.38 2617.38 1442.51 2617.38 1440.63 2617.38 1438.75 2617.38 1436.88 2617.38 1435 2617.38 1433.13 2617.38 1431.25 2617.38 1429.38 2617.38 1427.5" stroke="#000000" stroke-width="6.875" stroke-linecap="round" stroke-linejoin="round" stroke-miterlimit="10" fill="none"/></g><g clip-path="url(#clip6)"><path d="M2536.38 2935.5C2537.34 2933.68 2536.74 2931.69 2539.36 2929.87 2542.05 2928 2554.05 2926.12 2552.56 2924.25 2551.08 2922.37 2535.56 2920.5 2530.45 2918.62 2525.65 2916.86 2522.12 2914.76 2521.9 2912.99 2521.66 2911.12 2530.93 2909.24 2529.03 2907.37 2527.13 2905.49 2512.5 2903.61 2510.5 2901.74 2508.5 2899.86 2513.47 2897.99 2517.02 2896.11 2520.57 2894.24 2524.74 2892.36 2531.81 2890.49 2538.87 2888.61 2550.9 2886.73 2559.4 2884.86 2567.89 2882.98 2578.18 2881.11 2582.76 2879.23 2585.99 2877.91 2587.32 2874.93 2586.87 2873.6 2586.23 2871.73 2578.18 2869.85 2578.92 2867.98 2579.66 2866.1 2588.59 2864.23 2591.34 2862.35 2592.6 2861.49 2592.01 2857.59 2595.37 2856.72 2602.65 2854.85 2624.79 2852.97 2635.02 2851.1 2645.25 2849.22 2646.31 2847.35 2656.73 2845.47 2667.15 2843.59 2684.29 2841.72 2697.52 2839.84 2710.75 2837.97 2725.78 2836.09 2736.1 2834.22 2746.42 2832.34 2749.24 2830.47 2759.45 2828.59 2769.65 2826.71 2781.25 2824.84 2797.32 2822.96 2813.4 2821.09 2834.98 2819.21 2855.9 2817.34 2876.81 2815.46 2902.27 2813.58 2922.83 2811.71 2943.38 2809.83 2962.5 2807.96 2979.22 2806.08 2995.93 2804.21 3006.75 2802.33 3023.12 2800.46 3039.48 2798.58 3061.83 2796.7 3077.4 2794.83 3092.98 2792.95 3102.36 2791.08 3116.56 2789.2 3130.76 2787.33 3147.34 2785.45 3162.59 2783.57 3177.85 2781.7 3191.77 2779.82 3208.1 2777.95 3224.43 2776.07 3246.87 2774.2 3260.56 2772.32 3274.26 2770.45 3279.32 2768.57 3290.26 2766.69 3301.2 2764.82 3315.79 2762.94 3326.21 2761.07 3336.62 2759.19 3343.99 2757.32 3352.77 2755.44 3361.54 2753.56 3368.57 2751.69 3378.86 2749.81 3389.14 2747.94 3402.13 2746.06 3414.46 2744.19 3426.79 2742.31 3439.3 2740.44 3452.83 2738.56 3466.35 2736.68 3481.91 2734.81 3495.61 2732.93 3509.31 2731.06 3521.76 2729.18 3535.03 2727.31 3548.31 2725.43 3561.92 2723.55 3575.27 2721.68 3588.62 2719.8 3601.51 2717.93 3615.12 2716.05 3628.72 2714.18 3641.83 2712.3 3656.93 2710.43 3672.02 2708.55 3689.33 2706.67 3705.68 2704.8 3722.03 2702.92 3737.38 2701.05 3755.02 2699.17 3772.66 2697.3 3792.59 2695.42 3811.52 2693.54 3830.45 2691.67 3849.16 2689.79 3868.61 2687.92 3888.07 2686.04 3908.89 2684.17 3928.25 2682.29 3947.61 2680.42 3966.37 2678.54 3984.76 2676.66 4003.15 2674.79 4020.61 2672.91 4038.57 2671.04 4056.53 2669.16 4074.52 2667.29 4092.51 2665.41 4110.5 2663.53 4129.87 2661.66 4146.52 2659.78 4163.18 2657.91 4177.41 2656.03 4192.45 2654.16 4207.49 2652.28 4223.2 2650.41 4236.75 2648.53 4250.3 2646.65 4260.31 2644.78 4273.76 2642.9 4287.21 2641.03 4303.55 2639.15 4317.46 2637.28 4331.36 2635.4 4343.33 2633.52 4357.17 2631.65 4371.01 2629.77 4387.28 2627.9 4400.5 2626.02 4413.71 2624.15 4424.6 2622.27 4436.46 2620.4 4448.32 2618.52 4460.68 2616.64 4471.63 2614.77 4482.59 2612.89 4490.06 2611.02 4502.21 2609.14 4514.35 2607.27 4531.77 2605.39 4544.52 2603.52 4557.27 2601.64 4567.63 2599.76 4578.73 2597.89 4589.82 2596.01 4598.64 2594.14 4611.1 2592.26 4623.56 2590.39 4636.94 2588.51 4653.49 2586.63 4670.04 2584.76 4692.97 2582.88 4710.39 2581.01 4727.8 2579.13 4744.87 2577.26 4757.96 2575.38 4771.06 2573.51 4774.62 2571.63 4788.97 2569.75 4803.31 2567.88 4826.06 2566 4844.06 2564.13 4862.07 2562.25 4883.04 2560.38 4896.98 2558.5 4909.99 2556.75 4912.19 2554.62 4927.72 2552.87 4944.36 2551 4980.55 2549.12 4996.83 2547.25 5011.29 2545.58 5016.9 2543.29 5025.39 2541.62 5034.31 2539.87 5039.61 2537.74 5054.16 2535.99 5069.76 2534.12 5098.95 2532.24 5118.96 2530.37 5138.97 2528.49 5156.16 2526.61 5174.24 2524.74 5192.31 2522.86 5215.66 2520.99 5227.41 2519.11 5235.41 2517.83 5235.71 2514.76 5244.73 2513.49 5257.96 2511.61 5290.09 2509.73 5306.8 2507.86 5323.51 2505.98 5332.71 2504.11 5344.98 2502.23 5357.26 2500.36 5371.9 2498.48 5380.44 2496.6 5388.6 2494.81 5392.53 2492.77 5396.18 2490.98 5398.52 2489.83 5398.95 2486.5 5403.37 2485.35 5410.6 2483.48 5425.16 2481.6 5439.57 2479.72 5453.98 2477.85 5476.86 2475.97 5489.84 2474.1 5502.82 2472.22 5510.21 2470.35 5517.44 2468.47 5524.66 2466.59 5525.26 2464.72 5533.19 2462.84 5541.12 2460.97 5552.24 2459.09 5565.03 2457.22 5577.81 2455.34 5600.63 2453.47 5609.92 2451.59 5615.91 2450.38 5618.61 2447.17 5620.77 2445.96 5622.7 2444.88 5624.68 2441.42 5629.95 2440.34 5639.06 2438.46 5665.91 2436.58 5675.38 2434.71 5681.62 2433.47 5684.04 2430.32 5686.79 2429.08 5690.95 2427.21 5694.83 2425.33 5700.35 2423.46 5705.87 2421.58 5718.45 2419.7 5719.91 2417.83 5721.37 2415.95 5704.93 2414.08 5709.13 2412.2 5713.33 2410.33 5738.89 2408.45 5745.11 2406.57 5747.87 2405.74 5744.04 2401.78 5746.41 2400.95 5751.73 2399.07 5769.91 2397.2 5777.05 2395.32 5778.08 2395.05 5784.6 2394.55 5789.25 2389.69 5821.56 2355.93 5947.31 2226.51 5970.91 2192.75 5982.5 2176.17 5936.35 2188.05 5930.83 2187.13 5919.61 2185.25 5907.71 2183.38 5903.57 2181.5 5901.07 2180.37 5908.8 2177.01 5905.96 2175.87 5901.26 2174 5878.42 2172.12 5875.34 2170.25 5872.27 2168.37 5884.89 2166.5 5887.5 2164.62 5890.1 2162.74 5891.79 2160.87 5890.99 2158.99 5890.19 2157.12 5887.25 2155.24 5882.68 2153.37 5878.1 2151.49 5866.52 2149.61 5863.55 2147.74 5861.11 2146.2 5865.73 2143.65 5864.84 2142.11 5863.76 2140.24 5860.29 2138.36 5857.06 2136.49 5854.75 2135.15 5851.77 2132.2 5845.47 2130.86 5836.66 2128.98 5806.5 2127.11 5804.17 2125.23 5801.84 2123.36 5828.57 2121.48 5831.51 2119.6 5833.92 2118.07 5827.21 2115.52 5821.83 2113.98 5815.26 2112.1 5802.82 2110.23 5792.11 2108.35 5781.41 2106.48 5769.44 2104.6 5757.6 2102.72 5745.77 2100.85 5728.53 2098.97 5721.09 2097.1 5716.3 2095.89 5716.36 2092.68 5712.97 2091.47 5707.7 2089.59 5696.68 2087.72 5689.48 2085.84 5682.28 2083.97 5672.14 2082.09 5669.76 2080.22 5667.38 2078.34 5673.88 2076.47 5675.19 2074.59 5676.35 2072.93 5680.23 2070.62 5677.64 2068.96 5674.72 2067.09 5666.34 2065.21 5657.64 2063.34 5648.93 2061.46 5636.56 2059.58 5625.42 2057.71 5614.28 2055.83 5603.89 2053.96 5590.79 2052.08 5577.69 2050.21 5559.51 2048.33 5546.82 2046.46 5534.13 2044.58 5526.44 2042.7 5514.64 2040.83 5502.84 2038.95 5486.41 2037.08 5476.04 2035.2 5465.67 2033.33 5459.72 2031.45 5452.4 2029.57 5445.08 2027.7 5441.17 2025.82 5432.12 2023.95 5423.07 2022.07 5411.33 2020.2 5398.13 2018.32 5384.93 2016.45 5364.79 2014.57 5352.94 2012.69 5341.09 2010.82 5335.57 2008.94 5327.04 2007.07 5318.52 2005.19 5312.61 2003.32 5301.79 2001.44 5290.97 1999.56 5274.82 1997.69 5262.11 1995.81 5249.39 1993.94 5237.27 1992.06 5225.51 1990.19 5213.75 1988.31 5202.8 1986.44 5191.54 1984.56 5180.28 1982.68 5168.47 1980.81 5157.95 1978.93 5147.42 1977.06 5136.99 1975.18 5128.41 1973.31 5119.83 1971.43 5114.92 1969.55 5106.49 1967.68 5098.06 1965.8 5087.84 1963.93 5077.81 1962.05 5067.77 1960.18 5058.41 1958.3 5046.28 1956.43 5034.15 1954.55 5016.8 1952.67 5005.01 1950.8 4993.22 1948.92 4983.99 1947.05 4975.55 1945.17 4967.12 1943.3 4962.35 1941.42 4954.42 1939.54 4946.49 1937.67 4937.65 1935.79 4927.97 1933.92 4918.29 1932.04 4905.42 1930.17 4896.34 1928.29 4887.26 1926.42 4880.25 1924.54 4873.48 1922.66 4866.71 1920.79 4862.78 1918.91 4855.7 1917.04 4848.62 1915.16 4837.9 1913.29 4831.01 1911.41 4824.13 1909.53 4821.12 1907.66 4814.4 1905.78 4807.69 1903.91 4797.92 1902.03 4790.73 1900.16 4783.54 1898.28 4778.38 1896.41 4771.28 1894.53 4764.19 1892.65 4756.15 1890.78 4748.19 1888.9 4740.23 1887.03 4732.73 1885.15 4723.52 1883.28 4714.32 1881.4 4703.8 1879.52 4692.97 1877.65 4682.14 1875.77 4670.36 1873.9 4658.54 1872.02 4646.71 1870.15 4634.22 1868.27 4622.03 1866.4 4609.83 1864.52 4597.41 1862.64 4585.39 1860.77 4573.37 1858.89 4561.62 1857.02 4549.92 1855.14 4538.22 1853.27 4526.93 1851.39 4515.2 1849.52 4503.47 1847.64 4491.91 1845.76 4479.55 1843.89 4467.19 1842.01 4454.01 1840.14 4441.05 1838.26 4428.1 1836.39 4415.86 1834.51 4401.82 1832.63 4387.78 1830.76 4371.5 1828.88 4356.81 1827.01 4342.11 1825.13 4328.57 1823.26 4313.66 1821.38 4298.76 1819.51 4280.85 1817.63 4267.36 1815.75 4253.86 1813.88 4244.27 1812 4232.69 1810.13 4221.11 1808.25 4208.72 1806.38 4197.87 1804.5 4187.02 1802.62 4177.92 1800.75 4167.58 1798.87 4157.24 1797 4148.43 1795.12 4135.82 1793.25 4123.2 1791.37 4104.07 1789.49 4091.89 1787.62 4079.71 1785.74 4075.14 1783.87 4062.75 1781.99 4050.36 1780.12 4030.18 1778.24 4017.54 1776.37 4004.9 1774.49 3997.92 1772.61 3986.91 1770.74 3975.9 1768.86 3962.65 1766.99 3951.48 1765.11 3940.31 1763.24 3930.8 1761.36 3919.9 1759.49 3909 1757.61 3897.21 1755.73 3886.07 1753.86 3874.92 1751.98 3863.82 1750.11 3853.03 1748.23 3842.23 1746.36 3830.55 1744.48 3821.29 1742.6 3812.04 1740.73 3805.07 1738.85 3797.49 1736.98 3789.91 1735.1 3781.64 1733.23 3775.79 1731.35 3769.95 1729.47 3768.09 1727.6 3762.42 1725.72 3756.75 1723.85 3751.18 1721.97 3741.78 1720.1 3732.38 1718.22 3716.46 1716.35 3706.02 1714.47 3695.58 1712.59 3686.2 1710.72 3679.15 1708.84 3672.09 1706.97 3670.25 1705.09 3663.71 1703.22 3657.16 1701.34 3648.13 1699.47 3639.88 1697.59 3631.64 1695.71 3621.46 1693.84 3614.23 1691.96 3606.99 1690.09 3604.09 1688.21 3596.46 1686.34 3588.83 1684.46 3576.72 1682.58 3568.47 1680.71 3560.55 1678.91 3557.92 1676.88 3546.94 1675.08 3535.5 1673.21 3511.79 1671.33 3499.84 1669.46 3487.89 1667.58 3486.63 1665.7 3475.23 1663.83 3463.83 1661.95 3446.44 1660.08 3431.44 1658.2 3416.44 1656.33 3397.75 1654.45 3385.24 1652.57 3372.73 1650.7 3368.81 1648.82 3356.37 1646.95 3343.93 1645.07 3321.12 1643.2 3310.59 1641.32 3301.57 1639.72 3302.11 1637.3 3293.15 1635.69 3282.69 1633.82 3263.07 1631.94 3247.81 1630.07 3232.54 1628.19 3217.04 1626.32 3201.54 1624.44 3186.04 1622.56 3171.6 1620.69 3154.8 1618.81 3138 1616.94 3113.91 1615.06 3100.75 1613.19 3088.1 1611.38 3086.43 1609.36 3075.81 1607.56 3064.76 1605.68 3045.32 1603.81 3034.45 1601.93 3023.58 1600.06 3021.78 1598.18 3010.6 1596.31 2999.43 1594.43 2980.73 1592.55 2967.4 1590.68 2954.06 1588.8 2940.3 1586.93 2930.61 1585.05 2920.98 1583.19 2920.14 1581.29 2909.25 1579.43 2898.3 1577.55 2874.57 1575.67 2864.91 1573.8 2857.66 1572.39 2852.9 1569.58 2851.25 1568.17 2850.53 1567.55 2854.49 1563.17 2851.74 1562.54 2843.43 1560.67 2811.09 1558.79 2801.41 1556.92 2796.7 1556.01 2796 1552.2 2793.63 1551.29 2788.76 1549.42 2781.54 1547.54 2772.21 1545.66 2762.88 1543.79 2743.08 1541.91 2737.65 1540.04 2734.96 1539.11 2736.78 1535.34 2739.61 1534.41 2745.33 1532.53 2768.07 1530.66 2771.96 1528.78 2775.85 1526.91 2765.98 1525.03 2762.95 1523.16 2759.92 1521.28 2758 1519.41 2753.79 1517.53 2749.58 1515.65 2744.83 1513.78 2737.69 1511.9 2730.55 1510.03 2720.19 1508.15 2710.95 1506.28 2701.71 1504.4 2689.51 1502.52 2682.24 1500.65 2674.97 1498.77 2667.41 1496.9 2667.34 1495.02 2667.26 1493.15 2682.82 1491.27 2681.8 1489.4 2680.77 1487.52 2664.99 1485.64 2661.17 1483.77 2658.45 1482.43 2658.81 1479.48 2658.9 1478.14 2659 1476.54 2664.65 1474.12 2661.9 1472.51 2658.68 1470.64 2642.8 1468.76 2639.59 1466.89 2636.83 1465.28 2641.89 1462.87 2642.61 1461.26 2643.34 1459.61 2642.11 1457.28 2644.6 1455.63 2647.44 1453.76 2658.79 1451.88 2659.63 1450.01 2660.48 1448.13 2651.59 1446.26 2649.66 1444.38 2647.73 1442.51 2648.34 1440.63 2648.04 1438.75 2647.83 1437.41 2650.37 1434.47 2647.9 1433.13 2644.45 1431.25 2634.22 1429.38 2627.38 1427.5" stroke="#FF0000" stroke-width="6.875" stroke-linecap="round" stroke-linejoin="round" stroke-miterlimit="10" fill="none"/></g><g clip-path="url(#clip7)"><text fill="#595959" font-family="Calibri,Calibri_MSFontService,sans-serif" font-weight="400" font-size="41" transform="matrix(1 0 0 1 4179.6 3049)">0</text></g><g clip-path="url(#clip8)"><text fill="#595959" font-family="Calibri,Calibri_MSFontService,sans-serif" font-weight="400" font-size="41" transform="matrix(1 0 0 1 4158.7 2767)">50</text></g><g clip-path="url(#clip9)"><text fill="#595959" font-family="Calibri,Calibri_MSFontService,sans-serif" font-weight="400" font-size="41" transform="matrix(1 0 0 1 4137.8 2486)">100</text></g><g clip-path="url(#clip10)"><text fill="#595959" font-family="Calibri,Calibri_MSFontService,sans-serif" font-weight="400" font-size="41" transform="matrix(1 0 0 1 4137.8 2205)">150</text></g><g clip-path="url(#clip11)"><text fill="#595959" font-family="Calibri,Calibri_MSFontService,sans-serif" font-weight="400" font-size="41" transform="matrix(1 0 0 1 4137.8 1923)">200</text></g><g clip-path="url(#clip12)"><text fill="#595959" font-family="Calibri,Calibri_MSFontService,sans-serif" font-weight="400" font-size="41" transform="matrix(1 0 0 1 4137.8 1642)">250</text></g><g clip-path="url(#clip13)"><text fill="#595959" font-family="Calibri,Calibri_MSFontService,sans-serif" font-weight="400" font-size="41" transform="matrix(1 0 0 1 4137.8 1361)">300</text></g><g clip-path="url(#clip14)"><text fill="#595959" font-family="Calibri,Calibri_MSFontService,sans-serif" font-weight="400" font-size="41" transform="matrix(1 0 0 1 2409.77 3102)">-30</text></g><g clip-path="url(#clip15)"><text fill="#595959" font-family="Calibri,Calibri_MSFontService,sans-serif" font-weight="400" font-size="41" transform="matrix(1 0 0 1 3010.36 3102)">-20</text></g><g clip-path="url(#clip16)"><text fill="#595959" font-family="Calibri,Calibri_MSFontService,sans-serif" font-weight="400" font-size="41" transform="matrix(1 0 0 1 3610.96 3102)">-10</text></g><g clip-path="url(#clip17)"><text fill="#595959" font-family="Calibri,Calibri_MSFontService,sans-serif" font-weight="400" font-size="41" transform="matrix(1 0 0 1 4228.32 3102)">0</text></g><g clip-path="url(#clip18)"><text fill="#595959" font-family="Calibri,Calibri_MSFontService,sans-serif" font-weight="400" font-size="41" transform="matrix(1 0 0 1 4818.47 3102)">10</text></g><g clip-path="url(#clip19)"><text fill="#595959" font-family="Calibri,Calibri_MSFontService,sans-serif" font-weight="400" font-size="41" transform="matrix(1 0 0 1 5419.06 3102)">20</text></g><g clip-path="url(#clip20)"><text fill="#595959" font-family="Calibri,Calibri_MSFontService,sans-serif" font-weight="400" font-size="41" transform="matrix(1 0 0 1 6019.66 3102)">30</text></g><g clip-path="url(#clip21)"><text fill="#595959" font-family="Calibri,Calibri_MSFontService,sans-serif" font-weight="400" font-size="46" transform="matrix(6.12323e-17 -1 1 6.12323e-17 2418.17 2239)">Time</text></g><g clip-path="url(#clip22)"><text fill="#595959" font-family="Calibri,Calibri_MSFontService,sans-serif" font-weight="400" font-size="64" transform="matrix(1 0 0 1 3887.01 1274)">Distance from center line</text></g><g clip-path="url(#clip23)"><path d="M3897.5 3182.5 3985.5 3182.5" stroke="#000000" stroke-width="6.875" stroke-linecap="round" stroke-linejoin="round" stroke-miterlimit="10" fill="none" fill-rule="evenodd"/></g><g clip-path="url(#clip24)"><text fill="#595959" font-family="Calibri,Calibri_MSFontService,sans-serif" font-weight="400" font-size="41" transform="matrix(1 0 0 1 3995 3194)">Weighted Avg</text></g><g clip-path="url(#clip25)"><path d="M4284.5 3182.5 4372.5 3182.5" stroke="#FF0000" stroke-width="6.875" stroke-linecap="round" stroke-linejoin="round" stroke-miterlimit="10" fill="none" fill-rule="evenodd"/></g><g clip-path="url(#clip26)"><text fill="#595959" font-family="Calibri,Calibri_MSFontService,sans-serif" font-weight="400" font-size="41" transform="matrix(1 0 0 1 4381.45 3194)">Quadratic</text></g><rect x="2317.5" y="1179.5" width="3795" height="2069" stroke="#D9D9D9" stroke-width="3.4375" stroke-linejoin="round" stroke-miterlimit="10" fill="none"/></g></svg>