<?xml version="1.0" encoding="UTF-8" standalone="no"?>
<!DOCTYPE svg PUBLIC "-//W3C//DTD SVG 1.1//EN"
 "http://www.w3.org/Graphics/SVG/1.1/DTD/svg11.dtd">
<!-- Generated by graphviz version 2.50.0 (20220203.2022)
 -->
<!-- Title: /github/workspace/include/sensor/sensor.h Pages: 1 -->
<svg width="374pt" height="263pt"
 viewBox="0.00 0.00 373.50 263.00" xmlns="http://www.w3.org/2000/svg" xmlns:xlink="http://www.w3.org/1999/xlink">
<g id="graph0" class="graph" transform="scale(1 1) rotate(0) translate(4 259)">
<title>/github/workspace/include/sensor/sensor.h</title>
<!-- Node1 -->
<g id="node1" class="node">
<title>Node1</title>
<g id="a_node1"><a xlink:title=" ">
<polygon fill="#bfbfbf" stroke="black" points="119,-224.5 119,-254.5 249,-254.5 249,-224.5 119,-224.5"/>
<text text-anchor="start" x="127" y="-242.5" font-family="Helvetica,sans-Serif" font-size="10.00">/github/workspace/include</text>
<text text-anchor="middle" x="184" y="-231.5" font-family="Helvetica,sans-Serif" font-size="10.00">/sensor/sensor.h</text>
</a>
</g>
</g>
<!-- Node2 -->
<g id="node2" class="node">
<title>Node2</title>
<g id="a_node2"><a xlink:title=" ">
<polygon fill="none" stroke="#bfbfbf" points="0,-168.5 0,-187.5 68,-187.5 68,-168.5 0,-168.5"/>
<text text-anchor="middle" x="34" y="-175.5" font-family="Helvetica,sans-Serif" font-size="10.00">arm_math.h</text>
</a>
</g>
</g>
<!-- Node1&#45;&gt;Node2 -->
<g id="edge1" class="edge">
<title>Node1&#45;&gt;Node2</title>
<path fill="none" stroke="midnightblue" d="M148.45,-224.4C123.17,-214.37 89.53,-201.03 65.27,-191.4"/>
<polygon fill="midnightblue" stroke="midnightblue" points="66.41,-188.09 55.83,-187.66 63.83,-194.6 66.41,-188.09"/>
</g>
<!-- Node3 -->
<g id="node3" class="node">
<title>Node3</title>
<g id="a_node3"><a xlink:title=" ">
<polygon fill="none" stroke="#bfbfbf" points="129,-0.5 129,-19.5 177,-19.5 177,-0.5 129,-0.5"/>
<text text-anchor="middle" x="153" y="-7.5" font-family="Helvetica,sans-Serif" font-size="10.00">mbed.h</text>
</a>
</g>
</g>
<!-- Node1&#45;&gt;Node3 -->
<g id="edge2" class="edge">
<title>Node1&#45;&gt;Node3</title>
<path fill="none" stroke="midnightblue" d="M153.09,-224.34C138.72,-215.98 123.06,-203.89 115,-188 87.68,-134.15 122.77,-61.44 141.98,-28.5"/>
<polygon fill="midnightblue" stroke="midnightblue" points="145.17,-29.99 147.35,-19.62 139.18,-26.37 145.17,-29.99"/>
</g>
<!-- Node4 -->
<g id="node4" class="node">
<title>Node4</title>
<g id="a_node4"><a xlink:href="helper_8h.html" target="_top" xlink:title=" ">
<polygon fill="none" stroke="black" points="124,-168.5 124,-187.5 174,-187.5 174,-168.5 124,-168.5"/>
<text text-anchor="middle" x="149" y="-175.5" font-family="Helvetica,sans-Serif" font-size="10.00">helper.h</text>
</a>
</g>
</g>
<!-- Node1&#45;&gt;Node4 -->
<g id="edge3" class="edge">
<title>Node1&#45;&gt;Node4</title>
<path fill="none" stroke="midnightblue" d="M175.71,-224.4C170.78,-216.02 164.49,-205.33 159.25,-196.42"/>
<polygon fill="midnightblue" stroke="midnightblue" points="162.18,-194.5 154.09,-187.66 156.15,-198.05 162.18,-194.5"/>
</g>
<!-- Node9 -->
<g id="node9" class="node">
<title>Node9</title>
<g id="a_node9"><a xlink:title=" ">
<polygon fill="none" stroke="#bfbfbf" points="192,-168.5 192,-187.5 248,-187.5 248,-168.5 192,-168.5"/>
<text text-anchor="middle" x="220" y="-175.5" font-family="Helvetica,sans-Serif" font-size="10.00">algorithm</text>
</a>
</g>
</g>
<!-- Node1&#45;&gt;Node9 -->
<g id="edge11" class="edge">
<title>Node1&#45;&gt;Node9</title>
<path fill="none" stroke="midnightblue" d="M192.53,-224.4C197.6,-216.02 204.07,-205.33 209.46,-196.42"/>
<polygon fill="midnightblue" stroke="midnightblue" points="212.58,-198.03 214.76,-187.66 206.59,-194.4 212.58,-198.03"/>
</g>
<!-- Node10 -->
<g id="node10" class="node">
<title>Node10</title>
<g id="a_node10"><a xlink:title=" ">
<polygon fill="none" stroke="#bfbfbf" points="266,-168.5 266,-187.5 304,-187.5 304,-168.5 266,-168.5"/>
<text text-anchor="middle" x="285" y="-175.5" font-family="Helvetica,sans-Serif" font-size="10.00">array</text>
</a>
</g>
</g>
<!-- Node1&#45;&gt;Node10 -->
<g id="edge12" class="edge">
<title>Node1&#45;&gt;Node10</title>
<path fill="none" stroke="midnightblue" d="M207.94,-224.4C224.13,-214.86 245.41,-202.32 261.5,-192.84"/>
<polygon fill="midnightblue" stroke="midnightblue" points="263.46,-195.75 270.3,-187.66 259.91,-189.72 263.46,-195.75"/>
</g>
<!-- Node11 -->
<g id="node11" class="node">
<title>Node11</title>
<g id="a_node11"><a xlink:title=" ">
<polygon fill="none" stroke="#bfbfbf" points="322.5,-168.5 322.5,-187.5 365.5,-187.5 365.5,-168.5 322.5,-168.5"/>
<text text-anchor="middle" x="344" y="-175.5" font-family="Helvetica,sans-Serif" font-size="10.00">cstdio</text>
</a>
</g>
</g>
<!-- Node1&#45;&gt;Node11 -->
<g id="edge13" class="edge">
<title>Node1&#45;&gt;Node11</title>
<path fill="none" stroke="midnightblue" d="M221.92,-224.4C249.61,-214.1 286.72,-200.3 312.73,-190.63"/>
<polygon fill="midnightblue" stroke="midnightblue" points="313.95,-193.91 322.11,-187.14 311.51,-187.35 313.95,-193.91"/>
</g>
<!-- Node4&#45;&gt;Node3 -->
<g id="edge9" class="edge">
<title>Node4&#45;&gt;Node3</title>
<path fill="none" stroke="midnightblue" d="M149.22,-168.08C149.84,-141.95 151.69,-65.21 152.55,-29.58"/>
<polygon fill="midnightblue" stroke="midnightblue" points="156.05,-29.65 152.79,-19.57 149.05,-29.48 156.05,-29.65"/>
</g>
<!-- Node5 -->
<g id="node5" class="node">
<title>Node5</title>
<g id="a_node5"><a xlink:href="encoder_8h.html" target="_top" xlink:title=" ">
<polygon fill="none" stroke="black" points="162.5,-112.5 162.5,-131.5 221.5,-131.5 221.5,-112.5 162.5,-112.5"/>
<text text-anchor="middle" x="192" y="-119.5" font-family="Helvetica,sans-Serif" font-size="10.00">encoder.h</text>
</a>
</g>
</g>
<!-- Node4&#45;&gt;Node5 -->
<g id="edge4" class="edge">
<title>Node4&#45;&gt;Node5</title>
<path fill="none" stroke="midnightblue" d="M156.1,-168.08C162.24,-160.38 171.27,-149.03 178.74,-139.65"/>
<polygon fill="midnightblue" stroke="midnightblue" points="181.54,-141.75 185.03,-131.75 176.06,-137.39 181.54,-141.75"/>
</g>
<!-- Node8 -->
<g id="node8" class="node">
<title>Node8</title>
<g id="a_node8"><a xlink:title=" ">
<polygon fill="none" stroke="#bfbfbf" points="239.5,-112.5 239.5,-131.5 298.5,-131.5 298.5,-112.5 239.5,-112.5"/>
<text text-anchor="middle" x="269" y="-119.5" font-family="Helvetica,sans-Serif" font-size="10.00">functional</text>
</a>
</g>
</g>
<!-- Node4&#45;&gt;Node8 -->
<g id="edge10" class="edge">
<title>Node4&#45;&gt;Node8</title>
<path fill="none" stroke="midnightblue" d="M168.01,-168.44C187.59,-159.64 218.31,-145.81 240.73,-135.72"/>
<polygon fill="midnightblue" stroke="midnightblue" points="242.39,-138.81 250.07,-131.52 239.52,-132.43 242.39,-138.81"/>
</g>
<!-- Node5&#45;&gt;Node3 -->
<g id="edge7" class="edge">
<title>Node5&#45;&gt;Node3</title>
<path fill="none" stroke="midnightblue" d="M188.94,-112.37C182.62,-94.54 168,-53.3 159.48,-29.27"/>
<polygon fill="midnightblue" stroke="midnightblue" points="162.69,-27.85 156.05,-19.59 156.09,-30.19 162.69,-27.85"/>
</g>
<!-- Node6 -->
<g id="node6" class="node">
<title>Node6</title>
<g id="a_node6"><a xlink:href="_q_e_i_8h.html" target="_top" xlink:title=" ">
<polygon fill="none" stroke="black" points="200.5,-56.5 200.5,-75.5 241.5,-75.5 241.5,-56.5 200.5,-56.5"/>
<text text-anchor="middle" x="221" y="-63.5" font-family="Helvetica,sans-Serif" font-size="10.00">QEI.h</text>
</a>
</g>
</g>
<!-- Node5&#45;&gt;Node6 -->
<g id="edge5" class="edge">
<title>Node5&#45;&gt;Node6</title>
<path fill="none" stroke="midnightblue" d="M196.79,-112.08C200.76,-104.69 206.53,-93.95 211.43,-84.81"/>
<polygon fill="midnightblue" stroke="midnightblue" points="214.65,-86.22 216.3,-75.75 208.49,-82.91 214.65,-86.22"/>
</g>
<!-- Node7 -->
<g id="node7" class="node">
<title>Node7</title>
<g id="a_node7"><a xlink:title=" ">
<polygon fill="none" stroke="#bfbfbf" points="260,-56.5 260,-75.5 306,-75.5 306,-56.5 260,-56.5"/>
<text text-anchor="middle" x="283" y="-63.5" font-family="Helvetica,sans-Serif" font-size="10.00">chrono</text>
</a>
</g>
</g>
<!-- Node5&#45;&gt;Node7 -->
<g id="edge8" class="edge">
<title>Node5&#45;&gt;Node7</title>
<path fill="none" stroke="midnightblue" d="M206.62,-112.32C220.95,-103.82 243.01,-90.73 259.75,-80.8"/>
<polygon fill="midnightblue" stroke="midnightblue" points="261.6,-83.77 268.42,-75.65 258.03,-77.75 261.6,-83.77"/>
</g>
<!-- Node6&#45;&gt;Node3 -->
<g id="edge6" class="edge">
<title>Node6&#45;&gt;Node3</title>
<path fill="none" stroke="midnightblue" d="M210.07,-56.32C199.83,-48.18 184.28,-35.84 172,-26.09"/>
<polygon fill="midnightblue" stroke="midnightblue" points="174.13,-23.31 164.12,-19.83 169.78,-28.79 174.13,-23.31"/>
</g>
</g>
</svg>
