<?xml version="1.0" encoding="UTF-8" standalone="no"?>
<!DOCTYPE svg PUBLIC "-//W3C//DTD SVG 1.1//EN"
 "http://www.w3.org/Graphics/SVG/1.1/DTD/svg11.dtd">
<!-- Generated by graphviz version 2.50.0 (20220203.2022)
 -->
<!-- Title: /github/workspace/include/sensor/sensor.h Pages: 1 -->
<svg width="334pt" height="95pt"
 viewBox="0.00 0.00 333.50 95.00" xmlns="http://www.w3.org/2000/svg" xmlns:xlink="http://www.w3.org/1999/xlink">
<g id="graph0" class="graph" transform="scale(1 1) rotate(0) translate(4 91)">
<title>/github/workspace/include/sensor/sensor.h</title>
<!-- Node1 -->
<g id="node1" class="node">
<title>Node1</title>
<g id="a_node1"><a xlink:title=" ">
<polygon fill="#bfbfbf" stroke="black" points="115,-56.5 115,-86.5 245,-86.5 245,-56.5 115,-56.5"/>
<text text-anchor="start" x="123" y="-74.5" font-family="Helvetica,sans-Serif" font-size="10.00">/github/workspace/include</text>
<text text-anchor="middle" x="180" y="-63.5" font-family="Helvetica,sans-Serif" font-size="10.00">/sensor/sensor.h</text>
</a>
</g>
</g>
<!-- Node2 -->
<g id="node2" class="node">
<title>Node2</title>
<g id="a_node2"><a xlink:title=" ">
<polygon fill="none" stroke="#bfbfbf" points="0,-0.5 0,-19.5 68,-19.5 68,-0.5 0,-0.5"/>
<text text-anchor="middle" x="34" y="-7.5" font-family="Helvetica,sans-Serif" font-size="10.00">arm_math.h</text>
</a>
</g>
</g>
<!-- Node1&#45;&gt;Node2 -->
<g id="edge1" class="edge">
<title>Node1&#45;&gt;Node2</title>
<path fill="none" stroke="midnightblue" d="M145.4,-56.4C120.9,-46.42 88.34,-33.15 64.75,-23.53"/>
<polygon fill="midnightblue" stroke="midnightblue" points="65.83,-20.19 55.24,-19.66 63.18,-26.67 65.83,-20.19"/>
</g>
<!-- Node3 -->
<g id="node3" class="node">
<title>Node3</title>
<g id="a_node3"><a xlink:title=" ">
<polygon fill="none" stroke="#bfbfbf" points="86,-0.5 86,-19.5 134,-19.5 134,-0.5 86,-0.5"/>
<text text-anchor="middle" x="110" y="-7.5" font-family="Helvetica,sans-Serif" font-size="10.00">mbed.h</text>
</a>
</g>
</g>
<!-- Node1&#45;&gt;Node3 -->
<g id="edge2" class="edge">
<title>Node1&#45;&gt;Node3</title>
<path fill="none" stroke="midnightblue" d="M163.41,-56.4C152.71,-47.31 138.81,-35.49 127.87,-26.19"/>
<polygon fill="midnightblue" stroke="midnightblue" points="130.07,-23.47 120.19,-19.66 125.54,-28.8 130.07,-23.47"/>
</g>
<!-- Node4 -->
<g id="node4" class="node">
<title>Node4</title>
<g id="a_node4"><a xlink:title=" ">
<polygon fill="none" stroke="#bfbfbf" points="152,-0.5 152,-19.5 208,-19.5 208,-0.5 152,-0.5"/>
<text text-anchor="middle" x="180" y="-7.5" font-family="Helvetica,sans-Serif" font-size="10.00">algorithm</text>
</a>
</g>
</g>
<!-- Node1&#45;&gt;Node4 -->
<g id="edge3" class="edge">
<title>Node1&#45;&gt;Node4</title>
<path fill="none" stroke="midnightblue" d="M180,-56.4C180,-48.47 180,-38.46 180,-29.86"/>
<polygon fill="midnightblue" stroke="midnightblue" points="183.5,-29.66 180,-19.66 176.5,-29.66 183.5,-29.66"/>
</g>
<!-- Node5 -->
<g id="node5" class="node">
<title>Node5</title>
<g id="a_node5"><a xlink:title=" ">
<polygon fill="none" stroke="#bfbfbf" points="226,-0.5 226,-19.5 264,-19.5 264,-0.5 226,-0.5"/>
<text text-anchor="middle" x="245" y="-7.5" font-family="Helvetica,sans-Serif" font-size="10.00">array</text>
</a>
</g>
</g>
<!-- Node1&#45;&gt;Node5 -->
<g id="edge4" class="edge">
<title>Node1&#45;&gt;Node5</title>
<path fill="none" stroke="midnightblue" d="M195.4,-56.4C205.24,-47.4 217.99,-35.72 228.11,-26.47"/>
<polygon fill="midnightblue" stroke="midnightblue" points="230.53,-28.99 235.54,-19.66 225.8,-23.83 230.53,-28.99"/>
</g>
<!-- Node6 -->
<g id="node6" class="node">
<title>Node6</title>
<g id="a_node6"><a xlink:title=" ">
<polygon fill="none" stroke="#bfbfbf" points="282.5,-0.5 282.5,-19.5 325.5,-19.5 325.5,-0.5 282.5,-0.5"/>
<text text-anchor="middle" x="304" y="-7.5" font-family="Helvetica,sans-Serif" font-size="10.00">cstdio</text>
</a>
</g>
</g>
<!-- Node1&#45;&gt;Node6 -->
<g id="edge5" class="edge">
<title>Node1&#45;&gt;Node6</title>
<path fill="none" stroke="midnightblue" d="M209.39,-56.4C229.82,-46.59 256.86,-33.62 276.8,-24.05"/>
<polygon fill="midnightblue" stroke="midnightblue" points="278.46,-27.14 285.96,-19.66 275.43,-20.83 278.46,-27.14"/>
</g>
</g>
</svg>
