<?xml version="1.0" encoding="UTF-8" standalone="no"?>
<!DOCTYPE svg PUBLIC "-//W3C//DTD SVG 1.1//EN"
 "http://www.w3.org/Graphics/SVG/1.1/DTD/svg11.dtd">
<!-- Generated by graphviz version 6.0.1 (20220911.1526)
 -->
<!-- Title: /github/workspace/include/sensor/sensor.h Pages: 1 -->
<svg width="426pt" height="258pt"
 viewBox="0.00 0.00 426.00 258.00" xmlns="http://www.w3.org/2000/svg" xmlns:xlink="http://www.w3.org/1999/xlink">
<g id="graph0" class="graph" transform="scale(1 1) rotate(0) translate(4 254)">
<title>/github/workspace/include/sensor/sensor.h</title>
<!-- Node1 -->
<g id="node1" class="node">
<title>Node1</title>
<g id="a_node1"><a xlink:title=" ">
<polygon fill="#999999" stroke="#666666" points="273,-250 143,-250 143,-220 273,-220 273,-250"/>
<text text-anchor="start" x="151" y="-238" font-family="Helvetica,sans-Serif" font-size="10.00">/github/workspace/include</text>
<text text-anchor="middle" x="208" y="-227" font-family="Helvetica,sans-Serif" font-size="10.00">/sensor/sensor.h</text>
</a>
</g>
</g>
<!-- Node2 -->
<g id="node2" class="node">
<title>Node2</title>
<g id="a_node2"><a xlink:href="debug1_8h.html" target="_top" xlink:title=" ">
<polygon fill="white" stroke="#666666" points="56,-184 0,-184 0,-165 56,-165 56,-184"/>
<text text-anchor="middle" x="28" y="-172" font-family="Helvetica,sans-Serif" font-size="10.00">debug1.h</text>
</a>
</g>
</g>
<!-- Node1&#45;&gt;Node2 -->
<g id="edge1" class="edge">
<title>Node1&#45;&gt;Node2</title>
<path fill="none" stroke="#63b8ff" d="M164.89,-219.99C134.09,-209.98 93.13,-196.67 64.07,-187.22"/>
<polygon fill="#63b8ff" stroke="#63b8ff" points="64.91,-183.82 54.32,-184.05 62.75,-190.47 64.91,-183.82"/>
</g>
<!-- Node3 -->
<g id="node3" class="node">
<title>Node3</title>
<g id="a_node3"><a xlink:title=" ">
<polygon fill="#e0e0e0" stroke="#999999" points="77.5,-129 34.5,-129 34.5,-110 77.5,-110 77.5,-129"/>
<text text-anchor="middle" x="56" y="-117" font-family="Helvetica,sans-Serif" font-size="10.00">cstdio</text>
</a>
</g>
</g>
<!-- Node1&#45;&gt;Node3 -->
<g id="edge15" class="edge">
<title>Node1&#45;&gt;Node3</title>
<path fill="none" stroke="#63b8ff" d="M166.93,-219.91C146.35,-211.55 121.86,-199.53 103,-184 87.5,-171.23 74.35,-152.29 65.94,-138.42"/>
<polygon fill="#63b8ff" stroke="#63b8ff" points="68.73,-136.26 60.68,-129.37 62.68,-139.78 68.73,-136.26"/>
</g>
<!-- Node4 -->
<g id="node4" class="node">
<title>Node4</title>
<g id="a_node4"><a xlink:title=" ">
<polygon fill="#e0e0e0" stroke="#999999" points="180,-184 112,-184 112,-165 180,-165 180,-184"/>
<text text-anchor="middle" x="146" y="-172" font-family="Helvetica,sans-Serif" font-size="10.00">arm_math.h</text>
</a>
</g>
</g>
<!-- Node1&#45;&gt;Node4 -->
<g id="edge3" class="edge">
<title>Node1&#45;&gt;Node4</title>
<path fill="none" stroke="#63b8ff" d="M192.99,-219.84C183.81,-211.17 172.05,-200.08 162.59,-191.15"/>
<polygon fill="#63b8ff" stroke="#63b8ff" points="164.97,-188.58 155.29,-184.27 160.16,-193.67 164.97,-188.58"/>
</g>
<!-- Node5 -->
<g id="node5" class="node">
<title>Node5</title>
<g id="a_node5"><a xlink:title=" ">
<polygon fill="#e0e0e0" stroke="#999999" points="289,-19 241,-19 241,0 289,0 289,-19"/>
<text text-anchor="middle" x="265" y="-7" font-family="Helvetica,sans-Serif" font-size="10.00">mbed.h</text>
</a>
</g>
</g>
<!-- Node1&#45;&gt;Node5 -->
<g id="edge4" class="edge">
<title>Node1&#45;&gt;Node5</title>
<path fill="none" stroke="#63b8ff" d="M211.65,-219.68C221.6,-180.68 249.16,-72.61 260.27,-29.05"/>
<polygon fill="#63b8ff" stroke="#63b8ff" points="263.69,-29.79 262.77,-19.23 256.91,-28.06 263.69,-29.79"/>
</g>
<!-- Node6 -->
<g id="node6" class="node">
<title>Node6</title>
<g id="a_node6"><a xlink:href="helper_8h.html" target="_top" xlink:title=" ">
<polygon fill="white" stroke="#666666" points="286,-184 236,-184 236,-165 286,-165 286,-184"/>
<text text-anchor="middle" x="261" y="-172" font-family="Helvetica,sans-Serif" font-size="10.00">helper.h</text>
</a>
</g>
</g>
<!-- Node1&#45;&gt;Node6 -->
<g id="edge5" class="edge">
<title>Node1&#45;&gt;Node6</title>
<path fill="none" stroke="#63b8ff" d="M220.83,-219.84C228.52,-211.35 238.33,-200.52 246.33,-191.69"/>
<polygon fill="#63b8ff" stroke="#63b8ff" points="248.94,-194.03 253.06,-184.27 243.75,-189.33 248.94,-194.03"/>
</g>
<!-- Node11 -->
<g id="node11" class="node">
<title>Node11</title>
<g id="a_node11"><a xlink:title=" ">
<polygon fill="#e0e0e0" stroke="#999999" points="360,-184 304,-184 304,-165 360,-165 360,-184"/>
<text text-anchor="middle" x="332" y="-172" font-family="Helvetica,sans-Serif" font-size="10.00">algorithm</text>
</a>
</g>
</g>
<!-- Node1&#45;&gt;Node11 -->
<g id="edge13" class="edge">
<title>Node1&#45;&gt;Node11</title>
<path fill="none" stroke="#63b8ff" d="M237.7,-219.99C258.02,-210.4 284.76,-197.79 304.58,-188.44"/>
<polygon fill="#63b8ff" stroke="#63b8ff" points="306.14,-191.57 313.69,-184.14 303.15,-185.24 306.14,-191.57"/>
</g>
<!-- Node12 -->
<g id="node12" class="node">
<title>Node12</title>
<g id="a_node12"><a xlink:title=" ">
<polygon fill="#e0e0e0" stroke="#999999" points="416,-184 378,-184 378,-165 416,-165 416,-184"/>
<text text-anchor="middle" x="397" y="-172" font-family="Helvetica,sans-Serif" font-size="10.00">array</text>
</a>
</g>
</g>
<!-- Node1&#45;&gt;Node12 -->
<g id="edge14" class="edge">
<title>Node1&#45;&gt;Node12</title>
<path fill="none" stroke="#63b8ff" d="M253.27,-219.99C288.98,-208.93 337.71,-193.85 368.26,-184.4"/>
<polygon fill="#63b8ff" stroke="#63b8ff" points="369.36,-187.72 377.88,-181.42 367.29,-181.03 369.36,-187.72"/>
</g>
<!-- Node2&#45;&gt;Node3 -->
<g id="edge2" class="edge">
<title>Node2&#45;&gt;Node3</title>
<path fill="none" stroke="#63b8ff" d="M32.62,-164.75C36.46,-157.49 42.02,-146.95 46.76,-137.98"/>
<polygon fill="#63b8ff" stroke="#63b8ff" points="49.89,-139.57 51.46,-129.09 43.7,-136.3 49.89,-139.57"/>
</g>
<!-- Node6&#45;&gt;Node5 -->
<g id="edge11" class="edge">
<title>Node6&#45;&gt;Node5</title>
<path fill="none" stroke="#63b8ff" d="M261.22,-164.74C261.84,-139.31 263.66,-65.08 264.53,-29.69"/>
<polygon fill="#63b8ff" stroke="#63b8ff" points="268.04,-29.39 264.78,-19.31 261.04,-29.22 268.04,-29.39"/>
</g>
<!-- Node7 -->
<g id="node7" class="node">
<title>Node7</title>
<g id="a_node7"><a xlink:href="encoder_8h.html" target="_top" xlink:title=" ">
<polygon fill="white" stroke="#666666" points="333.5,-129 274.5,-129 274.5,-110 333.5,-110 333.5,-129"/>
<text text-anchor="middle" x="304" y="-117" font-family="Helvetica,sans-Serif" font-size="10.00">encoder.h</text>
</a>
</g>
</g>
<!-- Node6&#45;&gt;Node7 -->
<g id="edge6" class="edge">
<title>Node6&#45;&gt;Node7</title>
<path fill="none" stroke="#63b8ff" d="M268.1,-164.75C274.17,-157.26 283.09,-146.28 290.51,-137.13"/>
<polygon fill="#63b8ff" stroke="#63b8ff" points="293.45,-139.06 297.03,-129.09 288.01,-134.65 293.45,-139.06"/>
</g>
<!-- Node10 -->
<g id="node10" class="node">
<title>Node10</title>
<g id="a_node10"><a xlink:title=" ">
<polygon fill="#e0e0e0" stroke="#999999" points="410.5,-129 351.5,-129 351.5,-110 410.5,-110 410.5,-129"/>
<text text-anchor="middle" x="381" y="-117" font-family="Helvetica,sans-Serif" font-size="10.00">functional</text>
</a>
</g>
</g>
<!-- Node6&#45;&gt;Node10 -->
<g id="edge12" class="edge">
<title>Node6&#45;&gt;Node10</title>
<path fill="none" stroke="#63b8ff" d="M280.28,-164.98C299.67,-156.42 329.81,-143.11 352.07,-133.28"/>
<polygon fill="#63b8ff" stroke="#63b8ff" points="353.64,-136.41 361.37,-129.17 350.81,-130.01 353.64,-136.41"/>
</g>
<!-- Node7&#45;&gt;Node5 -->
<g id="edge9" class="edge">
<title>Node7&#45;&gt;Node5</title>
<path fill="none" stroke="#63b8ff" d="M300.81,-109.66C294.43,-92.01 280.02,-52.09 271.55,-28.64"/>
<polygon fill="#63b8ff" stroke="#63b8ff" points="274.82,-27.38 268.13,-19.16 268.23,-29.75 274.82,-27.38"/>
</g>
<!-- Node8 -->
<g id="node8" class="node">
<title>Node8</title>
<g id="a_node8"><a xlink:href="_q_e_i_8h.html" target="_top" xlink:title=" ">
<polygon fill="white" stroke="#666666" points="353.5,-74 312.5,-74 312.5,-55 353.5,-55 353.5,-74"/>
<text text-anchor="middle" x="333" y="-62" font-family="Helvetica,sans-Serif" font-size="10.00">QEI.h</text>
</a>
</g>
</g>
<!-- Node7&#45;&gt;Node8 -->
<g id="edge7" class="edge">
<title>Node7&#45;&gt;Node8</title>
<path fill="none" stroke="#63b8ff" d="M308.79,-109.75C312.76,-102.49 318.53,-91.95 323.43,-82.98"/>
<polygon fill="#63b8ff" stroke="#63b8ff" points="326.57,-84.54 328.3,-74.09 320.43,-81.18 326.57,-84.54"/>
</g>
<!-- Node9 -->
<g id="node9" class="node">
<title>Node9</title>
<g id="a_node9"><a xlink:title=" ">
<polygon fill="#e0e0e0" stroke="#999999" points="418,-74 372,-74 372,-55 418,-55 418,-74"/>
<text text-anchor="middle" x="395" y="-62" font-family="Helvetica,sans-Serif" font-size="10.00">chrono</text>
</a>
</g>
</g>
<!-- Node7&#45;&gt;Node9 -->
<g id="edge10" class="edge">
<title>Node7&#45;&gt;Node9</title>
<path fill="none" stroke="#63b8ff" d="M318.62,-109.98C332.86,-101.69 354.75,-88.94 371.45,-79.22"/>
<polygon fill="#63b8ff" stroke="#63b8ff" points="373.23,-82.23 380.11,-74.17 369.71,-76.18 373.23,-82.23"/>
</g>
<!-- Node8&#45;&gt;Node5 -->
<g id="edge8" class="edge">
<title>Node8&#45;&gt;Node5</title>
<path fill="none" stroke="#63b8ff" d="M322.07,-54.98C311.92,-47.07 296.58,-35.11 284.35,-25.58"/>
<polygon fill="#63b8ff" stroke="#63b8ff" points="286.16,-22.56 276.12,-19.17 281.86,-28.08 286.16,-22.56"/>
</g>
</g>
</svg>
