<?xml version="1.0" encoding="UTF-8" standalone="no"?>
<!DOCTYPE svg PUBLIC "-//W3C//DTD SVG 1.1//EN"
 "http://www.w3.org/Graphics/SVG/1.1/DTD/svg11.dtd">
<!-- Generated by graphviz version 5.0.0 (20220708.1001)
 -->
<!-- Title: /github/workspace/include/sensor/sensor.h Pages: 1 -->
<svg width="426pt" height="263pt"
 viewBox="0.00 0.00 426.00 263.00" xmlns="http://www.w3.org/2000/svg" xmlns:xlink="http://www.w3.org/1999/xlink">
<g id="graph0" class="graph" transform="scale(1 1) rotate(0) translate(4 259)">
<title>/github/workspace/include/sensor/sensor.h</title>
<!-- Node1 -->
<g id="node1" class="node">
<title>Node1</title>
<g id="a_node1"><a xlink:title=" ">
<polygon fill="#bfbfbf" stroke="black" points="143,-224.5 143,-254.5 273,-254.5 273,-224.5 143,-224.5"/>
<text text-anchor="start" x="151" y="-242.5" font-family="Helvetica,sans-Serif" font-size="10.00">/github/workspace/include</text>
<text text-anchor="middle" x="208" y="-231.5" font-family="Helvetica,sans-Serif" font-size="10.00">/sensor/sensor.h</text>
</a>
</g>
</g>
<!-- Node2 -->
<g id="node2" class="node">
<title>Node2</title>
<g id="a_node2"><a xlink:href="debug1_8h.html" target="_top" xlink:title=" ">
<polygon fill="none" stroke="black" points="0,-168.5 0,-187.5 56,-187.5 56,-168.5 0,-168.5"/>
<text text-anchor="middle" x="28" y="-175.5" font-family="Helvetica,sans-Serif" font-size="10.00">debug1.h</text>
</a>
</g>
</g>
<!-- Node1&#45;&gt;Node2 -->
<g id="edge1" class="edge">
<title>Node1&#45;&gt;Node2</title>
<path fill="none" stroke="midnightblue" d="M165.34,-224.4C134.37,-214.16 92.95,-200.47 63.72,-190.81"/>
<polygon fill="midnightblue" stroke="midnightblue" points="64.52,-187.39 53.93,-187.57 62.33,-194.03 64.52,-187.39"/>
</g>
<!-- Node3 -->
<g id="node3" class="node">
<title>Node3</title>
<g id="a_node3"><a xlink:title=" ">
<polygon fill="none" stroke="#bfbfbf" points="34.5,-112.5 34.5,-131.5 77.5,-131.5 77.5,-112.5 34.5,-112.5"/>
<text text-anchor="middle" x="56" y="-119.5" font-family="Helvetica,sans-Serif" font-size="10.00">cstdio</text>
</a>
</g>
</g>
<!-- Node1&#45;&gt;Node3 -->
<g id="edge15" class="edge">
<title>Node1&#45;&gt;Node3</title>
<path fill="none" stroke="midnightblue" d="M167.37,-224.49C146.66,-216.04 121.93,-203.83 103,-188 87.03,-174.64 73.68,-154.72 65.34,-140.45"/>
<polygon fill="midnightblue" stroke="midnightblue" points="68.34,-138.64 60.4,-131.63 62.23,-142.07 68.34,-138.64"/>
</g>
<!-- Node4 -->
<g id="node4" class="node">
<title>Node4</title>
<g id="a_node4"><a xlink:title=" ">
<polygon fill="none" stroke="#bfbfbf" points="112,-168.5 112,-187.5 180,-187.5 180,-168.5 112,-168.5"/>
<text text-anchor="middle" x="146" y="-175.5" font-family="Helvetica,sans-Serif" font-size="10.00">arm_math.h</text>
</a>
</g>
</g>
<!-- Node1&#45;&gt;Node4 -->
<g id="edge3" class="edge">
<title>Node1&#45;&gt;Node4</title>
<path fill="none" stroke="midnightblue" d="M193.31,-224.4C184.02,-215.49 172,-203.95 162.4,-194.74"/>
<polygon fill="midnightblue" stroke="midnightblue" points="164.66,-192.06 155.02,-187.66 159.81,-197.11 164.66,-192.06"/>
</g>
<!-- Node5 -->
<g id="node5" class="node">
<title>Node5</title>
<g id="a_node5"><a xlink:title=" ">
<polygon fill="none" stroke="#bfbfbf" points="241,-0.5 241,-19.5 289,-19.5 289,-0.5 241,-0.5"/>
<text text-anchor="middle" x="265" y="-7.5" font-family="Helvetica,sans-Serif" font-size="10.00">mbed.h</text>
</a>
</g>
</g>
<!-- Node1&#45;&gt;Node5 -->
<g id="edge4" class="edge">
<title>Node1&#45;&gt;Node5</title>
<path fill="none" stroke="midnightblue" d="M211.57,-224.27C221.45,-184.81 249.21,-74.02 260.32,-29.68"/>
<polygon fill="midnightblue" stroke="midnightblue" points="263.73,-30.48 262.76,-19.93 256.94,-28.78 263.73,-30.48"/>
</g>
<!-- Node6 -->
<g id="node6" class="node">
<title>Node6</title>
<g id="a_node6"><a xlink:href="helper_8h.html" target="_top" xlink:title=" ">
<polygon fill="none" stroke="black" points="236,-168.5 236,-187.5 286,-187.5 286,-168.5 236,-168.5"/>
<text text-anchor="middle" x="261" y="-175.5" font-family="Helvetica,sans-Serif" font-size="10.00">helper.h</text>
</a>
</g>
</g>
<!-- Node1&#45;&gt;Node6 -->
<g id="edge5" class="edge">
<title>Node1&#45;&gt;Node6</title>
<path fill="none" stroke="midnightblue" d="M220.56,-224.4C228.34,-215.66 238.36,-204.41 246.48,-195.3"/>
<polygon fill="midnightblue" stroke="midnightblue" points="249.25,-197.45 253.29,-187.66 244.02,-192.8 249.25,-197.45"/>
</g>
<!-- Node11 -->
<g id="node11" class="node">
<title>Node11</title>
<g id="a_node11"><a xlink:title=" ">
<polygon fill="none" stroke="#bfbfbf" points="304,-168.5 304,-187.5 360,-187.5 360,-168.5 304,-168.5"/>
<text text-anchor="middle" x="332" y="-175.5" font-family="Helvetica,sans-Serif" font-size="10.00">algorithm</text>
</a>
</g>
</g>
<!-- Node1&#45;&gt;Node11 -->
<g id="edge13" class="edge">
<title>Node1&#45;&gt;Node11</title>
<path fill="none" stroke="midnightblue" d="M237.39,-224.4C257.82,-214.59 284.86,-201.62 304.8,-192.05"/>
<polygon fill="midnightblue" stroke="midnightblue" points="306.46,-195.14 313.96,-187.66 303.43,-188.83 306.46,-195.14"/>
</g>
<!-- Node12 -->
<g id="node12" class="node">
<title>Node12</title>
<g id="a_node12"><a xlink:title=" ">
<polygon fill="none" stroke="#bfbfbf" points="378,-168.5 378,-187.5 416,-187.5 416,-168.5 378,-168.5"/>
<text text-anchor="middle" x="397" y="-175.5" font-family="Helvetica,sans-Serif" font-size="10.00">array</text>
</a>
</g>
</g>
<!-- Node1&#45;&gt;Node12 -->
<g id="edge14" class="edge">
<title>Node1&#45;&gt;Node12</title>
<path fill="none" stroke="midnightblue" d="M253.14,-224.44C283.22,-215.04 323.89,-202.3 367.97,-188.31"/>
<polygon fill="midnightblue" stroke="midnightblue" points="369.25,-191.58 377.73,-185.21 367.14,-184.91 369.25,-191.58"/>
</g>
<!-- Node2&#45;&gt;Node3 -->
<g id="edge2" class="edge">
<title>Node2&#45;&gt;Node3</title>
<path fill="none" stroke="midnightblue" d="M32.62,-168.08C36.46,-160.69 42.02,-149.95 46.76,-140.81"/>
<polygon fill="midnightblue" stroke="midnightblue" points="49.97,-142.24 51.46,-131.75 43.75,-139.02 49.97,-142.24"/>
</g>
<!-- Node6&#45;&gt;Node5 -->
<g id="edge11" class="edge">
<title>Node6&#45;&gt;Node5</title>
<path fill="none" stroke="midnightblue" d="M261.22,-168.08C261.84,-141.95 263.69,-65.21 264.55,-29.58"/>
<polygon fill="midnightblue" stroke="midnightblue" points="268.05,-29.65 264.79,-19.57 261.05,-29.48 268.05,-29.65"/>
</g>
<!-- Node7 -->
<g id="node7" class="node">
<title>Node7</title>
<g id="a_node7"><a xlink:href="encoder_8h.html" target="_top" xlink:title=" ">
<polygon fill="none" stroke="black" points="274.5,-112.5 274.5,-131.5 333.5,-131.5 333.5,-112.5 274.5,-112.5"/>
<text text-anchor="middle" x="304" y="-119.5" font-family="Helvetica,sans-Serif" font-size="10.00">encoder.h</text>
</a>
</g>
</g>
<!-- Node6&#45;&gt;Node7 -->
<g id="edge6" class="edge">
<title>Node6&#45;&gt;Node7</title>
<path fill="none" stroke="midnightblue" d="M268.1,-168.08C274.24,-160.38 283.27,-149.03 290.74,-139.65"/>
<polygon fill="midnightblue" stroke="midnightblue" points="293.54,-141.75 297.03,-131.75 288.06,-137.39 293.54,-141.75"/>
</g>
<!-- Node10 -->
<g id="node10" class="node">
<title>Node10</title>
<g id="a_node10"><a xlink:title=" ">
<polygon fill="none" stroke="#bfbfbf" points="351.5,-112.5 351.5,-131.5 410.5,-131.5 410.5,-112.5 351.5,-112.5"/>
<text text-anchor="middle" x="381" y="-119.5" font-family="Helvetica,sans-Serif" font-size="10.00">functional</text>
</a>
</g>
</g>
<!-- Node6&#45;&gt;Node10 -->
<g id="edge12" class="edge">
<title>Node6&#45;&gt;Node10</title>
<path fill="none" stroke="midnightblue" d="M280.01,-168.44C299.59,-159.64 330.31,-145.81 352.73,-135.72"/>
<polygon fill="midnightblue" stroke="midnightblue" points="354.39,-138.81 362.07,-131.52 351.52,-132.43 354.39,-138.81"/>
</g>
<!-- Node7&#45;&gt;Node5 -->
<g id="edge9" class="edge">
<title>Node7&#45;&gt;Node5</title>
<path fill="none" stroke="midnightblue" d="M300.94,-112.37C294.62,-94.54 280,-53.3 271.48,-29.27"/>
<polygon fill="midnightblue" stroke="midnightblue" points="274.69,-27.85 268.05,-19.59 268.09,-30.19 274.69,-27.85"/>
</g>
<!-- Node8 -->
<g id="node8" class="node">
<title>Node8</title>
<g id="a_node8"><a xlink:href="_q_e_i_8h.html" target="_top" xlink:title=" ">
<polygon fill="none" stroke="black" points="312.5,-56.5 312.5,-75.5 353.5,-75.5 353.5,-56.5 312.5,-56.5"/>
<text text-anchor="middle" x="333" y="-63.5" font-family="Helvetica,sans-Serif" font-size="10.00">QEI.h</text>
</a>
</g>
</g>
<!-- Node7&#45;&gt;Node8 -->
<g id="edge7" class="edge">
<title>Node7&#45;&gt;Node8</title>
<path fill="none" stroke="midnightblue" d="M308.79,-112.08C312.76,-104.69 318.53,-93.95 323.43,-84.81"/>
<polygon fill="midnightblue" stroke="midnightblue" points="326.65,-86.22 328.3,-75.75 320.49,-82.91 326.65,-86.22"/>
</g>
<!-- Node9 -->
<g id="node9" class="node">
<title>Node9</title>
<g id="a_node9"><a xlink:title=" ">
<polygon fill="none" stroke="#bfbfbf" points="372,-56.5 372,-75.5 418,-75.5 418,-56.5 372,-56.5"/>
<text text-anchor="middle" x="395" y="-63.5" font-family="Helvetica,sans-Serif" font-size="10.00">chrono</text>
</a>
</g>
</g>
<!-- Node7&#45;&gt;Node9 -->
<g id="edge10" class="edge">
<title>Node7&#45;&gt;Node9</title>
<path fill="none" stroke="midnightblue" d="M318.62,-112.32C332.95,-103.82 355.01,-90.73 371.75,-80.8"/>
<polygon fill="midnightblue" stroke="midnightblue" points="373.6,-83.77 380.42,-75.65 370.03,-77.75 373.6,-83.77"/>
</g>
<!-- Node8&#45;&gt;Node5 -->
<g id="edge8" class="edge">
<title>Node8&#45;&gt;Node5</title>
<path fill="none" stroke="midnightblue" d="M322.07,-56.32C311.83,-48.18 296.28,-35.84 284,-26.09"/>
<polygon fill="midnightblue" stroke="midnightblue" points="286.13,-23.31 276.12,-19.83 281.78,-28.79 286.13,-23.31"/>
</g>
</g>
</svg>
