<?xml version="1.0" encoding="UTF-8" standalone="no"?>
<!DOCTYPE svg PUBLIC "-//W3C//DTD SVG 1.1//EN"
 "http://www.w3.org/Graphics/SVG/1.1/DTD/svg11.dtd">
<!-- Generated by graphviz version 3.0.0 (20220413.0106)
 -->
<!-- Title: /github/workspace/include/sensor/sensor.h Pages: 1 -->
<svg width="393pt" height="263pt"
 viewBox="0.00 0.00 393.00 263.00" xmlns="http://www.w3.org/2000/svg" xmlns:xlink="http://www.w3.org/1999/xlink">
<g id="graph0" class="graph" transform="scale(1 1) rotate(0) translate(4 259)">
<title>/github/workspace/include/sensor/sensor.h</title>
<!-- Node1 -->
<g id="node1" class="node">
<title>Node1</title>
<g id="a_node1"><a xlink:title=" ">
<polygon fill="#bfbfbf" stroke="black" points="153,-224.5 153,-254.5 283,-254.5 283,-224.5 153,-224.5"/>
<text text-anchor="start" x="161" y="-242.5" font-family="Helvetica,sans-Serif" font-size="10.00">/github/workspace/include</text>
<text text-anchor="middle" x="218" y="-231.5" font-family="Helvetica,sans-Serif" font-size="10.00">/sensor/sensor.h</text>
</a>
</g>
</g>
<!-- Node2 -->
<g id="node2" class="node">
<title>Node2</title>
<g id="a_node2"><a xlink:title=" ">
<polygon fill="none" stroke="#bfbfbf" points="0,-168.5 0,-187.5 68,-187.5 68,-168.5 0,-168.5"/>
<text text-anchor="middle" x="34" y="-175.5" font-family="Helvetica,sans-Serif" font-size="10.00">arm_math.h</text>
</a>
</g>
</g>
<!-- Node1&#45;&gt;Node2 -->
<g id="edge1" class="edge">
<title>Node1&#45;&gt;Node2</title>
<path fill="none" stroke="midnightblue" d="M174.39,-224.4C142.6,-214.12 100.03,-200.35 70.13,-190.68"/>
<polygon fill="midnightblue" stroke="midnightblue" points="71.1,-187.32 60.51,-187.57 68.94,-193.98 71.1,-187.32"/>
</g>
<!-- Node3 -->
<g id="node3" class="node">
<title>Node3</title>
<g id="a_node3"><a xlink:title=" ">
<polygon fill="none" stroke="#bfbfbf" points="129,-0.5 129,-19.5 177,-19.5 177,-0.5 129,-0.5"/>
<text text-anchor="middle" x="153" y="-7.5" font-family="Helvetica,sans-Serif" font-size="10.00">mbed.h</text>
</a>
</g>
</g>
<!-- Node1&#45;&gt;Node3 -->
<g id="edge2" class="edge">
<title>Node1&#45;&gt;Node3</title>
<path fill="none" stroke="midnightblue" d="M194.92,-224.34C182.23,-215.41 167.23,-202.78 158,-188 126.68,-137.82 133.31,-114.65 141,-56 142.16,-47.18 144.53,-37.63 146.87,-29.61"/>
<polygon fill="midnightblue" stroke="midnightblue" points="150.29,-30.42 149.91,-19.83 143.6,-28.34 150.29,-30.42"/>
</g>
<!-- Node4 -->
<g id="node4" class="node">
<title>Node4</title>
<g id="a_node4"><a xlink:href="helper_8h.html" target="_top" xlink:title=" ">
<polygon fill="none" stroke="black" points="167,-168.5 167,-187.5 217,-187.5 217,-168.5 167,-168.5"/>
<text text-anchor="middle" x="192" y="-175.5" font-family="Helvetica,sans-Serif" font-size="10.00">helper.h</text>
</a>
</g>
</g>
<!-- Node1&#45;&gt;Node4 -->
<g id="edge3" class="edge">
<title>Node1&#45;&gt;Node4</title>
<path fill="none" stroke="midnightblue" d="M211.84,-224.4C208.26,-216.2 203.7,-205.78 199.86,-196.99"/>
<polygon fill="midnightblue" stroke="midnightblue" points="202.99,-195.42 195.78,-187.66 196.58,-198.22 202.99,-195.42"/>
</g>
<!-- Node9 -->
<g id="node9" class="node">
<title>Node9</title>
<g id="a_node9"><a xlink:title=" ">
<polygon fill="none" stroke="#bfbfbf" points="316.5,-112.5 316.5,-131.5 359.5,-131.5 359.5,-112.5 316.5,-112.5"/>
<text text-anchor="middle" x="338" y="-119.5" font-family="Helvetica,sans-Serif" font-size="10.00">cstdio</text>
</a>
</g>
</g>
<!-- Node1&#45;&gt;Node9 -->
<g id="edge14" class="edge">
<title>Node1&#45;&gt;Node9</title>
<path fill="none" stroke="midnightblue" d="M224.74,-224.47C232.58,-209.22 246.68,-184.78 264,-168 277.38,-155.04 295.13,-144.09 309.9,-136.23"/>
<polygon fill="midnightblue" stroke="midnightblue" points="311.79,-139.2 319.1,-131.53 308.6,-132.97 311.79,-139.2"/>
</g>
<!-- Node10 -->
<g id="node10" class="node">
<title>Node10</title>
<g id="a_node10"><a xlink:title=" ">
<polygon fill="none" stroke="#bfbfbf" points="273,-168.5 273,-187.5 329,-187.5 329,-168.5 273,-168.5"/>
<text text-anchor="middle" x="301" y="-175.5" font-family="Helvetica,sans-Serif" font-size="10.00">algorithm</text>
</a>
</g>
</g>
<!-- Node1&#45;&gt;Node10 -->
<g id="edge12" class="edge">
<title>Node1&#45;&gt;Node10</title>
<path fill="none" stroke="midnightblue" d="M237.67,-224.4C250.6,-215.13 267.49,-203.03 280.57,-193.65"/>
<polygon fill="midnightblue" stroke="midnightblue" points="282.83,-196.33 288.92,-187.66 278.76,-190.64 282.83,-196.33"/>
</g>
<!-- Node11 -->
<g id="node11" class="node">
<title>Node11</title>
<g id="a_node11"><a xlink:title=" ">
<polygon fill="none" stroke="#bfbfbf" points="347,-168.5 347,-187.5 385,-187.5 385,-168.5 347,-168.5"/>
<text text-anchor="middle" x="366" y="-175.5" font-family="Helvetica,sans-Serif" font-size="10.00">array</text>
</a>
</g>
</g>
<!-- Node1&#45;&gt;Node11 -->
<g id="edge13" class="edge">
<title>Node1&#45;&gt;Node11</title>
<path fill="none" stroke="midnightblue" d="M253.07,-224.4C278.77,-214.07 313.21,-200.22 337.28,-190.55"/>
<polygon fill="midnightblue" stroke="midnightblue" points="338.61,-193.78 346.59,-186.8 336,-187.29 338.61,-193.78"/>
</g>
<!-- Node4&#45;&gt;Node3 -->
<g id="edge9" class="edge">
<title>Node4&#45;&gt;Node3</title>
<path fill="none" stroke="midnightblue" d="M181.31,-168.29C172.11,-160.05 159.47,-146.77 154,-132 141.27,-97.65 145.42,-53.95 149.36,-29.58"/>
<polygon fill="midnightblue" stroke="midnightblue" points="152.83,-30.03 151.15,-19.57 145.94,-28.8 152.83,-30.03"/>
</g>
<!-- Node5 -->
<g id="node5" class="node">
<title>Node5</title>
<g id="a_node5"><a xlink:href="encoder_8h.html" target="_top" xlink:title=" ">
<polygon fill="none" stroke="black" points="162.5,-112.5 162.5,-131.5 221.5,-131.5 221.5,-112.5 162.5,-112.5"/>
<text text-anchor="middle" x="192" y="-119.5" font-family="Helvetica,sans-Serif" font-size="10.00">encoder.h</text>
</a>
</g>
</g>
<!-- Node4&#45;&gt;Node5 -->
<g id="edge4" class="edge">
<title>Node4&#45;&gt;Node5</title>
<path fill="none" stroke="midnightblue" d="M192,-168.08C192,-161.01 192,-150.86 192,-141.99"/>
<polygon fill="midnightblue" stroke="midnightblue" points="195.5,-141.75 192,-131.75 188.5,-141.75 195.5,-141.75"/>
</g>
<!-- Node8 -->
<g id="node8" class="node">
<title>Node8</title>
<g id="a_node8"><a xlink:title=" ">
<polygon fill="none" stroke="#bfbfbf" points="239.5,-112.5 239.5,-131.5 298.5,-131.5 298.5,-112.5 239.5,-112.5"/>
<text text-anchor="middle" x="269" y="-119.5" font-family="Helvetica,sans-Serif" font-size="10.00">functional</text>
</a>
</g>
</g>
<!-- Node4&#45;&gt;Node8 -->
<g id="edge10" class="edge">
<title>Node4&#45;&gt;Node8</title>
<path fill="none" stroke="midnightblue" d="M204.37,-168.32C216.16,-160.06 234.13,-147.45 248.14,-137.63"/>
<polygon fill="midnightblue" stroke="midnightblue" points="250.48,-140.26 256.66,-131.65 246.46,-134.53 250.48,-140.26"/>
</g>
<!-- Node4&#45;&gt;Node9 -->
<g id="edge11" class="edge">
<title>Node4&#45;&gt;Node9</title>
<path fill="none" stroke="midnightblue" d="M215.13,-168.44C239.91,-159.28 279.37,-144.68 306.86,-134.52"/>
<polygon fill="midnightblue" stroke="midnightblue" points="308.24,-137.74 316.4,-130.99 305.81,-131.17 308.24,-137.74"/>
</g>
<!-- Node5&#45;&gt;Node3 -->
<g id="edge7" class="edge">
<title>Node5&#45;&gt;Node3</title>
<path fill="none" stroke="midnightblue" d="M188.94,-112.37C182.62,-94.54 168,-53.3 159.48,-29.27"/>
<polygon fill="midnightblue" stroke="midnightblue" points="162.69,-27.85 156.05,-19.59 156.09,-30.19 162.69,-27.85"/>
</g>
<!-- Node6 -->
<g id="node6" class="node">
<title>Node6</title>
<g id="a_node6"><a xlink:href="_q_e_i_8h.html" target="_top" xlink:title=" ">
<polygon fill="none" stroke="black" points="200.5,-56.5 200.5,-75.5 241.5,-75.5 241.5,-56.5 200.5,-56.5"/>
<text text-anchor="middle" x="221" y="-63.5" font-family="Helvetica,sans-Serif" font-size="10.00">QEI.h</text>
</a>
</g>
</g>
<!-- Node5&#45;&gt;Node6 -->
<g id="edge5" class="edge">
<title>Node5&#45;&gt;Node6</title>
<path fill="none" stroke="midnightblue" d="M196.79,-112.08C200.76,-104.69 206.53,-93.95 211.43,-84.81"/>
<polygon fill="midnightblue" stroke="midnightblue" points="214.65,-86.22 216.3,-75.75 208.49,-82.91 214.65,-86.22"/>
</g>
<!-- Node7 -->
<g id="node7" class="node">
<title>Node7</title>
<g id="a_node7"><a xlink:title=" ">
<polygon fill="none" stroke="#bfbfbf" points="260,-56.5 260,-75.5 306,-75.5 306,-56.5 260,-56.5"/>
<text text-anchor="middle" x="283" y="-63.5" font-family="Helvetica,sans-Serif" font-size="10.00">chrono</text>
</a>
</g>
</g>
<!-- Node5&#45;&gt;Node7 -->
<g id="edge8" class="edge">
<title>Node5&#45;&gt;Node7</title>
<path fill="none" stroke="midnightblue" d="M206.62,-112.32C220.95,-103.82 243.01,-90.73 259.75,-80.8"/>
<polygon fill="midnightblue" stroke="midnightblue" points="261.6,-83.77 268.42,-75.65 258.03,-77.75 261.6,-83.77"/>
</g>
<!-- Node6&#45;&gt;Node3 -->
<g id="edge6" class="edge">
<title>Node6&#45;&gt;Node3</title>
<path fill="none" stroke="midnightblue" d="M210.07,-56.32C199.83,-48.18 184.28,-35.84 172,-26.09"/>
<polygon fill="midnightblue" stroke="midnightblue" points="174.13,-23.31 164.12,-19.83 169.78,-28.79 174.13,-23.31"/>
</g>
</g>
</svg>
