<svg width="2269" height="1297" xmlns="http://www.w3.org/2000/svg" xmlns:xlink="http://www.w3.org/1999/xlink" overflow="hidden"><defs><clipPath id="clip0"><rect x="3278" y="3359" width="2269" height="1297"/></clipPath><clipPath id="clip1"><rect x="3279" y="3360" width="2265" height="1294"/></clipPath><clipPath id="clip2"><rect x="3410" y="3530" width="2087" height="1021"/></clipPath><clipPath id="clip3"><rect x="3279" y="3360" width="2265" height="1294"/></clipPath><clipPath id="clip4"><rect x="3279" y="3360" width="2265" height="1294"/></clipPath><clipPath id="clip5"><rect x="3279" y="3360" width="2265" height="1294"/></clipPath><clipPath id="clip6"><rect x="3279" y="3360" width="2265" height="1294"/></clipPath><clipPath id="clip7"><rect x="3279" y="3360" width="2265" height="1294"/></clipPath><clipPath id="clip8"><rect x="3279" y="3360" width="2265" height="1294"/></clipPath><clipPath id="clip9"><rect x="3279" y="3360" width="2265" height="1294"/></clipPath><clipPath id="clip10"><rect x="3279" y="3360" width="2265" height="1294"/></clipPath><clipPath id="clip11"><rect x="3279" y="3360" width="2265" height="1294"/></clipPath><clipPath id="clip12"><rect x="3279" y="3360" width="2265" height="1294"/></clipPath><clipPath id="clip13"><rect x="3279" y="3360" width="2265" height="1294"/></clipPath><clipPath id="clip14"><rect x="3279" y="3360" width="2265" height="1294"/></clipPath><clipPath id="clip15"><rect x="3279" y="3360" width="2265" height="1294"/></clipPath><clipPath id="clip16"><rect x="3279" y="3360" width="2265" height="1294"/></clipPath></defs><g clip-path="url(#clip0)" transform="translate(-3278 -3359)"><rect x="3279" y="3360" width="2266" height="1294" fill="#FFFFFF"/><g clip-path="url(#clip1)"><path d="M3410.5 4434.65 5494.5 4434.65M3410.5 4321.64 5494.5 4321.64M3410.5 4208.64 5494.5 4208.64M3410.5 4095.63 5494.5 4095.63M3410.5 3982.63 5494.5 3982.63M3410.5 3869.63 5494.5 3869.63M3410.5 3756.62 5494.5 3756.62M3410.5 3643.62 5494.5 3643.62M3410.5 3530.5 5494.5 3530.5" stroke="#D9D9D9" stroke-width="3.4375" stroke-linejoin="round" stroke-miterlimit="10" fill="none"/></g><g clip-path="url(#clip2)"><path d="M3768.12 3595.12 4094.13 3595.12 4094.13 4548 3768.12 4548ZM4810.16 3768.12 5136.17 3768.12 5136.17 4548 4810.16 4548Z" fill="#4472C4"/></g><g clip-path="url(#clip3)"><path d="M3410.5 4548.5 5494.5 4548.5" stroke="#D9D9D9" stroke-width="3.4375" stroke-linejoin="round" stroke-miterlimit="10" fill="none" fill-rule="evenodd"/></g><g clip-path="url(#clip4)"><text fill="#595959" font-family="Calibri,Calibri_MSFontService,sans-serif" font-weight="400" font-size="41" transform="matrix(1 0 0 1 3350.97 4560)">0</text></g><g clip-path="url(#clip5)"><text fill="#595959" font-family="Calibri,Calibri_MSFontService,sans-serif" font-weight="400" font-size="41" transform="matrix(1 0 0 1 3309.17 4447)">100</text></g><g clip-path="url(#clip6)"><text fill="#595959" font-family="Calibri,Calibri_MSFontService,sans-serif" font-weight="400" font-size="41" transform="matrix(1 0 0 1 3309.17 4333)">200</text></g><g clip-path="url(#clip7)"><text fill="#595959" font-family="Calibri,Calibri_MSFontService,sans-serif" font-weight="400" font-size="41" transform="matrix(1 0 0 1 3309.17 4220)">300</text></g><g clip-path="url(#clip8)"><text fill="#595959" font-family="Calibri,Calibri_MSFontService,sans-serif" font-weight="400" font-size="41" transform="matrix(1 0 0 1 3309.17 4107)">400</text></g><g clip-path="url(#clip9)"><text fill="#595959" font-family="Calibri,Calibri_MSFontService,sans-serif" font-weight="400" font-size="41" transform="matrix(1 0 0 1 3309.17 3994)">500</text></g><g clip-path="url(#clip10)"><text fill="#595959" font-family="Calibri,Calibri_MSFontService,sans-serif" font-weight="400" font-size="41" transform="matrix(1 0 0 1 3309.17 3881)">600</text></g><g clip-path="url(#clip11)"><text fill="#595959" font-family="Calibri,Calibri_MSFontService,sans-serif" font-weight="400" font-size="41" transform="matrix(1 0 0 1 3309.17 3768)">700</text></g><g clip-path="url(#clip12)"><text fill="#595959" font-family="Calibri,Calibri_MSFontService,sans-serif" font-weight="400" font-size="41" transform="matrix(1 0 0 1 3309.17 3655)">800</text></g><g clip-path="url(#clip13)"><text fill="#595959" font-family="Calibri,Calibri_MSFontService,sans-serif" font-weight="400" font-size="41" transform="matrix(1 0 0 1 3309.17 3542)">900</text></g><g clip-path="url(#clip14)"><text fill="#595959" font-family="Calibri,Calibri_MSFontService,sans-serif" font-weight="400" font-size="41" transform="matrix(1 0 0 1 3813.64 4613)">Weighted Avg</text></g><g clip-path="url(#clip15)"><text fill="#595959" font-family="Calibri,Calibri_MSFontService,sans-serif" font-weight="400" font-size="41" transform="matrix(1 0 0 1 4890.37 4613)">Quadratic</text></g><g clip-path="url(#clip16)"><text fill="#595959" font-family="Calibri,Calibri_MSFontService,sans-serif" font-weight="400" font-size="64" transform="matrix(1 0 0 1 4075.36 3456)">Time taken (2000 sample)</text></g><rect x="3279.5" y="3360.5" width="2266" height="1294" stroke="#D9D9D9" stroke-width="3.4375" stroke-linejoin="round" stroke-miterlimit="10" fill="none"/></g></svg>