<?xml version="1.0" encoding="UTF-8" standalone="no"?>
<!DOCTYPE svg PUBLIC "-//W3C//DTD SVG 1.1//EN"
 "http://www.w3.org/Graphics/SVG/1.1/DTD/svg11.dtd">
<!-- Generated by graphviz version 2.50.0 (20220203.2022)
 -->
<!-- Title: /github/workspace/include/wheelcontrol/wheelcontrol.h Pages: 1 -->
<svg width="277pt" height="319pt"
 viewBox="0.00 0.00 277.00 319.00" xmlns="http://www.w3.org/2000/svg" xmlns:xlink="http://www.w3.org/1999/xlink">
<g id="graph0" class="graph" transform="scale(1 1) rotate(0) translate(4 315)">
<title>/github/workspace/include/wheelcontrol/wheelcontrol.h</title>
<!-- Node1 -->
<g id="node1" class="node">
<title>Node1</title>
<g id="a_node1"><a xlink:title=" ">
<polygon fill="#bfbfbf" stroke="black" points="0,-280.5 0,-310.5 140,-310.5 140,-280.5 0,-280.5"/>
<text text-anchor="start" x="8" y="-298.5" font-family="Helvetica,sans-Serif" font-size="10.00">/github/workspace/include</text>
<text text-anchor="middle" x="70" y="-287.5" font-family="Helvetica,sans-Serif" font-size="10.00">/wheelcontrol/wheelcontrol.h</text>
</a>
</g>
</g>
<!-- Node2 -->
<g id="node2" class="node">
<title>Node2</title>
<g id="a_node2"><a xlink:title=" ">
<polygon fill="none" stroke="#bfbfbf" points="73,-0.5 73,-19.5 121,-19.5 121,-0.5 73,-0.5"/>
<text text-anchor="middle" x="97" y="-7.5" font-family="Helvetica,sans-Serif" font-size="10.00">mbed.h</text>
</a>
</g>
</g>
<!-- Node1&#45;&gt;Node2 -->
<g id="edge1" class="edge">
<title>Node1&#45;&gt;Node2</title>
<path fill="none" stroke="midnightblue" d="M59.61,-280.37C45.22,-259.38 21,-218.21 21,-179 21,-179 21,-179 21,-121 21,-81.28 54.96,-45.5 77.48,-26.15"/>
<polygon fill="midnightblue" stroke="midnightblue" points="79.98,-28.63 85.46,-19.57 75.52,-23.24 79.98,-28.63"/>
</g>
<!-- Node3 -->
<g id="node3" class="node">
<title>Node3</title>
<g id="a_node3"><a xlink:href="_p_i_d_8h.html" target="_top" xlink:title=" ">
<polygon fill="none" stroke="black" points="49.5,-224.5 49.5,-243.5 90.5,-243.5 90.5,-224.5 49.5,-224.5"/>
<text text-anchor="middle" x="70" y="-231.5" font-family="Helvetica,sans-Serif" font-size="10.00">PID.h</text>
</a>
</g>
</g>
<!-- Node1&#45;&gt;Node3 -->
<g id="edge2" class="edge">
<title>Node1&#45;&gt;Node3</title>
<path fill="none" stroke="midnightblue" d="M70,-280.4C70,-272.47 70,-262.46 70,-253.86"/>
<polygon fill="midnightblue" stroke="midnightblue" points="73.5,-253.66 70,-243.66 66.5,-253.66 73.5,-253.66"/>
</g>
<!-- Node9 -->
<g id="node9" class="node">
<title>Node9</title>
<g id="a_node9"><a xlink:title=" ">
<polygon fill="none" stroke="#bfbfbf" points="108.5,-224.5 108.5,-243.5 147.5,-243.5 147.5,-224.5 108.5,-224.5"/>
<text text-anchor="middle" x="128" y="-231.5" font-family="Helvetica,sans-Serif" font-size="10.00">utility</text>
</a>
</g>
</g>
<!-- Node1&#45;&gt;Node9 -->
<g id="edge12" class="edge">
<title>Node1&#45;&gt;Node9</title>
<path fill="none" stroke="midnightblue" d="M83.75,-280.4C92.35,-271.58 103.45,-260.18 112.39,-251.02"/>
<polygon fill="midnightblue" stroke="midnightblue" points="115.09,-253.26 119.56,-243.66 110.07,-248.38 115.09,-253.26"/>
</g>
<!-- Node3&#45;&gt;Node2 -->
<g id="edge11" class="edge">
<title>Node3&#45;&gt;Node2</title>
<path fill="none" stroke="midnightblue" d="M71.06,-224.3C75.03,-191.63 89.11,-75.87 94.69,-29.96"/>
<polygon fill="midnightblue" stroke="midnightblue" points="98.19,-30.23 95.92,-19.88 91.24,-29.39 98.19,-30.23"/>
</g>
<!-- Node4 -->
<g id="node4" class="node">
<title>Node4</title>
<g id="a_node4"><a xlink:href="helper_8h.html" target="_top" xlink:title=" ">
<polygon fill="none" stroke="black" points="108,-168.5 108,-187.5 158,-187.5 158,-168.5 108,-168.5"/>
<text text-anchor="middle" x="133" y="-175.5" font-family="Helvetica,sans-Serif" font-size="10.00">helper.h</text>
</a>
</g>
</g>
<!-- Node3&#45;&gt;Node4 -->
<g id="edge3" class="edge">
<title>Node3&#45;&gt;Node4</title>
<path fill="none" stroke="midnightblue" d="M80.12,-224.32C89.53,-216.26 103.74,-204.08 115.07,-194.37"/>
<polygon fill="midnightblue" stroke="midnightblue" points="117.38,-197 122.69,-187.83 112.82,-191.68 117.38,-197"/>
</g>
<!-- Node4&#45;&gt;Node2 -->
<g id="edge9" class="edge">
<title>Node4&#45;&gt;Node2</title>
<path fill="none" stroke="midnightblue" d="M129.06,-168.21C125.2,-159.27 119.42,-144.92 116,-132 106.61,-96.49 101.24,-53.81 98.74,-29.81"/>
<polygon fill="midnightblue" stroke="midnightblue" points="102.2,-29.24 97.74,-19.63 95.24,-29.93 102.2,-29.24"/>
</g>
<!-- Node5 -->
<g id="node5" class="node">
<title>Node5</title>
<g id="a_node5"><a xlink:href="encoder_8h.html" target="_top" xlink:title=" ">
<polygon fill="none" stroke="black" points="125.5,-112.5 125.5,-131.5 184.5,-131.5 184.5,-112.5 125.5,-112.5"/>
<text text-anchor="middle" x="155" y="-119.5" font-family="Helvetica,sans-Serif" font-size="10.00">encoder.h</text>
</a>
</g>
</g>
<!-- Node4&#45;&gt;Node5 -->
<g id="edge4" class="edge">
<title>Node4&#45;&gt;Node5</title>
<path fill="none" stroke="midnightblue" d="M136.63,-168.08C139.61,-160.77 143.93,-150.18 147.62,-141.1"/>
<polygon fill="midnightblue" stroke="midnightblue" points="150.9,-142.33 151.43,-131.75 144.42,-139.69 150.9,-142.33"/>
</g>
<!-- Node8 -->
<g id="node8" class="node">
<title>Node8</title>
<g id="a_node8"><a xlink:title=" ">
<polygon fill="none" stroke="#bfbfbf" points="202.5,-112.5 202.5,-131.5 261.5,-131.5 261.5,-112.5 202.5,-112.5"/>
<text text-anchor="middle" x="232" y="-119.5" font-family="Helvetica,sans-Serif" font-size="10.00">functional</text>
</a>
</g>
</g>
<!-- Node4&#45;&gt;Node8 -->
<g id="edge10" class="edge">
<title>Node4&#45;&gt;Node8</title>
<path fill="none" stroke="midnightblue" d="M148.91,-168.32C164.64,-159.74 188.94,-146.49 207.21,-136.52"/>
<polygon fill="midnightblue" stroke="midnightblue" points="209.03,-139.52 216.13,-131.65 205.68,-133.37 209.03,-139.52"/>
</g>
<!-- Node5&#45;&gt;Node2 -->
<g id="edge7" class="edge">
<title>Node5&#45;&gt;Node2</title>
<path fill="none" stroke="midnightblue" d="M150.45,-112.37C140.96,-94.38 118.91,-52.55 106.29,-28.63"/>
<polygon fill="midnightblue" stroke="midnightblue" points="109.29,-26.8 101.53,-19.59 103.1,-30.07 109.29,-26.8"/>
</g>
<!-- Node6 -->
<g id="node6" class="node">
<title>Node6</title>
<g id="a_node6"><a xlink:href="_q_e_i_8h.html" target="_top" xlink:title=" ">
<polygon fill="none" stroke="black" points="163.5,-56.5 163.5,-75.5 204.5,-75.5 204.5,-56.5 163.5,-56.5"/>
<text text-anchor="middle" x="184" y="-63.5" font-family="Helvetica,sans-Serif" font-size="10.00">QEI.h</text>
</a>
</g>
</g>
<!-- Node5&#45;&gt;Node6 -->
<g id="edge5" class="edge">
<title>Node5&#45;&gt;Node6</title>
<path fill="none" stroke="midnightblue" d="M159.79,-112.08C163.76,-104.69 169.53,-93.95 174.43,-84.81"/>
<polygon fill="midnightblue" stroke="midnightblue" points="177.65,-86.22 179.3,-75.75 171.49,-82.91 177.65,-86.22"/>
</g>
<!-- Node7 -->
<g id="node7" class="node">
<title>Node7</title>
<g id="a_node7"><a xlink:title=" ">
<polygon fill="none" stroke="#bfbfbf" points="223,-56.5 223,-75.5 269,-75.5 269,-56.5 223,-56.5"/>
<text text-anchor="middle" x="246" y="-63.5" font-family="Helvetica,sans-Serif" font-size="10.00">chrono</text>
</a>
</g>
</g>
<!-- Node5&#45;&gt;Node7 -->
<g id="edge8" class="edge">
<title>Node5&#45;&gt;Node7</title>
<path fill="none" stroke="midnightblue" d="M169.62,-112.32C183.95,-103.82 206.01,-90.73 222.75,-80.8"/>
<polygon fill="midnightblue" stroke="midnightblue" points="224.6,-83.77 231.42,-75.65 221.03,-77.75 224.6,-83.77"/>
</g>
<!-- Node6&#45;&gt;Node2 -->
<g id="edge6" class="edge">
<title>Node6&#45;&gt;Node2</title>
<path fill="none" stroke="midnightblue" d="M170.02,-56.32C156.45,-47.9 135.62,-34.97 119.68,-25.07"/>
<polygon fill="midnightblue" stroke="midnightblue" points="121.29,-21.95 110.94,-19.65 117.59,-27.9 121.29,-21.95"/>
</g>
</g>
</svg>
