<?xml version="1.0" encoding="UTF-8" standalone="no"?>
<!DOCTYPE svg PUBLIC "-//W3C//DTD SVG 1.1//EN"
 "http://www.w3.org/Graphics/SVG/1.1/DTD/svg11.dtd">
<!-- Generated by graphviz version 5.0.0 (20220708.1001)
 -->
<!-- Title: /github/workspace/include/wheelcontrol/wheelcontrol.h Pages: 1 -->
<svg width="460pt" height="319pt"
 viewBox="0.00 0.00 460.00 319.00" xmlns="http://www.w3.org/2000/svg" xmlns:xlink="http://www.w3.org/1999/xlink">
<g id="graph0" class="graph" transform="scale(1 1) rotate(0) translate(4 315)">
<title>/github/workspace/include/wheelcontrol/wheelcontrol.h</title>
<!-- Node1 -->
<g id="node1" class="node">
<title>Node1</title>
<g id="a_node1"><a xlink:title=" ">
<polygon fill="#bfbfbf" stroke="black" points="252,-280.5 252,-310.5 392,-310.5 392,-280.5 252,-280.5"/>
<text text-anchor="start" x="260" y="-298.5" font-family="Helvetica,sans-Serif" font-size="10.00">/github/workspace/include</text>
<text text-anchor="middle" x="322" y="-287.5" font-family="Helvetica,sans-Serif" font-size="10.00">/wheelcontrol/wheelcontrol.h</text>
</a>
</g>
</g>
<!-- Node2 -->
<g id="node2" class="node">
<title>Node2</title>
<g id="a_node2"><a xlink:href="debug1_8h.html" target="_top" xlink:title=" ">
<polygon fill="none" stroke="black" points="0,-168.5 0,-187.5 56,-187.5 56,-168.5 0,-168.5"/>
<text text-anchor="middle" x="28" y="-175.5" font-family="Helvetica,sans-Serif" font-size="10.00">debug1.h</text>
</a>
</g>
</g>
<!-- Node1&#45;&gt;Node2 -->
<g id="edge1" class="edge">
<title>Node1&#45;&gt;Node2</title>
<path fill="none" stroke="midnightblue" d="M251.68,-284.79C210.2,-277.3 157.48,-264.61 114,-244 87.21,-231.3 60.65,-209.43 44.29,-194.6"/>
<polygon fill="midnightblue" stroke="midnightblue" points="46.43,-191.81 36.72,-187.58 41.67,-196.94 46.43,-191.81"/>
</g>
<!-- Node4 -->
<g id="node4" class="node">
<title>Node4</title>
<g id="a_node4"><a xlink:title=" ">
<polygon fill="none" stroke="#bfbfbf" points="136,-0.5 136,-19.5 184,-19.5 184,-0.5 136,-0.5"/>
<text text-anchor="middle" x="160" y="-7.5" font-family="Helvetica,sans-Serif" font-size="10.00">mbed.h</text>
</a>
</g>
</g>
<!-- Node1&#45;&gt;Node4 -->
<g id="edge3" class="edge">
<title>Node1&#45;&gt;Node4</title>
<path fill="none" stroke="midnightblue" d="M322,-280.28C322,-258.48 322,-215.49 322,-179 322,-179 322,-179 322,-121 322,-90.9 324.06,-77.5 303,-56 274.28,-26.69 226.69,-16.41 194.37,-12.84"/>
<polygon fill="midnightblue" stroke="midnightblue" points="194.33,-9.32 184.04,-11.87 193.67,-16.29 194.33,-9.32"/>
</g>
<!-- Node5 -->
<g id="node5" class="node">
<title>Node5</title>
<g id="a_node5"><a xlink:href="_p_i_d_8h.html" target="_top" xlink:title=" ">
<polygon fill="none" stroke="black" points="123.5,-224.5 123.5,-243.5 164.5,-243.5 164.5,-224.5 123.5,-224.5"/>
<text text-anchor="middle" x="144" y="-231.5" font-family="Helvetica,sans-Serif" font-size="10.00">PID.h</text>
</a>
</g>
</g>
<!-- Node1&#45;&gt;Node5 -->
<g id="edge4" class="edge">
<title>Node1&#45;&gt;Node5</title>
<path fill="none" stroke="midnightblue" d="M279.82,-280.4C247.45,-269.58 203.52,-254.9 174.5,-245.2"/>
<polygon fill="midnightblue" stroke="midnightblue" points="175.49,-241.84 164.9,-241.99 173.27,-248.48 175.49,-241.84"/>
</g>
<!-- Node11 -->
<g id="node11" class="node">
<title>Node11</title>
<g id="a_node11"><a xlink:title=" ">
<polygon fill="none" stroke="#bfbfbf" points="350.5,-224.5 350.5,-243.5 389.5,-243.5 389.5,-224.5 350.5,-224.5"/>
<text text-anchor="middle" x="370" y="-231.5" font-family="Helvetica,sans-Serif" font-size="10.00">utility</text>
</a>
</g>
</g>
<!-- Node1&#45;&gt;Node11 -->
<g id="edge15" class="edge">
<title>Node1&#45;&gt;Node11</title>
<path fill="none" stroke="midnightblue" d="M333.38,-280.4C340.35,-271.75 349.31,-260.64 356.63,-251.58"/>
<polygon fill="midnightblue" stroke="midnightblue" points="359.46,-253.64 363.02,-243.66 354.01,-249.24 359.46,-253.64"/>
</g>
<!-- Node12 -->
<g id="node12" class="node">
<title>Node12</title>
<g id="a_node12"><a xlink:title=" ">
<polygon fill="none" stroke="#bfbfbf" points="408,-224.5 408,-243.5 452,-243.5 452,-224.5 408,-224.5"/>
<text text-anchor="middle" x="430" y="-231.5" font-family="Helvetica,sans-Serif" font-size="10.00">vector</text>
</a>
</g>
</g>
<!-- Node1&#45;&gt;Node12 -->
<g id="edge16" class="edge">
<title>Node1&#45;&gt;Node12</title>
<path fill="none" stroke="midnightblue" d="M347.59,-280.4C365.07,-270.77 388.09,-258.09 405.36,-248.58"/>
<polygon fill="midnightblue" stroke="midnightblue" points="407.22,-251.55 414.29,-243.66 403.84,-245.42 407.22,-251.55"/>
</g>
<!-- Node3 -->
<g id="node3" class="node">
<title>Node3</title>
<g id="a_node3"><a xlink:title=" ">
<polygon fill="none" stroke="#bfbfbf" points="6.5,-112.5 6.5,-131.5 49.5,-131.5 49.5,-112.5 6.5,-112.5"/>
<text text-anchor="middle" x="28" y="-119.5" font-family="Helvetica,sans-Serif" font-size="10.00">cstdio</text>
</a>
</g>
</g>
<!-- Node2&#45;&gt;Node3 -->
<g id="edge2" class="edge">
<title>Node2&#45;&gt;Node3</title>
<path fill="none" stroke="midnightblue" d="M28,-168.08C28,-161.01 28,-150.86 28,-141.99"/>
<polygon fill="midnightblue" stroke="midnightblue" points="31.5,-141.75 28,-131.75 24.5,-141.75 31.5,-141.75"/>
</g>
<!-- Node5&#45;&gt;Node2 -->
<g id="edge5" class="edge">
<title>Node5&#45;&gt;Node2</title>
<path fill="none" stroke="midnightblue" d="M125.62,-224.44C106.78,-215.68 77.27,-201.94 55.62,-191.86"/>
<polygon fill="midnightblue" stroke="midnightblue" points="56.84,-188.56 46.29,-187.52 53.88,-194.91 56.84,-188.56"/>
</g>
<!-- Node5&#45;&gt;Node4 -->
<g id="edge14" class="edge">
<title>Node5&#45;&gt;Node4</title>
<path fill="none" stroke="midnightblue" d="M139.12,-224.37C134.44,-215.55 127.69,-201.3 125,-188 123.24,-179.29 124.49,-176.87 125,-168 127.89,-117.97 123.9,-104.09 138,-56 140.78,-46.51 145.44,-36.57 149.75,-28.45"/>
<polygon fill="midnightblue" stroke="midnightblue" points="152.87,-30.04 154.69,-19.61 146.76,-26.63 152.87,-30.04"/>
</g>
<!-- Node6 -->
<g id="node6" class="node">
<title>Node6</title>
<g id="a_node6"><a xlink:href="helper_8h.html" target="_top" xlink:title=" ">
<polygon fill="none" stroke="black" points="134,-168.5 134,-187.5 184,-187.5 184,-168.5 134,-168.5"/>
<text text-anchor="middle" x="159" y="-175.5" font-family="Helvetica,sans-Serif" font-size="10.00">helper.h</text>
</a>
</g>
</g>
<!-- Node5&#45;&gt;Node6 -->
<g id="edge6" class="edge">
<title>Node5&#45;&gt;Node6</title>
<path fill="none" stroke="midnightblue" d="M146.48,-224.08C148.49,-216.85 151.39,-206.41 153.89,-197.4"/>
<polygon fill="midnightblue" stroke="midnightblue" points="157.26,-198.32 156.57,-187.75 150.52,-196.45 157.26,-198.32"/>
</g>
<!-- Node6&#45;&gt;Node4 -->
<g id="edge12" class="edge">
<title>Node6&#45;&gt;Node4</title>
<path fill="none" stroke="midnightblue" d="M154.38,-168.34C149.94,-159.49 143.55,-145.22 141,-132 133.99,-95.6 145.33,-52.68 153.29,-28.98"/>
<polygon fill="midnightblue" stroke="midnightblue" points="156.59,-30.14 156.63,-19.54 149.99,-27.8 156.59,-30.14"/>
</g>
<!-- Node7 -->
<g id="node7" class="node">
<title>Node7</title>
<g id="a_node7"><a xlink:href="encoder_8h.html" target="_top" xlink:title=" ">
<polygon fill="none" stroke="black" points="150.5,-112.5 150.5,-131.5 209.5,-131.5 209.5,-112.5 150.5,-112.5"/>
<text text-anchor="middle" x="180" y="-119.5" font-family="Helvetica,sans-Serif" font-size="10.00">encoder.h</text>
</a>
</g>
</g>
<!-- Node6&#45;&gt;Node7 -->
<g id="edge7" class="edge">
<title>Node6&#45;&gt;Node7</title>
<path fill="none" stroke="midnightblue" d="M162.47,-168.08C165.31,-160.77 169.43,-150.18 172.96,-141.1"/>
<polygon fill="midnightblue" stroke="midnightblue" points="176.23,-142.34 176.6,-131.75 169.71,-139.8 176.23,-142.34"/>
</g>
<!-- Node10 -->
<g id="node10" class="node">
<title>Node10</title>
<g id="a_node10"><a xlink:title=" ">
<polygon fill="none" stroke="#bfbfbf" points="227.5,-112.5 227.5,-131.5 286.5,-131.5 286.5,-112.5 227.5,-112.5"/>
<text text-anchor="middle" x="257" y="-119.5" font-family="Helvetica,sans-Serif" font-size="10.00">functional</text>
</a>
</g>
</g>
<!-- Node6&#45;&gt;Node10 -->
<g id="edge13" class="edge">
<title>Node6&#45;&gt;Node10</title>
<path fill="none" stroke="midnightblue" d="M174.75,-168.32C190.32,-159.74 214.38,-146.49 232.46,-136.52"/>
<polygon fill="midnightblue" stroke="midnightblue" points="234.22,-139.55 241.29,-131.65 230.85,-133.42 234.22,-139.55"/>
</g>
<!-- Node7&#45;&gt;Node4 -->
<g id="edge10" class="edge">
<title>Node7&#45;&gt;Node4</title>
<path fill="none" stroke="midnightblue" d="M178.43,-112.37C175.2,-94.62 167.76,-53.67 163.38,-29.6"/>
<polygon fill="midnightblue" stroke="midnightblue" points="166.79,-28.8 161.56,-19.59 159.91,-30.06 166.79,-28.8"/>
</g>
<!-- Node8 -->
<g id="node8" class="node">
<title>Node8</title>
<g id="a_node8"><a xlink:href="_q_e_i_8h.html" target="_top" xlink:title=" ">
<polygon fill="none" stroke="black" points="188.5,-56.5 188.5,-75.5 229.5,-75.5 229.5,-56.5 188.5,-56.5"/>
<text text-anchor="middle" x="209" y="-63.5" font-family="Helvetica,sans-Serif" font-size="10.00">QEI.h</text>
</a>
</g>
</g>
<!-- Node7&#45;&gt;Node8 -->
<g id="edge8" class="edge">
<title>Node7&#45;&gt;Node8</title>
<path fill="none" stroke="midnightblue" d="M184.79,-112.08C188.76,-104.69 194.53,-93.95 199.43,-84.81"/>
<polygon fill="midnightblue" stroke="midnightblue" points="202.65,-86.22 204.3,-75.75 196.49,-82.91 202.65,-86.22"/>
</g>
<!-- Node9 -->
<g id="node9" class="node">
<title>Node9</title>
<g id="a_node9"><a xlink:title=" ">
<polygon fill="none" stroke="#bfbfbf" points="248,-56.5 248,-75.5 294,-75.5 294,-56.5 248,-56.5"/>
<text text-anchor="middle" x="271" y="-63.5" font-family="Helvetica,sans-Serif" font-size="10.00">chrono</text>
</a>
</g>
</g>
<!-- Node7&#45;&gt;Node9 -->
<g id="edge11" class="edge">
<title>Node7&#45;&gt;Node9</title>
<path fill="none" stroke="midnightblue" d="M194.62,-112.32C208.95,-103.82 231.01,-90.73 247.75,-80.8"/>
<polygon fill="midnightblue" stroke="midnightblue" points="249.6,-83.77 256.42,-75.65 246.03,-77.75 249.6,-83.77"/>
</g>
<!-- Node8&#45;&gt;Node4 -->
<g id="edge9" class="edge">
<title>Node8&#45;&gt;Node4</title>
<path fill="none" stroke="midnightblue" d="M200.91,-56.08C193.84,-48.3 183.41,-36.8 174.85,-27.37"/>
<polygon fill="midnightblue" stroke="midnightblue" points="177.25,-24.8 167.94,-19.75 172.07,-29.51 177.25,-24.8"/>
</g>
</g>
</svg>
