<?xml version="1.0" encoding="UTF-8" standalone="no"?>
<!DOCTYPE svg PUBLIC "-//W3C//DTD SVG 1.1//EN"
 "http://www.w3.org/Graphics/SVG/1.1/DTD/svg11.dtd">
<!-- Generated by graphviz version 3.0.0 (20220413.0106)
 -->
<!-- Title: /github/workspace/include/wheelcontrol/wheelcontrol.h Pages: 1 -->
<svg width="310pt" height="319pt"
 viewBox="0.00 0.00 309.50 319.00" xmlns="http://www.w3.org/2000/svg" xmlns:xlink="http://www.w3.org/1999/xlink">
<g id="graph0" class="graph" transform="scale(1 1) rotate(0) translate(4 315)">
<title>/github/workspace/include/wheelcontrol/wheelcontrol.h</title>
<!-- Node1 -->
<g id="node1" class="node">
<title>Node1</title>
<g id="a_node1"><a xlink:title=" ">
<polygon fill="#bfbfbf" stroke="black" points="8,-280.5 8,-310.5 148,-310.5 148,-280.5 8,-280.5"/>
<text text-anchor="start" x="16" y="-298.5" font-family="Helvetica,sans-Serif" font-size="10.00">/github/workspace/include</text>
<text text-anchor="middle" x="78" y="-287.5" font-family="Helvetica,sans-Serif" font-size="10.00">/wheelcontrol/wheelcontrol.h</text>
</a>
</g>
</g>
<!-- Node2 -->
<g id="node2" class="node">
<title>Node2</title>
<g id="a_node2"><a xlink:title=" ">
<polygon fill="none" stroke="#bfbfbf" points="52,-0.5 52,-19.5 100,-19.5 100,-0.5 52,-0.5"/>
<text text-anchor="middle" x="76" y="-7.5" font-family="Helvetica,sans-Serif" font-size="10.00">mbed.h</text>
</a>
</g>
</g>
<!-- Node1&#45;&gt;Node2 -->
<g id="edge1" class="edge">
<title>Node1&#45;&gt;Node2</title>
<path fill="none" stroke="midnightblue" d="M55.81,-280.33C43.35,-271.32 28.44,-258.61 19,-244 2.67,-218.72 0,-209.1 0,-179 0,-179 0,-179 0,-121 0,-81.28 33.96,-45.5 56.48,-26.15"/>
<polygon fill="midnightblue" stroke="midnightblue" points="58.98,-28.63 64.46,-19.57 54.52,-23.24 58.98,-28.63"/>
</g>
<!-- Node3 -->
<g id="node3" class="node">
<title>Node3</title>
<g id="a_node3"><a xlink:href="_p_i_d_8h.html" target="_top" xlink:title=" ">
<polygon fill="none" stroke="black" points="28.5,-224.5 28.5,-243.5 69.5,-243.5 69.5,-224.5 28.5,-224.5"/>
<text text-anchor="middle" x="49" y="-231.5" font-family="Helvetica,sans-Serif" font-size="10.00">PID.h</text>
</a>
</g>
</g>
<!-- Node1&#45;&gt;Node3 -->
<g id="edge2" class="edge">
<title>Node1&#45;&gt;Node3</title>
<path fill="none" stroke="midnightblue" d="M71.13,-280.4C67.09,-272.11 61.94,-261.55 57.63,-252.71"/>
<polygon fill="midnightblue" stroke="midnightblue" points="60.75,-251.11 53.22,-243.66 54.45,-254.18 60.75,-251.11"/>
</g>
<!-- Node10 -->
<g id="node10" class="node">
<title>Node10</title>
<g id="a_node10"><a xlink:title=" ">
<polygon fill="none" stroke="#bfbfbf" points="87.5,-224.5 87.5,-243.5 126.5,-243.5 126.5,-224.5 87.5,-224.5"/>
<text text-anchor="middle" x="107" y="-231.5" font-family="Helvetica,sans-Serif" font-size="10.00">utility</text>
</a>
</g>
</g>
<!-- Node1&#45;&gt;Node10 -->
<g id="edge13" class="edge">
<title>Node1&#45;&gt;Node10</title>
<path fill="none" stroke="midnightblue" d="M84.87,-280.4C88.91,-272.11 94.06,-261.55 98.37,-252.71"/>
<polygon fill="midnightblue" stroke="midnightblue" points="101.55,-254.18 102.78,-243.66 95.25,-251.11 101.55,-254.18"/>
</g>
<!-- Node11 -->
<g id="node11" class="node">
<title>Node11</title>
<g id="a_node11"><a xlink:title=" ">
<polygon fill="none" stroke="#bfbfbf" points="145,-224.5 145,-243.5 189,-243.5 189,-224.5 145,-224.5"/>
<text text-anchor="middle" x="167" y="-231.5" font-family="Helvetica,sans-Serif" font-size="10.00">vector</text>
</a>
</g>
</g>
<!-- Node1&#45;&gt;Node11 -->
<g id="edge14" class="edge">
<title>Node1&#45;&gt;Node11</title>
<path fill="none" stroke="midnightblue" d="M99.09,-280.4C113.09,-271.04 131.41,-258.79 145.49,-249.38"/>
<polygon fill="midnightblue" stroke="midnightblue" points="147.68,-252.13 154.05,-243.66 143.79,-246.31 147.68,-252.13"/>
</g>
<!-- Node3&#45;&gt;Node2 -->
<g id="edge12" class="edge">
<title>Node3&#45;&gt;Node2</title>
<path fill="none" stroke="midnightblue" d="M50.06,-224.3C54.03,-191.63 68.11,-75.87 73.69,-29.96"/>
<polygon fill="midnightblue" stroke="midnightblue" points="77.19,-30.23 74.92,-19.88 70.24,-29.39 77.19,-30.23"/>
</g>
<!-- Node4 -->
<g id="node4" class="node">
<title>Node4</title>
<g id="a_node4"><a xlink:href="helper_8h.html" target="_top" xlink:title=" ">
<polygon fill="none" stroke="black" points="109,-168.5 109,-187.5 159,-187.5 159,-168.5 109,-168.5"/>
<text text-anchor="middle" x="134" y="-175.5" font-family="Helvetica,sans-Serif" font-size="10.00">helper.h</text>
</a>
</g>
</g>
<!-- Node3&#45;&gt;Node4 -->
<g id="edge3" class="edge">
<title>Node3&#45;&gt;Node4</title>
<path fill="none" stroke="midnightblue" d="M62.66,-224.32C75.92,-215.9 96.27,-202.97 111.85,-193.07"/>
<polygon fill="midnightblue" stroke="midnightblue" points="113.81,-195.97 120.38,-187.65 110.06,-190.06 113.81,-195.97"/>
</g>
<!-- Node4&#45;&gt;Node2 -->
<g id="edge9" class="edge">
<title>Node4&#45;&gt;Node2</title>
<path fill="none" stroke="midnightblue" d="M123.91,-168.46C114.79,-160.14 101.8,-146.63 95,-132 79.38,-98.37 76.22,-54.41 75.8,-29.8"/>
<polygon fill="midnightblue" stroke="midnightblue" points="79.3,-29.67 75.76,-19.68 72.3,-29.69 79.3,-29.67"/>
</g>
<!-- Node5 -->
<g id="node5" class="node">
<title>Node5</title>
<g id="a_node5"><a xlink:href="encoder_8h.html" target="_top" xlink:title=" ">
<polygon fill="none" stroke="black" points="104.5,-112.5 104.5,-131.5 163.5,-131.5 163.5,-112.5 104.5,-112.5"/>
<text text-anchor="middle" x="134" y="-119.5" font-family="Helvetica,sans-Serif" font-size="10.00">encoder.h</text>
</a>
</g>
</g>
<!-- Node4&#45;&gt;Node5 -->
<g id="edge4" class="edge">
<title>Node4&#45;&gt;Node5</title>
<path fill="none" stroke="midnightblue" d="M134,-168.08C134,-161.01 134,-150.86 134,-141.99"/>
<polygon fill="midnightblue" stroke="midnightblue" points="137.5,-141.75 134,-131.75 130.5,-141.75 137.5,-141.75"/>
</g>
<!-- Node8 -->
<g id="node8" class="node">
<title>Node8</title>
<g id="a_node8"><a xlink:title=" ">
<polygon fill="none" stroke="#bfbfbf" points="181.5,-112.5 181.5,-131.5 240.5,-131.5 240.5,-112.5 181.5,-112.5"/>
<text text-anchor="middle" x="211" y="-119.5" font-family="Helvetica,sans-Serif" font-size="10.00">functional</text>
</a>
</g>
</g>
<!-- Node4&#45;&gt;Node8 -->
<g id="edge10" class="edge">
<title>Node4&#45;&gt;Node8</title>
<path fill="none" stroke="midnightblue" d="M146.37,-168.32C158.16,-160.06 176.13,-147.45 190.14,-137.63"/>
<polygon fill="midnightblue" stroke="midnightblue" points="192.48,-140.26 198.66,-131.65 188.46,-134.53 192.48,-140.26"/>
</g>
<!-- Node9 -->
<g id="node9" class="node">
<title>Node9</title>
<g id="a_node9"><a xlink:title=" ">
<polygon fill="none" stroke="#bfbfbf" points="258.5,-112.5 258.5,-131.5 301.5,-131.5 301.5,-112.5 258.5,-112.5"/>
<text text-anchor="middle" x="280" y="-119.5" font-family="Helvetica,sans-Serif" font-size="10.00">cstdio</text>
</a>
</g>
</g>
<!-- Node4&#45;&gt;Node9 -->
<g id="edge11" class="edge">
<title>Node4&#45;&gt;Node9</title>
<path fill="none" stroke="midnightblue" d="M157.13,-168.44C181.91,-159.28 221.37,-144.68 248.86,-134.52"/>
<polygon fill="midnightblue" stroke="midnightblue" points="250.24,-137.74 258.4,-130.99 247.81,-131.17 250.24,-137.74"/>
</g>
<!-- Node5&#45;&gt;Node2 -->
<g id="edge7" class="edge">
<title>Node5&#45;&gt;Node2</title>
<path fill="none" stroke="midnightblue" d="M129.45,-112.37C119.96,-94.38 97.91,-52.55 85.29,-28.63"/>
<polygon fill="midnightblue" stroke="midnightblue" points="88.29,-26.8 80.53,-19.59 82.1,-30.07 88.29,-26.8"/>
</g>
<!-- Node6 -->
<g id="node6" class="node">
<title>Node6</title>
<g id="a_node6"><a xlink:href="_q_e_i_8h.html" target="_top" xlink:title=" ">
<polygon fill="none" stroke="black" points="142.5,-56.5 142.5,-75.5 183.5,-75.5 183.5,-56.5 142.5,-56.5"/>
<text text-anchor="middle" x="163" y="-63.5" font-family="Helvetica,sans-Serif" font-size="10.00">QEI.h</text>
</a>
</g>
</g>
<!-- Node5&#45;&gt;Node6 -->
<g id="edge5" class="edge">
<title>Node5&#45;&gt;Node6</title>
<path fill="none" stroke="midnightblue" d="M138.79,-112.08C142.76,-104.69 148.53,-93.95 153.43,-84.81"/>
<polygon fill="midnightblue" stroke="midnightblue" points="156.65,-86.22 158.3,-75.75 150.49,-82.91 156.65,-86.22"/>
</g>
<!-- Node7 -->
<g id="node7" class="node">
<title>Node7</title>
<g id="a_node7"><a xlink:title=" ">
<polygon fill="none" stroke="#bfbfbf" points="202,-56.5 202,-75.5 248,-75.5 248,-56.5 202,-56.5"/>
<text text-anchor="middle" x="225" y="-63.5" font-family="Helvetica,sans-Serif" font-size="10.00">chrono</text>
</a>
</g>
</g>
<!-- Node5&#45;&gt;Node7 -->
<g id="edge8" class="edge">
<title>Node5&#45;&gt;Node7</title>
<path fill="none" stroke="midnightblue" d="M148.62,-112.32C162.95,-103.82 185.01,-90.73 201.75,-80.8"/>
<polygon fill="midnightblue" stroke="midnightblue" points="203.6,-83.77 210.42,-75.65 200.03,-77.75 203.6,-83.77"/>
</g>
<!-- Node6&#45;&gt;Node2 -->
<g id="edge6" class="edge">
<title>Node6&#45;&gt;Node2</title>
<path fill="none" stroke="midnightblue" d="M149.02,-56.32C135.45,-47.9 114.62,-34.97 98.68,-25.07"/>
<polygon fill="midnightblue" stroke="midnightblue" points="100.29,-21.95 89.94,-19.65 96.59,-27.9 100.29,-21.95"/>
</g>
</g>
</svg>
