<?xml version="1.0" encoding="UTF-8" standalone="no"?>
<!DOCTYPE svg PUBLIC "-//W3C//DTD SVG 1.1//EN"
 "http://www.w3.org/Graphics/SVG/1.1/DTD/svg11.dtd">
<!-- Generated by graphviz version 6.0.1 (20220911.1526)
 -->
<!-- Title: /github/workspace/include/wheelcontrol/wheelcontrol.h Pages: 1 -->
<svg width="460pt" height="313pt"
 viewBox="0.00 0.00 460.00 313.00" xmlns="http://www.w3.org/2000/svg" xmlns:xlink="http://www.w3.org/1999/xlink">
<g id="graph0" class="graph" transform="scale(1 1) rotate(0) translate(4 309)">
<title>/github/workspace/include/wheelcontrol/wheelcontrol.h</title>
<!-- Node1 -->
<g id="node1" class="node">
<title>Node1</title>
<g id="a_node1"><a xlink:title=" ">
<polygon fill="#999999" stroke="#666666" points="392,-305 252,-305 252,-275 392,-275 392,-305"/>
<text text-anchor="start" x="260" y="-293" font-family="Helvetica,sans-Serif" font-size="10.00">/github/workspace/include</text>
<text text-anchor="middle" x="322" y="-282" font-family="Helvetica,sans-Serif" font-size="10.00">/wheelcontrol/wheelcontrol.h</text>
</a>
</g>
</g>
<!-- Node2 -->
<g id="node2" class="node">
<title>Node2</title>
<g id="a_node2"><a xlink:href="debug1_8h.html" target="_top" xlink:title=" ">
<polygon fill="white" stroke="#666666" points="56,-184 0,-184 0,-165 56,-165 56,-184"/>
<text text-anchor="middle" x="28" y="-172" font-family="Helvetica,sans-Serif" font-size="10.00">debug1.h</text>
</a>
</g>
</g>
<!-- Node1&#45;&gt;Node2 -->
<g id="edge1" class="edge">
<title>Node1&#45;&gt;Node2</title>
<path fill="none" stroke="#63b8ff" d="M251.76,-279.32C210.31,-271.87 157.6,-259.31 114,-239 87.64,-226.72 61.33,-205.68 44.88,-191.21"/>
<polygon fill="#63b8ff" stroke="#63b8ff" points="47.01,-188.41 37.24,-184.32 42.32,-193.61 47.01,-188.41"/>
</g>
<!-- Node4 -->
<g id="node4" class="node">
<title>Node4</title>
<g id="a_node4"><a xlink:title=" ">
<polygon fill="#e0e0e0" stroke="#999999" points="184,-19 136,-19 136,0 184,0 184,-19"/>
<text text-anchor="middle" x="160" y="-7" font-family="Helvetica,sans-Serif" font-size="10.00">mbed.h</text>
</a>
</g>
</g>
<!-- Node1&#45;&gt;Node4 -->
<g id="edge3" class="edge">
<title>Node1&#45;&gt;Node4</title>
<path fill="none" stroke="#63b8ff" d="M322,-274.67C322,-253.14 322,-211.17 322,-175.5 322,-175.5 322,-175.5 322,-118.5 322,-89.04 323.72,-75.94 303,-55 274.17,-25.85 226.61,-15.73 194.32,-12.25"/>
<polygon fill="#63b8ff" stroke="#63b8ff" points="194.29,-8.73 184.01,-11.31 193.65,-15.7 194.29,-8.73"/>
</g>
<!-- Node5 -->
<g id="node5" class="node">
<title>Node5</title>
<g id="a_node5"><a xlink:href="_p_i_d_8h.html" target="_top" xlink:title=" ">
<polygon fill="white" stroke="#666666" points="164.5,-239 123.5,-239 123.5,-220 164.5,-220 164.5,-239"/>
<text text-anchor="middle" x="144" y="-227" font-family="Helvetica,sans-Serif" font-size="10.00">PID.h</text>
</a>
</g>
</g>
<!-- Node1&#45;&gt;Node5 -->
<g id="edge4" class="edge">
<title>Node1&#45;&gt;Node5</title>
<path fill="none" stroke="#63b8ff" d="M279.36,-274.99C246.98,-264.34 203.23,-249.97 174.34,-240.47"/>
<polygon fill="#63b8ff" stroke="#63b8ff" points="175.38,-237.13 164.79,-237.33 173.2,-243.78 175.38,-237.13"/>
</g>
<!-- Node11 -->
<g id="node11" class="node">
<title>Node11</title>
<g id="a_node11"><a xlink:title=" ">
<polygon fill="#e0e0e0" stroke="#999999" points="389.5,-239 350.5,-239 350.5,-220 389.5,-220 389.5,-239"/>
<text text-anchor="middle" x="370" y="-227" font-family="Helvetica,sans-Serif" font-size="10.00">utility</text>
</a>
</g>
</g>
<!-- Node1&#45;&gt;Node11 -->
<g id="edge15" class="edge">
<title>Node1&#45;&gt;Node11</title>
<path fill="none" stroke="#63b8ff" d="M333.62,-274.84C340.44,-266.52 349.11,-255.96 356.27,-247.23"/>
<polygon fill="#63b8ff" stroke="#63b8ff" points="359.17,-249.22 362.81,-239.27 353.76,-244.78 359.17,-249.22"/>
</g>
<!-- Node12 -->
<g id="node12" class="node">
<title>Node12</title>
<g id="a_node12"><a xlink:title=" ">
<polygon fill="#e0e0e0" stroke="#999999" points="452,-239 408,-239 408,-220 452,-220 452,-239"/>
<text text-anchor="middle" x="430" y="-227" font-family="Helvetica,sans-Serif" font-size="10.00">vector</text>
</a>
</g>
</g>
<!-- Node1&#45;&gt;Node12 -->
<g id="edge16" class="edge">
<title>Node1&#45;&gt;Node12</title>
<path fill="none" stroke="#63b8ff" d="M347.87,-274.99C365.24,-265.58 388.01,-253.24 405.17,-243.95"/>
<polygon fill="#63b8ff" stroke="#63b8ff" points="406.92,-246.98 414.05,-239.14 403.59,-240.82 406.92,-246.98"/>
</g>
<!-- Node3 -->
<g id="node3" class="node">
<title>Node3</title>
<g id="a_node3"><a xlink:title=" ">
<polygon fill="#e0e0e0" stroke="#999999" points="49.5,-129 6.5,-129 6.5,-110 49.5,-110 49.5,-129"/>
<text text-anchor="middle" x="28" y="-117" font-family="Helvetica,sans-Serif" font-size="10.00">cstdio</text>
</a>
</g>
</g>
<!-- Node2&#45;&gt;Node3 -->
<g id="edge2" class="edge">
<title>Node2&#45;&gt;Node3</title>
<path fill="none" stroke="#63b8ff" d="M28,-164.75C28,-157.8 28,-147.85 28,-139.13"/>
<polygon fill="#63b8ff" stroke="#63b8ff" points="31.5,-139.09 28,-129.09 24.5,-139.09 31.5,-139.09"/>
</g>
<!-- Node5&#45;&gt;Node2 -->
<g id="edge5" class="edge">
<title>Node5&#45;&gt;Node2</title>
<path fill="none" stroke="#63b8ff" d="M125.36,-219.98C106.7,-211.46 77.75,-198.23 56.26,-188.41"/>
<polygon fill="#63b8ff" stroke="#63b8ff" points="57.53,-185.14 46.98,-184.17 54.62,-191.51 57.53,-185.14"/>
</g>
<!-- Node5&#45;&gt;Node4 -->
<g id="edge14" class="edge">
<title>Node5&#45;&gt;Node4</title>
<path fill="none" stroke="#63b8ff" d="M139.12,-219.98C134.44,-211.26 127.69,-197.17 125,-184 123.31,-175.73 124.5,-173.43 125,-165 127.89,-115.86 124,-102.2 138,-55 140.79,-45.6 145.44,-35.77 149.75,-27.74"/>
<polygon fill="#63b8ff" stroke="#63b8ff" points="152.82,-29.43 154.69,-19 146.73,-25.99 152.82,-29.43"/>
</g>
<!-- Node6 -->
<g id="node6" class="node">
<title>Node6</title>
<g id="a_node6"><a xlink:href="helper_8h.html" target="_top" xlink:title=" ">
<polygon fill="white" stroke="#666666" points="184,-184 134,-184 134,-165 184,-165 184,-184"/>
<text text-anchor="middle" x="159" y="-172" font-family="Helvetica,sans-Serif" font-size="10.00">helper.h</text>
</a>
</g>
</g>
<!-- Node5&#45;&gt;Node6 -->
<g id="edge6" class="edge">
<title>Node5&#45;&gt;Node6</title>
<path fill="none" stroke="#63b8ff" d="M146.48,-219.75C148.46,-212.72 151.32,-202.62 153.81,-193.84"/>
<polygon fill="#63b8ff" stroke="#63b8ff" points="157.21,-194.66 156.57,-184.09 150.48,-192.76 157.21,-194.66"/>
</g>
<!-- Node6&#45;&gt;Node4 -->
<g id="edge12" class="edge">
<title>Node6&#45;&gt;Node4</title>
<path fill="none" stroke="#63b8ff" d="M154.38,-164.94C149.94,-156.2 143.55,-142.09 141,-129 134.13,-93.69 145.17,-52.11 153.08,-28.77"/>
<polygon fill="#63b8ff" stroke="#63b8ff" points="156.45,-29.75 156.53,-19.16 149.86,-27.39 156.45,-29.75"/>
</g>
<!-- Node7 -->
<g id="node7" class="node">
<title>Node7</title>
<g id="a_node7"><a xlink:href="encoder_8h.html" target="_top" xlink:title=" ">
<polygon fill="white" stroke="#666666" points="209.5,-129 150.5,-129 150.5,-110 209.5,-110 209.5,-129"/>
<text text-anchor="middle" x="180" y="-117" font-family="Helvetica,sans-Serif" font-size="10.00">encoder.h</text>
</a>
</g>
</g>
<!-- Node6&#45;&gt;Node7 -->
<g id="edge7" class="edge">
<title>Node6&#45;&gt;Node7</title>
<path fill="none" stroke="#63b8ff" d="M162.47,-164.75C165.28,-157.65 169.34,-147.4 172.85,-138.56"/>
<polygon fill="#63b8ff" stroke="#63b8ff" points="176.17,-139.68 176.6,-129.09 169.66,-137.1 176.17,-139.68"/>
</g>
<!-- Node10 -->
<g id="node10" class="node">
<title>Node10</title>
<g id="a_node10"><a xlink:title=" ">
<polygon fill="#e0e0e0" stroke="#999999" points="286.5,-129 227.5,-129 227.5,-110 286.5,-110 286.5,-129"/>
<text text-anchor="middle" x="257" y="-117" font-family="Helvetica,sans-Serif" font-size="10.00">functional</text>
</a>
</g>
</g>
<!-- Node6&#45;&gt;Node10 -->
<g id="edge13" class="edge">
<title>Node6&#45;&gt;Node10</title>
<path fill="none" stroke="#63b8ff" d="M174.75,-164.98C190.23,-156.61 214.09,-143.7 232.14,-133.95"/>
<polygon fill="#63b8ff" stroke="#63b8ff" points="233.84,-137.01 240.97,-129.17 230.51,-130.85 233.84,-137.01"/>
</g>
<!-- Node7&#45;&gt;Node4 -->
<g id="edge10" class="edge">
<title>Node7&#45;&gt;Node4</title>
<path fill="none" stroke="#63b8ff" d="M178.36,-109.66C175.12,-92.17 167.83,-52.8 163.48,-29.27"/>
<polygon fill="#63b8ff" stroke="#63b8ff" points="166.87,-28.35 161.6,-19.16 159.98,-29.63 166.87,-28.35"/>
</g>
<!-- Node8 -->
<g id="node8" class="node">
<title>Node8</title>
<g id="a_node8"><a xlink:href="_q_e_i_8h.html" target="_top" xlink:title=" ">
<polygon fill="white" stroke="#666666" points="229.5,-74 188.5,-74 188.5,-55 229.5,-55 229.5,-74"/>
<text text-anchor="middle" x="209" y="-62" font-family="Helvetica,sans-Serif" font-size="10.00">QEI.h</text>
</a>
</g>
</g>
<!-- Node7&#45;&gt;Node8 -->
<g id="edge8" class="edge">
<title>Node7&#45;&gt;Node8</title>
<path fill="none" stroke="#63b8ff" d="M184.79,-109.75C188.76,-102.49 194.53,-91.95 199.43,-82.98"/>
<polygon fill="#63b8ff" stroke="#63b8ff" points="202.57,-84.54 204.3,-74.09 196.43,-81.18 202.57,-84.54"/>
</g>
<!-- Node9 -->
<g id="node9" class="node">
<title>Node9</title>
<g id="a_node9"><a xlink:title=" ">
<polygon fill="#e0e0e0" stroke="#999999" points="294,-74 248,-74 248,-55 294,-55 294,-74"/>
<text text-anchor="middle" x="271" y="-62" font-family="Helvetica,sans-Serif" font-size="10.00">chrono</text>
</a>
</g>
</g>
<!-- Node7&#45;&gt;Node9 -->
<g id="edge11" class="edge">
<title>Node7&#45;&gt;Node9</title>
<path fill="none" stroke="#63b8ff" d="M194.62,-109.98C208.86,-101.69 230.75,-88.94 247.45,-79.22"/>
<polygon fill="#63b8ff" stroke="#63b8ff" points="249.23,-82.23 256.11,-74.17 245.71,-76.18 249.23,-82.23"/>
</g>
<!-- Node8&#45;&gt;Node4 -->
<g id="edge9" class="edge">
<title>Node8&#45;&gt;Node4</title>
<path fill="none" stroke="#63b8ff" d="M200.91,-54.75C193.84,-47.11 183.41,-35.82 174.85,-26.56"/>
<polygon fill="#63b8ff" stroke="#63b8ff" points="177.3,-24.06 167.94,-19.09 172.16,-28.81 177.3,-24.06"/>
</g>
</g>
</svg>
