<svg width="2853" height="1387" xmlns="http://www.w3.org/2000/svg" xmlns:xlink="http://www.w3.org/1999/xlink" overflow="hidden"><defs><clipPath id="clip0"><rect x="1649" y="506" width="2853" height="1387"/></clipPath><clipPath id="clip1"><rect x="1649" y="507" width="2850" height="1383"/></clipPath><clipPath id="clip2"><rect x="1888" y="557" width="2564" height="1181"/></clipPath><clipPath id="clip3"><rect x="1888" y="557" width="2564" height="1181"/></clipPath><clipPath id="clip4"><rect x="1888" y="557" width="2564" height="1181"/></clipPath><clipPath id="clip5"><rect x="1649" y="507" width="2850" height="1383"/></clipPath><clipPath id="clip6"><rect x="1649" y="507" width="2850" height="1383"/></clipPath><clipPath id="clip7"><rect x="1649" y="507" width="2850" height="1383"/></clipPath><clipPath id="clip8"><rect x="1649" y="507" width="2850" height="1383"/></clipPath><clipPath id="clip9"><rect x="1649" y="507" width="2850" height="1383"/></clipPath><clipPath id="clip10"><rect x="1649" y="507" width="2850" height="1383"/></clipPath><clipPath id="clip11"><rect x="1649" y="507" width="2850" height="1383"/></clipPath><clipPath id="clip12"><rect x="1649" y="507" width="2850" height="1383"/></clipPath><clipPath id="clip13"><rect x="1649" y="507" width="2850" height="1383"/></clipPath><clipPath id="clip14"><rect x="1649" y="507" width="2850" height="1383"/></clipPath><clipPath id="clip15"><rect x="1649" y="507" width="2850" height="1383"/></clipPath><clipPath id="clip16"><rect x="1649" y="507" width="2850" height="1383"/></clipPath><clipPath id="clip17"><rect x="1649" y="507" width="2850" height="1383"/></clipPath></defs><g clip-path="url(#clip0)" transform="translate(-1649 -506)"><rect x="1650" y="507" width="2850" height="1384" fill="#FFFFFF"/><g clip-path="url(#clip1)"><path d="M1888.5 1735.5 4449.5 1735.5M1888.5 1510.55 4449.5 1510.55M1888.5 1286.54 4449.5 1286.54M1888.5 1062.54 4449.5 1062.54M1888.5 837.528 4449.5 837.528M1888.5 613.5 4449.5 613.5" stroke="#D9D9D9" stroke-width="3.4375" stroke-linejoin="round" stroke-miterlimit="10" fill="none"/></g><g clip-path="url(#clip2)"><path d="M1894 1735 1904.06 1735 1915.06 1735 1926.06 1735 1937.06 1735 1947.06 1735 1958.06 1735 1969.06 1735 1980.07 1735 1991.07 1735 2001.07 1735 2012.07 1735 2023.07 1735 2034.07 1735 2044.07 1735 2055.07 1735 2066.07 1735 2077.07 1735 2087.07 1735 2098.07 1735 2109.07 1735 2120.07 1735 2130.07 1735 2141.07 1735 2152.07 1735 2163.07 1735 2173.07 1735 2184.07 1735 2195.07 1735 2206.07 1735 2216.07 1735 2227.07 1735 2238.07 1735 2249.07 1735 2260.07 1735 2270.07 1735 2281.07 1735 2292.08 1735 2303.08 1735 2313.08 1735 2324.08 1735 2335.08 1735 2346.08 1735 2356.08 1735 2367.08 1735 2378.08 1735 2389.08 1735 2399.08 1573.05 2410.08 1568.05 2421.08 1549.05 2432.08 1542.05 2442.08 1520.05 2453.08 1508.05 2464.08 1488.05 2475.08 1471.05 2485.08 1433.05 2496.08 1410.05 2507.08 1391.05 2518.08 1356.04 2528.08 1328.04 2539.08 1288.04 2550.08 1256.04 2561.08 1218.04 2572.08 1175.04 2582.08 1125.04 2593.09 1080.04 2604.09 1028.03 2615.09 976.032 2625.09 935.031 2636.09 902.03 2647.09 860.028 2658.09 835.027 2668.09 807.026 2679.09 773.025 2690.09 756.025 2701.09 729.024 2711.09 710.023 2722.09 673.022 2733.09 649.021 2744.09 636.021 2754.09 617.02 2765.09 614 2776.09 614 2787.09 614 2797.09 614 2808.09 614 2819.09 614 2830.09 614 2841.09 614 2851.09 614 2862.09 614 2873.09 614 2884.09 614 2894.09 614 2905.1 614 2916.1 614 2927.1 614 2937.1 614 2948.1 614 2959.1 614 2970.1 614 2980.1 614 2991.1 614 3002.1 614 3013.1 614 3023.1 614 3034.1 614 3045.1 614 3056.1 614 3066.1 614 3077.1 614 3088.1 614 3099.1 614 3110.1 614 3120.1 614 3131.1 614 3142.1 614 3153.1 614 3163.1 614 3174.1 614 3185.1 614 3196.1 614 3206.11 614 3217.11 614 3228.11 614 3239.11 614 3249.11 614 3260.11 614 3271.11 614 3282.11 614 3292.11 614 3303.11 614 3314.11 614 3325.11 614 3335.11 614 3346.11 614 3357.11 614 3368.11 614 3379.11 614 3389.11 614 3400.11 614 3411.11 614 3422.11 614 3432.11 614 3443.11 614 3454.11 614 3465.11 614 3475.11 614 3486.11 614 3497.11 614 3508.12 614 3518.12 625.021 3529.12 622.02 3540.12 615.02 3551.12 627.021 3561.12 643.021 3572.12 653.021 3583.12 673.022 3594.12 693.023 3604.12 691.023 3615.12 719.024 3626.12 737.024 3637.12 741.024 3648.12 767.025 3658.12 773.025 3669.12 789.026 3680.12 811.027 3691.12 824.027 3701.12 840.028 3712.12 875.029 3723.12 901.03 3734.12 925.03 3744.12 968.032 3755.12 988.032 3766.12 1030.03 3777.12 1054.03 3787.12 1077.04 3798.12 1110.04 3809.12 1136.04 3820.13 1152.04 3830.13 1198.04 3841.13 1210.04 3852.13 1234.04 3863.13 1264.04 3873.13 1298.04 3884.13 1314.04 3895.13 1332.04 3906.13 1350.04 3917.13 1387.05 3927.13 1405.05 3938.13 1431.05 3949.13 1440.05 3960.13 1454.05 3970.13 1472.05 3981.13 1496.05 3992.13 1503.05 4003.13 1530.05 4013.13 1538.05 4024.13 1541.05 4035.13 1542.05 4046.13 1563.05 4056.13 1574.05 4067.13 1735 4078.13 1735 4089.13 1735 4099.13 1735 4110.13 1735 4121.14 1735 4132.14 1735 4142.14 1735 4153.14 1735 4164.14 1735 4175.14 1735 4186.14 1735 4196.14 1735 4207.14 1735 4218.14 1735 4229.14 1735 4239.14 1735 4250.14 1735 4261.14 1735 4272.14 1735 4282.14 1735 4293.14 1735 4304.14 1735 4315.14 1735 4325.14 1735 4336.14 1735 4347.14 1735 4358.14 1735 4368.14 1735 4379.14 1735 4390.14 1735 4401.14 1735 4411.14 1735 4422.15 1735 4433.15 1735 4444 1735" stroke="#ED7D31" stroke-width="10.3125" stroke-linecap="round" stroke-linejoin="round" stroke-miterlimit="10" fill="none"/></g><g clip-path="url(#clip3)"><path d="M1894 1735 1904.06 1735 1915.06 1735 1926.06 1735 1937.06 1735 1947.06 1735 1958.06 1735 1969.06 1735 1980.07 1735 1991.07 1735 2001.07 1735 2012.07 1735 2023.07 1735 2034.07 1735 2044.07 1735 2055.07 1735 2066.07 1735 2077.07 1735 2087.07 1735 2098.07 1735 2109.07 1735 2120.07 1735 2130.07 1735 2141.07 1735 2152.07 1735 2163.07 1735 2173.07 1735 2184.07 1735 2195.07 1735 2206.07 1735 2216.07 1735 2227.07 1735 2238.07 1735 2249.07 1735 2260.07 1735 2270.07 1735 2281.07 1735 2292.08 1735 2303.08 1735 2313.08 1735 2324.08 1735 2335.08 1735 2346.08 1735 2356.08 1735 2367.08 1735 2378.08 1735 2389.08 1735 2399.08 1735 2410.08 1735 2421.08 1602.05 2432.08 1589.05 2442.08 1581.05 2453.08 1569.05 2464.08 1552.05 2475.08 1542.05 2485.08 1525.05 2496.08 1509.05 2507.08 1489.05 2518.08 1464.05 2528.08 1444.05 2539.08 1418.05 2550.08 1392.05 2561.08 1364.04 2572.08 1333.04 2582.08 1295.04 2593.09 1263.04 2604.09 1220.04 2615.09 1183.04 2625.09 1142.04 2636.09 1097.04 2647.09 1061.03 2658.09 1026.03 2668.09 997.033 2679.09 974.032 2690.09 953.031 2701.09 932.031 2711.09 909.03 2722.09 889.029 2733.09 865.028 2744.09 842.028 2754.09 817.027 2765.09 805.026 2776.09 790.026 2787.09 784.026 2797.09 772.025 2808.09 761.025 2819.09 751.025 2830.09 748.025 2841.09 737.024 2851.09 732.024 2862.09 729.024 2873.09 726.024 2884.09 722.024 2894.09 724.024 2905.1 716.023 2916.1 713.023 2927.1 711.023 2937.1 710.023 2948.1 710.023 2959.1 704.023 2970.1 708.023 2980.1 708.023 2991.1 708.023 3002.1 707.023 3013.1 707.023 3023.1 708.023 3034.1 716.023 3045.1 707.023 3056.1 717.023 3066.1 703.023 3077.1 701 3088.1 702.023 3099.1 709.023 3110.1 702.023 3120.1 708.023 3131.1 712.023 3142.1 709.023 3153.1 710.023 3163.1 714.023 3174.1 714.023 3185.1 711.023 3196.1 714.023 3206.11 715.023 3217.11 717.023 3228.11 716.023 3239.11 711.023 3249.11 718.024 3260.11 719.024 3271.11 719.024 3282.11 719.024 3292.11 720.024 3303.11 716.023 3314.11 721.024 3325.11 720.024 3335.11 719.024 3346.11 722.024 3357.11 719.024 3368.11 731.024 3379.11 732.024 3389.11 732.024 3400.11 735.024 3411.11 737.024 3422.11 738.024 3432.11 742.024 3443.11 743.024 3454.11 744.024 3465.11 748.025 3475.11 744.024 3486.11 748.025 3497.11 753.025 3508.12 760.025 3518.12 767.025 3529.12 771.025 3540.12 788.026 3551.12 794.026 3561.12 793.026 3572.12 801.026 3583.12 814.027 3594.12 820.027 3604.12 841.028 3615.12 853.028 3626.12 857.028 3637.12 878.029 3648.12 887.029 3658.12 900.03 3669.12 915.03 3680.12 922.03 3691.12 936.031 3701.12 951.031 3712.12 963.032 3723.12 987.032 3734.12 1008.03 3744.12 1024.03 3755.12 1050.03 3766.12 1077.04 3777.12 1103.04 3787.12 1134.04 3798.12 1161.04 3809.12 1184.04 3820.13 1210.04 3830.13 1229.04 3841.13 1251.04 3852.13 1277.04 3863.13 1291.04 3873.13 1313.04 3884.13 1331.04 3895.13 1354.04 3906.13 1377.05 3917.13 1396.05 3927.13 1416.05 3938.13 1433.05 3949.13 1450.05 3960.13 1470.05 3970.13 1487.05 3981.13 1502.05 3992.13 1514.05 4003.13 1533.05 4013.13 1542.05 4024.13 1560.05 4035.13 1565.05 4046.13 1575.05 4056.13 1583.05 4067.13 1592.05 4078.13 1600.05 4089.13 1735 4099.13 1735 4110.13 1735 4121.14 1735 4132.14 1735 4142.14 1735 4153.14 1735 4164.14 1735 4175.14 1735 4186.14 1735 4196.14 1735 4207.14 1735 4218.14 1735 4229.14 1735 4239.14 1735 4250.14 1735 4261.14 1735 4272.14 1735 4282.14 1735 4293.14 1735 4304.14 1735 4315.14 1735 4325.14 1735 4336.14 1735 4347.14 1735 4358.14 1735 4368.14 1735 4379.14 1735 4390.14 1735 4401.14 1735 4411.14 1735 4422.15 1735 4433.15 1735 4444 1735" stroke="#FFC000" stroke-width="10.3125" stroke-linecap="round" stroke-linejoin="round" stroke-miterlimit="10" fill="none"/></g><g clip-path="url(#clip4)"><path d="M1894 1735 1904.06 1735 1915.06 1735 1926.06 1735 1937.06 1735 1947.06 1735 1958.06 1735 1969.06 1735 1980.07 1735 1991.07 1735 2001.07 1735 2012.07 1735 2023.07 1735 2034.07 1735 2044.07 1735 2055.07 1735 2066.07 1735 2077.07 1735 2087.07 1735 2098.07 1735 2109.07 1735 2120.07 1735 2130.07 1735 2141.07 1735 2152.07 1735 2163.07 1735 2173.07 1735 2184.07 1735 2195.07 1735 2206.07 1735 2216.07 1735 2227.07 1735 2238.07 1735 2249.07 1735 2260.07 1735 2270.07 1735 2281.07 1735 2292.08 1735 2303.08 1735 2313.08 1735 2324.08 1735 2335.08 1735 2346.08 1735 2356.08 1735 2367.08 1735 2378.08 1735 2389.08 1735 2399.08 1735 2410.08 1735 2421.08 1735 2432.08 1695.06 2442.08 1676.06 2453.08 1674.05 2464.08 1677.06 2475.08 1665.05 2485.08 1658.05 2496.08 1660.05 2507.08 1641.05 2518.08 1641.05 2528.08 1634.05 2539.08 1615.05 2550.08 1618.05 2561.08 1612.05 2572.08 1598.05 2582.08 1587.05 2593.09 1578.05 2604.09 1561.05 2615.09 1538.05 2625.09 1535.05 2636.09 1521.05 2647.09 1506.05 2658.09 1487.05 2668.09 1471.05 2679.09 1467.05 2690.09 1450.05 2701.09 1441.05 2711.09 1445.05 2722.09 1429.05 2733.09 1418.05 2744.09 1407.05 2754.09 1409.05 2765.09 1400.05 2776.09 1389.05 2787.09 1382.05 2797.09 1394.05 2808.09 1376.05 2819.09 1382.05 2830.09 1366.04 2841.09 1377.05 2851.09 1358.04 2862.09 1368.04 2873.09 1363.04 2884.09 1363.04 2894.09 1363.04 2905.1 1365.04 2916.1 1352.04 2927.1 1349.04 2937.1 1352.04 2948.1 1353.04 2959.1 1347.04 2970.1 1359.04 2980.1 1356.04 2991.1 1355.04 3002.1 1360.04 3013.1 1348.04 3023.1 1350.04 3034.1 1353.04 3045.1 1354.04 3056.1 1350.04 3066.1 1356.04 3077.1 1344.04 3088.1 1359.04 3099.1 1341 3110.1 1351.04 3120.1 1358.04 3131.1 1344.04 3142.1 1357.04 3153.1 1353.04 3163.1 1346.04 3174.1 1361.04 3185.1 1353.04 3196.1 1367.04 3206.11 1364.04 3217.11 1359.04 3228.11 1354.04 3239.11 1358.04 3249.11 1359.04 3260.11 1362.04 3271.11 1363.04 3282.11 1353.04 3292.11 1361.04 3303.11 1355.04 3314.11 1357.04 3325.11 1357.04 3335.11 1364.04 3346.11 1356.04 3357.11 1360.04 3368.11 1355.04 3379.11 1357.04 3389.11 1364.04 3400.11 1363.04 3411.11 1371.05 3422.11 1361.04 3432.11 1361.04 3443.11 1380.05 3454.11 1368.04 3465.11 1361.04 3475.11 1373.05 3486.11 1358.04 3497.11 1369.04 3508.12 1369.04 3518.12 1372.05 3529.12 1383.05 3540.12 1392.05 3551.12 1390.05 3561.12 1391.05 3572.12 1393.05 3583.12 1379.05 3594.12 1389.05 3604.12 1398.05 3615.12 1401.05 3626.12 1406.05 3637.12 1411.05 3648.12 1421.05 3658.12 1422.05 3669.12 1424.05 3680.12 1438.05 3691.12 1445.05 3701.12 1444.05 3712.12 1454.05 3723.12 1451.05 3734.12 1453.05 3744.12 1470.05 3755.12 1470.05 3766.12 1471.05 3777.12 1491.05 3787.12 1499.05 3798.12 1503.05 3809.12 1525.05 3820.13 1526.05 3830.13 1537.05 3841.13 1542.05 3852.13 1557.05 3863.13 1572.05 3873.13 1573.05 3884.13 1576.05 3895.13 1600.05 3906.13 1597.05 3917.13 1602.05 3927.13 1607.05 3938.13 1622.05 3949.13 1621.05 3960.13 1622.05 3970.13 1633.05 3981.13 1656.05 3992.13 1648.05 4003.13 1665.05 4013.13 1662.05 4024.13 1672.05 4035.13 1670.05 4046.13 1679.06 4056.13 1685.06 4067.13 1671.05 4078.13 1684.06 4089.13 1688.06 4099.13 1735 4110.13 1735 4121.14 1735 4132.14 1735 4142.14 1735 4153.14 1735 4164.14 1735 4175.14 1735 4186.14 1735 4196.14 1735 4207.14 1735 4218.14 1735 4229.14 1735 4239.14 1735 4250.14 1735 4261.14 1735 4272.14 1735 4282.14 1735 4293.14 1735 4304.14 1735 4315.14 1735 4325.14 1735 4336.14 1735 4347.14 1735 4358.14 1735 4368.14 1735 4379.14 1735 4390.14 1735 4401.14 1735 4411.14 1735 4422.15 1735 4433.15 1735 4444 1735" stroke="#A5A5A5" stroke-width="10.3125" stroke-linecap="round" stroke-linejoin="round" stroke-miterlimit="10" fill="none"/></g><g clip-path="url(#clip5)"><text fill="#595959" font-family="Calibri,Calibri_MSFontService,sans-serif" font-weight="400" font-size="41" transform="matrix(1 0 0 1 1829.19 1747)">0</text></g><g clip-path="url(#clip6)"><text fill="#595959" font-family="Calibri,Calibri_MSFontService,sans-serif" font-weight="400" font-size="41" transform="matrix(1 0 0 1 1829.19 1523)">2</text></g><g clip-path="url(#clip7)"><text fill="#595959" font-family="Calibri,Calibri_MSFontService,sans-serif" font-weight="400" font-size="41" transform="matrix(1 0 0 1 1829.19 1298)">4</text></g><g clip-path="url(#clip8)"><text fill="#595959" font-family="Calibri,Calibri_MSFontService,sans-serif" font-weight="400" font-size="41" transform="matrix(1 0 0 1 1829.19 1074)">6</text></g><g clip-path="url(#clip9)"><text fill="#595959" font-family="Calibri,Calibri_MSFontService,sans-serif" font-weight="400" font-size="41" transform="matrix(1 0 0 1 1829.19 849)">8</text></g><g clip-path="url(#clip10)"><text fill="#595959" font-family="Calibri,Calibri_MSFontService,sans-serif" font-weight="400" font-size="41" transform="matrix(1 0 0 1 1808.29 625)">10</text></g><g clip-path="url(#clip11)"><text fill="#595959" font-family="Calibri,Calibri_MSFontService,sans-serif" font-weight="400" font-size="46" transform="matrix(6.12323e-17 -1 1 6.12323e-17 1751.29 1299)">Sensors Reading</text></g><g clip-path="url(#clip12)"><path d="M2723 1824 2811 1824" stroke="#ED7D31" stroke-width="10.3125" stroke-linecap="round" stroke-linejoin="round" stroke-miterlimit="10" fill="none" fill-rule="evenodd"/></g><g clip-path="url(#clip13)"><text fill="#595959" font-family="Calibri,Calibri_MSFontService,sans-serif" font-weight="400" font-size="41" transform="matrix(1 0 0 1 2820.38 1836)">2.5 cm</text></g><g clip-path="url(#clip14)"><path d="M2978 1824 3066 1824" stroke="#FFC000" stroke-width="10.3125" stroke-linecap="round" stroke-linejoin="round" stroke-miterlimit="10" fill="none" fill-rule="evenodd"/></g><g clip-path="url(#clip15)"><text fill="#595959" font-family="Calibri,Calibri_MSFontService,sans-serif" font-weight="400" font-size="41" transform="matrix(1 0 0 1 3075.6 1836)">2.7 cm</text></g><g clip-path="url(#clip16)"><path d="M3234 1824 3322 1824" stroke="#A5A5A5" stroke-width="10.3125" stroke-linecap="round" stroke-linejoin="round" stroke-miterlimit="10" fill="none" fill-rule="evenodd"/></g><g clip-path="url(#clip17)"><text fill="#595959" font-family="Calibri,Calibri_MSFontService,sans-serif" font-weight="400" font-size="41" transform="matrix(1 0 0 1 3330.81 1836)">3.5 cm</text></g><rect x="1650.5" y="507.5" width="2850" height="1384" stroke="#D9D9D9" stroke-width="3.4375" stroke-linejoin="round" stroke-miterlimit="10" fill="none"/></g></svg>