<svg width="2306" height="1517" xmlns="http://www.w3.org/2000/svg" xmlns:xlink="http://www.w3.org/1999/xlink" overflow="hidden"><defs><clipPath id="clip0"><rect x="1938" y="699" width="2306" height="1517"/></clipPath><clipPath id="clip1"><rect x="1938" y="699" width="2303" height="1514"/></clipPath><clipPath id="clip2"><rect x="1938" y="699" width="2303" height="1514"/></clipPath><clipPath id="clip3"><rect x="1938" y="699" width="2303" height="1514"/></clipPath><clipPath id="clip4"><rect x="1938" y="699" width="2303" height="1514"/></clipPath><clipPath id="clip5"><rect x="2168" y="869" width="2026" height="1228"/></clipPath><clipPath id="clip6"><rect x="1938" y="699" width="2303" height="1514"/></clipPath><clipPath id="clip7"><rect x="2168" y="869" width="2023" height="1224"/></clipPath><clipPath id="clip8"><rect x="1938" y="699" width="2303" height="1514"/></clipPath><clipPath id="clip9"><rect x="1938" y="699" width="2303" height="1514"/></clipPath><clipPath id="clip10"><rect x="1938" y="699" width="2303" height="1514"/></clipPath><clipPath id="clip11"><rect x="1938" y="699" width="2303" height="1514"/></clipPath><clipPath id="clip12"><rect x="1938" y="699" width="2303" height="1514"/></clipPath><clipPath id="clip13"><rect x="1938" y="699" width="2303" height="1514"/></clipPath><clipPath id="clip14"><rect x="1938" y="699" width="2303" height="1514"/></clipPath><clipPath id="clip15"><rect x="1938" y="699" width="2303" height="1514"/></clipPath><clipPath id="clip16"><rect x="1938" y="699" width="2303" height="1514"/></clipPath><clipPath id="clip17"><rect x="1938" y="699" width="2303" height="1514"/></clipPath><clipPath id="clip18"><rect x="1938" y="699" width="2303" height="1514"/></clipPath><clipPath id="clip19"><rect x="1938" y="699" width="2303" height="1514"/></clipPath><clipPath id="clip20"><rect x="1938" y="699" width="2303" height="1514"/></clipPath><clipPath id="clip21"><rect x="1938" y="699" width="2303" height="1514"/></clipPath><clipPath id="clip22"><rect x="1938" y="699" width="2303" height="1514"/></clipPath><clipPath id="clip23"><rect x="1938" y="699" width="2303" height="1514"/></clipPath><clipPath id="clip24"><rect x="1938" y="699" width="2303" height="1514"/></clipPath><clipPath id="clip25"><rect x="1938" y="699" width="2303" height="1514"/></clipPath><clipPath id="clip26"><rect x="1938" y="699" width="2303" height="1514"/></clipPath><clipPath id="clip27"><rect x="1938" y="699" width="2303" height="1514"/></clipPath><clipPath id="clip28"><rect x="1938" y="699" width="2303" height="1514"/></clipPath><clipPath id="clip29"><rect x="1938" y="699" width="2303" height="1514"/></clipPath><clipPath id="clip30"><rect x="1938" y="699" width="2303" height="1514"/></clipPath><clipPath id="clip31"><rect x="1938" y="699" width="2303" height="1514"/></clipPath><clipPath id="clip32"><rect x="1938" y="699" width="2303" height="1514"/></clipPath><clipPath id="clip33"><rect x="1938" y="699" width="2303" height="1514"/></clipPath></defs><g clip-path="url(#clip0)" transform="translate(-1938 -699)"><rect x="1939" y="700" width="2303" height="1514" fill="#FFFFFF"/><g clip-path="url(#clip1)"><path d="M2168.5 2071.57 4191.5 2071.57M2168.5 2049.57 4191.5 2049.57M2168.5 2026.57 4191.5 2026.57M2168.5 2004.57 4191.5 2004.57M2168.5 1960.56 4191.5 1960.56M2168.5 1937.56 4191.5 1937.56M2168.5 1915.56 4191.5 1915.56M2168.5 1893.56 4191.5 1893.56M2168.5 1848.56 4191.5 1848.56M2168.5 1826.56 4191.5 1826.56M2168.5 1804.56 4191.5 1804.56M2168.5 1781.56 4191.5 1781.56M2168.5 1737.56 4191.5 1737.56M2168.5 1715.56 4191.5 1715.56M2168.5 1692.56 4191.5 1692.56M2168.5 1670.55 4191.5 1670.55M2168.5 1626.55 4191.5 1626.55M2168.5 1603.55 4191.5 1603.55M2168.5 1581.55 4191.5 1581.55M2168.5 1559.55 4191.5 1559.55M2168.5 1514.55 4191.5 1514.55M2168.5 1492.55 4191.5 1492.55M2168.5 1470.55 4191.5 1470.55M2168.5 1448.55 4191.5 1448.55M2168.5 1403.55 4191.5 1403.55M2168.5 1381.55 4191.5 1381.55M2168.5 1359.54 4191.5 1359.54M2168.5 1336.54 4191.5 1336.54M2168.5 1292.54 4191.5 1292.54M2168.5 1270.54 4191.5 1270.54M2168.5 1247.54 4191.5 1247.54M2168.5 1225.54 4191.5 1225.54M2168.5 1181.54 4191.5 1181.54M2168.5 1158.54 4191.5 1158.54M2168.5 1136.54 4191.5 1136.54M2168.5 1114.54 4191.5 1114.54M2168.5 1069.54 4191.5 1069.54M2168.5 1047.53 4191.5 1047.53M2168.5 1025.53 4191.5 1025.53M2168.5 1003.53 4191.5 1003.53M2168.5 958.532 4191.5 958.532M2168.5 936.531 4191.5 936.531M2168.5 914.53 4191.5 914.53M2168.5 891.529 4191.5 891.529" stroke="#F2F2F2" stroke-width="3.4375" stroke-linejoin="round" stroke-miterlimit="10" fill="none"/></g><g clip-path="url(#clip2)"><path d="M2168.5 2093.5 4191.5 2093.5M2168.5 1871.56 4191.5 1871.56M2168.5 1759.56 4191.5 1759.56M2168.5 1648.55 4191.5 1648.55M2168.5 1537.55 4191.5 1537.55M2168.5 1425.55 4191.5 1425.55M2168.5 1314.54 4191.5 1314.54M2168.5 1203.54 4191.5 1203.54M2168.5 1092.54 4191.5 1092.54M2168.5 980.532 4191.5 980.532M2168.5 869.5 4191.5 869.5" stroke="#D9D9D9" stroke-width="3.4375" stroke-linejoin="round" stroke-miterlimit="10" fill="none"/></g><g clip-path="url(#clip3)"><path d="M2421.58 869.5 2421.58 2093.5M2927.6 869.5 2927.6 2093.5M3432.61 869.5 3432.61 2093.5M3938.63 869.5 3938.63 2093.5" stroke="#F2F2F2" stroke-width="3.4375" stroke-linejoin="round" stroke-miterlimit="10" fill="none"/></g><g clip-path="url(#clip4)"><path d="M2168.5 869.5 2168.5 2093.5M2674.59 869.5 2674.59 2093.5M3180.6 869.5 3180.6 2093.5M3685.62 869.5 3685.62 2093.5M4191.5 869.5 4191.5 2093.5" stroke="#D9D9D9" stroke-width="3.4375" stroke-linejoin="round" stroke-miterlimit="10" fill="none"/></g><g clip-path="url(#clip5)"><path d="M2848.09 1079.04 3006.1 1079.04 3006.1 1982.06 2848.09 1982.06ZM3354.11 1160.04 3512.12 1160.04 3512.12 1982.06 3354.11 1982.06Z" fill="#4472C4"/></g><g clip-path="url(#clip6)"><path d="M2168.5 1982.5 4191.5 1982.5" stroke="#D9D9D9" stroke-width="3.4375" stroke-linejoin="round" stroke-miterlimit="10" fill="none" fill-rule="evenodd"/></g><g clip-path="url(#clip7)"><path d="M2421.5 1970.56 2424.58 1963.56 2426.58 1957.56 2429.58 1950.56 2431.58 1944.56 2434.58 1937.56 2437.58 1931.56 2439.58 1924.56 2442.58 1918.56 2444.58 1911.56 2447.58 1905.56 2449.58 1899.56 2452.58 1893.56 2455.58 1886.56 2457.58 1880.56 2460.58 1874.56 2462.58 1868.56 2465.58 1861.56 2468.58 1855.56 2470.58 1849.56 2473.58 1843.56 2475.58 1837.56 2478.58 1831.56 2480.58 1825.56 2483.58 1819.56 2486.58 1813.56 2488.58 1807.56 2491.58 1801.56 2493.58 1795.56 2496.58 1789.56 2498.58 1783.56 2501.58 1777.56 2504.58 1771.56 2506.58 1765.56 2509.58 1759.56 2511.58 1754.56 2514.58 1748.56 2517.58 1742.56 2519.58 1736.56 2522.58 1731.56 2524.58 1725.56 2527.58 1719.56 2529.58 1714.56 2532.58 1708.56 2535.58 1703.56 2537.58 1697.56 2540.58 1692.56 2542.58 1686.56 2545.58 1681.56 2547.58 1675.56 2550.58 1670.55 2553.58 1664.55 2555.58 1659.55 2558.58 1653.55 2560.58 1648.55 2563.58 1643.55 2566.58 1637.55 2568.58 1632.55 2571.58 1627.55 2573.58 1622.55 2576.58 1616.55 2578.58 1611.55 2581.58 1606.55 2584.58 1601.55 2586.58 1596.55 2589.58 1591.55 2591.58 1585.55 2594.59 1580.55 2597.59 1575.55 2599.59 1570.55 2602.59 1565.55 2604.59 1560.55 2607.59 1555.55 2609.59 1550.55 2612.59 1546.55 2615.59 1541.55 2617.59 1536.55 2620.59 1531.55 2622.59 1526.55 2625.59 1521.55 2627.59 1517.55 2630.59 1512.55 2633.59 1507.55 2635.59 1502.55 2638.59 1498.55 2640.59 1493.55 2643.59 1488.55 2646.59 1484.55 2648.59 1479.55 2651.59 1475.55 2653.59 1470.55 2656.59 1465.55 2658.59 1461.55 2661.59 1456.55 2664.59 1452.55 2666.59 1448.55 2669.59 1443.55 2671.59 1439.55 2674.59 1434.55 2676.59 1430.55 2679.59 1426.55 2682.59 1421.55 2684.59 1417.55 2687.59 1413.55 2689.59 1409.55 2692.59 1404.55 2695.59 1400.55 2697.59 1396.55 2700.59 1392.55 2702.59 1388.55 2705.59 1384.55 2707.59 1380.55 2710.59 1376.55 2713.59 1371.55 2715.59 1367.55 2718.59 1363.54 2720.59 1360.54 2723.59 1356.54 2725.59 1352.54 2728.59 1348.54 2731.59 1344.54 2733.59 1340.54 2736.59 1336.54 2738.59 1332.54 2741.59 1329.54 2744.59 1325.54 2746.59 1321.54 2749.59 1317.54 2751.59 1314.54 2754.59 1310.54 2756.59 1306.54 2759.59 1303.54 2762.59 1299.54 2764.59 1296.54 2767.59 1292.54 2769.59 1288.54 2772.59 1285.54 2775.59 1281.54 2777.59 1278.54 2780.59 1274.54 2782.59 1271.54 2785.59 1268.54 2787.59 1264.54 2790.59 1261.54 2793.59 1258.54 2795.59 1254.54 2798.59 1251.54 2800.59 1248.54 2803.59 1244.54 2805.59 1241.54 2808.59 1238.54 2811.59 1235.54 2813.59 1232.54 2816.59 1228.54 2818.59 1225.54 2821.59 1222.54 2824.59 1219.54 2826.59 1216.54 2829.59 1213.54 2831.59 1210.54 2834.59 1207.54 2836.59 1204.54 2839.59 1201.54 2842.59 1198.54 2844.59 1195.54 2847.59 1193.54 2849.59 1190.54 2852.59 1187.54 2854.59 1184.54 2857.59 1181.54 2860.59 1179.54 2862.59 1176.54 2865.59 1173.54 2867.59 1170.54 2870.59 1168.54 2873.59 1165.54 2875.59 1163.54 2878.59 1160.54 2880.59 1157.54 2883.59 1155.54 2885.59 1152.54 2888.59 1150.54 2891.59 1147.54 2893.59 1145.54 2896.6 1142.54 2898.6 1140.54 2901.6 1138.54 2904.6 1135.54 2906.6 1133.54 2909.6 1131.54 2911.6 1128.54 2914.6 1126.54 2916.6 1124.54 2919.6 1121.54 2922.6 1119.54 2924.6 1117.54 2927.6 1115.54 2929.6 1113.54 2932.6 1111.54 2934.6 1108.54 2937.6 1106.54 2940.6 1104.54 2942.6 1102.54 2945.6 1100.54 2947.6 1098.54 2950.6 1096.54 2953.6 1094.54 2955.6 1092.54 2958.6 1091.54 2960.6 1089.54 2963.6 1087.54 2965.6 1085.54 2968.6 1083.54 2971.6 1081.54 2973.6 1080.54 2976.6 1078.54 2978.6 1076.54 2981.6 1074.54 2983.6 1073.54 2986.6 1071.54 2989.6 1069.54 2991.6 1068.54 2994.6 1066.54 2996.6 1065.54 2999.6 1063.54 3002.6 1062.54 3004.6 1060.54 3007.6 1059.53 3009.6 1057.53 3012.6 1056.53 3014.6 1054.53 3017.6 1053.53 3020.6 1052.53 3022.6 1050.53 3025.6 1049.53 3027.6 1048.53 3030.6 1046.53 3032.6 1045.53 3035.6 1044.53 3038.6 1043.53 3040.6 1042.53 3043.6 1040.53 3045.6 1039.53 3048.6 1038.53 3051.6 1037.53 3053.6 1036.53 3056.6 1035.53 3058.6 1034.53 3061.6 1033.53 3063.6 1032.53 3066.6 1031.53 3069.6 1030.53 3071.6 1029.53 3074.6 1028.53 3076.6 1027.53 3079.6 1027.53 3082.6 1026.53 3084.6 1025.53 3087.6 1024.53 3089.6 1023.53 3092.6 1023.53 3094.6 1022.53 3097.6 1021.53 3100.6 1021.53 3102.6 1020.53 3105.6 1019.53 3107.6 1019.53 3110.6 1018.53 3112.6 1018.53 3115.6 1017.53 3118.6 1017.53 3120.6 1016.53 3123.6 1016.53 3125.6 1015.53 3128.6 1015.53 3131.6 1014.53 3133.6 1014.53 3136.6 1014.53 3138.6 1013.53 3141.6 1013.53 3143.6 1013.53 3146.6 1012.53 3149.6 1012.53 3151.6 1012.53 3154.6 1012.53 3156.6 1012.53 3159.6 1011.53 3161.6 1011.53 3164.6 1011.53 3167.6 1011.53 3169.6 1011.53 3172.6 1011.53 3174.6 1011.5 3177.6 1011.53 3180.6 1011.53 3182.6 1011.53 3185.6 1011.53 3187.6 1011.53 3190.6 1011.53 3192.6 1012.53 3195.6 1012.53 3198.6 1012.53 3200.6 1012.53 3203.61 1012.53 3205.61 1013.53 3208.61 1013.53 3210.61 1013.53 3213.61 1013.53 3216.61 1014.53 3218.61 1014.53 3221.61 1015.53 3223.61 1015.53 3226.61 1015.53 3229.61 1016.53 3231.61 1016.53 3234.61 1017.53 3236.61 1017.53 3239.61 1018.53 3241.61 1019.53 3244.61 1019.53 3247.61 1020.53 3249.61 1020.53 3252.61 1021.53 3254.61 1022.53 3257.61 1022.53 3260.61 1023.53 3262.61 1024.53 3265.61 1025.53 3267.61 1025.53 3270.61 1026.53 3272.61 1027.53 3275.61 1028.53 3278.61 1029.53 3280.61 1030.53 3283.61 1031.53 3285.61 1032.53 3288.61 1033.53 3290.61 1034.53 3293.61 1035.53 3296.61 1036.53 3298.61 1037.53 3301.61 1038.53 3303.61 1039.53 3306.61 1040.53 3309.61 1041.53 3311.61 1042.53 3314.61 1044.53 3316.61 1045.53 3319.61 1046.53 3321.61 1047.53 3324.61 1049.53 3327.61 1050.53 3329.61 1051.53 3332.61 1053.53 3334.61 1054.53 3337.61 1055.53 3339.61 1057.53 3342.61 1058.53 3345.61 1060.54 3347.61 1061.54 3350.61 1063.54 3352.61 1064.54 3355.61 1066.54 3358.61 1067.54 3360.61 1069.54 3363.61 1071.54 3365.61 1072.54 3368.61 1074.54 3370.61 1076.54 3373.61 1077.54 3376.61 1079.54 3378.61 1081.54 3381.61 1083.54 3383.61 1084.54 3386.61 1086.54 3389.61 1088.54 3391.61 1090.54 3394.61 1092.54 3396.61 1094.54 3399.61 1096.54 3401.61 1098.54 3404.61 1100.54 3407.61 1102.54 3409.61 1104.54 3412.61 1106.54 3414.61 1108.54 3417.61 1110.54 3419.61 1112.54 3422.61 1114.54 3425.61 1116.54 3427.61 1119.54 3430.61 1121.54 3432.61 1123.54 3435.61 1125.54 3438.61 1127.54 3440.61 1130.54 3443.61 1132.54 3445.61 1134.54 3448.61 1137.54 3450.61 1139.54 3453.61 1142.54 3456.61 1144.54 3458.61 1147.54 3461.61 1149.54 3463.61 1151.54 3466.61 1154.54 3468.61 1157.54 3471.61 1159.54 3474.61 1162.54 3476.61 1164.54 3479.61 1167.54 3481.61 1170.54 3484.61 1172.54 3487.61 1175.54 3489.61 1178.54 3492.61 1180.54 3494.61 1183.54 3497.61 1186.54 3499.61 1189.54 3502.61 1192.54 3505.62 1195.54 3507.62 1197.54 3510.62 1200.54 3512.62 1203.54 3515.62 1206.54 3517.62 1209.54 3520.62 1212.54 3523.62 1215.54 3525.62 1218.54 3528.62 1221.54 3530.62 1224.54 3533.62 1228.54 3536.62 1231.54 3538.62 1234.54 3541.62 1237.54 3543.62 1240.54 3546.62 1243.54 3548.62 1247.54 3551.62 1250.54 3554.62 1253.54 3556.62 1256.54 3559.62 1260.54 3561.62 1263.54 3564.62 1267.54 3567.62 1270.54 3569.62 1273.54 3572.62 1277.54 3574.62 1280.54 3577.62 1284.54 3579.62 1287.54 3582.62 1291.54 3585.62 1294.54 3587.62 1298.54 3590.62 1302.54 3592.62 1305.54 3595.62 1309.54 3597.62 1312.54 3600.62 1316.54 3603.62 1320.54 3605.62 1324.54 3608.62 1327.54 3610.62 1331.54 3613.62 1335.54 3616.62 1339.54 3618.62 1343.54 3621.62 1347.54 3623.62 1350.54 3626.62 1354.54 3628.62 1358.54 3631.62 1362.54 3634.62 1366.55 3636.62 1370.55 3639.62 1374.55 3641.62 1378.55 3644.62 1382.55 3646.62 1386.55 3649.62 1391.55 3652.62 1395.55 3654.62 1399.55 3657.62 1403.55 3659.62 1407.55 3662.62 1412.55 3665.62 1416.55 3667.62 1420.55 3670.62 1424.55 3672.62 1429.55 3675.62 1433.55 3677.62 1437.55 3680.62 1442.55 3683.62 1446.55 3685.62 1451.55 3688.62 1455.55 3690.62 1460.55 3693.62 1464.55 3695.62 1469.55 3698.62 1473.55 3701.62 1478.55 3703.62 1482.55 3706.62 1487.55 3708.62 1492.55 3711.62 1496.55 3714.62 1501.55 3716.62 1506.55 3719.62 1510.55 3721.62 1515.55 3724.62 1520.55 3726.62 1525.55 3729.62 1529.55 3732.62 1534.55 3734.62 1539.55 3737.62 1544.55 3739.62 1549.55 3742.62 1554.55 3745.62 1559.55 3747.62 1564.55 3750.62 1569.55 3752.62 1574.55 3755.62 1579.55 3757.62 1584.55 3760.62 1589.55 3763.62 1594.55 3765.62 1599.55 3768.62 1604.55 3770.62 1609.55 3773.62 1615.55 3775.62 1620.55 3778.62 1625.55 3781.62 1630.55 3783.62 1636.55 3786.62 1641.55 3788.62 1646.55 3791.62 1652.55 3794.62 1657.55 3796.62 1662.55 3799.62 1668.55 3801.62 1673.56 3804.62 1679.56 3806.62 1684.56 3809.62 1690.56 3812.62 1695.56 3814.63 1701.56 3817.63 1706.56 3819.63 1712.56 3822.63 1718.56 3824.63 1723.56 3827.63 1729.56 3830.63 1735.56 3832.63 1740.56 3835.63 1746.56 3837.63 1752.56 3840.63 1758.56 3843.63 1763.56 3845.63 1769.56 3848.63 1775.56 3850.63 1781.56 3853.63 1787.56 3855.63 1793.56 3858.63 1799.56 3861.63 1805.56 3863.63 1811.56 3866.63 1817.56 3868.63 1823.56 3871.63 1829.56 3874.63 1835.56 3876.63 1841.56 3879.63 1847.56 3881.63 1853.56 3884.63 1859.56 3886.63 1866.56 3889.63 1872.56 3892.63 1878.56 3894.63 1884.56 3897.63 1891.56 3899.63 1897.56 3902.63 1903.56 3904.63 1909.56 3907.63 1916.56 3910.63 1922.56 3912.63 1929.56 3915.63 1935.56 3917.63 1942.56 3920.63 1948.56 3923.63 1954.56 3925.63 1961.56 3928.63 1968.56 3930.63 1974.56 3933.63 1981.57 3935.63 1987.57 3938.5 1994.5" stroke="#000000" stroke-width="6.875" stroke-linecap="round" stroke-linejoin="round" stroke-miterlimit="10" stroke-dasharray="48.125 27.5" fill="none"/></g><g clip-path="url(#clip8)"><text fill="#595959" font-family="Calibri,Calibri_MSFontService,sans-serif" font-weight="400" font-size="41" transform="matrix(1 0 0 1 3393.03 1036)">y = </text></g><g clip-path="url(#clip9)"><text fill="#595959" font-family="Calibri,Calibri_MSFontService,sans-serif" font-weight="400" font-size="41" transform="matrix(1 0 0 1 3450.9 1036)">-</text></g><g clip-path="url(#clip10)"><text fill="#595959" font-family="Calibri,Calibri_MSFontService,sans-serif" font-weight="400" font-size="41" transform="matrix(1 0 0 1 3463.53 1036)">1.9386x</text></g><g clip-path="url(#clip11)"><text fill="#595959" font-family="Calibri,Calibri_MSFontService,sans-serif" font-weight="400" font-size="28" transform="matrix(1 0 0 1 3596.3 1024)">2</text></g><g clip-path="url(#clip12)"><text fill="#595959" font-family="Calibri,Calibri_MSFontService,sans-serif" font-weight="400" font-size="41" transform="matrix(1 0 0 1 3619.56 1036)">+ 9.6564x </text></g><g clip-path="url(#clip13)"><text fill="#595959" font-family="Calibri,Calibri_MSFontService,sans-serif" font-weight="400" font-size="41" transform="matrix(1 0 0 1 3791.53 1036)">-</text></g><g clip-path="url(#clip14)"><text fill="#595959" font-family="Calibri,Calibri_MSFontService,sans-serif" font-weight="400" font-size="41" transform="matrix(1 0 0 1 3813.49 1036)">7.6632</text></g><g clip-path="url(#clip15)"><text fill="#595959" font-family="Calibri,Calibri_MSFontService,sans-serif" font-weight="400" font-size="41" transform="matrix(1 0 0 1 2065.73 2105)">-0.5</text></g><g clip-path="url(#clip16)"><text fill="#595959" font-family="Calibri,Calibri_MSFontService,sans-serif" font-weight="400" font-size="41" transform="matrix(1 0 0 1 2109.66 1994)">0</text></g><g clip-path="url(#clip17)"><text fill="#595959" font-family="Calibri,Calibri_MSFontService,sans-serif" font-weight="400" font-size="41" transform="matrix(1 0 0 1 2078.36 1883)">0.5</text></g><g clip-path="url(#clip18)"><text fill="#595959" font-family="Calibri,Calibri_MSFontService,sans-serif" font-weight="400" font-size="41" transform="matrix(1 0 0 1 2109.66 1771)">1</text></g><g clip-path="url(#clip19)"><text fill="#595959" font-family="Calibri,Calibri_MSFontService,sans-serif" font-weight="400" font-size="41" transform="matrix(1 0 0 1 2078.36 1660)">1.5</text></g><g clip-path="url(#clip20)"><text fill="#595959" font-family="Calibri,Calibri_MSFontService,sans-serif" font-weight="400" font-size="41" transform="matrix(1 0 0 1 2109.66 1549)">2</text></g><g clip-path="url(#clip21)"><text fill="#595959" font-family="Calibri,Calibri_MSFontService,sans-serif" font-weight="400" font-size="41" transform="matrix(1 0 0 1 2078.36 1437)">2.5</text></g><g clip-path="url(#clip22)"><text fill="#595959" font-family="Calibri,Calibri_MSFontService,sans-serif" font-weight="400" font-size="41" transform="matrix(1 0 0 1 2109.66 1326)">3</text></g><g clip-path="url(#clip23)"><text fill="#595959" font-family="Calibri,Calibri_MSFontService,sans-serif" font-weight="400" font-size="41" transform="matrix(1 0 0 1 2078.36 1215)">3.5</text></g><g clip-path="url(#clip24)"><text fill="#595959" font-family="Calibri,Calibri_MSFontService,sans-serif" font-weight="400" font-size="41" transform="matrix(1 0 0 1 2109.66 1104)">4</text></g><g clip-path="url(#clip25)"><text fill="#595959" font-family="Calibri,Calibri_MSFontService,sans-serif" font-weight="400" font-size="41" transform="matrix(1 0 0 1 2078.36 992)">4.5</text></g><g clip-path="url(#clip26)"><text fill="#595959" font-family="Calibri,Calibri_MSFontService,sans-serif" font-weight="400" font-size="41" transform="matrix(1 0 0 1 2109.66 881)">5</text></g><g clip-path="url(#clip27)"><text fill="#595959" font-family="Calibri,Calibri_MSFontService,sans-serif" font-weight="400" font-size="41" transform="matrix(1 0 0 1 2411.21 2048)">1</text></g><g clip-path="url(#clip28)"><text fill="#595959" font-family="Calibri,Calibri_MSFontService,sans-serif" font-weight="400" font-size="41" transform="matrix(1 0 0 1 2916.87 2048)">2</text></g><g clip-path="url(#clip29)"><text fill="#595959" font-family="Calibri,Calibri_MSFontService,sans-serif" font-weight="400" font-size="41" transform="matrix(1 0 0 1 3422.52 2048)">3</text></g><g clip-path="url(#clip30)"><text fill="#595959" font-family="Calibri,Calibri_MSFontService,sans-serif" font-weight="400" font-size="41" transform="matrix(1 0 0 1 3928.18 2048)">4</text></g><g clip-path="url(#clip31)"><text fill="#595959" font-family="Calibri,Calibri_MSFontService,sans-serif" font-weight="400" font-size="46" transform="matrix(6.12323e-17 -1 1 6.12323e-17 2040.04 1625)">Sensor Reading</text></g><g clip-path="url(#clip32)"><text fill="#595959" font-family="Calibri,Calibri_MSFontService,sans-serif" font-weight="400" font-size="46" transform="matrix(1 0 0 1 3035.38 2145)">Sensor Number</text></g><g clip-path="url(#clip33)"><text fill="#595959" font-family="Calibri,Calibri_MSFontService,sans-serif" font-weight="400" font-size="64" transform="matrix(1 0 0 1 2694.24 795)">Sensor Reading of each sensor </text></g><rect x="1939.5" y="700.5" width="2303" height="1514" stroke="#D9D9D9" stroke-width="3.4375" stroke-linejoin="round" stroke-miterlimit="10" fill="none"/></g></svg>